<svg xmlns="http://www.w3.org/2000/svg" fill="none" viewBox="0 0 94 128"><g clip-path="url(#a)"><path fill="#002A10" d="M21.36 0h4.36c7.8 1.28 14.65 7.41 15.93 15.37 1.98 9.72-5.05 20.16-14.87 21.7C16.18 39.45 5.05 30.65 4.8 19.8 3.95 10.08 11.84 1.12 21.36 0ZM43.2 0h6.43c9.15 1.52 17.75 7.09 21.85 15.58 4.36 8.08 2.9 17.5 3.13 26.29.12 9.13-4.25 18.26-11.74 23.54-5.6 4.3-12.75 5.69-19.68 5.54.1-7.74-.07-15.5-.32-23.23.58-15.9.23-31.81.33-47.72Zm31.93 71.65c4.32.06 8.7-.48 12.95.46 3.34.92 5.05 4.2 5.93 7.3v12.03c-.86 3.12-2.62 6.4-5.96 7.33-4.24.94-8.62.36-12.92.45-.04-9.19-.04-18.38 0-27.57Z"/><path fill="#1F893C" d="M.01 70.96C13.88 56.8 28.06 42.97 42.13 29.02c-.03 14 .02 28.01 0 42-14.03.29-28.09.4-42.12-.06ZM0 71.7c18.97.6 37.95-.12 56.92.02-8.2 8.25-16.35 16.54-24.5 24.82-1.27 1.16-2.56 2.73-4.49 2.5-9.3.1-18.62-.02-27.93.02V71.71Zm31.02 27.42c8.74-9.36 18.02-18.19 26.96-27.35 5.48-.03 10.95-.03 16.43 0v27.6c-14.46-.25-28.93-.1-43.39-.25Zm.7.68c9.07-.03 18.15-.05 27.21.02.05 9.39.02 18.78.02 28.17h-28.4c.25-9.4.71-18.8 1.18-28.2Z"/></g><defs><clipPath id="a"><path fill="#fff" d="M0 0h94v128H0z"/></clipPath></defs></svg>