<svg xmlns="http://www.w3.org/2000/svg" fill="none" viewBox="0 0 580 128"><g clip-path="url(#a)"><path fill="#1A90FF" d="m74.16 0 74.16 128H0l15.68-27.06h85.6L74.17 54.12 62.77 73.8H31.41L74.16 0Zm108.56 103.33 30.53-81.02h25.45l30.53 81.02h-22.6l-4.86-14.03h-32.42l-4.86 14.03h-21.77Zm31.71-29.83h22.14l-5.8-17.1-1.19-3.19c-.4-1.38-.84-2.76-1.3-4.13l-1.18-4.48a47.11 47.11 0 0 0-1.19-3.89h-.83a46.4 46.4 0 0 1-1.42 5.07 150.2 150.2 0 0 1-1.77 5.66 150.2 150.2 0 0 1-1.54 4.96l-5.92 17.1Zm75.16 29.83V39.65H263.2V22.31h73.96v17.34h-26.39v63.69H289.6Zm59.5 0V22.31h21.19V86h41.3v17.33h-62.49Zm65.81 0 30.53-81.02h25.44l30.54 81.02h-22.6l-4.86-14.03h-32.43l-4.85 14.03H414.9Zm31.71-29.83h22.14l-5.8-17.1-1.19-3.19c-.4-1.38-.84-2.76-1.3-4.13l-1.18-4.48a47.6 47.6 0 0 0-1.19-3.89h-.82a46.6 46.6 0 0 1-1.42 5.07c-.56 1.89-1.15 3.78-1.78 5.66-.55 1.9-1.07 3.54-1.54 4.96l-5.92 17.1Zm98.24 31.25c-5.13 0-9.94-.47-14.44-1.42a37.17 37.17 0 0 1-11.95-4.36 23.03 23.03 0 0 1-8.05-8.02c-1.97-3.38-2.96-7.51-2.96-12.38V77.5c0-.4.04-.71.12-.94h20.48c0 .23-.04.54-.12.93v.83c0 2.52.63 4.56 1.9 6.13 1.33 1.5 3.19 2.6 5.55 3.3 2.37.63 5.13.95 8.29.95 1.73 0 3.35-.08 4.85-.24 1.37-.13 2.72-.4 4.02-.82 1.19-.4 2.22-.86 3.08-1.42a5.6 5.6 0 0 0 2.01-2.12c.48-.87.71-1.85.71-2.95 0-1.8-.7-3.3-2.13-4.48a15.87 15.87 0 0 0-5.56-2.95 89.46 89.46 0 0 0-7.8-2.24 841.4 841.4 0 0 1-9.12-2.24 68.23 68.23 0 0 1-9.12-2.95 34.11 34.11 0 0 1-7.92-4.48 20.9 20.9 0 0 1-5.57-6.72c-1.34-2.75-2-6.05-2-9.9 0-4.25.9-7.9 2.71-10.97a21.75 21.75 0 0 1 7.46-7.67 34.96 34.96 0 0 1 11.12-4.25 60.58 60.58 0 0 1 13.38-1.41c4.65 0 9 .47 13.01 1.41 4.1.95 7.74 2.44 10.9 4.48a20.9 20.9 0 0 1 7.33 7.56c1.82 2.98 2.76 6.6 2.84 10.84v1.42h-20.35v-.83c0-1.8-.52-3.38-1.54-4.71a9.12 9.12 0 0 0-4.38-3.3 18.29 18.29 0 0 0-7.34-1.3c-2.92 0-5.4.27-7.46.82-1.97.56-3.5 1.34-4.61 2.36a5 5 0 0 0-1.54 3.66c0 1.73.67 3.14 2.01 4.24a18.95 18.95 0 0 0 5.68 2.83c2.37.79 5.01 1.54 7.93 2.25a231 231 0 0 1 9 2.12c3.15.7 6.19 1.65 9.1 2.82a31.13 31.13 0 0 1 7.94 4.37 18.39 18.39 0 0 1 5.56 6.48c1.42 2.6 2.13 5.74 2.13 9.44 0 6.45-1.54 11.64-4.61 15.57-3 3.93-7.19 6.8-12.55 8.6-5.28 1.81-11.28 2.72-17.99 2.72Z"/></g><defs><clipPath id="a"><path fill="#fff" d="M0 0h580v128H0z"/></clipPath></defs></svg>