<svg xmlns="http://www.w3.org/2000/svg" fill="none" viewBox="0 0 286 128"><g fill="#E64213" clip-path="url(#a)"><path d="M220.48 0h16.37c.69.58 1.05 1.66 2.02 1.84 1.15.15 2.17.89 3.37.71a6.63 6.63 0 0 0-2.82-1.23c-.74-.08-1.07-.8-1.48-1.32h1.13c.08.76 1.39.94 1.1 0H244c-.44.79-.95 1.54-1.35 2.35-.3.95-.12 1.98-.26 2.96-2.02.56-4.22-.01-6.3.28-.4 1.77-.63 3.57-1.08 5.33-.13.44-.06.9-.02 1.36-.34.65-.71 1.3-.8 2.03 2.5 1.24 5.13 2.21 7.74 3.2 1.47.92 2.93 1.88 4.52 2.6.62.3 1.58.82 1.17 1.66a11.38 11.38 0 0 0 0 6.3c-.03 2.06.7 4.1.1 6.15.68 1 1.08 2.16 1.8 3.13.72.12 1.4.4 1.95.9.86.2 1.74.35 2.63.3.49-.51 1.08-1.09 1.86-1a10 10 0 0 0 3.38-.13c-.99.9-2.4.91-3.63.72-.66.38-1.3.85-2.06 1-1.12.05-2.22-.23-3.33-.2-.48.69-.78 1.52-1.42 2.09-.53.52-1.22.89-1.65 1.5-.37.72.06 1.53-.03 2.28-.28.63-.87 1.15-.86 1.88 0 .83.22 1.63.34 2.44 1.33-.41 2.44.54 3.67.87l-.56.53c-.44.26-.75-.29-1.08-.48l-.77.17c-.6-.3-1.21-.6-1.82-.88l.44.83c-.07.66-.11 1.31-.13 1.97l.78-.45c-.07.5-.16 1.02-.3 1.5.23.63.51 1.23.83 1.82l-.81.32c.35.4.84.37 1.31.3l.6.2.2-.72c.92.57 1.82 1.2 2.83 1.62.32.1.74.3 1.05.05.95-.78 1.92-1.65 2.36-2.84.49-1.31 1.53-2.3 2.23-3.49a13.4 13.4 0 0 0-2.23-.93c-.22-.6-.39-1.24-.66-1.83-.42-.7-1.02-1.3-1.42-2.01 1.55.66 2.4 2.17 3.4 3.44.93.37 1.85.8 2.84 1.02 1.44-1.1 2.7-2.45 3.9-3.81.24-1.13.07-2.3.08-3.43.53-.04.71-.49.85-.93l-.84-.06c0-3.29-.03-6.58-.01-9.87.66.55 1.43.94 2.29 1.07a8.39 8.39 0 0 0-2.28-1.28l-.01-1.77c1.04.54 2.05 1.15 3 1.86a9.6 9.6 0 0 1 1.78-.18c.3 1.13.73 2.27.63 3.47-.12 1.24.02 2.48.16 3.72a6.93 6.93 0 0 0-.37 2.09c.37.47.64 1.01.58 1.63-.05.89.38 1.67.74 2.45l-.29.91c-1.28.8-1.11 2.47-1.17 3.79.13 1.62-.56 3.52-2.11 4.23-.62.83-1.24 1.68-2.14 2.21l.35.6c.76-.83 1.79-1.38 2.45-2.3l.7-.02c.28-1.03.6-2.1 1.38-2.88l-.21-.63c.22-.58.46-1.16.72-1.73l-.44-.03c.13-.76.16-1.52.1-2.29l.65.08.72-.5c.21.4.49.8.44 1.27-.02 3.98.01 7.96-.02 11.95-2.7-.02-5.41.03-8.12-.03l.17-1.56c.19.35.36.71.54 1.07l.56-.86-.7-.48c.68-.28.61-.87.3-1.4l.1-.6-.68-.76c-.09.6 0 1.27-.33 1.82-.35-.59-.63-1.2-.92-1.82l-.64.07a7.84 7.84 0 0 0-2.3-1.58l-.69.14-.6-1.7-1 1.1c.82.64 1.62 1.31 2.35 2.07.7.73 1.7 1.11 2.34 1.92.16-.28.34-.56.53-.83.43.52.58 1.19.79 1.81-.22.52-.41 1.05-.68 1.54-.44.08-.9.1-1.33.14.03-.88.2-1.88-.79-2.3l-1 .94-.49-1.34-1.1.72.4 1.95a51.6 51.6 0 0 0-1.72 1.71l-.43-.74c-.69 1.33-.4 3.1.97 3.87.12 1.43 1.46 2.45 1.29 3.93.86.68 2.03.5 3.06.71-.62.3-1.22.61-1.78 1l-1.1-.16c-.03 1.08 1.08 1.34 1.81 1.8-.53.78-1.3 1.4-1.58 2.31a9.1 9.1 0 0 0-.46.82c-.05.75.57 1.25 1.06 1.7l-.02 1.92c.47.63 1.22 1.21 1.14 2.08.02 1.25-.03 2.84 1.25 3.51.2.7.45 1.39.77 2.04v.61a16 16 0 0 1 1.42 2.12c.13-.1.41-.28.55-.37.13.59.25 1.17.35 1.76l-1.27-.2c.37.26.74.51 1.13.76.21.7.36 1.45-.08 2.1a30.2 30.2 0 0 1-.33-1.86l-.3 1.33c.74.79.58 1.9.65 2.9l-.85-.31.62 1.59c-.9 1.14-.86 2.67-1.6 3.89-.43.74-.9 1.46-1.35 2.2.87 1.25 2.72 1.85 2.84 3.53a3.1 3.1 0 0 0 1.7-.11c.33.41.63.84.91 1.29-.84-.23-1.68-.48-2.56-.46-.42-.5-.8-1.03-1.14-1.58l-.78-.17-.15-.58a8.93 8.93 0 0 1-1.5-1.6l.6-.87-.62-.02.97-.6-.98-.55.57-.06-.04-.65c.64.01.88-.45 1.02-1 .19-.07.39-.12.6-.16l-.36-.04c-.41-.5-.48-1.16-.5-1.8.3.38.58.76.86 1.15.6-.84-.68-1.47-.32-2.32.34-1.02.4-2.13-.12-3.11l.4-.95c-.26-.36-.54-.71-.72-1.12.05-.55.28-1.06.49-1.57-.51-.66-1.02-1.3-1.56-1.93-.86-.96-1.05-2.3-1.77-3.35-.64-.91-.46-2.1-.92-3.06-2.12.54-4.31.88-6.3 1.84a13.8 13.8 0 0 0-3.85.98c-.1.39-.2.78-.28 1.17l.56.58-1.43.9c-1.18.65-1.64 2-2.63 2.86l.26-1.23-1.3.97c.34.36.7.7 1.04 1.05l.93-.36c-.24.78-.62 1.52-.73 2.33.13.42.44.75.7 1.11l-.28-1.42c.34.4.69.8 1.01 1.22-.53 1.37.1 2.87-.58 4.2-.28.1-.55.22-.82.33l.14.91c.04.51.12 1.01.22 1.52.66.61 1.55 1.18 1.7 2.14-.01 1.04-.32 2.05-.59 3.05-1.36-.48-1.52-2.1-1.75-3.32-.07-1.83-1.39-3.32-1.25-5.18.26-.72.45-1.47.6-2.22a2.63 2.63 0 0 1-.7-2.38c.17-.63-.42-.93-.85-1.21a49 49 0 0 1-.51-.66 8.1 8.1 0 0 1-1.8.36l-.23 1.03c.13 1.1.1 2.2.19 3.3l.68.2.46.68-.08-1 .37-1c-.2.24-.41.5-.6.76l-.2.06c-.08-.6-.32-1.22-.22-1.83l.31-.22a3.1 3.1 0 0 0-.13-.73c.08-.3.37-.61.7-.5.47 2.56 1.4 5.02 1.83 7.6a8.74 8.74 0 0 0-1.5 1.9c-.84-1.59-1.03-3.39-1.15-5.14l-.49.07c-.14 2.13.66 4.16 1.42 6.1l-.05 1.15c.9-.28 1.9-.6 2.8-.2.33.7.49 1.48.71 2.24l-1.63-.66.03-1.2-1.37.97-.44-.9-1.2 1.16-.73-.67.03.96-.93.41-.7-.62-.47 1.05 1.1.08a7.01 7.01 0 0 0-2.64 2.46c-.62.97-.39 2.2-.79 3.24-.23.51-.66.9-.98 1.34.59-.11 1.17-.3 1.73-.53.09-.55.2-1.09.3-1.63-.1-.3-.2-.6-.27-.9.33-.6 1-.88 1.57-1.2l.2-.8 1-.63-.06-.73.64-.02c.94-.79 2.21-.74 3.33-1.05l-.1.94c.66-.22.53-.81.45-1.34.55.25 1.08.53 1.58.87l.54.13c1.09 4.38 2.27 8.73 3.41 13.1-1.25.08-2.51.08-3.77 0l.45-1.04-.2-.64c.5-.73.6-1.6.6-2.45-.32-1.36.62-2.69.1-4.03.02 1.4-.99 2.67-.6 4.06-.38 1.36-.38 2.82-.92 4.14-3.07.03-6.14.01-9.21.01-.52-1.9-.84-3.83-1.35-5.73l.34-.82c-.77.42-1.6.76-2.5.67-2.18-.1-4.37.05-6.56-.03-.66.14-.84-.56-1.12-1 .29-.45.57-.9.84-1.36-.42.31-.83.64-1.23.98-.58-.68-1.06-1.43-1.61-2.14-.07 1.44 1.31 2.1 1.91 3.22-.67 2.02-.92 4.14-1.45 6.2-4.5-.02-9 .07-13.5-.02l3.65-14.1c.47-1.83-.48-3.56-.75-5.34.31.23.65.43.93.7.17.67.17 1.37.27 2.05a6.3 6.3 0 0 0 .7-1.79c.64-2.67 1.36-5.32 2.03-8-.26-.3-.51-.62-.76-.94l1.36-.02-.55-.55c.81-.83.83-2.07 1.15-3.12 1.34-5.31 2.76-10.6 4.1-15.92-1.13.19-2 1.06-3.15 1.27-.96.4-1.99.3-3 .23-.9.5-1.3 1.55-1.9 2.35l-.56-.43c.4-.78.94-1.48 1.35-2.26-1.1.8-2.08 1.79-2.94 2.84.42-.1.85-.24 1.3-.29.05.34-.07.66-.12.99-.63.13-1.25.29-1.87.46a3.73 3.73 0 0 1-2.42 1.63c-.03.84-.03 1.7.21 2.53a2.96 2.96 0 0 0-2.1-.05 9.88 9.88 0 0 0-4.32.04c-.1 1.12-.02 2.23-.02 3.34l-1-.88c.25-.97.41-1.96.53-2.95-.66.47-.78 1.27-.85 2.02l-1.02-.14c.59 1.02 1.54 1.72 2.25 2.65.16.77.06 1.57.08 2.35-.02 6.22 0 12.43 0 18.65h6.2c.09 3.7-.01 7.4.04 11.1-.02.52.05 1.07-.12 1.57-3.68.1-7.37.02-11.06.03-.15-1.06-.23-2.2.33-3.16.84-1.75-.32-3.5-.78-5.16l-.9-.07.53-.94-.95-.66.16-.7-.38-.88-.66.22c.04-1.5 0-3.04-.6-4.44l.82-.14c1.17-1.36 1.42-3.21 2.12-4.8.42-.7.99-1.39.59-2.23 1.13-2.45 1.2-5.2 1.67-7.81.43-1.38.81-2.78.96-4.22l-.43.18c-.28 2.15-1.18 4.16-1.27 6.34-.4 1.51-.3 3.14-1 4.57-.53 1.12-.36 2.63-1.53 3.38l-.32 1.07.47.78c-.28-.06-.56-.15-.84-.22a6.94 6.94 0 0 1-1.85 3.02c-.15.93.33 2.6-.99 2.76a5.94 5.94 0 0 1 .15-3.06 3.05 3.05 0 0 0-1.25 2.65l-1.62-.53-.72.16c0-5.5.04-11.01-.02-16.52-.28-.46-.7-.93-.6-1.52.2-1.78-.5-3.47-.66-5.21.1-.3.22-.6.36-.9-.47.02-.95.03-1.43.03-.94-1.01-2.32-1.18-3.63-1.05.3.71 1.07.42 1.65.38.39.21.77.44 1.16.67-1.04.04-2.08.03-3.12-.02l-.06-1.3-.95.58.05-.7-.6-.4c.46-.4.99-.7 1.5-1.01l.04-.75-.8.25c1.19-1.5.62-3.45.94-5.2-.2-1.36-.16-2.74-.16-4.1.67-.02 1.34-.02 2.02-.01l.17.61.28-.57c1.82-.19 3.67.1 5.49-.19.56.08 1.11 0 1.66-.15.67.17 1.36.31 2.06.3 2.41-.02 4.82-.02 7.24-.01-.41 1.64-.13 3.37.2 5.01-.35.92-.77 1.85-.75 2.86.03.74.23 1.46.26 2.2l-.7.31c.22.69.47 1.4 1 1.92l.17-.93c-.33-.6-.26-1.17.22-1.64-.02-.55-.05-1.12.19-1.63l-.47-.74c.28-.55.57-1.1.9-1.64l-.3-1.1c0-.56 0-1.12-.04-1.68l.17-.76c-.32-.63-1.08-1.46-.31-2.09 2.1-.13 4.21-.1 6.32-.07.02 2.65 0 5.31 0 7.96l.64-.58c.62-.09 1.25-.17 1.88-.22-.24-.4-.48-.8-.7-1.21 1.06-.51 1.76-1.64 2.98-1.84 1.04-.4 2.12.33 3.15-.07.96-.27 1.93-.52 2.9-.8 1.24-.29 2.43-.79 3.56-1.41l-.6-1.14c-2.83-3.02-5.87-5.85-8.73-8.86.12-.75.2-1.52.21-2.28-.42.53-.42 1.22-.52 1.86-4.62-.05-9.24.04-13.86-.03-.55-.53-1.31-.9-1.62-1.64-.14-1.3-.13-2.66-.67-3.9-.18-.53-.63-1.07-.29-1.65a7.32 7.32 0 0 0-2.59-2c-1.4-.6-2.12-2.03-2.97-3.22 2.55.05 5.1-.13 7.64.11 1.04-.11 2.08-.13 3.12-.16-.01-.9.1-1.8-.13-2.68-.45.1-.89.23-1.33.35.23-.67.78-1.07 1.44-1.28l.02-3.51c-4.26-.15-8.52.02-12.78-.07-.82.01-1.76-.11-2.43.46-.17 2.22.03 4.45-.09 6.67.2-.03.4-.05.62-.06.65.24 1.26.11 1.7-.45l.65-.11c.44-.19.89-.36 1.35-.5-.26.8-1.13.91-1.81 1.18 1.8-.1 2.07 2.08 3.33 2.93 1.14.72 2.44 1.38 3.08 2.63.32.72.68 1.43.9 2.2.2 1.1.07 2.25.28 3.36.1.73.87.99 1.37 1.4-2.4-.07-4.82 0-7.22-.02l-.98 1.02-.15-1c-5.5-.06-11 .02-16.5-.05 0-3.59.02-7.18 0-10.77-.23-.29-.46-.57-.67-.87.3-.25.63-.46.94-.68l.16-1.03-.74-.97c.41-.75.6-1.58.7-2.42l-.59-.45c-.37.23-.72.47-1.1.68.3-.71 1-1.02 1.65-1.3l.1.57c1.17.23.4 1.69.48 2.48l.73-.98.93.37c-.2-.34-.4-.67-.62-1l-.28-4.1-.68-.91c.09-.24.17-.47.27-.7-.1-.4-.21-.79-.25-1.2.25-.5.88-.6 1.34-.86.43-.62.88-1.22 1.44-1.73l-.72-.68c.54-1.2 2-2.26 1.36-3.7.2-.42.43-.83.65-1.24.93.1 1.86.29 2.8.34.4.08.7-.22.94-.49-.92-.4-1.9-.6-2.9-.71l-.54-.85c-.35.26-.73.47-1.1.06l.56-.5c-.79-1.03-1.2-2.33-1.59-3.56.17-.09.5-.25.65-.34-.1-.75-.18-1.54-.6-2.2l-.1 1c-.49-.92-1.5-1.56-1.58-2.65-.15-.8-.2-1.64-.62-2.35l-.03.92c-.15 0-.46-.04-.62-.06l.59-.2-.96-.8c.02-2.28-.02-4.55.03-6.82 3.15.02 6.3-.09 9.45.04.88.78 1.68 1.7 2.03 2.84l1 .88 1.19-.16a9.1 9.1 0 0 1-.34 2.87l.7.69-.04.97c.38.55.73 1.1 1.07 1.69.42-.3.84-.6 1.25-.92.38.42.76.85 1.12 1.3.56.18 1.1.39 1.66.59l-.62-.73a22 22 0 0 0 2.6-.9c.82 1.02 1.65 2.06 2.82 2.7-3.5.05-7.01-.04-10.52.05-.05 2.02.2 4.06-.18 6.06l.1.56-1.15-.47-1.54.65-.41-.62.21.66c-.51.08-1.02.19-1.5.37l.64.5.85-.38.1.76.18-.06.25-.75c1.78-.5 3.62.15 5.44-.03 1.2.9 1.1 2.52 1.63 3.8a14.8 14.8 0 0 1 1.92 2.32c.84 1.11 2.47.55 3.45 1.45 1.65 1.22 3.53 1.98 5.4 2.8l.2-.39-.57-.74-.82.1-.52-.56-.82.06c-.5-.38-1-.75-1.5-1.1l-.08-.57c-.7-.37-1.38-.85-2.2-.9-.67-.16-1.54-.03-1.97-.68-.54-.71-1.06-1.45-1.7-2.09a12.41 12.41 0 0 1-1.24-3.5c3.7-.04 7.42.07 11.13-.06l-.05-2.73a9.27 9.27 0 0 0 3.24 1.85c1.02.34 1.52 1.37 2.22 2.12.04 2.72-.06 5.44.06 8.16l-.38.37c.16.43.34.87.33 1.33 0 2.37-.03 4.75.02 7.12 2.65 2.67 5.4 5.27 7.94 8.04-.81.03-1.83-.55-2.5.07.93.33 1.93.33 2.9.24 2.7 2.66 5.35 5.36 8.03 8.03.55.67 1.5.54 2.27.58 3.32-.11 6.63-.06 9.95-.06l.46.77c.06-.73.65-.81 1.24-.82.5.86 1.29 1.47 2.07 2.06l.04-.7c.29-.24 1.3-.18.9-.77l-.93.01-.49-.52c1.8-.08 3.59 0 5.38-.05.5 0 .87-.38 1.28-.6.32.2.64.42.96.65.67-.07 1.4-.16 1.88-.7 1.3-1.34 2.67-2.62 3.94-4-1.04.45-2.16.65-3.25.97-.2.34-.34.71-.5 1.08-1 .3-2.02.54-3.06.68.35-.9 1.37-1.08 2.14-1.47-.12-.54-.25-1.1-.34-1.64.4.38.7.82 1.01 1.27l.78-.72c-.34-.5-.82-1-.5-1.65-.53-.34-1.06-.65-1.6-.95.6-1.25.26-2.62-.1-3.88-.96.2-1.94.26-2.93.25a43.5 43.5 0 0 0-.34-.64c.4-1.12.26-2.3.16-3.44.26-.86 1.04-1.46 1.49-2.23a19.5 19.5 0 0 1-.43-1.87c.91-.8 1.87-1.53 2.76-2.35l-.08-.62c.8-.22 1.47-1.06 1.13-1.9-.68-.39-1.42-.67-2.11-1.03a1.9 1.9 0 0 0-.58-2.4c.4-1.1.91-2.21.88-3.4-.11-.87-.44-1.7-.4-2.59.04-2.34-.12-4.67-.08-7-1.39-1.41-3.49-1.73-5.27-2.42-1.06-.39-1.64-1.46-2.62-1.95a272.8 272.8 0 0 0-6.17-2.45c-.22-.67.36-1.22.53-1.84.42-1.47.41-3.05.96-4.5.54-1.39.54-2.89.68-4.35-3.55-.04-7.1-.04-10.65.03-1 1.02-2.02 2.02-3.01 3.04l-1.19-.93-.8.2-.45-.82c-1-.14-1.96-.47-2.83-.96 2.04-2 4.1-4.01 6.07-6.1Zm15.85 2.59c-.35.37.22 1.04.61.66.42-.37-.22-1.1-.61-.66ZM220.28 5.5c.96.04-.44.84 0 0Zm-46.72 11.62c.52.5.96 1.07 1.52 1.53-.22-.77-.65-1.44-1.04-2.13l.1-.86a5.1 5.1 0 0 0-.58 1.46Zm71.9 5.24c.83-.44.03.96 0 0Zm-57.52 8.25c-.17.48.79 1.06 1.07.61-.12-.4-.67-.8-1.07-.61Zm76.38 4.07c-.14.87.85 1.02 1.48 1.06-.3-.57-.92-.81-1.48-1.06Zm-62.27 2c-.2.7-.62 1.3-.96 1.92.64-.32 1.26-.79 1.37-1.55 1.07.05 2.14 0 3.2.22-.69-1.05-2.07-.6-3.11-.64l.12-1.14c-.42.25-.46.76-.62 1.18Zm-6.73-.41c-.03.6.3 1.13.9 1.29-.2-.5-.5-.94-.9-1.3Zm-21.7 1.36c-.13.46.03.62.5.48.13-.46-.03-.62-.5-.48Zm28.04 1.1c-.44.3.12.95.51.67.45-.3-.11-.96-.5-.66Zm-25.16 1.78c-.16.45 0 .6.49.48.16-.45 0-.6-.49-.48Zm-1.72 3.25c-.24.9.86 1.11 1.49 1.3-.32-.6-.9-.99-1.49-1.3Zm27.06 1.5.22.33a6 6 0 0 0 2.4-.53 9.8 9.8 0 0 0-2.62.2Zm-25.46.1c.41.64 1.26.94 1.4 1.76.04.54.63.54 1.03.41-.53-.5-.87-1.13-1.26-1.73-.35-.24-.78-.31-1.17-.45Zm2.3 2.79c1.02 1.22 1.5 2.88 2.98 3.66.38.45.69-.03.88-.34-1.29-.14-1.9-1.33-2.48-2.33-.48-.3-.93-.64-1.37-1Zm85.63 2.02c-.35 0-.64.7-.15.68.34 0 .64-.7.15-.68Zm.88.34c-.19.37.24 1.12.7.88.32-.38-.28-1.08-.7-.88Zm-82.24.92c.85-.11 1.94.3 2.61-.39-.63-.55-2.2-.47-2.6.4Zm2.98-.67c.95.04-.45.85 0 0Zm.88-.04c-.12.44.06.6.54.47.12-.45-.06-.6-.53-.47Zm71.58.07c-.27.13-.65.75-.19.87.5.07.89-1.12.2-.87Zm-2.33 4.47c-.15.47 0 .63.47.5.15-.48 0-.64-.47-.5Zm8.3 0c.86-.44.04.96 0 0Zm-16.27 1.9.38.9-.18.89a6.83 6.83 0 0 0 2.06-1.04 35.8 35.8 0 0 0-2.26-.76Zm-72.22.75c-.33.3-.02 1.12.45.97.25-.31-.02-1.04-.45-.97ZM255.48 59c.87-.38-.02.97 0 0Zm-38.1 2.06c.97.07-.45.84 0 0Zm5.19 2.6c.17.11.17.11 0 0Zm26.84 4.51c-.27.2-.48.57-.85.54-1.82.05-3.63.02-5.45-.02l-.47-.92c-.53-.2-1.22-.22-1.57-.73a8.62 8.62 0 0 0-1.32-1.51c-.3.42-.6.83-.83 1.3a6.64 6.64 0 0 1 2.64 1.91c-.45.01-.88 0-1.32-.06-.42-.32-.72-.75-1.09-1.12.1.4.23.8.37 1.2-1.6-.02-3.2-.08-4.8-.02 1.14 4.75 2.5 9.45 3.67 14.2.13.55.3 1.1.54 1.63l.56-.65.45.25a3.99 3.99 0 0 1 2.7-.32c.42-.37.9-.37.87.3-.7-.03-1.03.6-1.5 1-.96.16-1.98.08-2.88.51l.2.81-.64.1c1.3.52 1.17 2.05.69 3.12.5.05.98.18 1.47.3.13-.84-.4-1.63-.52-2.45.72-.36 1.53-.43 2.29-.69.92-.5 1.58-1.34 2.44-1.93.2-.88.19-1.8.48-2.66.9-.54 2.13-.44 2.85-1.27l-1.11-.1c.34-.1.68-.2 1.04-.28l.49-.36c.54-.03 1.06-.17 1.4-.63.44-.6 1.22-.51 1.87-.56-.85.74-1.79 1.5-2.92 1.72-.13.31-.25.62-.36.94.66-.09 1.36-.16 1.92-.56.25-.41.4-.94.89-1.15l-.25 1.04c1.1-.46 2.3-.68 3.47-.87.09-.38-.04-.88.28-1.19.7-.23 1.44-.27 2.16-.45-.8-1.05-.67-2.42-1.2-3.58-.53-1.2.37-2.33.85-3.37-.43-1.42-1.11-2.77-1.35-4.25-.45-.78-.8-1.61-1.18-2.42l-.26-1.42c-1.65 1.48-3.14 3.12-4.72 4.67Zm-9.39-3.14c.17.15.17.15 0 0Zm-17.42 3.12c-.24.3.1.97.49.74.26-.3-.1-1.01-.5-.74Zm1.7 1.5c.16.14.16.14 0 0Zm-26.66.3c.96 0-.41.87 0 0Zm-3.62 1.66c-.14.47.02.63.48.49.15-.47-.01-.63-.48-.49Zm23.08 1c.16.14.16.14 0 0Zm10.29-.06c-.17.46-.02.62.45.48.16-.46.01-.62-.45-.48Zm30.64.7c.37.09.64-.52.5-.82-.37-.1-.65.5-.5.81Zm-30.88.7c-.18.42.1.78.29 1.14.5-.37.52-1.3-.29-1.14Zm7.24.8c-.12.41.03.55.42.42.1-.4-.03-.54-.42-.41Zm-2.6.88c.12.18.12.18 0 0Zm1.89 1.8c.95.03-.45.85 0 0Zm2.26.81c.95.09-.5.82 0 0Zm-2.2.77c.84-.46.06.96 0 0Zm-37.52 1.19c-.13.46.03.63.5.5.13-.46-.04-.63-.5-.5Zm26.1.61c.13.17.13.17 0 0Zm-26.84.69-.5 1.23.67-.05v.24c-1.43-.03-2.86.15-4.27-.16-.74.98-2.11 1.32-2.67 2.46l.58-.2.31-.43c.64-.06 1.06-.58 1.56-.92l.26-.48c1.6.28 3.23.4 4.86.5.28-.44.71-.24 1.1-.1l.54-.4c-1.1-.08-1.76-.94-2.44-1.7Zm-8.05 1.96-.05 1.34.88-.13a7.32 7.32 0 0 0-.83-1.21Zm6.88 1.03c.8-.5.11.96 0 0Zm2.79.07c-.2.35.06.84.38 1.03.52-.1.1-1.24-.38-1.03Zm-9.7.78c-.18.4-.05.52.36.38.17-.4.05-.53-.37-.38Zm51.18 2.84c-.14.46.02.6.49.43.14-.47-.02-.62-.49-.43Zm-11.07.58c.85-.44.03.96 0 0Zm-7.23 2.1c-.45-.03-.62.76-.07.7.43.04.6-.76.07-.7Zm41.86-.1c-.14.39-.01.55.38.47.14-.4.02-.56-.38-.48Zm-34.58.36c-.21.98-.4 1.96-.62 2.93-.7.05-1.44.37-2.12.05-.76-.24-1.47-.7-2.28-.75.2.61.86.84 1.42 1.02.92.26 1.83.59 2.72.95-.5 2.26-.93 4.52-1.45 6.77 1.76.07 3.53.08 5.3.04-.36-1.84-.81-3.67-1.2-5.5a27.7 27.7 0 0 1 4.46 2.12c-.2-.42-.23-1.14-.83-1.18-.66-.1-1.3-.34-1.33-1.1-.55.11-1.14.37-1.63-.04-1.5-1.22-1.24-3.34-1.88-5l-.56-.3Zm-8.49.74-.88.9 1.1.67-.22-1.57Zm1.09 1.22c-.13.45.04.6.51.46.13-.46-.04-.62-.51-.46Zm16.53-.08c-.1.7-.16 1.57.76 1.67.3-.66-.33-1.25-.76-1.67Zm-3.26 1.47c-.13.46.04.63.5.5.12-.47-.05-.64-.5-.5Zm4 1.44c-.11.58-.17 1.17-.24 1.75a3.9 3.9 0 0 0 .96-1.62c-.2-.23-.46-.33-.72-.13Zm25.52.38c-.38.07-.49.81-.04.86.4-.05.52-.85.04-.86Zm-44.3.25c.84-.43 0 .96 0 0Zm17 1-1.22.67c.73-.06 1.42-.3 2.06-.64l-.58-.72c-.06.17-.2.51-.25.68Zm-18.97.37c.11.9-.47 2.16.31 2.8-.13-.9.38-2.07-.3-2.8Zm22.32 2.93c-.07-.72.15-1.68-.45-2.2-.42.74-.3 1.73.45 2.2Zm-16.16-.83c.75-.6.22.93 0 0Zm-30.3.65c-.26.34-.2.55.18.6.26-.34.2-.54-.17-.6Zm43.17.47c-.36.22-.36.42.01.6.36-.21.35-.41-.01-.6Zm-44.1.38c-.28.26-.02 1 .4.86.25-.27 0-.95-.4-.86Zm43.8 2.28c-.34.27.05.97.44.69.3-.28-.06-.95-.45-.69Zm-1.05 1.08c-.28.58.27 1.26.75 1.57-.23-.49-.13-1.36-.75-1.57Zm-15.17.58c-.3.29.1.94.48.71.3-.29-.1-.95-.48-.7Zm12.2.36c-.13.4 0 .54.4.41.14-.4 0-.54-.4-.41Zm7.77.49c.81-.48.07.96 0 0Zm-13.27 1.34c-1.22.42-1.48 1.7-1.73 2.8.79-.13.87-.92.83-1.57.62-.6 1.33-1.1 1.9-1.75-.44-.04-.74.2-1 .52Zm5.24.42c-.36.3.17.88.53.65.33-.3-.18-.86-.53-.65Zm-10.23.14c-.16.35.3.9.66.75.16-.34-.28-.97-.66-.75Zm18.74.42c.96 0-.4.87 0 0Zm-9.88 1.06c-.12.48.04.65.49.52.12-.48-.04-.66-.49-.52Zm11.12 2.38c-.16.47 0 .63.46.49.15-.47 0-.63-.47-.5Zm-4.3 2.92c-.18.4.36 1.02.79.83.15-.38-.4-.95-.78-.83Zm.86 1.87c-.16.46 0 .6.47.46.16-.46 0-.62-.47-.46Zm.84 1.2c.19.11.19.11 0 0Z"/><path d="M245.25 0h3.5c2.88 2.78 5.67 5.65 8.5 8.47.28.25.57.58 1 .54 1.4.06 2.81-.02 4.23.02-.1 1.2-.4 2.46.08 3.62.64 1.57.8 3.53-.17 5a6.87 6.87 0 0 0-.87 2.78 28.4 28.4 0 0 1-2.15-2.07c-4.04-4.07-8.13-8.09-12.14-12.18-.89-1.1-2.43-.52-3.63-.64l-.66-1.8a2.69 2.69 0 0 0 1.15-2.25L245.25 0Zm-33.74 9.02c.9-.87 1.7-1.85 2.7-2.61a18.6 18.6 0 0 1 4.13 2.43l-.05 1.13-.61.76-.48-.42-.44.4.45.47c-1.07.85-1.94 1.9-2.95 2.8-2.5-1.05-3.84-3.6-6.1-4.96h3.35Zm-142.56.05c2.75-.12 5.5-.02 8.26-.05.98.01 1.96-.08 2.92.07.67.9-.45 2.07.13 3.03.53.98.82 2.06 1.16 3.13.4 1.36-.09 2.79.1 4.18a8.96 8.96 0 0 1 1.92 4.6c0 .49.3.86.6 1.2a4.3 4.3 0 0 0-.97-3.62l.67-.47c-.53-.69-1.24-1.19-1.86-1.78.07-.78.28-1.54.46-2.3l-.22-.74.25-.58c-.4-.65-.78-1.32-1.16-1.98l.67-.54a2.61 2.61 0 0 1-1.27-1.46c-.38-.62.2-1.23.42-1.8l-.4-.95c6.7.05 13.42-.06 20.13.06 0 1.5-.01 2.99.01 4.48l-.9.47c.32.75.87 1.45.88 2.3.04 1.05.03 2.1 0 3.14.06.8-.52 1.42-.92 2.05-2.75 0-5.5-.03-8.25.02 0 2.32-.02 4.65.02 6.96-1.1-.44-2.5-.29-3.27-1.34a1.96 1.96 0 0 1-1.87-.67c-.47-.02-.93-.06-1.4-.09l.9-.72c-.5-.01-1 .06-1.48.15l.52.83-.08.68c.83.1 1.65.25 2.44.54l.69-.07c1 .73 2.23.95 3.42 1.19.08.35.12.71.12 1.07-.01 7-.03 14 0 21l-.49.5.5.5a89.47 89.47 0 0 0-.03 3.28l.5-.97.58.31 1.34-1.41c.18-.6.41-1.17.64-1.74.11-.5.01-1.19.54-1.47.49-.14 1-.17 1.5-.24l.58.58.5-.58.6.28c.66-.17 1.32-.3 1.99-.4-.22-.58-.46-1.16-.71-1.73 1.11-.57 2.32-1.1 3.08-2.14.5-.56.67-1.37 1.2-1.9.68.07 1.4.5 2.06.23l.14-.78 1.6.09.24-.68.72-.44-.3-1.7a17.89 17.89 0 0 1 3.94-1.74l.2-1.03c.69.32.28.98.14 1.5-1.43.14-2.75.8-3.55 2.02.08.43.14.85.18 1.28-.3.52-.74.94-1.14 1.38l-1.47.12c1.1.86 2.47 1.23 3.8 1.6l.5.58c.3-.05.6-.1.9-.17.44-.47.94-.86 1.41-1.29.17-1.07.06-2.16.12-3.24 1.53.6 3.18.8 4.74 1.33.72.32 1.84 0 1.9-.89-.53.23-1.03.74-1.64.47-1.65-.51-3.37-.76-5.05-1.19.01-6.62.05-13.24-.02-19.86-3.06-.05-6.13.04-9.19-.05V11.29c1.13.36 2.26.74 3.45.86 1.43.09 2.52 1.2 3.94 1.36 1.83.59 3.74.2 5.6-.04-1.49-1.2-3.5.48-5.07-.51-.9-.5-1.87-.82-2.81-1.22-1.58-.73-3.35-.82-5-1.32-.18-.43-.1-.91-.16-1.36 3.33-.09 6.65-.03 9.97-.03.83 1.08 2.14 1.65 2.97 2.71.45.97.14 2.21.85 3.09.67.65 1.73.67 2.39 1.33.65.57.91 1.54 1.72 1.95.74.2 1.53.1 2.28.03-.95-.57-2.23-.28-3-1.18 1.22.17 2.5.23 3.56.92.67.46 1.64.61 2.1-.22l-1.02.34c-.96-.44-1.85-1.1-2.93-1.17a6.2 6.2 0 0 1-2.04-.64c.12-.32.22-.65.3-.98a9 9 0 0 0-.66-.57c-.73-1-1.78-1.68-2.58-2.6l.1-.87a8.07 8.07 0 0 0-2.03-1.16l-.67.18-.75-1.17c6.12 0 12.23.03 18.34.02.62-.17.87.41 1.12.85l-.02-.86 1.04.2.8-.25c0 3.83.03 7.65.02 11.47l-.82.03 1.03.84c-3.1.43-6.26.05-9.38.21-.04 6.45.06 12.9-.06 19.34.48-.9 1.09-1.71 1.75-2.48l-.7-.51a2.34 2.34 0 0 1 2.36-.59c.94-.26 1.9-.31 2.87-.31l.54-.68c.87.12 1.73.32 2.6.43 1.17.18 2.28-.33 3.36-.72l.02-1.39.76-.21c-1-1.06-.8-2.52-.76-3.84l1.38-.12c-.56-.61-1.5-1.14-1.4-2.09 0-6.12.02-12.24 0-18.36l.91-1.12c1.24.75 2.4 1.64 3.72 2.28.83.4 1.5 1.07 2.34 1.45a6.44 6.44 0 0 0-1.7-1.47c-1.1-.6-2.01-1.43-3.04-2.1 3.94 0 7.88 0 11.83-.02.12 2.69.01 5.38.06 8.07l-.54-.62-1.38.42c.62.23 1.26.42 1.9.6.03 8.81 0 17.63.02 26.45.93-.35 1.84-.74 2.78-1.06-.34 1.23-1.8 1.36-2.8 1.82l.03 1.38c1.04.03 2.03-.46 3.07-.27 1.6.27 3.23.17 4.8.59 1.01-.49 2.15-.33 3.24-.35 1.03.02 2.07-.05 3.1.06.09.37.12.75.17 1.13.85.14 1.7.3 2.54.49l-.65.76c-.66.04-1.3.09-1.96.16v8.78c-.4-.51-.8-1.03-1.25-1.5.14.87.81 1.46 1.2 2.2.08.53.06 1.06.08 1.6-1 .01-2.02.03-3.02.06l.74-1.23c-.68.41-1.23 1.22-2.1 1.2-4 0-8-.02-12.02 0-.73.04-1.56-.16-1.98-.82-.2-.47.06-.98.1-1.46l-.2-.75c.08-1.08.24-2.16.14-3.24a9.4 9.4 0 0 0-2.04 1.38c.7 1.6 1.47 3.21 1.51 5a4.78 4.78 0 0 1-1.48-.57l.34-.14-.08-1.29-.31-.04c.03.7.04 1.41.04 2.12-.86-.78-.57-2.21-1.59-2.85.16.9.47 1.75.76 2.62-2.4.07-4.82.03-7.23.03-.09-2.66-.02-5.33-.05-8 .59-.15 1.18-.28 1.74-.48.3-.26-.08-.58-.14-.86-.54-.17-1.07-.36-1.6-.54.03-1.17.05-2.35-.15-3.5l.2-1.59-.94-.88.65-.4-.36-.57c1.07-1.94.46-4.23.59-6.33-.64.28-1.25.64-1.93.8-1.05.1-2.1-.17-3.14-.1-.45.11-.41.7-.6 1.03a6.8 6.8 0 0 0-1.91.5c-.64-.2-1.27-.42-1.9-.68-.53 1.25-1.45 2.27-2.04 3.48-.4.27-.9.44-1.14.88-.15 1.13-.04 2.28-.04 3.42-.48-.1-.94-.2-1.42-.28l-.47-.48-.33 1.03c.78.43 2.33.4 2.2 1.61-.01 3.99.04 7.97-.03 11.95-2.36.11-4.77-.28-7.1.24l-.38-.24c-1.97-.02-3.93.02-5.89-.03-.03-4.37.03-8.74-.03-13.1-.5.13-1.01.28-1.52.43-1.3-.4-2.56-.86-3.83-1.33-1-.16-2.1.05-2.9-.74a5.9 5.9 0 0 0-.87 1.07c-.72.68-1.34 1.46-2.1 2.1-.41.37-.88.77-.97 1.36.12.67.34 1.31.5 1.97a2.8 2.8 0 0 1-1.09-1.26c-.4.39-.83.73-1.3 1.02l-.66-.57-.54.23c-.97-.17-2.05-.2-2.7.67a5.47 5.47 0 0 1-2.05 3.64c-.33-.04-.66-.09-1-.08-.98 1.16-.72 2.75-.72 4.15 3.12.07 6.25 0 9.38.04.48-.7.97-1.39 1.29-2.17.29-.77.27-1.6.53-2.38.26-.55.64-1.03.98-1.53l-.46-.9 1.31-.38c-.17.75-.25 1.52-.47 2.25-.4.72-1.16 1.29-1.15 2.18-.03 1.03-.36 2-.84 2.9l1.1.08c-.4 1.77-.4 3.6-.33 5.4a50.5 50.5 0 0 1-5.22.04c-.76.9-1.33 2.08-2.49 2.5-1.22.45-2.47.85-3.7 1.27l.3-.76c-.9-.03-1.8-.02-2.7-.11.53-.46 1.21-.48 1.86-.39a9.26 9.26 0 0 0 4.4-.8c.68-.43 1.17-1.09 1.71-1.66-2.52-.02-5.05 0-7.57-.02-1.16-.08-2.26.61-3.4.31-1.6-.47-3.27-.3-4.9-.3-.5-.06-.89.27-1.27.53.7.45 1.53.85 1.76 1.73-.76-.34-1.49-.76-2.2-1.19l-1.7 1.67c-.32-.77-.54-1.64-1.24-2.17.17.9.68 1.78.56 2.71-.52.82-1.29 1.44-1.98 2.1-.5.08-.86.37-1.02.86l-.75-.96c-.36.5-.66 1.03-.92 1.59l1.4-.3c-2.3 2.61-4.88 4.97-7.32 7.45l.12-1.23.56-.69-.64-.18c-.7 1.02-1.39 2.1-1.53 3.37 0 .57-.67.65-1.09.8-.64.22-1.27-.16-1.88-.34-.25.52-.54 1.07-.36 1.67.23-.45.47-.89.72-1.32l1.28.76c-.02 2.7-.09 5.4.09 8.1l1.3-.79c.88.9 2.16.4 3.24.34.76-.8 1.52-1.6 2.22-2.45l-.37 1.44c.52-.5 1.17-1.07.98-1.87l.47.11-.46.76c1.2-.33 2.34-1.27 3.64-.92-.48.33-.98.62-1.48.9l.05.56c-1 .83-2.2 1.26-3.47 1.4l-.62-.24-.6.83c-.73-.02-1.46-.02-2.18-.02l.8.74c-.7-.15-1.4-.36-2.06-.62l-1.56.31.03 1.84a12.9 12.9 0 0 0 4.01-.44c1.84-.6 3.79-.11 5.68-.28l.7.37 1.02-.6-.39.62.74.83c1.64-.58 3.36-.12 4.89.55 1-.36 1.98-.91 3.09-.79 1.15-.07 1.96.83 2.73 1.55-.71-.3-1.37-.74-2.13-.92-1.41-.28-2.7.74-4.12.52a19.49 19.49 0 0 0-3.66.01l-.06-.47-.38.52c-2.2-.51-4.53-.6-6.73-.06-1.75.63-3.61.15-5.4.12-.03 4-.1 7.98-.02 11.98a8378.9 8378.9 0 0 1 16.32 16.34c.31.33.7.6 1.17.54 7.54.03 15.08-.07 22.6.05.61-.04 1.07-.49 1.57-.78.82-1.17 1.9-2.12 2.91-3.13.2.9.5 1.78.87 2.64l.62.08-.1 1.3a9.8 9.8 0 0 1-.78-1.42c-.42.81.2 1.54.56 2.23l.98.74c-.86.94-1.76 1.83-2.68 2.7a39.6 39.6 0 0 0-.38-1.86c-.54.9-.03 1.98-.45 2.92H78.34c-3.75-3.66-7.41-7.41-11.13-11.11a16.78 16.78 0 0 1-7 2.02c-.17-.47-.3-.95-.4-1.44l1.04.71c-.2-.5-.52-.95-.9-1.35-.03-.65-.12-1.3-.08-1.96.32-.52.85-.86 1.3-1.26l.12-.69.48-.47-.03-1.4.65-.29a94.3 94.3 0 0 1-.04-1.26h.94c.06-.53.28-1.12-.02-1.63-.43-.68-.04-1.45.12-2.15-1.08.4-1.3 1.56-1.48 2.55-.1.98-.5 1.89-.81 2.8-.11.4-.58.5-.87.73l.5.72-1.34 1.28-.07-.87c-1.12.26-2.04-.54-2.98-.99l-1.1.56c1.16.9 2.45 1.72 3.98 1.7-1.21 1.39-.32 3.25.04 4.8l-1.68.02-.6-.5.1-.78c-.47-.94-.52-2.22-1.64-2.66-.04-.41-.18-.78-.53-1.02 0 .4.01.8.03 1.19.62 1.12 1.76 2.46 1.12 3.78-6.05-.06-12.1.05-18.15-.06.04-8.53-.01-17.06.02-25.59-.91-.13-1.85-.35-2.77-.14-1.19.28-2.44.33-3.53.92-1.33-.3-2.35-1.19-3.39-2l-.8.52c-1.58-.46-3.13-1.27-4.82-1.14-.9.09-1.98 0-2.5-.87 1.5.07 2.97.33 4.46.35.91-.03 1.8.38 2.7.17.9-.18 1.83 0 2.74 0 .86-.4 1.75.06 2.62.15-.26.2-.52.42-.78.64.94.17 1.68-.4 2.3-1l.86.72c-.39.31-.74.73-1.26.8-1.22.42-2.37-.63-3.6-.21l-.25-.75-.82.65c.86.6 1.92 1.62 3 .87 1.17-.07 2.6.17 3.4-.92l2.46.37c-.03-1.17-.03-2.33-.04-3.5-1.2-.36-2.38-.82-3.58-1.17-.51.38-.99.84-1.59 1.1-.85.3-1.77.14-2.65.08.7-.56 1.62-.5 2.46-.61.73-.36 1.32-.96 2.1-1.23 1.03-.4 1.71.73 2.52 1.16.3-.4.83-.72.75-1.28 0-6.25-.02-12.49.02-18.73a44.6 44.6 0 0 1 3.27.02 20.9 20.9 0 0 1-.67 3.84c1.82.5 3.7.7 5.58.77l.77 1.08c-.14.49-.26.98-.38 1.48.7.77 1.23 1.78 2.3 2.11a56.1 56.1 0 0 0-.42 1.76c.42.52.66 1.15.9 1.78a43 43 0 0 0-.35.39l.17 1.18.9-.13c-.08-1.01-.48-2-.23-3.02l-.5-.78.38-1.84c-.19-.03-.55-.1-.74-.12a8.11 8.11 0 0 0-1.47-1.87c.09-.57.19-1.13.32-1.69-.33-.32-.6-.78-1.08-.9-1.55-.48-3.3-.46-4.68-1.39.15-.9.38-1.79.54-2.69h10.09c2.68-.12 5.37.09 8.02.49.55.15 1.36.13 1.57.8.04.63 0 1.26.02 1.9.32-.7.37-1.48.48-2.23 1.4.38 2.7 1 3.93 1.73 1.74-1.76 3.5-3.48 5.2-5.26-1-.82-2.43-1.28-3.01-2.5.97.32 1.64 1.1 2.47 1.64 1.74.11 2.86-1.42 3.98-2.51.08 1.01.34 2.17 1.47 2.46a6.82 6.82 0 0 1-1.04-2.94c.82-.77 1.6-1.59 2.4-2.38.04-5.4.02-10.8.02-16.19.24-.28.66-.5.64-.92.09-.94.15-1.89.33-2.82l-.31-.88c.27-1.06.7-2.12.66-3.22-.1-.39-.1-1.29-.7-.86-.11 1.94-.37 3.9.02 5.82.13.46-.47.68-.67 1.01 0-6.64.08-13.29.02-19.93-3.06-.04-6.11.03-9.17-.04 0-1.3 0-2.58-.02-3.88 1.4.13 2.62.88 3.97 1.19a7.07 7.07 0 0 0-3.96-1.7c0-2.68.03-5.35-.01-8.02Zm22.14.56c.1.63.06 1.27.1 1.9.24.64.61 1.27.52 1.99.06.57-.3 1.36.31 1.74 1.52.9 3.23 1.47 4.73 2.41.88.84 1.74 1.74 2.87 2.26-.13-.48-.01-1.17-.53-1.45-.55-.3-1.19-.5-1.53-1.06a3.33 3.33 0 0 0-2.82-1.48c-.78-.6-1.79-.82-2.6-1.33a8.5 8.5 0 0 1-.07-2.3l-.57-.92.26-.8c-.17-.36-.3-.77-.67-.96Zm55.88 3.02c-.09.44.1.6.58.46.09-.44-.1-.6-.58-.46Zm-39.18.65c-.37.44.67 1.02.83.47-.02-.37-.5-.66-.83-.47Zm41.5 0c-.11.38.03.52.44.41.1-.39-.04-.53-.44-.42Zm-69.7.77c.8-.49.08.96 0 0Zm10.68 1.9c.38.2.82.56 1.26.3.2-.19.08-.46.09-.7l-1.35.4Zm60.48.03c-.03.55.1 1.16.68 1.37.42-.5-.37-1.02-.68-1.37Zm-60.73 1.06c.63.85.26 2.03.92 2.82.05-.6.1-1.21.08-1.82.01-.55-.66-.7-1-1Zm44.38 1.32c.64-.06.64-.76.81-1.23-.6.08-.64.77-.8 1.23Zm13.84-.37c-.27.13-.53.74-.1.84.55.07.8-1.14.1-.84Zm1.02.21c.38.37 1.02.44 1.27-.13-.43.03-.85.07-1.27.13Zm-75.97.5c-.23.38.42.79.72.5.22-.38-.43-.76-.72-.5Zm56.78.02a4 4 0 0 0 1.51.64c-.28-.61-.88-.84-1.51-.64Zm-47.43.22c.36.48.85 1.21 1.52.76-.48-.32-.96-.64-1.52-.76Zm49.8.33c-.35.3.19.86.54.62.35-.3-.18-.87-.53-.62Zm1.7.48c-.16.46 0 .62.47.48.15-.47 0-.63-.47-.48Zm-53.46.4c-.07.41.1.56.48.44.07-.4-.09-.55-.48-.44Zm44.35-.02c-.2.35-.06.91.3 1.1.56-.1.26-1.35-.3-1.1Zm-3.8 3.27.85-.56.25-1.15c-.7.3-.88 1.07-1.1 1.71Zm-.8-.85c-.15.46 0 .63.46.5.16-.47 0-.64-.46-.5Zm.14 1.23c-.15.4-.02.54.39.41.14-.4 0-.54-.4-.4Zm-4.67.62c-.4.19-.42.38-.07.58.4-.18.42-.38.07-.58Zm1.96.04c-.41.45.42.83.67.38.37-.45-.42-.82-.67-.38Zm25.7 1.07c.96-.05-.36.88 0 0Zm-63.13.64c-.1.46.07.61.53.44.11-.46-.06-.6-.53-.44ZM83 27.8c-.38.28 0 1.07.43.7.4-.26 0-1.08-.43-.7Zm-2.88.64c-.15.46.01.62.49.5.14-.46-.02-.63-.49-.5Zm3.84.8c-.14.91-.74 1.66-1.02 2.53l-.31 2.52.41-.41c.34-1.46.33-3.26 1.7-4.21.01-.54 0-1.07-.02-1.6-.42.26-.7.67-.76 1.16Zm57.4 1.3c.87.78 2.05 1.18 2.78 2.1.36.83.83 1.61 1.28 2.4.2.97-.16 2 .3 2.92.02 2.3.94 4.46 1.24 6.73-.16.4-.43.76-.66 1.13 0 .77-.02 1.55-.07 2.32l1.12.04c.04-.95-.06-1.93.24-2.84l.65-.25c-.07-.97 0-1.98-.42-2.88-.22-1.76-1.5-3.18-1.41-5 .19-.48.38-.95.6-1.41a13 13 0 0 1-1.98-3.65c-.93-.57-1.66-1.42-2.62-1.95-.37 0-1.24-.33-1.04.35ZM78.7 32.7c.33.38.66.77.98 1.17.82-.46 1.63-1 2.6-1.01l.26-.55c-1.27.2-2.55.66-3.84.4Zm40 .88c-.2.4.3 1.17.75 1 .18-.44-.3-1.1-.76-1Zm.86 1.59.23 1.81c.87-.49.35-1.35-.23-1.81Zm5.83.6c.86-.4-.02.96 0 0Zm-5 2.9c.96.06-.45.85 0 0Zm-1.35 1.52c.2.52.12 1.31.79 1.48-.13-.52-.28-1.04-.42-1.55l-.37.07Zm.66 3.08c-.24.32-.01.92.42.92.55-.19.07-1.34-.42-.92Zm1.16 1.57c.98.56 2.14 1.4 3.3.94.62-.62-.46-.51-.8-.37l-.43-.57-.66.29c-.4-.33-.96-.86-1.41-.29Zm-.11 1.38c-.42.27 0 1.05.44.69.4-.28-.02-1.02-.44-.7Zm34.12 3.7a32.1 32.1 0 0 0-1.9-.83c-.4.48-.8.98-.9 1.62l-.33.26c-.14.62-.76.66-1.25.87-.07.56-.18 1.11-.6 1.52a6.37 6.37 0 0 0 2.07-1.78c.3-.44.94-.08 1.37-.16l-.64-.68c.26-.26.54-.51.82-.76.6.23 1.23.38 1.87.37.4-1.33 1.16-2.47 1.88-3.64-1.25.62-1.38 2.3-2.4 3.21Zm-32.68-2.04c-.43-.01-.6.78-.08.75.43.01.6-.78.08-.75Zm19.41-.14c.2.46.43.91.65 1.37-.44-.2-.88-.4-1.33-.53.58 1.05 1.77 1.44 2.7 2.11l.7-.74c-.34-.31-.47-.74-.6-1.16-.66-.42-1.37-.79-2.12-1.05Zm4.31 1.45c-.12 1.05-.82 1.76-1.67 2.3 1.02.71 2.05 1.41 3 2.22.65-.44 1.4-.83 1.71-1.61l-.67-.74-.41.46c-.54-.3-1-.84-1.22-1.42.1-.4.27-.79.42-1.18-.4 0-.77-.02-1.16-.03Zm-60.02.73c-.2.49.94.8 1.02.26-.16-.36-.7-.45-1.02-.26Zm2.87.54c-.51.07-.25.83.2.67.53-.08.26-.84-.2-.67Zm68.09.35c-.25.41.39 1.02.8.74.27-.42-.41-.99-.8-.74Zm-35.94.12-.42 1.36.4.11c.03-.46.71-1.26.02-1.47Zm39.65.67c-.22.36.36.87.66.51.2-.36-.38-.87-.66-.5Zm2.85.12c.4.73.95 1.38 1.64 1.85a3.18 3.18 0 0 0-1.64-1.85Zm3.37 3.37c.95-.1-.33.9 0 0Zm-22.86 1.34c-.1.68.64.63 1.1.75a3.1 3.1 0 0 0-1.1-.75ZM101 63.83l.59.3-.2-1.22.1-.84c-.56.46-.8 1.07-.5 1.77Zm-29.4 7.78c-.16.41-.04.54.36.39.17-.42.05-.55-.35-.39Zm-2.08.4c.22.28.36.76.8.74.38-.05.67-.3 1-.49l-1.8-.26Zm-7.6.09c.5 1.24 1.44 2.27 1.74 3.6.25 1 .9 1.9 1.97 2.07-.38-.82-1.4-1.2-1.53-2.17-.23-1.2-.93-2.18-1.4-3.28l-.79-.22Zm6.31 3.34c-.48.3-.95-.13-1.4-.27-.14 1.2 1.3.72 2.03.88.21-.48.67-.93.5-1.5l.79-.37c-.25-.35-.48-.71-.7-1.07-.64.67-.34 1.9-1.22 2.33Zm-16.8 3.53c-.49.91-.42 1.95-.39 2.95 1.33-.45 2.56-1.13 3.84-1.7.48-.22.62-.75.81-1.19a54.3 54.3 0 0 0-4.26-.06Zm3.49 2.24c-1.18-.01-1.97.98-3.1 1.14-.28.4-.8.71-.78 1.25-.03 1.39 0 2.78.05 4.17 1.67-.07 3.38.19 5.02-.2 1.01-.21 1.63-1.23 1.64-2.22.1-1.53.14-3.08-.05-4.6-.1-.82-.85-1.26-1.46-1.68-.43.7-.72 1.58-1.32 2.14Zm4.86 1.63c.2.94.8-.26 1.1-.58-.43.04-.87.18-1.1.58Zm-11.94 1.42c-.38 1.1-1.03 2.09-1.39 3.2.31-.25.71-.43.87-.82.58-1.15 1.29-2.27 1.48-3.57-.45.28-.8.68-.96 1.19Zm22.94 4.39c.67-.24 1.6-.52 1.64-1.38-.65.31-1.27.73-1.64 1.38Zm-24.54-.2c.46.6.97 1.17 1.41 1.8a67 67 0 0 0-.87 1.1l.4.6c-.07.16-.2.48-.25.64.48-.01 1.2.19 1.34-.46-.18-.71-.7-1.67.12-2.17.71.3 1.41.72 2.22.58 1.12.07 2.16-.44 3.28-.41 0-.26 0-.55-.39-.48-1.29.31-2.62.44-3.95.38-.88-.53-1.26-1.55-2.05-2.17-.44.14-1.12 0-1.26.59Zm8.04 1.27c.22.72 1.12.54 1.56.14a19.1 19.1 0 0 0-1.56-.14Zm-7.8 4.56c.64-.01 1.14-.21.98-.94-.44.19-.97.35-.98.94Zm-.7 1.07c.12.82.17 1.64.1 2.46l.42.47c-.04.72-.26 2.47.93 2.07-.17-.35-.4-.67-.53-1.05.08-1.2.1-2.4.27-3.58-.15-.39-.3-.77-.43-1.16-.26.26-.6.45-.77.8Zm15.18 2.46c.38.82.6 1.98 1.67 2.1 0-.45-.39-.69-.7-.95-.24-.44-.38-1.06-.97-1.15Zm-9.87 9.72c2.11-.17 4.5.46 6.4-.74-.24-1.4 1.1-2.6.58-3.97.19-1.07-.15-2.11-.44-3.13-.36-.24-.77-.47-.72-.98-1.9-.58-3.9-.25-5.84-.35-.05 3.06-.08 6.12.02 9.17Zm-4.46-6.57c-.3.29.12.95.5.7.29-.3-.13-.94-.5-.7Zm.63 2.2c.15.16.15.16 0 0Zm14.56.3c.2.1.2.1 0 0Zm-14.9 3.72c-.12.47.04.64.5.52.12-.46-.05-.64-.5-.52Zm.1 1.5c-.17.9-.26 1.8-.38 2.71-.1.43.16.8.49 1.04-.06-1.34.3-2.65.23-3.98l-.35.22Zm1.36.25c-.37.3.21.83.55.61.36-.3-.2-.84-.55-.61Zm1.1.46c1.16.42 2.38.63 3.58.88-.67-.82-1.79-.85-2.74-1.06-.31-.18-.57.08-.84.18Zm3.87 1.14c.32.53.86.87 1.36 1.22l.9-.56c-.74-.3-1.47-.6-2.26-.66Zm-6.95 2.02c-.37.23-.38.44-.03.63.37-.23.37-.44.03-.63Zm10.88 2.95c-.35.27.1.92.47.65.33-.28-.1-.92-.47-.66Zm-15.2.57c-.14.4 0 .54.4.44.14-.4 0-.54-.4-.44Zm63.96 6.44-.36-.08c.41.49.8.99 1.2 1.5l.25-.02c-.38-.83-.5-1.75-.85-2.6-.34.32-.3.77-.24 1.2Zm-14.12 3.83c-.2.41.23 1.16.71 1.05.2-.4-.26-1.15-.71-1.05ZM182.68 9c1.77 0 3.54.08 5.3-.02l.54-.25-.13.64.95-.33c5.63-.05 11.27 0 16.9-.02 1.21.93 2.35 1.96 3.7 2.7 1.22.97 2.34 2.1 3.8 2.74-2 2.18-4.16 4.21-6.23 6.33-.55.6-1.27 1.08-1.65 1.8-.11 1.96.1 3.93-.14 5.9l-.24-.9c-.22-.05-.44-.12-.65-.18l.61-.13c-.45-.66-1.36-.4-1.93-.88-.86-.6-2.03-.8-2.54-1.84l-.56-.2a96.61 96.61 0 0 1 0-3.4c-.82-.06-1.63-.07-2.45-.04l.31-.73c-.3.2-.63.38-.96.56-.77-.32-1.43-.9-2.23-1.16-.96-.26-1.2-1.36-1.85-2-.9-.96-.81-2.35-.87-3.57l.71-.53a7.18 7.18 0 0 1-3.91-.24l-.04.27c.6.11 1.15.38 1.66.7l1.38-.1a3.1 3.1 0 0 0 .47 3.13 3.9 3.9 0 0 1-2.35.9l-.7.7c-1.01-1.12-2.2-2.07-3.01-3.37.04-.6-.35-1.03-.62-1.51 0-.77.21-1.53.12-2.3.5-.34 1.14-.55 1.47-1.1.33-.34.44-1.1 1.13-.8l-.6-.49a2.7 2.7 0 0 0-.77 1.3c-.61.33-1.26.64-1.97.7-.6-.08-1.07-.46-1.57-.76-.31-.54-.69-1.04-1.08-1.53ZM0 9.06c1.12-.02 2.3-.23 3.37.25-.14.85-.1 1.71.2 2.53.27-.21.55-.42.8-.65-.08-.74-.3-1.45-.48-2.16 3.67 0 7.34-.03 11 .01.7 1.87.89 3.87 1.49 5.77a8.8 8.8 0 0 1 .15 3.82l-1.72.23-.54-.84-.11.96c-.55.1-1.07-.15-1.56-.38-.61.2-1.77-.06-1.62.93.53.6 1.42.5 2.14.67 0 2.75-.02 5.5 0 8.25 1.83.05 3.68.14 5.49-.22l.27.65c-.2 1.25-.53 2.49-.45 3.76.06 1.24.17 2.48-.04 3.71l1.21.77-.2-.97c.6.17 1.18.37 1.76.57v-.65a23 23 0 0 1 4.35 1.48c.54.25 1 .84 1.65.68 1.18-.2 2.36-.06 3.54.05a17.8 17.8 0 0 1 1.72-.73c-.87-.82-2.14-.4-3.17-.8l-.61.44a18.95 18.95 0 0 0-4.05-2.17c-1.1-.46-2.31-.37-3.47-.55-.64-.05-.9-.7-1.17-1.18-.66-1.64-.39-3.42-.08-5.1.2-.44.51-.9.26-1.4-.6-1.87.19-3.93-.5-5.8-.35-.94-1.45-1.09-2.28-1.35-.06-1.21.16-2.4.26-3.6-.07-1.48-.82-2.82-.91-4.3a7.85 7.85 0 0 0-.67-2.72c3.27.03 6.6.2 9.73 1.25a9.79 9.79 0 0 1 6.04 5.12c1.34 2.78 1.11 5.95 1.12 8.96-.03 2.4-.4 4.98-1.96 6.9-.76 1-1.9 1.56-2.9 2.25 1.29.63 2.62 1.3 3.57 2.4 1.9 2.03 2.32 4.96 2.26 7.63-.02 2.56.16 5.15-.48 7.66-.6 2.71-2.17 5.3-4.64 6.68.24.46.65.91.42 1.47-.42-.29-.73-.7-1.1-1.06a24.94 24.94 0 0 1-9.22 1.48c-6.29-.04-12.58.03-18.87-.03V25.01l.75-.04.39-.94c-.83-.9-.99-2.55-.1-3.44L0 19.92V9.06Zm1.32 5.52c.48 1.27 1.13 2.48 1.54 3.8.05.31-.14.6-.22.9l1 .48c.12.41.04 1.16.62 1.22.8-.05 1.57-.3 2.36-.33 1.37-.8 3.16.25 4.35-.87-1.94-.24-3.92.04-5.87.12-.38-.67-.75-1.36-1.3-1.9-.1-.97-1-1.86-.6-2.83l-.92-.97-.96.38Zm-.16 10.17.45.9-.77.15c-.02.73.58 1.3 1.02 1.83l.16-.78.77.12c-.54-.73-.85-1.7-1.63-2.22Zm.86 4.76c-.52.33.25.58.4.86-.42.94.37 1.68 1.12 2.1.06-.81-1.17-1.44-.25-2.11-.42-.24-.73-1.03-1.27-.85Zm2.61 5.2c.96.01-.42.86 0 0Zm.09.74c-.16.49-.02.65.43.5.16-.5.02-.66-.43-.5Zm13.24 3.68a91.1 91.1 0 0 0-4.84-.03c-.01 3.04-.02 6.07 0 9.1 1.22.04 2.43.04 3.65.05.14 1.81-.33 3.6-.16 5.41.66-.61.31-1.58.59-2.35.3-1-.05-2.09.4-3.05.78-.3 1.83-.32 2.27-1.17.79-1.44.38-3.14.48-4.71.1-1.21-.36-2.46-1.46-3.06l.78.11c-.67-.6-1.32-1.28-1.32-2.25-.6.45-.3 1.3-.39 1.95Zm1.3-1.51c-.54.4.1 1.1.5.53.5-.34-.13-1.01-.5-.53Zm1.36 1.65c.96.03-.42.86 0 0Zm4.87 4.69c-.29.29.14.93.51.7.3-.3-.13-.93-.51-.7Zm-9.16 13.09c-.35.26.04.96.43.64.33-.26-.04-.96-.43-.64Zm30.9-47.99c2.38-.08 4.76-.05 7.14-.01 0 .5.02.99.04 1.48.44-.36.44-.96.56-1.47 1.9-.05 3.79-.01 5.68-.02.61 2.16 1.16 4.34 1.73 6.5-.4-.3-.79-.63-1.18-.96a5.57 5.57 0 0 1-3.1-.85l-.43.1c-.62-.59-1.5-.57-2.27-.83-.85.7-2.33-.02-2.71-.99-.23.24-.46.48-.7.7-1.33-.3-2.6-.83-3.92-1.16-.49-.1-.92-.33-1.34-.59l.5-1.9Zm8.28 1.31c-.16.45.25.9.5 1.24.34.3.33-.34.18-.5-.15-.27-.3-.8-.68-.74Z"/><path d="M263.49 10.8c.11-.63-.32-2.02.78-1.78 7.25 0 14.49 0 21.73.02v5.7a.91.91 0 0 0-.66.76l.66.03v3.96c-.28-.4-.65-.66-1.15-.55.35.54.75 1.05 1.15 1.56v.86c-4.96.07-9.93-.02-14.89.04.01 2.77-.06 5.53.05 8.3 4.6.02 9.2 0 13.8 0 .05 3.08 0 6.15.03 9.22-.4.52-.77 1.06-1.11 1.61l1.12-.44-.04 2c-.9.01-1.78 0-2.67-.02-.17-1.02-.53-2-.67-3.03l-1.25.2c-.04.94-.06 1.87-.08 2.8-1.46.07-2.92.07-4.39.07l.01-1.68c.2-.54.36-1.1.45-1.68a5.8 5.8 0 0 0-.93 3.32c-1.44.02-2.88 0-4.32.05 0 .96 0 1.92.04 2.88-.46-.69-1.07-1.3-1.4-2.06-.04-.46 0-.92.01-1.38-.23-.39-.5-.75-.63-1.18-.02-.63.38-1.15.63-1.7l-.44-.6c-.08-1.36-.08-2.73.14-4.07l-.37-.53c.05-.27.1-.53.17-.8-.6-.54-.6-1.38-.85-2.09-.18.16-.54.5-.73.65-.9-.55-1.94-.88-2.82-1.48-.95-.72-.7-2.03-.88-3.07-.9-1.19-.34-2.72-.55-4.08-.39-.76-1.17-1.23-1.66-1.92.59-1.12 1.33-2.17 1.6-3.43l.95-.44-.5-1.32c.12-.55.23-1.1.32-1.65-.33-.65-.64-1.32-.96-1.98-.31-.51-.4-1.1-.42-1.69l.73.61Zm17.9-1.24c-.33.3.13.91.5.67.33-.3-.13-.9-.5-.67Zm-7.65.5c-.15.46.01.61.47.46.14-.47-.01-.62-.47-.47Zm7.73.56c-.08.35-.06.7.05 1.03.47-.06.9-.27 1.3-.5-.45-.2-.9-.36-1.35-.53Zm-.45 3.23c.57-.25 1.11-.56 1.65-.88-.6-.72-1.52.23-1.65.88Zm3.41 3.94c-.34.36.2 1.02.6.66.45-.36-.21-1.12-.6-.66Zm-.91 1.18c.14.16.14.16 0 0Zm-13.9 11.66c.17.91 1.32.7 1.97 1.03.93.49 1.96.18 2.94.37l.18.98c.35.21.7.41 1.06.6.23-.77-.58-1.17-.73-1.86l1.37.45a2.1 2.1 0 0 0-1.02-1.02c-.68-.01-1.3.46-2 .26-1.3-.06-2.48-.65-3.76-.8Zm12.98 3.03c-.25.33-.17.53.23.6.24-.33.17-.53-.23-.6Zm-1.36 3.48c.28.37.46.8.49 1.27l.83.33.82-.3c.33.1.98.3 1.31.42-.7-1.04-1.99-1.11-3.03-1.59.37-.81.74-1.62 1.04-2.47-.82.52-1.1 1.5-1.46 2.34Zm-1.64 1.72c.38-.17.86-.2 1.17-.5l-.14-.75c-.56.22-.88.69-1.03 1.25ZM43.09 24.98c1.27-4.43 2.2-8.96 3.56-13.35.7.46 1.46.85 2.28 1.03 1.02.23 1.9.81 2.78 1.35a3.77 3.77 0 0 0-.34 1.75l-.44.55c-.24 1.47.36 2.84.47 4.28.1.78.5 1.48.77 2.2.24 1.1-.1 2.22-.4 3.28.4 1 .98 2.03.59 3.13.7.2 1.41.43 2.12.65a3.47 3.47 0 0 0-1.43-1.15c.27-.98-.38-1.78-.7-2.64-.03-.92.53-1.72.66-2.61.03-.7-.43-1.27-.8-1.82-.02-.72.03-1.45-.11-2.16-.16-.78-.76-1.48-.57-2.3.26-1.12.56-2.22.6-3.37l1.05-.5c.89.42 1.86.58 2.84.62 1.79.45 3.54 1.02 5.35 1.37.58.36 1.16.85 1.34 1.54 1.83 6.8 3.49 13.65 5.4 20.42.71.21 1.47.16 2.2.24-.35.91-1.4.38-2.09.39.94 3.5 1.84 7.03 2.77 10.54.33 1.35.84 2.69.79 4.1-1.07-.38-2.05-.95-3.15-1.25l.3.76c-.97-.4-2.02-.7-2.53-1.7-.6.12-1.23-.12-1.76.26-1.05-.47-2.22-.42-3.33-.6-.66-.05-.99-.65-1.4-1.08-.86.54-1.9-.05-2.78.42.83.38 1.75.4 2.64.48a7.7 7.7 0 0 1 1.45 1.28l.47-.61c1.27.25 2.48.9 3.8.76.9-.03 1.55.68 2.32 1.03 1.17.51 2.44.78 3.52 1.47l-.26.91c.56.85.34 2.1 1.14 2.76l-.32-.86.47-.36c-.21-.52-.41-1.05-.67-1.55.05-.5.13-1 .43-1.43a31.3 31.3 0 0 1 1.63 6.54c-3.92.02-7.84-.01-11.76.02-.09-1.05.45-2.2-.26-3.14.07-1.46-.24-2.89-.49-4.32-.48 2.46.92 4.95.21 7.4h-1.09c-.45-1.9-.79-3.83-1.33-5.7-.77-.4-1.8-.17-2.67-.22-1.56-.26-2.5 1.65-2 2.95-1.26.13-2.9.37-3.31 1.78-.82.11-1.56.53-2.35.7-.26-.27-.5-.57-.74-.87-.2.43 0 1.15-.5 1.38-.96.09-1.93-.01-2.9-.03l.94-.75-.4-.48c.15-.55.43-1.2.06-1.73-.15-.41-.7-.2-1.03-.25.04 1.09.43 2.17.39 3.3-1.42-.03-2.83-.09-4.24-.03 1.25.7 2.68.63 4.06.7l.46-.55c.46.16.9.35 1.33.58.7-.23 1.19.38 1.7.7a8.83 8.83 0 0 1 2.02 1.98c.77 1.05 2.24 1.5 2.69 2.81-1.1 0-1.33-1.14-2.12-1.64-.66-.48-1.01-1.27-1.7-1.7a8.91 8.91 0 0 1-1.52-1.21l-1.04.52c.13-.7-.46-.94-1-1.16-.07.17-.24.49-.33.65-.98-.06-2.03.2-2.95-.25-.52-.27-1.12-.28-1.7-.33-.52-.76-1.45-.87-2.3-.95l.69.88a2.47 2.47 0 0 1-1.46-.72l-.39 1.02c-.58-.31-1.15-.84-1.86-.75-.7.24-.94 1.01-1.4 1.52-1.4.06-2.97-.08-4.02 1.07-1.07.26-1.9 1.09-2.97 1.35-.72.24-1.48.03-2.23.1-.6.28-1.1.73-1.61 1.15-.3-.39-.5-.87-.9-1.15-.53-.05-1 .3-1.48.44.08-.57.52-1.25 1.19-1.07.56.25 1.1.57 1.65.85.19-.29.12-1.09.67-.98.47.07.92.22 1.39.34.56-.27 1.2-.34 1.74-.65 1.21-.97 2.65-1.6 3.94-2.43.83.29 1.7.24 2.52-.09.14-.6.57-1.04.9-1.53.29-.62.34-1.3.44-1.98 1.24-3.84 2.05-7.8 3.13-11.7.45-1.46.6-3.03 1.28-4.43.34.48.8.91.95 1.49.07.75-.04 1.5.05 2.26.3.5.97.45 1.46.62-.78.58-1.37 1.65-.92 2.6.24.62.1 1.3.23 1.94.34.53.8 1 1.05 1.58.52 1.36 1.49 2.5 1.85 3.92l1.05-.17c-.34-1.42-1.23-2.6-1.81-3.91-.2-.92-.72-1.7-1.2-2.48.43-1.22.1-2.5 0-3.74.94-.44 1.95-.05 2.89.18 1.44.45 3.04.48 4.28 1.45 1.14-.13 2.32.1 3.31.67 1.48.94 3.45.59 4.86 1.68l.64-.9-.9-.82c.04-.61.13-1.22.22-1.82-.82.68-.73 1.86-.34 2.75-.48-.2-.89-.5-1.17-.92l-.5.35c-.29-.52-.84-.48-1.33-.42-.7.2-1.06-.6-1.68-.71a7.93 7.93 0 0 0-2.34-.34c-.78.1-1.26-.67-1.97-.83-1.02-.23-2.1-.21-3.03-.72-1.08-.58-2.63-.12-3.46-1.14-.03-1.1.25-2.55-.77-3.28-.47-.4-1.85-.39-.93-1.24-.75-.53-1.63-.94-2.19-1.7.9.14 1.47.9 2.19 1.37.69-3.1 1.57-6.17 2.34-9.25.37-1.37.63-2.77 1.14-4.1.49.24.98.48 1.49.67-.26-.64-.9-.9-1.47-1.2Zm3.02-4.91c.66.77 1.52 1.47 2.6 1.4-.62-.41-1.29-.76-1.9-1.19v-.92l-.7.71Zm-2.53 6.33c-.07.46.62.96 1.04.75.17-.47-.64-.87-1.04-.75Zm11.33 2.93c.43.94 1.86.58 2.4 1.47.4-.05.79-.1 1.18-.17a10.55 10.55 0 0 0-3.58-1.3Zm4.2 1.14a8.2 8.2 0 0 1 2.46.74c-.47-.77-1.68-1.42-2.47-.74Zm-5.83 3.19c-.54 2.55-1.1 5.1-1.6 7.66 1.36.06 2.97 1.1 4.16.02.32.42.3.91.16 1.4l.9.52c-.08-.99.05-1.97.22-2.95-.44.24-.55.75-.73 1.17l-.47-.63c.08-.44.12-.9 0-1.33-.68-2.88-1.29-5.78-1.94-8.67-.41.88-.5 1.86-.7 2.8Zm9.67-2.33c.26.44.68.7 1.19.79-.1-.61-.72-.65-1.19-.79Zm-5.9.19c.1.57.14 1.23.76 1.49-.04-.6-.26-1.16-.76-1.5Zm7.3.27c-.14.46.01.62.48.48.15-.46-.01-.62-.47-.48Zm1.29.59c.85-.44.04.96 0 0Zm-8.15 1c.04.64.1 1.27.2 1.9.52-.48.78-1.9-.2-1.9Zm-.04 2.09c-.05 1.05-.24 2.08-.32 3.13.66-.6.57-1.57.74-2.37.13-.35-.18-.58-.42-.76Zm-5.9 6.32-.21 1c1.37.12 2.75.06 4.12.05l-.02-.62c-1.3 0-2.6-.2-3.88-.43Zm4.63 2.57c-.15.47 0 .64.46.49.14-.48-.01-.64-.46-.5Zm1.47 6.98c.02-.43.04-.87.04-1.3-.53.26-.44.97-.04 1.3Zm-.96 1.44c.18.12.18.12 0 0Zm-5.74 1.14c-.73.45-1.38 1.06-2.25 1.22-.23.85-.41 1.7-.58 2.57.8-.34 1.78-.42 2.41-1.08.71-.88 1.97-.65 2.95-.88.33-.6.46-1.29.68-1.93-1.07.03-2.16-.14-3.2.1Zm66.99-39.69c-.14-.31-.27-1.04.3-.7.44.54.89 1.09 1.35 1.62-.6-.16-1.35-.29-1.65-.92Zm53.77 3.42 1.14-.23c.04.65-.37 1.19-.57 1.78.31.83 1.25 1.23 1.56 2.08.63.93-.03 2.06.33 3.05.27.85.44 1.72.62 2.59.3.53.94.83 1.12 1.44-.04.85-.8 1.44-.88 2.28a14.7 14.7 0 0 1-2.29 5.7c-.27.19-.5.43-.8.55-.23-.43-.2-.92-.22-1.38 0-4.71.03-9.41-.02-14.12.48.66.76 1.46 1.38 2.02-.27-1.3-1-2.45-1.3-3.74.02-.68-.02-1.35-.07-2.02Zm1.35 5.93c-.26.29.17.8.5.6.25-.29-.19-.81-.5-.6Zm.9 4.52c-.62.83.96 1.63 1.07.57-.27-.28-.62-.74-1.07-.57Zm.25-7.08c.34-.16.73.38.51.67-.34.16-.73-.38-.5-.67Zm-10.03 15.13.53-.05c0 .44-.02.87-.04 1.3-.54-.2-.42-.8-.5-1.25Zm51.55.97c.71-.74 1.78-.85 2.75-1 1.3 0 2.62-.11 3.94-.07-.42.29-.85.56-1.28.84-1.13-.34-2.3-.1-3.44.12-.66.94-.01 2.31-.94 3.11-.5.8-.58 1.95-1.44 2.44.1-1.81 1.4-3.67.4-5.44Zm-2.4-.16c.57-.1 1.53-.4 1.84.28-.27.7-1.02.5-1.54.28l-.57.44-.8-.27c-.14-.63.67-.58 1.07-.73Zm-3.13.03c.96.1-.5.8 0 0Zm-139.7.56c1.34-.35 2.74-.3 4.11-.38 1.1.04 2.5.02 3.2 1.01-.86-.08-1.7-.28-2.55-.44-.95.47-2.04.36-3.07.45-.57-.19-1.34-.05-1.7-.64Zm41.66-.28c.84-.48.08.95 0 0Zm59.54.46.4-.14c.19.58.36 1.16.66 1.69-.21.67-.3 1.37 0 2.02-.27.23-1.05.7-.95-.05-.07-1.17-.08-2.35-.11-3.52Zm38.18.15c.96-.05-.37.88 0 0Zm-104.18 2.9c.05-.6.4-1.04.94-1.27-.03.6-.42 1.03-.94 1.27Zm-2.1 1.23c.41-.57.73-1.31 1.5-1.47-.27.7-.89 1.1-1.5 1.47Zm91.18-.84c.4-.21.79-.42 1.2-.62.07.64-.12 1.26-.38 1.83l.58.26c-.2.48-.13.9.22 1.24l-.56.65.49.78c-1 .08-1.97-.62-2.5-1.42-.54-1.13 1.25-1.53.95-2.72Zm-93.63 2.46c.74-.65 1.32-1.49 2.15-2.03.17 1.31-1.25 1.56-1.79 2.5-.55.83-1.57 1.13-2.26 1.82l-.31-.42c.83-.51 1.73-.97 2.21-1.87Zm155.1-1.47c.95.01-.43.87 0 0ZM77.22 46.14c-.08-1.27-.3-2.77.53-3.84-.14 1.25-.05 2.5-.02 3.75l-.5.09Zm136.68-3.32c1.05-.36.55 1.39-.03 1.73.1-.58.28-1.16.03-1.73Zm18.97.16.41.02c-.16.84.26 2.09-.7 2.54-.03-.86.12-1.72.29-2.56Zm-71.27 1.97c.07-.52.44-.86.87-1.12 0 .57-.33.97-.87 1.12Zm-69.65.08c.21-.25.9-.22.87.19-.21.25-.9.2-.87-.2Zm128.62 3.48c.14-.73.08-1.61.7-2.14.2.79.12 1.75-.7 2.14Zm17.71.2c.55-.9 1.83-1.54 2.83-1.19l.24.34c-.4.55-1.5.37-1.42 1.32-.55-.18-1.1-.32-1.65-.47Zm-95.75-.18c.36.36.69.73 1.02 1.1-.58.19-1.1-.06-.63-.66l-.47-.04.08-.4Zm75.79.13c.5.04.24.81-.14.83-.5-.03-.25-.8.14-.83Zm-112.9 1.6c.49.3-.55 1.1-.95.96-.06-.49.55-.84.95-.96Zm34.28.46c.45-.14.6.02.43.5-.46.13-.6-.04-.44-.5Zm107.2.11c.94.1-.5.82 0 0Zm-145.64.74c.45.29.92.6 1.14 1.1-.55-.13-1.23-.42-1.14-1.1Zm32.34 7.83c-.5-.63-.9-1.5-.51-2.3.24.75.44 1.52.51 2.3Z"/><path d="M58.76 58.25c.37-.53.99.06.44.44-.34.56-.94-.07-.44-.44Zm45.73 1.1c.73-.02 1.46-.02 2.2-.02 3.03 2.93 5.92 6.03 9 8.92 3.09.16 6.2 0 9.3.07.43-.05 1 .15 1.28-.29.8-.76 1.4-1.67 2.04-2.56.84-.57 1.81-.93 2.65-1.52-.14 1-1.37 1.07-2.06 1.56-.65.3-.73 1.06-.93 1.67-.42.37-.88.69-1.29 1.07 3.82.17 7.65-.02 11.47.1-.02 4.14.01 8.28-.03 12.42-2.65.04-5.3.04-7.96 0-.63-1.14-1.7-2-2.68-2.82.17 1.1 1.14 1.77 1.8 2.6-.85 2.65.74 6.01-1.47 8.23-.3 1.18-.82 2.3-1.3 3.44.57.72.72 1.67.68 2.56-.1 1 .02 2.03-.17 3.03-.62-.36-1.3-.68-2.03-.4l-.53-.85c-.28.22-.7.74-1.05.36-.7-.78-1.51-1.43-2.26-2.15.37-.28.81-.22 1.24-.18l-.27-.57-.83.31c.04-3.88 0-7.76.02-11.64.62.31 1.28.6 1.73 1.16.36.4.58.93 1.05 1.23-.25-1.31-1.36-2.11-2.4-2.78-.72-.8-1.39-1.67-2.21-2.38l-.48.19h-1c.02-.63.38-1.41-.22-1.89-4.17-4.23-8.4-8.4-12.57-12.62-.36-.4-.82-.68-1.29-.93.3-.44.6-.89.88-1.34-.26-.5-.55-.98-.73-1.51-.26-.65.26-1.22.5-1.77-.01-.18-.06-.53-.08-.7Zm20.2 16.13a3.48 3.48 0 0 0 2.95 2.17c-.45-.64-1.28-.7-1.85-1.18-.38-.31-.73-.66-1.1-.99Zm10.66 2.47c-.42 0-.54.77-.06.8.43 0 .55-.79.06-.8Zm-9.21 10.61c.7-.18.98-1.15 1.8-.9l-.61-.77c.26-.41.52-.82.74-1.26a4.62 4.62 0 0 0-1.93 2.93Zm-1.38-2c.16.14.16.14 0 0ZM58.23 60c.3-.18.68-.2 1.02-.27 1.63.97 3.53 1.38 5.39 1.64.7.16 1.29.6 2 .74.42.12.96.07 1.22.52-1.16.14-2.2-.33-3.23-.77-1.42-.3-2.87-.52-4.26-.94-.43-.1-.69-.5-1-.78-1.03.39-1.2 1.57-2.01 2.2.23-.8.47-1.61.87-2.34Zm178.17 1.53a4.1 4.1 0 0 1 2.46-.55c.3.73-.97.54-1.41.74l-.46.7c-.05.36-.05.76-.36 1.01-.15-.62-.31-1.25-.22-1.9Zm-214.57.03c.88-.38-.03.96 0 0Zm110.48 1.47c.16-.57.31-1.15.55-1.7l.16 1.37-.7.33Zm-79.6 1.89a7.39 7.39 0 0 1 4.11-1.75c-.01 1.05-1.07 1.44-1.84 1.88-.7.32-1.25.85-1.83 1.34l-.44-1.47Zm136.62 2.66c.27-1.07 1.5-1.25 2.4-1.53l.22.47c-.96.15-1.76.67-2.62 1.06Zm50.45-1.08c.86-.45.05.95 0 0Zm-187.17.2c.7.1 1.14.67 1.5 1.22-.71-.07-1.13-.68-1.5-1.22Zm29.34.3a7.5 7.5 0 0 0 2.2.47c-.25.53-.69.92-1.1 1.33a2.1 2.1 0 0 1-.28-1.01c-.56.1-.72-.34-.82-.8Zm20.22 2.35a12.1 12.1 0 0 1 2.74-2.3c-.61.79-1.43 1.39-2.07 2.15l-.67.15Zm82.88-2.03c.4-.14.53-.01.4.4-.4.13-.54 0-.4-.4Zm-100.22.79c.1-.16.27-.5.36-.67.78.16-.16.95-.2 1.38.93.5 2.45-.13 2.97 1.06-1.12-.02-2.23-.21-3.35-.17-.1-.43-.23-.86-.35-1.29l.57-.3Zm11.08-.14c.22-.3.92-.35.98.11-.07.54-1.31.52-.98-.1Zm1.35.65c.95-1.29 2.87-.75 4.12-.22-.81.16-1.6-.08-2.4-.22-.56.19-1.14.35-1.72.44Z"/><path d="m141.81 68.35 1.83-.04c.1.37.22.74.37 1.09l.07-1.06c.8-.03 1.6-.04 2.4-.04.46.47 1.01.82 1.69.88l-.72-.87c.88 0 1.77 0 2.66.04l-.12 1.04.87-.06.65.32a7.2 7.2 0 0 1-.38-1.3c1.01-.05 2.02-.05 3.03-.02 3.71 7.78 7.35 15.6 11.05 23.39.22.46.68.73 1.03 1.1-.05.83-.54 1.56-.76 2.36.7-.33.92-1.08 1.06-1.78.6.02 1.2.17 1.76.43.52-.55 1.1-1.07 1.44-1.76.21-.62.27-1.28.32-1.93-.47.4-.34 1.1-.68 1.58-.38.53-.84 1-1.24 1.52-1.15-.29-2.65-1.07-2.52-2.45.02-5.39 0-10.76 0-16.14.37-.1.71-.23 1.04-.42l-1.02-.17c-.1-1.9-.01-3.8-.02-5.7 4.1-.09 8.2-.06 12.3-.02.02 4.67.08 9.34-.03 14-.76-.68-.96-1.85-2.03-2.2.56.96 1.13 2 2.06 2.64.05 6.18.02 12.38 0 18.57l-1.24-.78c-.34-1.27-1.84-1.6-2.22-2.87-.78.24-1.57-.35-2.3.06.54.2 1.1.34 1.63.58.61.7 1.16 1.46 1.8 2.14l-.34.8c.82.54 1.82.97 2.27 1.92.68.86.35 2.02.42 3.03-.54-.04-1.08-.12-1.62-.2.38.51 1.01.65 1.63.61-.05 4.12.05 8.25-.05 12.37h-11.97c-.71-1.3-1.3-2.65-1.96-3.98-.5-1.05-1.13-2.06-1.32-3.23l-.44.02.5-.59c.27.47.56.93.85 1.39.43-.54.78-1.14 1.28-1.6.5-.3 1.08-.36 1.63-.48l-.28-.95c1.02-.95 2.46-1 3.77-.86-.18-.4-.6-.48-.96-.6a11.78 11.78 0 0 0-.87-3.02l.5-.93c-.4-.53-1.08-.54-1.65-.3-.5.5-.96 1.02-1.43 1.54-.44.91.96 1.6.64 2.51-.26.73-.53 1.66-1.36 1.9-1 .31-1.55 1.9-2.76 1.11-1.5-2.69-2.66-5.56-4.09-8.29l.57-.42c-.39-.32-.8-.6-1.16-.95-.11-.5.36-.94.52-1.4-.3-.56-.64-1.1-.82-1.72-.16-.87.02-1.86-.56-2.62.05 1.05-.31 2.22.3 3.15.23.42.49.82.75 1.22l-.55.73c-.97-1.88-1.72-3.9-2.86-5.7.02 6.36.02 12.7 0 19.05.06.87-.82 1.33-1.5 1.61a22.8 22.8 0 0 1-1.12 1.57l1.4-.23-.19.92c.44-.62.73-1.37 1.39-1.8.04.98.02 1.97-.03 2.96-2.34 0-4.67-.02-7 0l-.02-.53c-.31.17-.56.53-.96.48-1.42.07-2.85.04-4.27.04a14.4 14.4 0 0 1 .05-3.28c.84.3 1.7.53 2.55.8a7.73 7.73 0 0 1 3.03.09c-.6-1.31-2.33-.95-3.38-1.66-.78.08-1.56.2-2.31.44 0-9-.07-18.02.04-27.02-.76-.24-1.56-.18-2.34-.17-1.4-.18-2.88-.85-4.27-.27-.27-.4-.52-.82-.73-1.25 1.21-.16 2.43.13 3.64.08.7.02.91-.8 1.46-1.02.25.65.8 1.1 1.43.52.23.32.46.65.77.91-.02-3.1-.02-6.2-.01-9.29-.01-.8.48-1.63-.02-2.4l.7.5c-.33-.66.6-1.32-.23-1.82l-.1.92c-.49-.48-.32-1.17-.36-1.77.02-1.66-.01-3.32.02-4.97Zm2.85.78c-.96 1.62.08 3.55-.6 5.22-.49.34-1.2.63-1.12 1.36.4-.15.64-.44.74-.87l.57.05c.09-.88.97-1.1 1.73-1.06l-.33-.78.47-1.12c-.45-.55-1.16-1.24-.78-2.01.56-.05 1.11.01 1.67.03-.65-.6-1.51-.73-2.34-.82Zm22.42 5.22c1.04.67 2.18 1.23 3.15 2.01a2.37 2.37 0 0 0 2.09 1.57 2.95 2.95 0 0 0-2.05-1.63l-.13-.79 1.2-.02c-.24-.9-1.31-.46-1.7.1a4.66 4.66 0 0 0-1.77-1.8c-.29.15-.54.36-.8.56Zm5.23.47c.07.99 1.06 1.51 1.4 2.4.54 1.02 1.24 2.39 2.53 2.47-.73-.92-1.33-1.92-2.03-2.86l.2-.7a4.95 4.95 0 0 0-2.1-1.31Zm-.2 7.2c.95-.33.88-1.62 1.38-2.39-.83.53-1.14 1.49-1.38 2.38Zm-21.8-1.58c-.12.92 1.68 1.72 1.88.66-.53-.45-1.24-.52-1.89-.66Zm5.89.28c.28 1.6 1.7 3.03 1.33 4.7-.2-.5-.37-1.03-.77-1.42.31 1.69.38 3.76 1.9 4.86.7.5 1.15 1.28 1.9 1.73-.17-.33-.36-.67-.55-1l.17-.96-.82.14c-.33-.26-.69-.5-.95-.82-.16-.67-.28-1.35-.52-2 .15-.44.33-.91.12-1.36-.46-1.34-.56-3-1.81-3.87Zm-6.48 1.69.13.37.63.2c.22.87.07 2.1 1.13 2.45-.13-.64.02-1.43-.52-1.9.3-.56-.25-.84-.6-1.15l-.77.03Zm22.26.05c.06 1.23-.39 2.62.22 3.75l.4-1.33c-.24-.8-.19-1.64-.16-2.47l-.46.05Zm-16.67.62c.96.06-.46.83 0 0Zm15.42.94c-.14.48 0 .64.46.49.14-.48-.01-.65-.46-.5Zm-14.9 1.31c-.3.37-.13 1.38.42 1.34.07-.4.03-1.21-.41-1.34ZM170 89.41c.28-1.34.99-2.53 1.32-3.84-1.04.96-1.38 2.47-1.32 3.84Zm-27.5-2.82c-.13.47.03.62.5.45.12-.46-.05-.61-.5-.45Zm7.42.51c-.37.2-.37.4 0 .6.37-.21.37-.41 0-.6Zm7.1 1.34c.03.47.07.95.13 1.42l.73-.36a10.7 10.7 0 0 0-.85-1.06Zm-11.4 1.24c-.25.38.4.78.7.51.24-.38-.41-.8-.7-.51Zm12.9.07c-.41.5.66 1.03.86.44.05-.43-.55-.72-.86-.44Zm-8.49 2.47c.35-.41.52-.92.62-1.44-.56.25-.76.86-.62 1.44Zm1.64-1.44c-.16.34.39.7.68.5.16-.34-.4-.73-.68-.5Zm-3.15.28c-.08.45.68.61.99.42.16-.47-.7-.75-.99-.42Zm.62 2.54c.38.74.5 1.75 1.26 2.19-.14-.66-.29-1.36-.88-1.77l-.12-.72-.26.3Zm19.7.02c.12.64-.16 1.84.8 1.84-.1-.69-.15-1.46-.8-1.84Zm-4.4 1.87c-.17.46-.01.61.46.45.16-.46 0-.61-.47-.45Zm4.63.6c.52 1.14 1.8 1.46 2.88 1.85-.44-1.06-2.12-.78-2.41-2.03l-.47.18Zm-7.61 1.02c-.37.01-.77.56-.17.61l.48-.52c.3.22.6.46.91.66.21-.66-.38-1.13-.64-1.67l-.58.92Zm2.5-.62c-.26.28.06.98.46.74.29-.28-.06-1-.45-.74Zm-13.59 1.59a30.04 30.04 0 0 0-.5 3.42c.8-1.06.7-2.52.84-3.78l-.34.36Zm22.64.71c.2.79.53 1.65.6 2.52l-.74-.29c-.68.42-1.4.03-2.08-.17l-.65.59c.9.13 1.79.37 2.64.7.7-.03 1.23-.57 1.74-.99-.48-.78-.69-1.88-1.5-2.36Zm-20.2 2.13c-.13.47.03.64.48.48.13-.48-.03-.64-.47-.48Zm20.95 2.48c.48.18.86.52 1.14.95l.37-.11c.65.63 1.4 1.23 2.35 1.3-.84-.76-1.91-1.23-2.68-2.09-.3-.43-.8-.21-1.18-.05Zm.96 2.5c.07.42.16.85.25 1.27l.45-.95-.7-.32Zm-.98 2.13-.3 1.1c.1.37.18.75.27 1.13l.44-.1-.38-.79.84-.27c-.24-.4-.53-.75-.87-1.06Zm-2.78.87c.38.54.97.85 1.56 1.1a3.02 3.02 0 0 0-1.56-1.1Zm2.7 2.02c.95-.03-.4.88 0 0Zm-1.5 2.25c-.54.1-1.34-.06-1.36.7l.84-.29 1.35.44-.36-.65c.1-.66.2-1.32.23-1.98a3.8 3.8 0 0 0-.7 1.78Zm-7.97-.34c-.2.34-.03.9.35 1.04.48-.13.11-1.21-.34-1.04Zm-16.22 3.6c.91-.01 1.83-.06 2.74.13.51-.3 1.02-.62 1.55-.9-.16-.1-.5-.27-.66-.36-1.01.6-2.28.75-3.25-.02l-.38 1.16ZM83.65 69.08c.46-.13.6.04.43.5-.47.13-.61-.04-.43-.5ZM89 70.27c.5-.16 1.02-.26 1.54-.37 1.07.57 2.3.75 3.46 1.1l.53-1c1.47.28 2.96.46 4.46.47-.22.27-.43.54-.68.78-1.1-.07-2.18-.26-3.28-.29l-.6.82c-1.11-.45-2.3-.65-3.44-1-.63.1-1.22.38-1.82.61-.17-.33-.65-.8-.17-1.12Zm10.56.01a1.6 1.6 0 0 1 1.4-.11c-.27.26-.54.54-.85.76-.28-.13-.58-.3-.55-.65Zm-14.54 1.8c.04-.43.11-.87.3-1.27.42.31.84.63 1.24.97-.51.12-1.03.22-1.54.3Zm14.59-.4c.41-.35.75.4.34.62-.4.35-.73-.4-.34-.62Zm-14.34 3.67c-.06-.7-.39-1.42-.13-2.12.41 1.03.83 2.16.57 3.29-.44-.24-.36-.76-.44-1.17Zm14.36-1.28c.3-.42.67-.87 1.25-.7.37.47-.04.88-.27 1.28.21.63.1 1.3.26 1.95-.08.36-.58.86.26.94-.39.2-.86.83-1.27.36-.54-1.27.8-2.7-.23-3.83Z"/><path d="M164.75 73.72c.39-.31.97.34.5.63-.4.32-.98-.34-.5-.63ZM23.49 75.34c.85-.45.06.95 0 0Zm135.02.01c.45-.21.8.53.25.63-.44.19-.78-.54-.25-.63ZM84.46 77.3l.46-.42c.2 1.46-.74 2.73-.64 4.18l.9-.3c-.32.52-.63 1.08-1.27 1.2-.25-1.6.36-3.1.55-4.65Zm-57.77.87c.27-.35.92.1.65.47-.27.33-.91-.09-.65-.47Zm226.08 1.5a4.7 4.7 0 0 1 1.59-1.4c-.07.86-.8 1.35-1.6 1.4Z"/><path d="M84.97 79.14c.96.02-.43.86 0 0Zm156.92 3.7c.84-.92 1.24-2.23 2.37-2.89.4.08.78.21 1.17.34-.53.4-1.08.77-1.6 1.18l-.7.2c-.1.33-.18.66-.26.99.68.01 1.35-.03 2.02-.14-.1.42-.03.91-.33 1.26a2.78 2.78 0 0 0-1.4-.72c-.52.16-1.06.24-1.6.33l-.8-.84 1.13.3Zm-34.35-1.82c.27-.1.54-.18.82-.26.1.84.45 1.62 1.24 2.02l-.16.67c-.66-.56-1.37-.4-2.06 0-.02-.63.4-1.01.85-1.32l-.69-1.11Zm-182.47.86c.48-.32.98-.6 1.51-.8-.43.5-.93.93-1.44 1.35l-.82-.6.75.05Zm214.86.36c.45-.16.6 0 .46.47-.46.16-.62 0-.46-.47ZM83.86 84.1c.39-.61.74-1.27 1.35-1.69-.22.63-.47 1.96-1.35 1.68Zm-61.74-1.01c.83-.23.34.85-.23.72-.51-.06-.08-.7.23-.72Zm72.62-.03c.46-.14.6.02.45.5-.46.14-.61-.03-.45-.5Zm115.17 1.37c.21-.5.44-.98.68-1.45l.5 1.26-1.18.19Zm-2.17.22c-.61-.84 1.06-1.3 1.3-.46.09.7 0 1.44.34 2.1.21-.15.8-1.11.99-.38a4.71 4.71 0 0 1-1.16 2.18c-.08-.71-.46-1.22-1.21-1.21 0-.75.13-1.54-.26-2.23Zm-110.96.55c.26-.53.72-.93 1.18-.33-.59.48-1.07 1.2-1.87 1.32-1 .18-1.75.96-2.7 1.28-.92-.01-1.82.16-2.7.37-.12-.4.34-.53.59-.74.84-.72 2.01-.4 3-.68.17-.23.32-.47.48-.7h.67c.4-.3.85-.47 1.35-.52Zm110.07 1.5c.03-.63-.15-1.37.38-1.86.05.56.1 1.12.13 1.68l-.51.19Zm-71.45-1.1c.3-.25.95.16.72.54-.31.26-.95-.16-.72-.54Zm.92.09c.4-.06.8-.06 1.2 0 .03.67-1.05.5-1.2 0Zm77.61 1.71c-.09-.73.4-1.42 1.14-1.53a6.85 6.85 0 0 1-1.14 1.53Zm-114.49.04c.54.08 1.26.07 1.4.75l-1.05-.18c-.4.98-1.37 1.3-2.3 1.58-.74-.04-1.62.43-2.22-.22 1.5-.32 3.55-.16 4.17-1.93Zm-18.77.97c.58-.8 1.71-1.22 2.54-.51-.84 1.25-2.46.88-3.72 1.18-.87.21-1.72-.1-2.58-.18-.58.06-1.15.26-1.72.35.37-.44.78-.84 1.22-1.2 1.32.63 2.84.37 4.26.36Zm2.72.85c.2-.58.38-1.17.63-1.74l.6.73a6.3 6.3 0 0 1 2.6-.1c1.05.16 2.09-.7 3.11-.2l-.13.22c-2.03.52-4.15.6-6.24.72l-.11 1a7.9 7.9 0 0 0-2.02.83c-.11-.94 1.31-.7 1.56-1.46Zm123.45-1.5c.46-.15.62 0 .48.46-.48.16-.64 0-.48-.46Zm-105.25.63c.35-.38 1.04.14.63.54-.36.5-1.14-.15-.63-.54Zm105.78.07c.45-.14.6.03.44.5-.47.14-.61-.03-.44-.5Zm-1.07.41c.27-.48.95.06.64.47-.28.47-.98-.07-.64-.47Zm2.5.25c.84-.12 1.69.05 2.54.04.56.02 1.31.06 1.53.7-1.26.07-2.52.06-3.77.01-.3-.17-.4-.42-.3-.75Zm-116.04.28c.15.15.15.15 0 0Zm109.78.3c.83-.47.07.96 0 0Zm2.06.28c.37.19.36.38-.02.59-.37-.2-.36-.39.02-.59Zm-76.1 1.19c.11-.36.27-.7.41-1.03.1.77.15 1.55.15 2.33-.26-.4-.83-.77-.55-1.3Zm80.01-.67c1.6-.41 3.34-.2 4.87.3-.28.93-1.38.2-2.01.17-1.23.25-2.68.34-3.43 1.5l.63.59-.27.56.21 1.13c.29-.5.57-1 1-1.38-.22.84-.52 1.65-.73 2.49.31.32.36.67.15 1.05.44.48.77 1.03.84 1.7-1.88-.73-1.78-3.03-2.2-4.67l.4-.83c-.4-.2-.84-.34-1.16-.66.4-.75.79-1.73 1.7-1.95Zm-117.47.02c.45-.16.62 0 .48.47-.45.16-.61 0-.48-.47Zm1.06 1.88c2.2.21 4.45-.72 6.61.05 1.26.52 3.06-.56 3.96.79a2.9 2.9 0 0 1-1.48-.28c-1.1.11-2.49.66-3.33-.34-1.19.22-2.64-.27-3.58.66a20 20 0 0 1-1.9-.23c-.84.21-1.7.22-2.56.15-.86.29-1.66.75-2.57.9 1-1.69 3.2-1.4 4.85-1.7Zm14.72-.17c.47-.12.51.45.7.74l-1.05-.05.35-.69Zm1.73 1.17c1-1.03 2.82-1.42 3.97-.42-.62.1-1.24.01-1.86-.01-.69.2-1.38.44-2.11.43Zm-4.7-.58c.72-.16 1.44-.27 2.18-.34-.45.68-1.63 1.13-2.18.34Zm13.89.63c.34-1 1.73-.72 2.56-.64-.67.63-1.72.41-2.56.64Zm-2.14-.62c.38-.39 1.1.3.63.64-.4.33-1.06-.25-.62-.64Zm-2.5.26c.84-.46.06.95 0 0Zm15.8.49c1.4.14 2.88-.11 4.21.44.54.14 1.12.03 1.66.16-.48.19-.96.35-1.45.5-1.38-.67-2.95-.6-4.44-.69l.02-.41Zm6.57.55c.52-.46 1.74-.43 1.9.35a15.3 15.3 0 0 1-1.9-.35Z"/><path d="M128.37 93.86c.88.23.65 1.2.65 1.9.57-.54 1.18-1.1 1.98-1.24-.51.55-1.05 1.09-1.47 1.72l-.98-.02.15-1.38-.33-.98Zm-10.42 1.54a1.6 1.6 0 0 1 1.79-.8c.45-.04.17.52.17.76l-.62-.29c-.43.14-.88.25-1.34.33ZM76.62 95c.7.25.91 1 1.19 1.61-.7-.26-.94-.98-1.19-1.6Zm-47.13 2.39c.47-.78 1.13-1.41 1.74-2.08.03.13.1.4.12.55-.65.8-1.52 1.48-1.8 2.54-.49.31-1 .62-1.48.95.2-.85 1.02-1.24 1.42-1.96Zm91.82-1.64.7.3c.4.46.75.96 1.24 1.33 1.16.73 2.66.6 3.77 1.45.32 1.7.07 3.52.8 5.15.15.78.86 1.2 1.4 1.7-.55-.34-1.46.45-.54.62l.32.1v1.79a1.66 1.66 0 0 1-.61-1.27c-.32-.18-.66-.34-.95-.57-.37-.52-.39-1.27-.97-1.63-.31 1.8.75 3.34 1.32 4.96.29.83 1.33 1.31 1.24 2.3-.01 2.34.05 4.69-.05 7.03-4.1 0-8.2.02-12.3 0-.43.02-.93-.09-1.24.28-1.39 1.17-2.44 2.76-4 3.71.05-1.24-.52-2.36-.85-3.52l-.62-.32c.58-.63.07-1.38-.16-2.04 3.83-3.82 7.64-7.67 11.48-11.48.04-3.3 0-6.6.02-9.9Zm3.52 5.3a4.1 4.1 0 0 0 .1 1.52c.81-.45.38-1.36.29-2.05l1.15.53-.53-.88c.13-.72-.5-1.2-.88-1.7-.23.83-.64 1.75-.13 2.58Zm1.12-2.2c-.12.4.02.54.43.42.11-.4-.03-.54-.43-.41Zm-.51 3.49c.32.45.68.88 1.2 1.12l-.06-1.8a3.8 3.8 0 0 1-1.14.68Zm1.86 13.71c-.12.46.06.63.53.5.1-.45-.07-.62-.53-.5Zm-1.4.28c.97-.04-.37.87 0 0Zm-7.07 1.72c.16.15.16.15 0 0ZM86.16 96.3c.36.2.34.39-.05.57-.36-.2-.34-.39.05-.57Zm-8.1.69c.48.41.85.93 1.3 1.39.57.33 1.3.12 1.89.4.05.82-.93.52-1.44.67-.58-.82-1.66-1.38-1.75-2.46ZM22.84 99.3c1.43-.58 3-.75 4.36-1.53.37-.22.73.1 1.04.27-.85.26-1.64.7-2.51.89-1.85.29-3.56 1.13-5.41 1.42.53-.82 1.7-.67 2.52-1.04Z"/><path d="M120.19 98.07c.45-.18.62-.04.5.43-.46.18-.63.03-.5-.43Zm8.11.2c.35-.19.92.34.73.7-.37.15-.86-.34-.73-.7Zm-43.32 1.44c.23-.57.52-1.17 1.2-1.26-.2.58-.64 1.02-1.2 1.26Zm30.76-.71c.43-.52 1.14-.23 1.7-.29l.05.26a9.3 9.3 0 0 1-1.75.02Zm12.47.14c.13.17.13.17 0 0Zm-10.33.22c.47-.14.64.02.5.47-.48.14-.64-.02-.5-.47Zm124.55.74.3-.79.38 1.56-.76-.02-.56.49c-.05-.36-.09-.7-.11-1.06l.75-.19Zm-172.91-.02c.96-.05-.38.87 0 0Zm12.5-.21c.76.42 1.64.75 2.14 1.5-.86-.12-1.96-.55-2.14-1.5Z"/><path d="M80.27 100.44c.93.01 1.57.78 2.38 1.13 1.72.76 3.33 1.82 5.18 2.24 2.21.38 4.35 1.1 6.54 1.59l.89-.06 1.36.35-.14.47c1.11-.56 2.6-.91 3.67-.1-.79.17-1.7-.36-2.38.21.95.16 2.03.45 2.91-.12 1.93.14 3.78-.73 5.7-.52.58.26.75.93.97 1.47-6.2.85-12.47-.4-18.4-2.16-1.84-.6-3.55-1.52-5.3-2.3a11.19 11.19 0 0 1-3.38-2.2Zm162.56.97c.45-.16.61 0 .49.47-.46.16-.62 0-.5-.47Z"/><path d="M84.5 101.91c1.2.38 2.68-.5 3.67.51-1.22-.27-2.78.7-3.67-.5Zm-52.67 1.25c.95.1-.5.82 0 0Zm160.37 1.05c.95.05-.45.85 0 0Zm-160.94.71c.18.14.18.14 0 0Zm2.89.54c.87-.05-.08 1.2-.56.77-.2-.36.26-.7.56-.77Zm153.95.47c.73.67 1.64.44 2.42-.02.42.7.28 1.54.26 2.32l.53.31c.38.9.88 1.77 1 2.76.54.73 1.13 1.42 1.77 2.08-.25 1.24.78 2.22.9 3.41.16.75-.01 1.51-.3 2.21l-1.26.02-.6-1.85c.25.07.72.2.97.25a3.45 3.45 0 0 0-1.47-1.98l-.09-.5c-1.06-1.1-1.5-2.62-2.2-3.95l.86.02a10 10 0 0 0-1.4-1.19l-.7.66c-.31-.23-.64-.45-.97-.66.06.42.27.77.5 1.11.15.6.51 1.04 1.16 1.13-.1.42-.16.86-.37 1.24l-.65-.53c.1.5.25 1.01.4 1.5.26-.29.39-.63.4-1.01l.43.22.64 1.47c.34.18.93.12 1.07.57.24.74.4 1.52.92 2.14l-.7.8.93.07c-.44.43-.97.6-1.6.5-.04-.54.22-1.26-.42-1.54-.13.49.34 1.34-.28 1.59-.31-.47-.56-.96-.86-1.44-.11.5.1.95.39 1.35-2.85 0-5.71.08-8.56-.02-.34-.38 0-.9.06-1.33a6.5 6.5 0 0 1-.15-2.38l.41-.2c.15.73.64 1.57 1.47 1.59-.33-.21-.84-.47-.76-.94.07-.5.4-.9.64-1.34-.48-.4-1.02-.85-1.69-.55l-.16-.62c.21-.05.64-.14.85-.2-1.15-.82-.74-2.3-.82-3.52.6.17.54.81.68 1.3l.4-.74c.57.47 1.34.79 1.58 1.56l.38-.27.78.52a4.99 4.99 0 0 1-.48-1.84l-.62.3c-.48-.66-1.28-.94-1.86-1.49-.1-.56-.1-1.13-.15-1.7-.65.15-.65 1.05-.38 1.53l-.32-.02c0-.77 0-1.54.04-2.3.96-.02 2.02-.19 2.81.5l.54-.56c1.25.06 2.42.61 3.68.47l-.06-.8Zm-3.05 2.88c-.23.66.37 1.16.8 1.56.36.02.68-.18 1.02-.25l-.03.93.57-.24-.36-1c-.88.07-1.31-.68-2-1Zm.93 2.41c-.32.27-.17.92.27.96.59-.07.26-1.27-.27-.96Zm1.13 1c.48 0 .88-.34 1.3-.55-.26-.2-.54-.37-.83-.5-.34.24-.58.62-.47 1.05Zm-.93.43c.2.56.32 1.15.13 1.73.4.45 1.01.55 1.57.72l-.95.27c.4.55.95.96 1.66.99l-.58-.8c.47-.14.84-.03 1.12.32l.52-.65-.78.15.02-.45c-.14 0-.43.04-.57.05-.07-.53-.61-.52-.97-.7-.41-.53-.54-1.28-1.17-1.63Zm-.79 2.23c-.43.1-.54.96-.05 1.05.49-.06.59-1 .05-1.05Zm-2.58.37c.95.02-.42.87 0 0Zm7.65 1.43c.2-.4.03-1.03-.36-1.25-.53.2-.09 1.25.36 1.25Zm-7.72 1.05c-.17.33-.1.62.2.85.43-.04.2-1-.2-.85Zm-119.85-9.4c.96-.01-.41.86 0 0Zm50.71-.08c.42-.15.54-.02.36.38-.42.14-.55.01-.37-.38Zm-81.23 1.63c.24-.5.65-.87 1.12-1.14.02.67-.6.95-1.12 1.14Zm-.61.4c.96-.03-.38.87 0 0Zm-3.43 3.18c.56-.78.9-1.97 2-2.1-.63.7-.97 1.92-2 2.1Zm1.79.42c.24-.93 1.03-1.64 1.55-2.45l.62.88c-.53.27-1.4.42-1.02 1.23-.38.15-.74.36-1.15.34Zm80.32 8.4c.44-.3.77.53.5.83-.45.28-.78-.53-.5-.83Z"/></g><defs><clipPath id="a"><path fill="#fff" d="M0 0h286v128H0z"/></clipPath></defs></svg>