<svg xmlns="http://www.w3.org/2000/svg" fill="none" viewBox="0 0 207 128"><path fill="#19202A" d="M160.02 1.23a9.5 9.5 0 0 1 7.72-.73c4.78 1.6 8.82 6 9.23 11.14.28 2.71-1 5.26-2.65 7.3-3.29 4.06-7.64 7-11.68 10.21-5.67 4.74-11.32 9.5-16.97 14.26a46.85 46.85 0 0 1 5.43 13.1l-.65-.37c-1.07-2.24-1.15-5.07-3.14-6.76-1.05-2.06-2.08-4.12-3.3-6.07 1.18-1.33 2.84-2.29 3.71-3.87-.5-1.87-1.14-4.09-3.08-4.92-2.24-3.04-4.73-6-7.95-8.03-1.26-.79-2.73-1.46-4.25-1.17l-1.26-.5c6.01-5.17 12.28-10.04 18.13-15.39 3.35-2.99 6.73-6.05 10.7-8.2Z"/><path fill="#182029" d="M28.36 10.36C29.67 4.4 35.66-.6 41.88.1c3.27.62 5.98 2.72 8.57 4.7 2.89 2.27 5.58 4.79 8.3 7.25 4.91 4.2 9.92 8.28 14.86 12.44a9 9 0 0 0-7.07 2.65l.55.3a33.46 33.46 0 0 0-7.02 7.87 12.6 12.6 0 0 0-1.87 4.1c.64 1.1 1.84 1.73 2.7 2.65.25.44.47.89.7 1.34a55.66 55.66 0 0 0-4.16 8.12c-.52.52-1.08 1.04-1.28 1.77a50.93 50.93 0 0 0-1.97 7.67c-.16.69.05 1.36.25 2.01.78-.5 1.57-1.14 2.56-1.12.99-.02 1.78.64 2.54 1.18 1.25-1.77 3.2-3.26 5.45-3.2 2.22.03 3.83 1.83 5.27 3.3l.27.3c.55-1.66 1.52-3.2 3.14-3.98a7.5 7.5 0 0 1 2.76 1.5c1.34-1.6 3.2-2.99 5.38-2.93 2-.1 3.38 1.53 4.86 2.6a39.35 39.35 0 0 0-6.61-12c-.53.62-1.06 1.23-1.56 1.85-.13-.85 0-1.7.27-2.5A32.13 32.13 0 0 1 99.9 37.2c8.5-.83 17.24 2 23.72 7.56 1.32-1.1 3.06-1.97 4.82-1.47a6.39 6.39 0 0 1 3.79 3.55c1.2-1.31 2.7-2.58 4.56-2.7 1.86-.16 3.47 1.12 4.56 2.5 1.5 2.25.77 5.12-.08 7.48-1.9 4.99-4.04 9.89-6.5 14.63l.16.92c1.4-2.43 2.88-4.81 4.15-7.32.84-1.64 2.88-2.71 4.68-2.03 1.95.88 3.7 2.53 4.07 4.73.73-1.35 1.6-2.7 3.07-3.32l.63.17a12.7 12.7 0 0 1-.26-4.44c.51 1.3.7 2.69.92 4.06 1.46.32 2.56 1.32 3.68 2.24 1.7-.97 3.89-.86 5.26.65 2.9-.43 5.74 1.83 6.36 4.62 2.65-.98 5.44.4 6.77 2.77 1.18-1.44 2.62-2.92 4.58-3.1 2.1-.34 3.92 1.01 5.43 2.3a11.86 11.86 0 0 1 3.08 4.69c.38-1.33 1.17-2.96 2.78-2.96 1.79-.26 2.94 1.35 4.17 2.34 1.34-.63 2.9-.9 4.33-.36a8.9 8.9 0 0 1 4.98 5.15c.81 2.14.65 4.5.11 6.68 1.4.7 2.89 1.7 3.2 3.35.43 1.86-.94 3.48-1.76 5.03-1.6 2.53-3.77 5.37-7 5.63-3.16.1-5.53-2.86-5.8-5.82-.67 1.54-2.12 2.9-3.9 2.73-1.51.08-2.69-.98-3.73-1.92-2.45.37-4.8-1-6.12-3-2.59 1.25-5.55-.2-6.86-2.6-1.04.62-2.23 1.24-3.48.96-2.06-.45-3.52-2.3-3.98-4.29-.59-2.01-.45-4.14-.38-6.2-1.54 2.37-3.75 4.16-5.9 5.93-1.82 3.95-3.5 8.11-6.52 11.34 3.87 3.5 7.72 7.03 11.57 10.54 1.59 1.38 3.22 2.84 5.28 3.44 2.77.94 6.06 1.44 7.92 3.96 1.37 1.85 1.1 4.37.04 6.3-1.56 2.9-4.18 5.6-7.56 6.05-2.73.3-5.04-1.7-6.28-3.95-1.27-1.9-1.65-4.34-3.4-5.9-2.2-2.04-4.74-3.67-7.1-5.53-4.1-3.21-8.2-6.42-12.25-9.69a50.14 50.14 0 0 1-31.88 16.05c-15.54 1.7-31.66-4.57-42.06-16.26-4.26 3.38-8.52 6.76-12.81 10.1-2.37 1.85-4.93 3.48-7.1 5.58-1.29 1.22-1.7 3.03-2.54 4.54-1.03 2.06-2.53 4.18-4.85 4.85-1.76.58-3.67 0-5.2-.95a13 13 0 0 1-4.96-6.17l.9-1.45a9.1 9.1 0 0 0 6.39 6.44c2.96.74 5.61-1.86 6.42-4.51.14-2.68-1.97-4.64-3.2-6.8 1.59 1.18 3 3.25 5.22 2.97.7-.36 1.3-.89 1.92-1.38 5.97-5.2 12.38-9.83 18.55-14.78l-.4-.5 1.54-.11a48.6 48.6 0 0 0 26.1 16.05 49.77 49.77 0 0 0 22.45-.03c.81.25 1.67.28 2.48-.02 1.97-.65 4-1.22 5.85-2.2l.3-.73a50.87 50.87 0 0 0 19.27-15.7 8.02 8.02 0 0 1-1.66-7.47c.52-3.43 3.2-6 6.16-7.5l-.9-1.01c-.36.46-.68.95-1.09 1.37-1.36.5-2.63 1.24-4.05 1.58-1.37.06-2.73-.3-4.1-.1-.64-.37-1.22-.83-1.8-1.27-1.17.78-2.57 1-3.87 1.44l-.4.49-1.06-.79a7.94 7.94 0 0 1-3-2.62 7 7 0 0 1-6 1.86c1.55 2.14 3.04 4.35 4.97 6.17l1.02.91a31.78 31.78 0 0 1-17.98 9.8 32.2 32.2 0 0 1-20.37-3.15A32.52 32.52 0 0 1 74.8 84.73a4.58 4.58 0 0 1-5.6-.2c-1.4 1.22-3.26 2.14-5.15 1.63-1.74-.36-2.84-1.92-3.55-3.43-.1.9-.24 1.81-.61 2.65-1.3.61-2.37 1.59-3.3 2.65a12.2 12.2 0 0 1-2.63-.4c-1.16.52-2.35 1.1-3.65 1.13-1.14.04-2.16-.52-3.17-.94-1.63 2.1-4.87 2.76-6.95.95-1.12 1.82-3.17 3.3-5.4 2.63-2.75-.92-3.75-4.15-3.8-6.78a9.46 9.46 0 0 1-1.92 1.7c-1.07 4.53-4.2 8.66-8.6 10.34-2.32.97-5.15 1.1-7.24-.46-1.16 2-2.7 3.93-4.86 4.87-1.87.8-4.3.75-5.82-.74C.65 98.68.3 95.9.83 93.56c.35-1.66.71-3.67 2.31-4.6 1.36-.66 2.54.48 3.51 1.25.21-.97.45-1.93.7-2.9a9.34 9.34 0 0 1-7.28-8.3A20.7 20.7 0 0 1 5.7 63.32c3.3-3.36 7.57-6 12.27-6.76 5-.77 9.93 2.97 11.21 7.75.44 1.38.43 2.85.42 4.3 1.17.52 2.15 1.33 3.06 2.22 1.13-.88 2.3-1.88 3.8-1.99 1.24.03 2.19.88 3.08 1.65a19.87 19.87 0 0 1 2.22-4.2c-1.78-1.96-1.68-4.86-.77-7.19.72-1.6 2.71-2.75 4.4-1.86 1.28-1.2 3.35-1.7 4.77-.42 3.04 1.65 3.38 6.14 1 8.5.57.54 1.17 1.06 1.78 1.55.3-8.16 2.75-16.2 6.89-23.23-5.86-4.85-11.65-9.79-17.5-14.66-4-3.14-8.25-6.07-11.48-10.04-1.98-2.35-3.18-5.49-2.49-8.58Zm68.56 28.7c-5.3 1.1-10.48 3.45-14.4 7.24 2.2 2.43 3.82 5.32 5.36 8.2.95-3.24 1.59-6.7 3.67-9.45 1.09-1.4 2.66-2.72 4.53-2.65 1.54-.07 2.83 1 3.77 2.1l-.53-.29c1.78 3.36 1.39 7.34.2 10.82-.33 1.12-.98 2.23-.74 3.45l.24-.44a8.47 8.47 0 0 1 4.62 3.51c1.22-1.9 2.97-3.6 5.2-4.18 1.13-.28 2.44-.34 3.43.36.9.7 2.08.7 3.08 1.19 1.73-4.74 4.44-9.05 7.32-13.15a30.78 30.78 0 0 0-25.75-6.72ZM91.45 49.5c-2.1 6.53-3.7 13.28-4.07 20.16-.3 1.36-1.28 2.47-2.03 3.62-1.03 1.3-1.94 2.9-3.6 3.46.84-4.08 2.86-7.87 3.17-12.06.2-1.87-.66-4.1-2.68-4.53-2.03-.2-3.73 1.28-4.75 2.9-1.28.08-1.35 1.81-1.95 2.7-.2-1.44.42-3.3-1.01-4.25l.2.72c-.74-.8-2.1-.62-2.46.45-.54 2.8-.84 5.67-1.4 8.48-1.43 2.7-2.83 5.75-5.51 7.4.48-3.7 2.08-7.16 2.57-10.86.09-1.48.23-3.14-.68-4.42A2.79 2.79 0 0 0 64.57 62c-1.87.16-3.22 1.74-3.98 3.35a48.7 48.7 0 0 0-2.82 8.87c-.13-3.04.5-6.06.45-9.1-.07-.65-.75-.96-1.18-1.36a4.5 4.5 0 0 0-1.32 1.08l.1-.78-.7.8c-.63 3.04-.67 6.19-1.36 9.22-.26 1.3-1.4 2.6-.88 3.93-.75 1.32-1.2 3.5-3 3.6-.76-2.67.07-5.42.5-8.06.27-1.22-.69-2.21-1.76-2.56-2.45.94-1.74 3.91-2.47 5.92-.74 2.31-1.16 5.07-3.23 6.6-.97-1.13-.75-2.72-.69-4.1.33-2.92 1-5.91 2.58-8.44.42-.52.94-1.29 1.69-1.18.8.45 1.48 1.37 2.5 1.11 1.42-.44 1.78-2.33 1.12-3.5-.93-1.18-2.45-2.1-4-1.8-1.42.34-2.48 1.47-3.28 2.63l-.75.32c-2.06 2.95-2.09 6.7-3.03 10.05-.17.91-1.04 1.9-.44 2.78-.72 1.58-1.48 3.3-2.98 4.28-.79-1.6-.59-3.42-.31-5.11.12.76.3 1.51.47 2.26.07-2.87.9-5.61 1.98-8.25l-.5.22c.8-1.1.93-2.96-.35-3.74-.94-.23-1.67.47-2.39.96a15.8 15.8 0 0 1-4.27 2.27c.04-1.18.37-2.86-.95-3.49-1.2-.12-2.25.65-2.84 1.64l-.8-1.62c1.34-3.32 1.24-7.63-1.45-10.26-2.21-2.3-5.84-2.3-8.64-1.2-4.43 1.68-8.57 4.63-10.96 8.8-1.62 2.88-2.85 6.23-2.28 9.58.36 2.78 2.7 5.36 5.59 5.47.45-.25.86-.56 1.22-.94.21.67.44 1.34.7 2l.17-.37-.2 1.16c-.1-.2-.33-.57-.44-.76-.45 2.29-.83 4.6-1.6 6.81-.17.67-.59 1.36-.3 2.06a2.93 2.93 0 0 1-2.12 1.64c-1.77-.52-1.19-2.75-1.12-4.1-1.5 1.47-2 4.3-.57 6 .98 1.15 2.71.81 3.84.08 2-1.27 3.04-3.5 3.95-5.6l.04.73.74-1.14c.41.54.84 1.06 1.32 1.55l-.23-.75a3.99 3.99 0 0 0 4.16 1.5c4.43-.8 7.72-4.8 8.58-9.08l.53.66.22-2.13 1-.22c.61-1.31 1.07-2.68 1.54-4.05 1.36.2 2.69-.16 3.9-.76-.1.81-.21 1.62-.3 2.44l-.1-.25-.51-.85c-.19 2.7-.21 5.7 1.28 8.07.6 1.04 1.82 1.07 2.88.89l-.2-.6c1.98-1.83 2.62-4.53 3.68-6.91.15 1.64.06 3.53 1.32 4.79.8.94 2.31.64 3.07-.2 1.23-1.25 1.64-3 2.16-4.61.35 1.68.88 3.98 2.9 4.3 2.27.27 3.46-1.99 4.23-3.73-.09.99-.08 2.18.88 2.78 1.07.7 2.45-.27 2.62-1.4.6-3.93 1.71-7.8 3.5-11.34a8.04 8.04 0 0 1 2.78-3.37c-.4 3.96-1.38 7.91-1.07 11.9 0 1.67 1.66 3.4 3.36 2.49 2.49-1.42 3.34-4.4 4.57-6.8-.02 1.59-.74 3.14-.47 4.74.16.92.99 1.62 1.91 1.69a2.38 2.38 0 0 0 1.77-1.85l.46.68c.44-3.45 1.75-6.67 2.95-9.9l-.17-.6a11.45 11.45 0 0 1 1.97-3.02l.54.77c-.33 2.83-1.12 5.6-1.26 8.46.01.82-.14 1.76.5 2.4l.17-.83c.22 1.56 1.68 3.34 3.4 2.47 2.87-1.63 3.99-5.03 5.3-7.87.28 1.47.26 3.03.9 4.42.6 1.48 1.85 2.98 3.57 2.97 2.62.17 4.58-1.94 5.95-3.92 2.05-.44 3.32-2.28 4.53-3.83-.11 2.2 0 4.72 1.62 6.41 1.33 1.51 3.72 1.55 5.38.58 1.81-.99 2.96-2.79 3.97-4.53a5.57 5.57 0 0 0 3.88-2.03l.6-.39c-.02 2.34.13 4.92 1.55 6.88.86 1.22 2.65 1.17 3.81.42 1.88-1.1 2.75-3.17 3.89-4.92.09 1.87.27 3.92 1.52 5.4 1.02 1.2 2.86.93 4.01.1 1-.59 1.56-1.63 2.4-2.37.02 3.35 4.52 5.2 6.91 2.93 1.56-1.76 2.92-3.7 4.56-5.4-.1 1.65.11 3.58 1.64 4.55 1.72 1.09 3.88.28 5.2-1.07-.6 1.37-1 2.82-1.56 4.2-1.99 1.26-4.3 1.98-6.18 3.43a8.7 8.7 0 0 0-3.07 4l.03-.78-.52.36c-.94 2.6.56 6.06 3.51 6.33l-.46-.47a4.96 4.96 0 0 0 4.9-2.11c2.22-2.88 3.74-6.23 5.1-9.58.33-1.04 1.41-1.47 2.16-2.13a17.99 17.99 0 0 0 5.68-7.3c.62.4 1.24.82 1.94 1.1l-.45.28 1.49.45c-.31 3.17-1.07 6.54.43 9.55l.47-.23c.52.72 1.44 1.58 2.38 1.06 1.9-.95 2.75-3 3.9-4.66-.13 2-.25 4.27 1.1 5.92.76 1.04 2.42 1.28 3.34.32.94-.71 1.23-1.9 1.91-2.8 0 2.3.73 5.23 3.23 5.95 1.54.58 2.64-.87 3.48-1.92l-.1 1.38c-.17 1.6 1.89 3.38 3.24 1.98a28.53 28.53 0 0 1 4.44-9.35 5.2 5.2 0 0 1 2.91-1.97c-.59 3.28-1.68 6.46-2.03 9.79-.15 1.54.01 3.33 1.25 4.42.9.94 2.46.86 3.45.09 2.02-1.47 3.24-3.73 4.4-5.9.28-.45.2-.87-.25-1.23-.92 1-1.76 2.1-2.84 2.94-.9.72-1.89 1.62-3.12 1.42.64-2.24 1.67-4.34 2.57-6.47l.01.82c1.5-1.66 1.45-4.04 1.48-6.14.01-1-.06-2.3-1.1-2.78l.13.7c-.85-1.4-2.26-2.77-4.05-2.5-1.94.23-2.86 2.17-3.72 3.68-1.4-1.4.84-3.44-.72-4.72l-.04.65c-.39-.84-1.72-2.15-2.39-.85l-.55-.2c-.66 2.77-1.54 5.5-1.95 8.31l.47-.42c-1.06 2.16-2.31 4.46-4.45 5.72-.3-.41-.92-.72-.84-1.32-.03-2.22.67-4.36 1.4-6.43.46-1.3-.3-2.8-1.47-3.44-.8-.4-1.72.1-1.9.96-.62 2.56-1.49 5.18-3.23 7.22-.45.55-1.48 1.28-1.85.23-.54-1.88.11-3.9.63-5.74.76-2.09 1.69-4.45 3.84-5.47 1.12.64 1.62 1.9 2.51 2.78.78.1 1.61-.03 1.94-.85.55-1.87-.86-3.53-2.09-4.76-1.18-1.2-3.2-1.61-4.58-.5-2.43 1.92-3.3 5.06-4.12 7.91-1.14 2.26-2.53 4.66-4.9 5.78-.89-1.25-.54-2.85-.26-4.24.47-2.14 1.23-4.35 2.88-5.87 1.37-1.15.66-3.57-.89-4.23l.64-.07-.47-.45c-1.76-.18-3.52.55-5.3.32a27.44 27.44 0 0 0-.23-3.11l-.5.4a2.68 2.68 0 0 0-2.68-1.36c-.76.2-1.14.9-1.59 1.47 0-1.01-.2-2.17-1.2-2.66-1.02-.66-2.1.44-2.3 1.41-.64 2.36-1.23 4.73-1.94 7.07-.62 1.43-1.57 2.87-3.02 3.55-.43-.3-.9-.52-1.42-.64-.05-2.38 1.63-4.27 2.33-6.45l-.62.28c.55-1.03 1.2-2 1.77-3 .74-1.2.25-2.95-.97-3.62-.85-.52-1.9.04-2.33.85a29.93 29.93 0 0 0-3.6 8.1c-.94 1.36-2.06 2.58-3.12 3.84.27-1.79.09-3.6-.27-5.35a7.54 7.54 0 0 1 1.07-5.36c.91-1.52-.31-4-2.2-3.73-1.05.2-1.49 1.26-1.92 2.11-1.58 3.14-3.73 5.94-5.2 9.13-1.1 1.83-2.47 3.82-4.67 4.37-.88-1.91-.42-4.06-.3-6.07.24-1.35.14-2.82.9-4.02 2.4-4.38 4.4-8.95 6.27-13.57.74-2.06 1.87-4.13 1.66-6.38-.07-1.19-1.52-1.88-2.56-1.48-2.16.68-3.44 2.75-4.5 4.61-3.1 6.14-4.39 13-5.03 19.8-1.17 2.45-2.64 5.16-5.25 6.32-.06-2.81.12-5.63-.04-8.44-.63 1.1-.38 2.39-.36 3.59.1 1.52-.08 3.05.1 4.57-.46-.42-.4-1.14-.52-1.7-.13-2.37.18-4.73.46-7.07 2.78-5.78 5.47-11.64 7.46-17.76.34-1.27.88-2.68.34-3.97-.53-1.2-2.12-1.27-3.1-.64-1.95 1.16-3.13 3.21-4.12 5.18l.08-.81c-.92.81-1.2 2.04-1.64 3.12-.45 1.3-1.01 2.57-1.16 3.94l.44.51a69.1 69.1 0 0 0-1.93 12.33A8.12 8.12 0 0 1 114.4 72c1.06-2.95 2.16-6.19 1.36-9.35a3.17 3.17 0 0 0-3.59-2.2c-1.04-1.83-3.4-1.14-4.74-.06-2.61 2.09-3.84 5.38-4.66 8.53-.15.67-.67 1.16-1.13 1.64-.92-1.15.26-2.51.27-3.79.17-2.05.6-4.83-1.45-6.11l.29.76c-.76-.76-1.83-1.46-2.95-1.16-1.68.43-2.76 1.97-3.54 3.42-1.55 3-2.03 6.83-.32 9.87.34.66 1.13 1 1.35 1.72-.94.76-2.14 1.54-3.4 1.19-1.22-.81-1.05-2.53-1.15-3.81.18-3.02.55-6.12 1.91-8.86 1.18-2.7 2.46-5.34 3.54-8.07l.54.15c1.32-3.26 2.31-6.74 1.79-10.3l-.48.32-.04.38c-.27-1.07-1.21-2.11-2.4-1.77-2.16.77-3.37 2.96-4.14 5Zm-44.31 9.07c-.98.96-.88 2.76.28 3.54 1.41.47 2.5-1.27 2.14-2.51-.12-1.1-1.56-1.97-2.42-1.03Zm-3.78.73c-1.46.95-.96 4.26 1.1 3.69 2.05-.75 1.17-4.85-1.1-3.69Zm80.84 12.02c.7-.14 1.02-1.3.76-1.93-.76-.02-.99 1.34-.76 1.93ZM97.15 82.26c-2.23 1.75-5.58 2.18-8 .57a35.92 35.92 0 0 1-6.55 9.35 30.2 30.2 0 0 0 20.19 7.64 30.4 30.4 0 0 0 19.98-7.37c-3.56-3.74-6.57-8.13-8.13-13.1-1.84 2.75-5.1 4.94-8.52 4.27-2.53-.37-4.37-2.47-5.38-4.7-1.39.91-2.2 2.44-3.6 3.34Zm-20.38-1.72a7.14 7.14 0 0 1-.97 3.11 30.36 30.36 0 0 0 4.38 6.13 40.48 40.48 0 0 0 4.96-6.56c-1.28.75-2.7 1.56-4.24 1.22-2.06-.24-3.47-2.06-4.13-3.9Zm66.55 17.82.18.5-.4-.22c-.7.92-1.4 1.82-2.15 2.69 4.74 3.8 9.6 7.47 14.36 11.27 1.94 1.53 3.7 3.3 5.76 4.68 2.27.35 3.67-1.81 5.3-2.98-1.1 1.95-2.84 3.62-3.18 5.93-.25 1.2.53 2.26 1.19 3.18 1.1 1.5 2.91 2.63 4.83 2.28 2.64-.48 4.87-2.42 6.13-4.74.97-1.67.77-4-.7-5.3-1.87-1.67-4.44-2.04-6.72-2.83-2.53-.7-4.44-2.62-6.37-4.3-3.67-3.37-7.37-6.72-11.04-10.08l-.66.39.26-.52c-1.2.26-2.38.73-3.63.76-1.08-.08-2.11-.48-3.16-.7Z"/><path fill="#182029" d="M156.35 80.2c1.42-3.87 2.6-7.83 3.6-11.83-.2 2.02.42 4.17 2.13 5.4-.79 2.92-3.27 4.9-5.73 6.43Z"/><path fill="#0F171F" d="M76.3 26.78a49.34 49.34 0 0 1 30.3-7.5 49.13 49.13 0 0 1 22.51 7.33c.68-.6 1.37-1.2 2.07-1.79l1.26.5c-.84.61-1.62 1.3-2.4 1.97a50.78 50.78 0 0 1 14.5 14.5c.83-.77 1.86-1.4 2.45-2.39-.38-1.8-1.41-3.34-2.35-4.88 1.94.83 2.58 3.05 3.08 4.92-.87 1.58-2.53 2.54-3.72 3.87a48.82 48.82 0 0 0-32.42-22.07c-9.05-1.56-18.58-.76-27.09 2.81A48.75 48.75 0 0 0 61.6 43.4c-.22-.45-.44-.9-.69-1.34A51.52 51.52 0 0 1 75.28 27.5c-1.07-.88-2.01-2.31-3.54-2.28-1.76.18-3.25 1.22-4.65 2.22l-.55-.31a9 9 0 0 1 7.07-2.65c.88.78 1.79 1.53 2.69 2.3Z"/><path fill="#fff" d="M84.5 24.05c8.5-3.57 18.03-4.37 27.08-2.8A48.82 48.82 0 0 1 144 43.3c1.23 1.95 2.26 4.01 3.31 6.07 1.7 3.94 2.93 8.1 3.59 12.35-1.48.61-2.34 1.97-3.07 3.32-.37-2.2-2.12-3.85-4.07-4.73-1.8-.68-3.84.39-4.68 2.03-1.27 2.5-2.76 4.89-4.15 7.32-.03-.23-.11-.7-.16-.92 2.46-4.74 4.6-9.64 6.5-14.63.85-2.36 1.58-5.23.08-7.49-1.1-1.37-2.7-2.65-4.56-2.5-1.86.13-3.35 1.4-4.56 2.71a6.39 6.39 0 0 0-3.79-3.55c-1.76-.5-3.5.38-4.82 1.47A32.1 32.1 0 0 0 99.9 37.2a32.13 32.13 0 0 0-21.13 10.76 33.86 33.86 0 0 0-6.63 11.86c-1.04.8-1.95 1.9-1.88 3.3-1.44-1.47-3.05-3.27-5.27-3.3-2.26-.06-4.2 1.43-5.45 3.2-.76-.54-1.55-1.2-2.54-1.18-.99-.02-1.78.62-2.56 1.12.8-3.86 1.54-7.76 3-11.45 1.2-2.8 2.51-5.55 4.15-8.12a48.75 48.75 0 0 1 22.9-19.34Zm15.07 1.4c.11 2.4.07 4.82.22 7.21.45 1.44 2.15.94 3.27 1l-.1-1.4c-.66.08-1.32.14-1.98.19a119 119 0 0 0-.08-2.69c.67-.02 1.35-.04 2.03-.04l-.07-1.34-1.96.2a9 9 0 0 0-.4-2.95l.3-.31c.6.36 1.2.73 2 .6v-1.35c-1.12.13-2.52-.24-3.23.89Zm9.24-.58c-.34 3.07-1.04 6.1-1.38 9.16l1.19.18c.49-2.95.9-5.91 1.5-8.84l-1.31-.5Zm-15.38 1.92c.36 2.2.65 4.43 1.14 6.61.53 1.34 2.15.77 3.2.54.99-.48.84-1.68.57-2.57l-1.21.07.2 1.31-1.6.27c-.37-2.38-.86-4.74-1.18-7.14l.12.73c.53-.08 1.06-.15 1.59-.2l.22 1.2c.32-.05.96-.19 1.29-.26-.23-.63-.19-1.45-.73-1.92-.6-.66-1.53-.19-2.27-.14-.73.05-1.54.7-1.34 1.5Zm17.83 2.95c-.04 1.3 1.52 1.39 2.43 1.73l-.72 2.5c-.75-.23-1.53-.57-2.28-.11.72-.2.93-.87 1.14-1.5-.3-.13-.91-.4-1.22-.52-.2.8-.68 1.67-.19 2.46.78.69 1.88.84 2.87.86.88-.35 1-1.35 1.22-2.14.46-1.8 1.1-3.55 1.46-5.38-.22-1.39-1.99-1.51-3.11-1.6-1.23.75-1.2 2.44-1.6 3.7Zm-23.28-2.48c-.47.08-.93.18-1.4.27 1.05 2.86 1.98 5.75 2.96 8.63l1.21-.49c-.9-2.42-1.65-4.88-2.54-7.3l1.71-.6c.82 2.45 1.67 4.9 2.45 7.36l1.19-.35a944.3 944.3 0 0 1-2.2-6.62c-.22-.6-.42-1.34-1.1-1.55-.83-.2-1.57.3-2.28.65Zm29.53 1.4 2.42 1.03c-1.55 2.13-2.96 4.36-4.54 6.46l1.22.58c1.78-2.49 3.45-5.06 5.23-7.56-1.2-.56-2.4-1.07-3.58-1.67-.26.38-.5.78-.75 1.17Zm-34.3.5c1.4 2.69 2.6 5.46 3.97 8.15l1.1-.57c-1.28-2.75-2.63-5.48-3.93-8.23l-1.13.65ZM78.49 32c-.84 1.28.67 2.45 1.21 3.52 1.19.09 2.36.25 3.55.33l1.07 1.49-1.34.96-.64-1.02-1.08.66c.4.68.81 1.6 1.73 1.63a4.96 4.96 0 0 0 2.44-1.58c.33-1.32-.86-2.27-1.42-3.31-1.16-.12-2.35-.08-3.48-.34-.42-.42-.72-.94-1.07-1.42l1.28-.96.71.98 1.07-.74c-.5-.6-.97-1.6-1.9-1.5-.8.23-1.48.78-2.13 1.3Zm41.22 3.2c.63.54 1.33.98 2.04 1.38-.44.76-.91 1.5-1.4 2.22l1.16.72 1.19-2.02c.6-.02 1-.44 1.33-.91l-.39-.63c.94-1.36 1.73-2.8 2.7-4.15l-1.12-.74c-1.82 1.4-4.06 2.3-5.5 4.14Z"/><path fill="#fff" d="M112.48 29.8c.3-.93.6-1.87.72-2.84.5.77 1.56.75 2.3.35-1.21.36-1.05 1.82-1.36 2.78a14.7 14.7 0 0 1-1.66-.3Zm-15.56 9.25a30.78 30.78 0 0 1 25.75 6.72c-2.88 4.1-5.59 8.41-7.32 13.15-1-.5-2.18-.48-3.08-1.19-1-.7-2.3-.64-3.43-.36-2.23.58-3.98 2.29-5.2 4.18a8.47 8.47 0 0 0-4.62-3.51c1.12-2.4 1.81-5 2.09-7.63.12-2.01.07-4.27-1.26-5.9-.94-1.12-2.23-2.18-3.77-2.1-1.87-.08-3.44 1.24-4.53 2.64-2.08 2.75-2.72 6.2-3.67 9.44-1.54-2.87-3.16-5.76-5.36-8.2 3.92-3.78 9.1-6.14 14.4-7.24Zm.23 43.21c1.39-.9 2.2-2.43 3.59-3.34 1.01 2.23 2.85 4.33 5.38 4.7 3.42.67 6.68-1.52 8.52-4.26 1.56 4.96 4.57 9.35 8.13 13.1a30.4 30.4 0 0 1-19.98 7.36 30.2 30.2 0 0 1-20.19-7.64 35.92 35.92 0 0 0 6.55-9.35c2.42 1.6 5.77 1.18 8-.57Zm-7.66 21.61 1.5.61c-.3.76-.59 1.52-.85 2.29l-1.55-.4.9-2.5Z"/><path fill="#000414" d="M99.57 25.46c.71-1.13 2.1-.76 3.23-.89v1.35c-.8.13-1.4-.24-2-.6l-.3.31a9 9 0 0 1 .4 2.96l1.96-.21.07 1.34c-.68 0-1.36.02-2.03.04.04.9.06 1.79.07 2.69.67-.05 1.33-.1 2-.19l.1 1.4c-1.13-.06-2.83.44-3.28-1-.15-2.4-.1-4.8-.22-7.2Zm-6.14 1.34c-.2-.81.6-1.46 1.34-1.51.74-.05 1.68-.52 2.27.14.54.47.5 1.29.73 1.92l-1.3.27-.21-1.2c-.53.04-1.06.1-1.59.2l-.12-.74c.32 2.4.81 4.76 1.19 7.14.52-.1 1.05-.18 1.58-.27-.04-.33-.14-.99-.2-1.3l1.22-.08c.27.89.42 2.09-.57 2.57-1.05.23-2.67.8-3.2-.54-.49-2.18-.78-4.4-1.14-6.6Zm24.08 1.87c.24-.4.5-.79.75-1.17 1.17.6 2.39 1.1 3.58 1.67-1.78 2.5-3.45 5.07-5.23 7.56l-1.22-.57c1.58-2.11 2.99-4.34 4.54-6.47l-2.42-1.02ZM72.14 59.82a33.86 33.86 0 0 1 6.63-11.86 5.3 5.3 0 0 0-.27 2.5 35.06 35.06 0 0 0-4.83 8.98c-1.62.78-2.59 2.32-3.14 3.97l-.27-.29c-.07-1.4.84-2.5 1.88-3.3ZM112 64.59c.12-.74.8-1.14 1.32-1.58.79.76.9 1.9.9 2.93-.11 1.9-.6 3.75-1.28 5.53-1.6-1.9-1.5-4.6-.94-6.88Zm.98-.89c-.35 2.05.03 4.14-.34 6.2.51-2.03.19-4.13.34-6.2Zm16.35 20.93 1.06.79a33.43 33.43 0 0 1-4.07 5.53l-1.02-.9a37.28 37.28 0 0 0 4.03-5.42Zm-.9 9.74c1.24-.71 1.7-2.78 3.36-2.55 2.25 1.62 4.14 3.72 6.24 5.53l-.87.94c-1.88-1.8-3.82-3.52-5.72-5.3l-1.15 1.33c1.9 1.75 3.8 3.5 5.72 5.24l-.88.96c-2.2-2.09-4.48-4.09-6.7-6.15Zm-13.32 8.53 1.24-.42c.68 2.42 1.44 4.84 2.13 7.27.62 1.73-2 2.64-3.19 1.9-.73 1.08-2.78 1.91-3.63.6-.86-2.53-1.48-5.13-2.32-7.66l1.26-.4c.68 2.5 1.46 5 2.16 7.5l1.7-.56c-.8-2.44-1.4-4.94-2.22-7.37l1.23-.43c.68 2.5 1.45 4.98 2.13 7.49l1.75-.5c-.77-2.47-1.43-4.96-2.24-7.42Zm-18.95 5.5c1.23.18 2.47.3 3.7.43l-.09 1.03c-1.18.32-2.51-.3-3.76-.26l.15-1.2Z"/><path fill="#000012" d="m108.8 24.87 1.32.5c-.6 2.93-1.01 5.89-1.5 8.84l-1.2-.18c.35-3.07 1.05-6.09 1.39-9.16Zm-30.32 7.12c.65-.52 1.33-1.07 2.14-1.3.92-.1 1.39.9 1.89 1.5l-1.07.74-.71-.98-1.28.96c.35.48.65 1 1.07 1.42 1.13.26 2.32.22 3.48.34.56 1.04 1.75 2 1.42 3.3a4.96 4.96 0 0 1-2.44 1.6c-.92-.05-1.32-.96-1.73-1.64l1.08-.66.64 1.02 1.34-.96-1.07-1.5c-1.19-.07-2.36-.23-3.55-.32-.54-1.07-2.05-2.24-1.21-3.52Zm83.59 36.07c.56-.13 1.25-.16 1.52.46.05.7-.02 1.4-.06 2.1a5.33 5.33 0 0 1-1.67-1.85l.21-.71ZM15.04 73.69c.26 1.09.4 2.2.42 3.32l1.33.25c-.73.26-1.36.73-1.53 1.55.85.03 1.67-.17 2.5-.33 1.93-.4 4.13.76 4.73 2.69.8 2.6-.32 5.43-1.95 7.49.67-2.64 2.76-5.54.99-8.19-1.5-2.15-4.33-1.11-6.5-1.2-.64 3.04-1.06 6.14-1.98 9.12-.63 1.05-.16 2.17.3 3.17l.22.75a15 15 0 0 1-1.32-1.55l-.74 1.14-.04-.72c2.03-5.62 2.86-11.58 3.57-17.5Z"/><path fill="#FEFEFE" d="M67.1 27.44c1.39-1 2.88-2.04 4.64-2.22 1.53-.03 2.47 1.4 3.54 2.28A51.52 51.52 0 0 0 60.9 42.05c-.86-.92-2.06-1.56-2.7-2.65a12.6 12.6 0 0 1 1.87-4.1 33.46 33.46 0 0 1 7.02-7.86Zm62.93-.15c.79-.67 1.57-1.36 2.41-1.97 1.52-.3 3 .38 4.25 1.17 3.22 2.04 5.71 4.99 7.95 8.03.94 1.54 1.97 3.09 2.35 4.88-.6.99-1.62 1.62-2.45 2.4a50.78 50.78 0 0 0-14.5-14.51Zm-8.34 7.58c.6-.4 1.2-.8 1.82-1.17-.36.6-.74 1.2-1.14 1.79l-.68-.62ZM91.45 49.5c.77-2.03 1.98-4.22 4.13-4.99 1.2-.34 2.14.7 2.4 1.77.4 3.26-.62 6.46-1.8 9.45-1.08 2.73-2.36 5.38-3.54 8.07-1.36 2.74-1.73 5.84-1.9 8.86.09 1.28-.08 3 1.14 3.8 1.26.36 2.46-.42 3.4-1.18-.22-.72-1.01-1.06-1.35-1.72-1.7-3.04-1.23-6.87.32-9.87.78-1.45 1.86-3 3.54-3.42 1.12-.3 2.19.4 2.95 1.16 1.63 3.5.14 7.44-1.16 10.78a17.9 17.9 0 0 0 2.05-1.64c.46-.48.98-.97 1.13-1.64.82-3.15 2.05-6.44 4.66-8.53 1.34-1.08 3.7-1.77 4.74.06a3.17 3.17 0 0 1 3.59 2.2c.8 3.16-.3 6.4-1.36 9.35a8.12 8.12 0 0 0 3.27-2.06c.32-4.15.87-8.3 1.93-12.33a48.53 48.53 0 0 1 2.28-6.76c1-1.97 2.17-4.02 4.12-5.18.98-.63 2.57-.55 3.1.64.54 1.3 0 2.7-.34 3.97-2 6.12-4.67 11.98-7.46 17.76-.28 2.34-.59 4.7-.47 7.07.12.56.07 1.28.53 1.7l.3.28c2.6-1.16 4.08-3.87 5.25-6.33.64-6.79 1.94-13.65 5.04-19.79 1.05-1.86 2.34-3.93 4.49-4.61 1.04-.4 2.49.3 2.56 1.48.21 2.25-.92 4.32-1.66 6.38-1.87 4.62-3.88 9.2-6.27 13.57-.76 1.2-.66 2.67-.9 4.02-.12 2-.58 4.16.3 6.07 2.2-.55 3.56-2.54 4.68-4.37 1.46-3.19 3.61-6 5.19-9.13.43-.85.87-1.9 1.92-2.11 1.89-.27 3.11 2.21 2.2 3.73a7.54 7.54 0 0 0-1.07 5.36c.36 1.76.54 3.56.27 5.35 1.06-1.26 2.18-2.48 3.11-3.83.79-2.86 2.02-5.6 3.61-8.1.43-.82 1.47-1.38 2.33-.86 1.22.67 1.7 2.42.97 3.61-.58 1.01-1.22 1.98-1.77 3-1.15 2-2.22 4.07-2.57 6.37.71.35 1.46.73 2.28.45 1.45-.68 2.4-2.12 3.02-3.55.7-2.34 1.3-4.71 1.94-7.07.2-.97 1.28-2.07 2.3-1.4 1 .48 1.2 1.64 1.2 2.65.45-.56.83-1.27 1.59-1.47a2.68 2.68 0 0 1 2.69 1.36c.1 1.05.07 2.1-.04 3.16 1.97.28 3.94.03 5.89-.25 1.55.66 2.26 3.08.89 4.23-1.65 1.52-2.41 3.73-2.88 5.87-.28 1.4-.63 2.99.26 4.24 2.37-1.12 3.76-3.52 4.9-5.78.83-2.85 1.7-5.99 4.12-7.91 1.38-1.11 3.4-.7 4.58.5 1.23 1.23 2.64 2.89 2.1 4.76-.34.82-1.17.95-1.95.85-.89-.89-1.4-2.14-2.51-2.78-2.15 1.02-3.08 3.38-3.84 5.47-.52 1.84-1.17 3.86-.63 5.74.37 1.05 1.4.32 1.85-.23 1.74-2.04 2.6-4.66 3.24-7.22a1.33 1.33 0 0 1 1.89-.96c1.17.63 1.93 2.14 1.47 3.44-.73 2.07-1.43 4.21-1.4 6.43-.08.6.55.9.84 1.32 2.14-1.26 3.39-3.56 4.46-5.72.82-2.52 1.24-5.16 2.02-7.69.67-1.3 2 .01 2.38.85-.16 3.08-1.08 6.07-1.3 9.15.6-1.73 1.17-3.48 2.06-5.08.87-1.5 1.8-3.45 3.73-3.68 1.79-.27 3.2 1.1 4.05 2.5.84 2.43.42 5.06-.52 7.4-.9 2.13-1.93 4.23-2.57 6.47 1.23.2 2.22-.7 3.12-1.42 1.08-.85 1.92-1.93 2.84-2.94.45.36.53.78.24 1.23-1.15 2.17-2.37 4.43-4.4 5.9-.98.77-2.55.85-3.44-.1-1.24-1.08-1.4-2.87-1.25-4.41.35-3.33 1.44-6.51 2.03-9.79-1.16.32-2.2.97-2.9 1.97a28.53 28.53 0 0 0-4.45 9.35c-1.35 1.4-3.41-.37-3.24-1.98l.1-1.38c-.84 1.05-1.94 2.5-3.48 1.92-2.5-.72-3.23-3.65-3.23-5.95-.68.9-.97 2.09-1.91 2.8-.92.96-2.58.72-3.34-.32-1.35-1.65-1.23-3.91-1.1-5.92-1.15 1.65-2 3.7-3.9 4.66-.94.52-1.86-.34-2.38-1.06-1.24-3.1-.76-6.6 0-9.77l-1.94-.28a10.2 10.2 0 0 1-1.94-1.1 17.99 17.99 0 0 1-5.68 7.3c-.75.66-1.83 1.1-2.15 2.13-1.37 3.35-2.89 6.7-5.1 9.58a4.96 4.96 0 0 1-4.9 2.11c-.85-.5-1.77-1.02-2.22-1.95-.63-1.05-.41-2.34-.35-3.5a8.7 8.7 0 0 1 3.07-4c1.88-1.44 4.2-2.16 6.18-3.42.57-1.38.97-2.83 1.55-4.2-1.3 1.35-3.47 2.16-5.19 1.07-1.53-.97-1.75-2.9-1.64-4.54-1.64 1.69-3 3.63-4.56 5.39-2.39 2.27-6.9.42-6.9-2.93-.85.74-1.41 1.78-2.41 2.37-1.15.83-3 1.1-4.01-.1-1.25-1.48-1.43-3.53-1.52-5.4-1.14 1.75-2 3.83-3.89 4.92-1.16.75-2.95.8-3.8-.42-1.43-1.96-1.58-4.54-1.56-6.88l-.6.4a5.57 5.57 0 0 1-3.88 2.02c-1.01 1.74-2.16 3.54-3.97 4.53-1.66.97-4.05.93-5.38-.58-1.62-1.69-1.73-4.2-1.62-6.41-1.21 1.55-2.48 3.4-4.53 3.83-1.37 1.98-3.33 4.09-5.95 3.92-1.72.01-2.97-1.5-3.56-2.97-.65-1.4-.63-2.95-.9-4.42-1.32 2.84-2.44 6.24-5.3 7.87-1.73.87-3.2-.9-3.41-2.47-.12-4.08 1-8.04 1.53-12.04-.5.4-1.01.8-1.48 1.24-.85.86-1.43 1.95-1.97 3.03a36.12 36.12 0 0 0-3.24 9.8c-.14.92-.9 1.62-1.77 1.86a2.12 2.12 0 0 1-1.91-1.7c-.27-1.59.45-3.14.47-4.73-1.23 2.4-2.08 5.38-4.57 6.8-1.7.91-3.36-.82-3.36-2.48-.3-4 .67-7.95 1.07-11.91a8.04 8.04 0 0 0-2.77 3.37 37.62 37.62 0 0 0-3.5 11.33c-.18 1.14-1.56 2.11-2.63 1.4-.96-.59-.97-1.78-.88-2.77-.77 1.74-1.96 4-4.23 3.72-2.02-.3-2.55-2.6-2.9-4.3-.52 1.62-.93 3.37-2.16 4.62-.76.84-2.26 1.14-3.07.2-1.26-1.26-1.17-3.15-1.32-4.8-1.06 2.39-1.7 5.1-3.69 6.91-.82.37-1.86.14-2.29-.7-1.08-2-1.01-4.35-1.05-6.55.09-.82.2-1.63.3-2.44-1.21.6-2.54.96-3.9.76-.47 1.37-.93 2.74-1.54 4.05l-.61-.24c.47-1.26.9-2.54 1.3-3.83-2.37-.78-3.19-3.7-2.04-5.8.59-1 1.65-1.76 2.84-1.64 1.32.63 1 2.31.95 3.5A15.78 15.78 0 0 0 34.54 72c.72-.49 1.45-1.19 2.4-.96 1.27.78 1.15 2.64.34 3.74a14.95 14.95 0 0 0-1.95 5.77c-.28 1.7-.48 3.52.31 5.11 1.5-.98 2.26-2.7 2.98-4.28.64-1.59 1.4-3.17 1.6-4.9.41-2.86 1.12-5.75 2.62-8.25.8-1.16 1.86-2.29 3.28-2.63 1.55-.3 3.07.62 4 1.8.66 1.17.3 3.06-1.12 3.5-1.02.26-1.7-.66-2.5-1.11-.75-.1-1.27.66-1.69 1.18-1.58 2.53-2.25 5.52-2.58 8.45-.06 1.37-.28 2.96.7 4.09 2.06-1.53 2.48-4.29 3.22-6.6.73-2 .02-4.98 2.47-5.92 1.07.35 2.03 1.34 1.75 2.56-.42 2.64-1.25 5.4-.49 8.06 1.8-.1 2.25-2.28 3-3.6.75-1.89 1.7-3.74 1.9-5.8l.94-7.37c.37-.44.81-.8 1.32-1.08.43.4 1.1.7 1.18 1.36.06 3.04-.58 6.06-.45 9.1.74-3.02 1.51-6.05 2.82-8.87.76-1.6 2.11-3.19 3.98-3.35a2.8 2.8 0 0 1 2.68 1.28c.9 1.28.77 2.94.68 4.42-.5 3.7-2.09 7.16-2.57 10.87 2.68-1.66 4.08-4.72 5.51-7.41.56-2.8.86-5.67 1.4-8.48.37-1.07 1.72-1.25 2.46-.45.53 3.27-.55 6.59-.58 9.88.9-3.09 1.82-6.2 3.34-9.06 1.02-1.61 2.72-3.1 4.75-2.89 2.02.42 2.88 2.66 2.68 4.53-.3 4.19-2.33 7.98-3.17 12.06 1.66-.55 2.57-2.17 3.6-3.46.75-1.15 1.73-2.26 2.03-3.62.37-6.88 1.98-13.63 4.07-20.16Zm4.02-1.92C94 51.01 93.78 54.78 93 58.4c1.11-1.53 1.83-3.3 2.6-5 .88-2.2 1.75-4.68.84-7.01-.43.3-.8.69-.97 1.2Zm31.15 1c-1.84 3.76-2.91 7.82-3.97 11.85 2-2.77 3.29-5.97 4.58-9.11.55-1.3.7-2.69.72-4.08-.7.14-1.03.77-1.33 1.34Zm8.9 2.61a69.7 69.7 0 0 0-3.36 10.04c1.37-1.77 2.34-3.82 3.33-5.82.93-2.33 2.45-4.64 2.08-7.26-1.1.67-1.55 1.93-2.04 3.04ZM96.7 66.55c-.55 1.87-.62 4.15.9 5.6 1.24-2.7 2.5-6.07 1.12-8.94-1.16.73-1.64 2.09-2.02 3.34Zm15.3-1.96c-.56 2.28-.66 4.97.94 6.88a18.82 18.82 0 0 0 1.28-5.53c0-1.04-.11-2.17-.9-2.93-.52.44-1.2.84-1.32 1.58Zm-6.5 10.19c.01.98.85 1.88 1.87 1.78 1.81-.02 3.13-1.46 4.27-2.7a8.09 8.09 0 0 1-3.89-7.16 13.62 13.62 0 0 0-2.25 8.08Zm30.9 0c-.21 1.34-.08 3.09 1.26 3.82 1 .4 2.38.18 2.89-.88.76-1.57.28-3.38-.18-4.97a12.12 12.12 0 0 1-.64-5.2 24.55 24.55 0 0 0-3.33 7.23Zm25.67-6.72-.21.71c.45.7.93 1.4 1.67 1.84.04-.7.1-1.4.06-2.09-.27-.62-.97-.58-1.52-.46Zm-5.72 12.14c2.46-1.52 4.94-3.51 5.72-6.44-1.7-1.22-2.33-3.37-2.12-5.39-1 4-2.18 7.96-3.6 11.83ZM27.61 73.12c.52.53 1.08 1.28 1.9 1.23.14-.87.14-1.77-.37-2.5-.63.26-1.1.75-1.53 1.27Zm117.54 17.73c-.56.96.85 1.68 1.56 1.1 1.8-1.47 2.57-3.76 3.66-5.74-1.97 1.2-4.27 2.4-5.22 4.64Z"/><path fill="#FEFEFE" d="M78.5 50.46c.5-.62 1.03-1.23 1.56-1.84a39.35 39.35 0 0 1 6.61 12c-1.48-1.08-2.86-2.7-4.86-2.61-2.18-.06-4.04 1.33-5.38 2.93a7.5 7.5 0 0 0-2.76-1.5 34.76 34.76 0 0 1 4.83-8.98Zm-62.9 8.88c2.8-1.1 6.42-1.1 8.63 1.2 2.69 2.63 2.79 6.94 1.45 10.26a11.97 11.97 0 0 1-2.77 4.08c-.52.5-1.09.96-1.65 1.43a4.33 4.33 0 0 1 3.5 1.34c1.59 1.68 1.58 4.18 1.32 6.33-.86 4.29-4.15 8.28-8.58 9.08a3.99 3.99 0 0 1-4.16-1.5c-.45-1-.92-2.12-.29-3.17.9.94 1.3 2.59 2.78 2.78 1.89.12 3.56-1.14 4.71-2.51 1.63-2.06 2.75-4.88 1.95-7.5a4.18 4.18 0 0 0-4.74-2.68c-.82.16-1.64.36-2.5.33.18-.82.8-1.29 1.54-1.55 3.11-1.38 5.19-4.47 6.02-7.7.37-1.75.44-3.77-.7-5.27-1.15-1.52-3.2-1.97-5-2-4.24.22-8.48 2.16-11.13 5.54a10.14 10.14 0 0 0-2.3 6.14c.12 1.8.93 3.7 2.53 4.66 1.03.64 2.35.38 3.36 1.04.19.9.05 1.8-.41 2.58-.36.38-.77.69-1.22.94-2.89-.11-5.23-2.7-5.6-5.47-.56-3.35.67-6.7 2.29-9.58 2.4-4.17 6.53-7.12 10.96-8.8Z"/><path fill="#FEFEFE" d="M13.85 67.67c.99-1.3 2.04-2.7 3.68-3.2l.42.57c-1.93 2.47-2.73 5.56-2.91 8.65-.7 5.9-1.54 11.87-3.57 17.49-.91 2.1-1.96 4.32-3.95 5.59-1.13.73-2.86 1.07-3.84-.08-1.43-1.7-.94-4.53.57-6-.07 1.35-.65 3.58 1.12 4.1.94-.13 1.7-.81 2.12-1.64 1.34-2.5 1.79-5.36 2.35-8.1l.19-1.17c1.05-5.43 1.27-11.18 3.82-16.2Zm4.47 5.93c.32-2.1 1.1-4.1 2.4-5.77.38 2.16-.92 4.3-2.4 5.77Zm58.45 6.94c.66 1.84 2.07 3.66 4.13 3.9 1.55.34 2.96-.47 4.24-1.22a40.48 40.48 0 0 1-4.96 6.56 30.36 30.36 0 0 1-4.38-6.13c.58-.94.87-2.01.97-3.11Z"/><path fill="#FEFEFE" d="M144.61 83.28c.4-.42.73-.91 1.08-1.37l.91 1c-2.96 1.52-5.64 4.08-6.16 7.51a8.02 8.02 0 0 0 1.66 7.47 50.87 50.87 0 0 1-19.26 15.7 55.93 55.93 0 0 1-8.64 2.95 49.77 49.77 0 0 1-22.45.02 48.6 48.6 0 0 1-26.1-16.05 50.47 50.47 0 0 1-7.85-12.88 8.83 8.83 0 0 0 2.09-2.25c.37-.84.5-1.75.6-2.65.72 1.51 1.82 3.07 3.56 3.43 1.89.5 3.75-.41 5.14-1.63a4.58 4.58 0 0 0 5.61.2A32.52 32.52 0 0 0 87.97 97.6a32.2 32.2 0 0 0 20.37 3.15 31.78 31.78 0 0 0 22.06-15.33l.39-.5c1.3-.43 2.7-.65 3.87-1.43.58.44 1.16.9 1.8 1.27 2.67 1.34 6.19.87 8.15-1.48ZM68.66 97.43c-.95 1.7 1.55 2.5 2.18 3.8 2.12-2.2 4.48-4.18 6.54-6.46-.43-.43-1.06-.97-1.5-.25-1.66 1.63-3.34 3.24-5 4.88l-1.18-1.27c1.8-1.84 3.73-3.57 5.53-5.41l-.87-.91c-1.89 1.88-3.9 3.65-5.7 5.62Zm59.77-3.06c2.22 2.06 4.5 4.06 6.7 6.15l.88-.96a966.28 966.28 0 0 1-5.72-5.24l1.16-1.32c1.89 1.77 3.83 3.5 5.7 5.29l.88-.94c-2.1-1.8-3.99-3.9-6.24-5.53-1.65-.23-2.12 1.84-3.36 2.55Zm-2.55 3.52c.93 1.44 2.2 2.62 3.24 3.97.63.67 1.14 1.65 2.15 1.74.93-.2 1.54-1.02 2.28-1.57-.29-.36-.57-.73-.84-1.1l-1.53 1.34c-.53-.65-1.09-1.28-1.65-1.91l1.5-1.27-.87-1.1-1.45 1.33c-.56-.64-1.1-1.27-1.67-1.9l1.54-1.34-.93-1.01c-.73.8-2.34 1.5-1.77 2.82ZM72.64 103l1.07.82c1.54-2.1 3.05-4.22 4.6-6.32l1.35 1.08c-1.58 2.02-2.99 4.18-4.57 6.2l1.1.81a306.9 306.9 0 0 1 4.57-6.33l1.35 1.06c-1.55 2.06-3.01 4.18-4.58 6.23l1.13.78c1.43-2.17 3.1-4.18 4.53-6.33.87-1.24-.88-2.7-2.09-2.41-.45-1.49-2.13-1.9-3.15-2.9a209.96 209.96 0 0 1-5.31 7.31Zm48.35-2.94c1.65 2.56 3.33 5.1 5 7.64.95-.74 2.1-1.24 2.87-2.17.25-1.5-1.19-2.56-1.8-3.8-.92-1.14-1.39-2.86-2.83-3.45-1.24.19-2.17 1.2-3.24 1.78Zm-3.1 1.75c-.64.8.03 1.72.38 2.48.84 1.58 1.53 3.25 2.39 4.82.95 1.27 2.38.02 3.42-.44-.17-.3-.5-.87-.65-1.16-.65.35-1.28.71-1.9 1.1l.07-.45-1.06-1.99 1.86-.98-.67-1.12c-.58.3-1.15.6-1.72.88l-1.13-2.31 1.8-.92-.61-1.18c-.73.42-1.58.67-2.18 1.27Zm-33.53-.46c-1.03 1.93-2 3.9-2.97 5.86-.74 1.6 1.28 2.19 2.37 2.68l.54-1.2-1.76-.82c.34-.8.73-1.58 1.14-2.34l1.7.93.65-1.14-1.82-.97c.4-.75.79-1.5 1.16-2.27a42 42 0 0 1 1.76.94l.62-1.23c-1.03-.43-2.46-1.7-3.39-.44Zm5.63 1.3c-.9-.3-1.68.41-1.89 1.22-.81 2.3-1.59 4.6-2.44 6.89l1.2.48c.45-1.23.88-2.46 1.3-3.7l1.54.55c-.47 1.2-.9 2.42-1.32 3.63l1.2.48c.84-2.39 1.69-4.77 2.5-7.17.29-.72 0-1.58-.75-1.87.32-.4.9-.74.8-1.34.04-.7-.82-1.46-1.46-1.07-.82.23-1.02 1.2-.68 1.9Zm25.12.25c.8 2.45 1.47 4.95 2.24 7.42l-1.75.5c-.67-2.5-1.45-4.98-2.13-7.48-.4.13-.83.27-1.23.42.83 2.42 1.43 4.93 2.21 7.37l-1.69.56c-.7-2.5-1.48-5-2.16-7.5l-1.26.4c.84 2.53 1.46 5.13 2.32 7.65.85 1.32 2.9.49 3.63-.59 1.2.74 3.81-.17 3.2-1.9-.7-2.43-1.46-4.84-2.14-7.27l-1.24.42Zm-10.63 2.96c.11.92.14 1.86.3 2.78.99.8 2.15 1.35 3.13 2.15l.08 1.65-1.58.18c-.03-.3-.1-.88-.12-1.18l-1.27.18c.08.83.15 1.97 1.14 2.2.8-.02 1.68.04 2.44-.27 1.14-.9.34-2.5.36-3.7a49.64 49.64 0 0 1-2.99-1.95c-.2-.73-.53-1.45-.54-2.23.73.52 1.88.72 2.43-.17-.33.48-.56 1.02-.4 1.61l1.2-.1c-.05-.79-.03-1.8-.88-2.19-1.14-.08-2.72-.22-3.3 1.04Zm-8.32 2.53L96 109.6c1.25-.04 2.58.58 3.76.26l.1-1.03c-1.24-.14-2.48-.25-3.71-.44Z"/><path fill="#FEFEFE" d="M120.33 83.87a7 7 0 0 0 6-1.86 7.94 7.94 0 0 0 3 2.62 37.28 37.28 0 0 1-4.03 5.41c-1.93-1.82-3.42-4.03-4.97-6.17Zm-76.25 24.25c5.13-4.73 10.3-9.4 15.47-14.1a51.24 51.24 0 0 0 4.56 6.61l.4.5c-6.17 4.95-12.58 9.59-18.55 14.78-.62.5-1.21 1.03-1.92 1.38-2.22.28-3.63-1.8-5.21-2.98 1.22 2.17 3.33 4.13 3.19 6.8-.8 2.66-3.46 5.26-6.42 4.52a9.1 9.1 0 0 1-6.4-6.44 4.43 4.43 0 0 1 1.57-3.76c2.69-2.1 6.4-1.98 9.2-3.9 1.47-1 2.78-2.23 4.11-3.41Zm105.77-9.29.66-.39c3.67 3.36 7.37 6.71 11.04 10.09 1.93 1.67 3.84 3.58 6.37 4.3 2.28.78 4.85 1.15 6.72 2.81a4.33 4.33 0 0 1 .7 5.3c-1.26 2.33-3.49 4.27-6.13 4.75-1.92.35-3.73-.78-4.83-2.28-.66-.92-1.44-1.97-1.19-3.18.34-2.3 2.07-3.98 3.18-5.93-1.63 1.17-3.03 3.33-5.3 2.98-2.06-1.37-3.82-3.15-5.76-4.69-4.76-3.8-9.62-7.45-14.36-11.26.75-.87 1.46-1.77 2.14-2.69l.41.22a6.2 6.2 0 0 0 6.35-.03Z"/><path fill="#000214" d="M111.26 29.74c.4-1.26.37-2.95 1.6-3.7 1.12.09 2.89.21 3.11 1.6-.35 1.83-1 3.58-1.46 5.38-.22.8-.34 1.8-1.22 2.14-.99-.02-2.1-.17-2.87-.86-.49-.8-.02-1.66.19-2.46l1.22.52c-.21.63-.42 1.3-1.14 1.5.75-.46 1.53-.12 2.28.12l.72-2.51c-.91-.34-2.47-.42-2.43-1.73Zm1.22.06c.55.13 1.1.23 1.66.3.31-.97.15-2.43 1.35-2.79-.73.4-1.78.42-2.3-.35-.1.97-.42 1.9-.7 2.84Z"/><path fill="#000014" d="M87.98 27.26c.7-.35 1.45-.86 2.28-.65.68.2.88.95 1.1 1.55a944.3 944.3 0 0 0 2.2 6.62l-1.19.35c-.78-2.46-1.63-4.9-2.45-7.36l-1.7.6c.88 2.42 1.64 4.88 2.53 7.3l-1.2.48c-1-2.87-1.92-5.76-2.97-8.62.47-.1.93-.19 1.4-.27Z"/><path fill="#04101A" d="m83.22 29.16 1.13-.65c1.3 2.75 2.65 5.48 3.94 8.23l-1.11.57c-1.37-2.7-2.58-5.46-3.96-8.15Z"/><path fill="#182028" d="M119.7 35.2c1.45-1.84 3.69-2.75 5.51-4.14l1.11.74c-.96 1.35-1.75 2.8-2.69 4.15l.39.63c-.33.47-.72.9-1.33.91l-1.19 2.02-1.15-.72c.48-.72.95-1.46 1.39-2.22-.71-.4-1.41-.84-2.04-1.37Zm1.99-.33.69.62c.39-.59.77-1.18 1.13-1.79-.62.38-1.22.78-1.82 1.17ZM96.7 66.55c.38-1.25.86-2.61 2.02-3.34 1.37 2.87.12 6.23-1.12 8.94-1.52-1.45-1.45-3.73-.9-5.6Zm-73.8 8.33c.39-.4.77-.8 1.11-1.22l1.21-.19c.12.96.16 1.95.48 2.87.47.9 1.3 1.55 2 2.26l-.61 2.62c-.69-2.19-1.8-4.32-3.92-5.43l-.26-.91Z"/><path fill="#000010" d="m99.32 44.21.53.3c1.33 1.63 1.38 3.89 1.26 5.9a23.98 23.98 0 0 1-2.1 7.63l-.23.44c-.24-1.22.41-2.33.74-3.45 1.19-3.48 1.58-7.46-.2-10.82Zm-1.29 1.69.48-.32c.52 3.56-.47 7.04-1.79 10.3l-.54-.15c1.18-3 2.2-6.19 1.8-9.45l.05-.38Zm22.27 7.27c.45-1.08.73-2.3 1.65-3.12l-.08.81c-.9 2.2-1.71 4.45-2.28 6.76l-.44-.51c.15-1.37.7-2.65 1.16-3.94Zm-64.14.11c.2-.73.76-1.25 1.28-1.77-1.46 3.69-2.2 7.59-3 11.45-.2-.65-.41-1.32-.25-2a50.6 50.6 0 0 1 1.97-7.68Zm44.29 7.39c2.06 1.28 1.62 4.06 1.45 6.11-.01 1.28-1.2 2.64-.27 3.79a17.9 17.9 0 0 1-2.05 1.64c1.3-3.34 2.79-7.28 1.16-10.78l-.3-.76Zm-25.92.83c1.43.95.82 2.82 1.01 4.25.6-.88.67-2.61 1.95-2.7-1.52 2.85-2.44 5.97-3.34 9.06.03-3.3 1.1-6.61.58-9.88l-.2-.72Zm-19.4 3.36.69-.8-.1.78-.94 7.38c-.2 2.05-1.15 3.9-1.9 5.79-.52-1.34.62-2.63.88-3.93.69-3.03.73-6.18 1.37-9.22Zm23.61 1.96c.47-.44.97-.84 1.48-1.24-.54 4-1.65 7.96-1.53 12.04l-.16.83c-.65-.64-.5-1.58-.51-2.4.14-2.85.93-5.63 1.26-8.46l-.54-.77Zm85.61 1.06.49-.4c.14 1.03.2 2.07.23 3.11 1.78.23 3.54-.5 5.3-.32l.47.45-.64.07c-1.95.28-3.92.53-5.9.25.12-1.05.16-2.1.05-3.16ZM11.08 73.79c.6-2.13.84-4.7 2.77-6.12-2.55 5.03-2.77 10.78-3.82 16.21l-.18.37c-.25-.66-.48-1.33-.7-2 .47-.78.6-1.69.42-2.58 1.28-1.68.9-3.95 1.51-5.88Zm31.02-5.24.74-.32c-1.5 2.5-2.2 5.4-2.61 8.26-.21 1.72-.97 3.3-1.61 4.9-.6-.9.27-1.88.44-2.79.94-3.35.97-7.1 3.03-10.05Zm31.43 11.11a36.02 36.02 0 0 1 3.24-9.81l.17.59c-1.2 3.23-2.5 6.45-2.95 9.9l-.46-.68Zm78.37-9.11.62-.28c-.7 2.18-2.38 4.07-2.33 6.45.52.12.99.34 1.42.64-.82.28-1.57-.1-2.28-.45.35-2.3 1.42-4.38 2.57-6.36ZM24.01 73.66a11.7 11.7 0 0 0 1.67-2.86l.8 1.62c-1.15 2.1-.33 5.02 2.05 5.8-.4 1.29-.84 2.57-1.31 3.83l.61.24-1 .22-.22 2.13-.53-.66c.26-2.15.27-4.65-1.33-6.33a4.33 4.33 0 0 0-3.49-1.34c.56-.47 1.13-.92 1.65-1.43l.26.91c2.11 1.11 3.23 3.24 3.92 5.43l.61-2.62c-.7-.71-1.53-1.35-2-2.26-.32-.92-.36-1.9-.48-2.87l-1.2.2Zm13.27 1.12.5-.22a23.2 23.2 0 0 0-1.98 8.25c-.17-.75-.35-1.5-.47-2.26.3-2.02.85-4.04 1.95-5.77Zm151.78.38.55.2c-.78 2.52-1.2 5.16-2.03 7.68l-.47.42c.41-2.81 1.3-5.54 1.95-8.3Zm-24.26.31 1.94.28c-.75 3.16-1.23 6.66.01 9.77l-.47.23c-1.5-3-.75-6.38-.43-9.55-.37-.1-1.11-.33-1.49-.45l.45-.28Zm27.2.73.04-.65c1.56 1.28-.68 3.33.72 4.72-.9 1.6-1.47 3.35-2.06 5.08.22-3.08 1.13-6.07 1.3-9.15Zm8.4 2.19c1.04.48 1.11 1.79 1.1 2.78-.03 2.1.03 4.48-1.48 6.14v-.82c.93-2.34 1.35-4.97.5-7.4l-.11-.7Zm-168.04.43.52.85.1.25c.03 2.2-.04 4.56 1.04 6.54.43.85 1.47 1.08 2.3.71l.2.6c-1.06.2-2.28.16-2.88-.88-1.5-2.37-1.47-5.37-1.28-8.07Zm108.2 6.04c1.42-.34 2.7-1.09 4.05-1.58-1.97 2.35-5.48 2.82-8.15 1.48 1.37-.2 2.73.16 4.1.1ZM9.39 84.28l.45.76c-.56 2.75-1.01 5.6-2.35 8.11-.29-.7.13-1.4.3-2.06.77-2.2 1.15-4.52 1.6-6.81Zm132.59 5.35.52-.36-.03.77c-.06 1.16-.28 2.45.35 3.5.45.93 1.37 1.44 2.21 1.95l.46.47c-2.95-.27-4.45-3.72-3.5-6.33Zm1.34 8.73c1.05.23 2.08.63 3.16.7 1.25-.02 2.43-.49 3.63-.75l-.26.52a6.2 6.2 0 0 1-6.35.03l-.18-.5Zm-38.84 7.5c.58-1.26 2.16-1.12 3.3-1.04.85.38.83 1.4.89 2.2-.3.02-.9.06-1.22.1-.15-.6.08-1.14.41-1.62-.55.9-1.7.7-2.43.17 0 .78.33 1.5.54 2.23.97.69 1.98 1.32 3 1.94-.03 1.21.77 2.8-.37 3.71-.76.3-1.63.25-2.44.28-.99-.24-1.06-1.38-1.14-2.2l1.27-.19.12 1.18 1.58-.18-.08-1.65c-.98-.8-2.14-1.35-3.13-2.15-.16-.92-.19-1.86-.3-2.78Zm9.72 10.68a55.93 55.93 0 0 0 8.64-2.96l-.31.74c-1.84.98-3.88 1.55-5.85 2.2-.81.3-1.67.27-2.48.02Z"/><path fill="#141A24" d="M95.47 47.58c.18-.5.54-.9.97-1.2.91 2.34.04 4.82-.83 7.02-.78 1.7-1.5 3.47-2.61 5 .78-3.61 1-7.39 2.47-10.82Zm31.15 1c.3-.57.63-1.2 1.33-1.34-.01 1.4-.17 2.79-.72 4.08-1.3 3.14-2.58 6.34-4.58 9.11 1.06-4.03 2.13-8.1 3.97-11.85Z"/><path fill="#121824" d="M135.53 51.2c.5-1.12.95-2.38 2.04-3.05.37 2.62-1.15 4.93-2.08 7.26-1 2-1.96 4.05-3.33 5.82a69.7 69.7 0 0 1 3.37-10.04Z"/><path fill="#000013" d="M147.31 49.38c1.99 1.69 2.07 4.52 3.14 6.76l.65.36.2.1c0 .29-.01.57-.03.86-.25 1.48 0 2.98.26 4.44l-.63-.17a50.77 50.77 0 0 0-3.59-12.35Z"/><path fill="#FCFCFC" d="M47.14 58.58c.86-.94 2.3-.07 2.42 1.03.35 1.24-.73 2.98-2.14 2.5-1.16-.77-1.26-2.57-.28-3.53ZM44.45 63c2.06-.75 1.18-4.85-1.09-3.69-1.46.95-.96 4.26 1.1 3.69Zm46.25 38.44c.57-.38 1.24.55.59.9-.57.42-1.2-.57-.59-.9Z"/><path fill="#181F29" d="M5.98 67.83c2.65-3.38 6.9-5.32 11.13-5.53 1.8.02 3.85.47 5 2 1.14 1.49 1.07 3.51.7 5.26-.83 3.23-2.9 6.32-6.02 7.7l-1.33-.25a15.74 15.74 0 0 0-.42-3.32c.18-3.09.98-6.18 2.9-8.65l-.41-.57c-1.64.5-2.7 1.9-3.68 3.2-1.93 1.41-2.16 3.99-2.77 6.12-.6 1.93-.23 4.2-1.5 5.88-1.02-.66-2.34-.4-3.37-1.04-1.6-.95-2.4-2.86-2.52-4.66 0-2.24.93-4.4 2.29-6.14Zm14.75 0c.37 2.16-.93 4.3-2.41 5.77.32-2.1 1.1-4.1 2.4-5.77Zm-13.3 9.2 1.7.06c.43-2.92 1.09-5.8 2.1-8.57-2.63 1.78-5.58 5.2-3.8 8.5Zm98.07-2.25c-.2-2.84.75-5.7 2.25-8.08a8.09 8.09 0 0 0 3.89 7.15c-1.14 1.25-2.45 2.7-4.27 2.7-1.02.1-1.86-.79-1.87-1.77Zm-90.47 4.49c2.17.09 5-.95 6.5 1.2 1.77 2.65-.32 5.55-.99 8.19-1.15 1.37-2.82 2.63-4.7 2.5-1.48-.18-1.88-1.83-2.79-2.77.92-2.98 1.34-6.08 1.98-9.12Zm2.14 3.64c-.43 1.67-.65 3.4-1.14 5.05l.61 1.12a7.11 7.11 0 0 0 3.97-4.97c-.06-1.82-2.22-1.63-3.44-1.2Z"/><path fill="#F8FCFC" d="M112.64 69.9c.51-2.03.19-4.13.34-6.2-.35 2.05.03 4.14-.34 6.2Zm12.32-.5c-.76-.02-.99 1.34-.76 1.93.7-.14 1.02-1.3.76-1.93Zm-2.13 31.06 1.28-.85c1.18 1.77 2.34 3.56 3.53 5.34-.43.3-.85.62-1.27.94-1.17-1.82-2.4-3.6-3.54-5.43Z"/><path fill="#181F28" d="M136.4 74.78a24.55 24.55 0 0 1 3.33-7.23c-.13 1.76.03 3.53.64 5.2.47 1.59.94 3.4.18 4.97-.5 1.06-1.9 1.28-2.9.88-1.33-.73-1.46-2.48-1.25-3.82Z"/><path fill="#010413" d="M121.25 72.25c-.02-1.2-.27-2.5.36-3.6.16 2.82-.02 5.64.04 8.45l-.3-.28c-.18-1.52 0-3.05-.1-4.57Z"/><path fill="#1C242C" d="M27.6 73.12c.43-.52.91-1 1.54-1.28.5.74.51 1.64.37 2.5-.82.06-1.38-.69-1.9-1.22Z"/><path fill="#FDFDFD" d="M17.17 82.9c1.22-.42 3.38-.61 3.44 1.2a7.11 7.11 0 0 1-3.97 4.98l-.6-1.12c.48-1.66.7-3.38 1.13-5.05Zm1.05.95a40.07 40.07 0 0 0-.63 3.14c.96-.78 1.44-1.95 1.91-3.06l-1.28-.08Z"/><path fill="#171F28" d="M56.58 88.03a10.58 10.58 0 0 1 3.3-2.65c-.52.9-1.29 1.6-2.08 2.25a50.47 50.47 0 0 0 7.85 12.89l-1.54.11a50.63 50.63 0 0 1-4.56-6.6c-5.16 4.69-10.34 9.36-15.47 14.09-1.33 1.18-2.64 2.41-4.12 3.41-2.78 1.92-6.5 1.8-9.19 3.9a4.43 4.43 0 0 0-1.57 3.76l-.9 1.45a5.46 5.46 0 0 1 1.4-5.92c2.91-2.65 7.35-2.25 10.33-4.77 2-1.5 3.74-3.3 5.62-4.94 4.39-4.05 8.85-8.02 13.23-12.08a30.38 30.38 0 0 1-2.3-4.9Z"/><path fill="#1A202C" d="M145.15 90.85c.95-2.23 3.25-3.43 5.22-4.64-1.1 1.98-1.87 4.27-3.66 5.74-.71.58-2.12-.14-1.56-1.1Z"/><path fill="#08101C" d="M68.66 97.43c1.8-1.97 3.81-3.74 5.7-5.62l.87.9c-1.8 1.85-3.72 3.58-5.53 5.42l1.19 1.27c1.65-1.64 3.33-3.25 4.99-4.88.44-.72 1.07-.18 1.5.25-2.06 2.28-4.42 4.26-6.54 6.47-.63-1.31-3.13-2.11-2.18-3.81Z"/><path fill="#141C26" d="M125.88 97.9c-.57-1.33 1.04-2.04 1.77-2.83l.93 1.01c-.52.44-1.03.9-1.54 1.35.56.62 1.11 1.25 1.67 1.9l1.45-1.34.87 1.1-1.5 1.27c.56.63 1.12 1.26 1.66 1.91.5-.44 1-.9 1.52-1.34.27.37.55.74.84 1.1-.74.55-1.35 1.36-2.28 1.57-1.01-.09-1.52-1.07-2.15-1.74-1.04-1.35-2.31-2.53-3.24-3.97Z"/><path fill="#141C28" d="M72.64 103c1.82-2.4 3.6-4.83 5.31-7.3 1.02.98 2.7 1.4 3.15 2.89 1.2-.29 2.96 1.17 2.1 2.4-1.45 2.16-3.11 4.17-4.54 6.34l-1.13-.78c1.57-2.05 3.03-4.17 4.58-6.22l-1.35-1.07a307.74 307.74 0 0 0-4.58 6.33l-1.09-.8c1.58-2.03 2.99-4.19 4.57-6.2l-1.35-1.09c-1.55 2.1-3.06 4.22-4.6 6.32l-1.07-.82Z"/><path fill="#181E28" d="M120.99 100.06c1.07-.59 2-1.6 3.24-1.78 1.44.59 1.9 2.3 2.83 3.45.61 1.24 2.05 2.3 1.8 3.8-.77.93-1.92 1.43-2.86 2.17-1.68-2.55-3.36-5.08-5.01-7.64Zm1.84.4c1.14 1.84 2.38 3.6 3.54 5.43l1.27-.94c-1.19-1.78-2.35-3.57-3.53-5.34l-1.28.85Z"/><path fill="#040C18" d="M117.89 101.8c.6-.59 1.45-.84 2.18-1.26.2.4.4.79.62 1.18l-1.8.92 1.12 2.31 1.72-.88.67 1.12-1.86.98 1.06 2-.07.44c.62-.39 1.25-.75 1.9-1.1l.64 1.16c-1.03.46-2.46 1.71-3.41.44-.86-1.57-1.55-3.24-2.4-4.82-.34-.76-1-1.68-.37-2.48Z"/><path fill="#101824" d="M84.36 101.35c.93-1.27 2.36.01 3.39.44l-.62 1.23a42 42 0 0 0-1.76-.94 69.3 69.3 0 0 1-1.16 2.27l1.82.97-.64 1.14c-.57-.3-1.14-.62-1.7-.93-.42.76-.81 1.54-1.15 2.34l1.76.82-.54 1.2c-1.09-.5-3.1-1.08-2.37-2.68.97-1.96 1.94-3.93 2.97-5.86Z"/><path fill="#06101C" d="M89.99 102.64c-.34-.69-.14-1.66.68-1.89.64-.4 1.5.38 1.47 1.06.1.61-.49.94-.81 1.35.76.3 1.04 1.15.74 1.87-.8 2.4-1.65 4.78-2.5 7.17l-1.19-.48c.43-1.21.85-2.43 1.32-3.63-.51-.2-1.02-.37-1.54-.54-.42 1.23-.85 2.46-1.3 3.69l-1.2-.48c.85-2.28 1.63-4.6 2.44-6.89.2-.8 1-1.52 1.89-1.23Zm1.3-.3c-.57.42-1.2-.57-.59-.9.57-.38 1.24.55.59.9Zm-1.8 1.53-.9 2.5 1.55.4c.26-.77.54-1.53.84-2.29l-1.5-.6Z"/></svg>