<svg xmlns="http://www.w3.org/2000/svg" fill="none" viewBox="0 0 558 128"><g fill="#A3958F" clip-path="url(#a)"><path d="M11.14.7c.66.06 1.33.09 1.95.35 5.24 1.83 10.46 3.74 15.7 5.56a9552.32 9552.32 0 0 1 87.53 31.36c3.47 1.1 6.89 3.4 8.06 6.99 1.07 3.9-.76 7.68-2.34 11.14-4.35 9.16-9.12 18.11-13.66 27.17 1.78-2.23 2.98-5 5.32-6.74 5.53.04 11.09-.28 16.6-.05 2.44 1.63 5.41.66 8.08 1.43 1.44.4 3.22.73 3.91 2.23.54 1.02-.25 2.04-.52 3-1.22-1.3-3.2-.84-4.34.32a22.19 22.19 0 0 1-10.17 5.18c-7.4 1.39-14.79 2.91-22.18 4.4-6.12 1.04-11.88 3.48-17.82 5.24-3.24.69-4.9 3.9-7.37 5.81 1.71 2.56 3.78 4.91 5.16 7.68 1.17.2 2.36.17 3.5-.21 2.99-.96 6.22-1.04 9.06-2.48 3.16.03 5.89 2.92 6.66 5.85-.19 1.33-.78 2.55-1.22 3.81-1.3-4.3-7.32-6.25-10.92-3.59-3 1.8-6.05 3.55-8.95 5.52-1.3.88-2.6 1.92-3.2 3.42-.22 1.15-.3 2.31-.46 3.47-.82-1.44-1.4-3-1.92-4.56 1.47-1.84 2.86-3.75 4.37-5.56-.47-.77-.9-1.6-1.69-2.1-4.3-2.92-8.66-5.72-12.92-8.67.69-1.7.77-3.67 1.9-5.14-1.4.72-2.32 2.35-3.28 3.58.3 2.27 1.58 4.71.93 6.96-2.92 1.58-6.09 3.79-9.58 3.27.33-2.3.7-4.59.8-6.91a14.46 14.46 0 0 1-2.02 5.82c-1.13 1.91-3.4 2.58-5.3 3.47-3.15 1.4-6.68 1.52-10.04 1.06 3.31-3.73 7.28-6.88 10.5-10.7l.75.92c-.94.3-1.5 1.18-2.19 1.83-1.93 2.14-4.09 4.06-5.94 6.28 2.09-.04 3.3-1.9 4.57-3.27 2.62-3.3 5.49-6.4 8.17-9.64-1.47 1.1-3.04 2.31-3.81 4.03-.3-.5-.57-.99-.85-1.49-1.5 1.25-3.37 1.97-5.05 2.95-5.1 2.57-10.16 5.34-15.6 7.14-2.64 1.02-5.45-.1-7.83-1.28 11.9-7.84 23.6-16 35.44-23.92 3.04-1.98 5.79-5.09 9.7-5.01 1.45-.1 2.57.9 3.25 2.08-.14-1.28-.88-2.47-2.15-2.86-3.17-.83-6.14 1.04-9.27 1.16 5.73-3.95 11.77-7.42 17.6-11.21 1.18-.8 2.43-1.46 3.66-2.16a232.1 232.1 0 0 0-17.88 8.78c-3.38 1.63-7.14 2.91-10.93 2.4-3.13-1.14-6.13-2.63-9.23-3.85-1.2-.58-2.6-.82-3.52-1.82 11.52-4.32 22.97-8.84 34.52-13.08-6.65 1.37-13.15 3.47-19.73 5.16-5.84 1.59-11.78 3.38-17.89 3.1-3.41-.1-6.36-1.99-9.22-3.63-4.15-2.6-8.33-5.54-11.07-9.66 2.05-.25 4.12-.3 6.18-.5 14.68-1.58 29.38-3.01 44.08-4.53 1.58-.22 3.18-.06 4.77-.15-.54-.79-1.57-.76-2.39-.5-1.64.58-3.4.53-5.12.6-9.1.45-18.2 1.04-27.3 1.3a61.66 61.66 0 0 1-19.08-3.56c-3.45-.92-5.96-3.58-8.56-5.84-3.2-3.07-6.22-6.5-7.94-10.64a6.63 6.63 0 0 1-.72-3.16c2.99.7 6.06.34 9.1.48 4.71.16 9.45-.03 14.16.44 6.74.18 13.54-.1 20.24.53l.97-.18c-1.63-.34-3.14-1.08-4.68-1.72-5.23-2.36-10.57-4.55-15.56-7.41-5.4-2.7-9.52-7.65-11.76-13.21-.18-.54-.37-1.09-.57-1.62-.74-1.7-.82-3.55-1.28-5.32-.16-1.78-.14-3.56-.17-5.34Zm3.15 4.24c1.09 1.07 2.35 1.92 3.58 2.82 3.55 2.35 7.56 3.8 11.48 5.4C59.43 23.94 89.9 33.59 120.16 43.8c.6-1.17-.78-1.22-1.41-1.58a13760.6 13760.6 0 0 1-98.8-35.5c-1.88-.63-3.7-1.46-5.66-1.78ZM3.56 37.14c.63.12 1.24.31 1.82.56.75.17 1.5.34 2.24.53 2.2.22 4.43 0 6.6.53 2.53.1 5.07.16 7.61.27 7.03.62 14.12.31 21.16.85 10.06.13 20.12.48 30.17.46-.84-.82-2.05-.93-3.15-.97-18.43-.83-36.85-1.68-55.26-2.55-2.36-.15-4.77.11-7.1-.4-1.38-.08-2.77-.1-4.16-.16l.07.87Zm25.79 23.82c-3.3.5-6.66.2-9.92.97 3.18 1.15 6.68.31 9.99.37 16.53-1.26 33.03-2.98 49.52-4.67 1.51-.18 3.13-.02 4.52-.77-18.05 1.2-36.07 2.82-54.11 4.1Zm48.67 4.84c-9.93 3.74-19.83 7.51-29.75 11.27-1.78.68-3.62 1.24-5.28 2.2 2.63.4 5.18-.47 7.55-1.5 8.61-3.56 17.2-7.18 25.82-10.72 2-.9 4.15-1.52 6.01-2.71-1.53.21-2.93.91-4.35 1.46Zm1.84 13.46c-2.05 1.5-4.47 2.54-6.28 4.34 2.02-.55 3.65-1.91 5.34-3.07 2.02-1.45 4.16-2.74 6.13-4.26-1.93.61-3.46 1.99-5.19 2.99Zm48.65-.39a7.2 7.2 0 0 0 .06 2.22c1.04-.43 1.97-1.08 2.9-1.7-.79-.8-1.95-.63-2.96-.52ZM61.76 92.25c-11.85 7.7-23.77 15.27-35.6 22.99 2.75-.26 5.14-1.8 7.48-3.13 9.65-6.34 19.11-12.98 28.76-19.33.02-.26-.2-.43-.64-.53Zm97.56-20.15c8.85.24 17.72-.22 26.56.24 1.05.23 2.12.39 3.15.69a9.43 9.43 0 0 1 5.38 3.9c.84 1.24.93 2.77 1.38 4.17.03 1.47-.26 2.94-.75 4.33a11.82 11.82 0 0 1-3.2 3.35c.9.54 1.76 1.1 2.62 1.71 4.58 4 3.94 13-1.8 15.58l-.13.48-.78-.05a3.2 3.2 0 0 1-1.64.74c-1.95.45-3.95.6-5.94.79-8.27.03-16.54-.05-24.8.03-.02-11.98.07-23.98-.05-35.96Zm6.15 5.51c.08 2.92.08 5.83 0 8.74 4.42.2 8.84.17 13.28.1 1.61-.13 3.23.5 4.83.07.97-.12 1.94-.2 2.91-.27l2.1-1.2c.2-.56.41-1.13.63-1.69a5.43 5.43 0 0 0-1.16-4.5l-1.13-.53a12.58 12.58 0 0 0-3.83-.7c-5.88-.02-11.75.04-17.63-.02Zm.05 20.43c.06 1.53-.27 3.16.38 4.62 4.28-.19 8.57-.04 12.86-.1 3.21-.06 6.56.38 9.6-.86 1.3-.48 1.93-1.78 2.56-2.9 0-1.67.27-3.55-1.03-4.85-1.21-1.64-3.35-1.6-5.14-2.02-6.27-.16-12.54.07-18.81-.1-.73 2-.33 4.14-.42 6.2Zm40.07-25.93c2.07.06 4.15.04 6.22 0-.09 7.56 0 15.12-.05 22.69-.04 2.2.4 4.76 2.39 6.06 4.78 3.23 11.15 3.57 16.51 1.67 3.34-1 6.21-4.05 5.63-7.73-.02-7.55.02-15.1-.02-22.64 2.16-.09 4.32-.06 6.48-.04 0 7.56.02 15.12-.01 22.68-.08 3.34-.74 7.04-3.42 9.32-4.67 4.34-11.46 5.15-17.56 4.91-5-.52-10.39-1.9-13.8-5.84-3.4-4.01-2.36-9.6-2.6-14.43.47-2.73-.25-5.46.04-8.2.33-2.8-.48-5.65.19-8.45Zm47.01-.01c11.25.03 22.5-.06 33.73-.01-.02 1.87-.02 3.73 0 5.6-9.07.06-18.15-.02-27.22 0-.02 3.02 0 6.04-.02 9.07 8.38-.05 16.76-.02 25.14-.04.02 1.86.02 3.71.01 5.57l-25.16-.04c.04 3.43.02 6.85.01 10.28 9.66-.18 19.33.18 28.99-.24.07 1.93.06 3.86.05 5.79-11.83 0-23.66-.04-35.49-.03-.02-11.98.04-23.97-.03-35.95Zm43.78-.06c2.12.05 4.25.02 6.38.07 8.61 9 17.27 17.99 25.94 26.96.08-9 0-18.02.04-27.02l6.17-.01c-.04 12.02.05 24.04-.04 36.07-2.05-.01-4.1.02-6.13-.06-8.64-9.05-17.43-17.96-26.1-26.99-.2 9-.02 18.01-.08 27.01h-6.25c.04-12-.09-24.02.07-36.03Zm63.35.04c1.92.02 3.84 0 5.76.04 5.88 11.98 11.64 24.03 17.45 36.05-2.5.05-4.99 0-7.48.06-4.27-9.01-8.42-18.07-12.7-27.08l-.5.23c-4.3 8.91-8.44 17.9-12.72 26.81-2.45 0-4.9.03-7.34-.03a2551.35 2551.35 0 0 1 17.53-36.08Zm10.45-.04c2.48-.06 4.95-.03 7.44-.04 5.8 12 11.53 24.05 17.27 36.09-2.49 0-4.98.08-7.46-.08-5.63-12.04-11.59-23.94-17.25-35.97Zm31.39 0c2.49-.06 4.97-.03 7.47 0 5.62 12.04 11.58 23.94 17.09 36.04-2.39.04-4.77.01-7.16.02a3228.5 3228.5 0 0 1-17.4-36.06Zm11.58 0c2.5-.03 5.01-.01 7.52.01 4.28 9.17 8.43 18.41 12.9 27.49 4.24-9.19 8.67-18.29 12.92-27.47 2.47-.05 4.93-.05 7.4.02-5.82 12-11.66 23.98-17.5 35.96a70.8 70.8 0 0 1-5.9-.01c-5.72-12.02-11.59-23.98-17.34-36Zm46.43.03c2.17-.02 4.34-.01 6.51.02-.03 12 0 24-.01 36h-6.48c-.05-12.01 0-24.01-.02-36.02Zm16.98.03c5.71-.05 11.43-.02 17.15-.02 5.41-.08 11.3.66 15.52 4.37 7.7 6.63 7.78 19.83.52 26.8-3.65 3.58-8.95 4.58-13.87 4.8-6.44.06-12.88 0-19.31.04 0-12 .02-24-.01-36Zm6.45 30.24c3.39.3 6.79.07 10.18.15 3.67-.15 7.63-.2 10.79-2.35 2.79-1.91 3.98-5.3 4.51-8.5.28-3.85-.68-8.06-3.6-10.78-2.33-2.37-5.82-2.9-8.99-3.12-4.29-.09-8.58.02-12.86-.05-.03 8.22.02 16.44-.03 24.65Zm51.91-30.24c1.92.04 3.83.01 5.74.07 4.58 9.94 9.49 19.71 14.2 29.59.96 2.12 1.99 4.2 3.03 6.29-2.4-.02-4.8-.04-7.18 0a824.63 824.63 0 0 1-6.75-14.44 192.1 192.1 0 0 1-3.5-7.49c-.85-1.84-1.89-3.6-2.54-5.53-.77.4-1 1.26-1.35 1.98-3.87 8.53-8.05 16.92-11.92 25.46-2.46.05-4.92.03-7.38 0 6.02-11.9 11.67-24 17.65-35.93Z"/></g><defs><clipPath id="a"><path fill="#fff" d="M0 0h558v128H0z"/></clipPath></defs></svg>