<svg xmlns="http://www.w3.org/2000/svg" fill="none" viewBox="0 0 662 128"><path fill="#0A60FF" d="M617.24 127.94a43.45 43.45 0 0 1-30.83-12.54 44.64 44.64 0 0 1-9.31-14.28 46.11 46.11 0 0 1 0-34.84 43.03 43.03 0 0 1 9.48-14.08c4.07-4 8.85-7.21 14.1-9.47a44.23 44.23 0 0 1 34.49 0 45.05 45.05 0 0 1 14 9.47A44.18 44.18 0 0 1 662 83.6v44.34h-23.05v-10.85c-4.91 7.05-12.15 10.85-21.71 10.85Zm.68-22.13a21.2 21.2 0 0 0 8.54-1.71 20.57 20.57 0 0 0 6.86-4.78 23.8 23.8 0 0 0 4.6-7.09 22.57 22.57 0 0 0 0-17.23 23.79 23.79 0 0 0-4.6-7.09 20.64 20.64 0 0 0-6.86-4.78 22.26 22.26 0 0 0-17.08 0A21.8 21.8 0 0 0 597.85 75a23.7 23.7 0 0 0 0 17.24 21.8 21.8 0 0 0 11.53 11.87 21.15 21.15 0 0 0 8.52 1.7h.02Zm-99.91-20.82c0-6.83.94-12.94 2.82-18.34a38.2 38.2 0 0 1 8.2-13.83 35.87 35.87 0 0 1 13.14-8.79c5.18-2.05 11.13-3.07 17.85-3.07h9.9v22.7h-10.07c-5.8 0-10.39 1.9-13.75 5.71-3.36 3.8-4.98 9.07-4.87 15.79v42.78h-23.22V84.99Zm-57.73 43a43.33 43.33 0 0 1-17.33-3.48 45.8 45.8 0 0 1-14.18-9.47 43.97 43.97 0 0 1-13.07-31.4c0-7.51 1.28-14.05 3.85-19.62a41.32 41.32 0 0 1 23.22-22.04 40.46 40.46 0 0 1 28.87-.17 31.47 31.47 0 0 1 11.01 7V1.71h23.4v81.92a41.92 41.92 0 0 1-3.67 17.47 44.4 44.4 0 0 1-10 14.08c-4.24 4-9.19 7.18-14.6 9.38a45.55 45.55 0 0 1-17.5 3.44Zm0-22.18a21.2 21.2 0 0 0 8.54-1.71 20.59 20.59 0 0 0 6.86-4.78 22.6 22.6 0 0 0 0-31.4 20.68 20.68 0 0 0-6.86-4.79 22.26 22.26 0 0 0-17.08 0A21.8 21.8 0 0 0 440.21 75a23.7 23.7 0 0 0 0 17.24 21.8 21.8 0 0 0 11.53 11.87c2.7 1.15 5.6 1.74 8.54 1.7ZM363.78 128a42.74 42.74 0 0 1-17.24-3.48 46.05 46.05 0 0 1-14.1-9.47 42.9 42.9 0 0 1-9.48-14.1 45.6 45.6 0 0 1 0-34.65 42.94 42.94 0 0 1 9.49-14.08c4.06-4 8.84-7.21 14.09-9.47a44.25 44.25 0 0 1 34.5 0 46.2 46.2 0 0 1 14.09 9.47 43.1 43.1 0 0 1 9.47 14.08 45.6 45.6 0 0 1 0 34.65 43 43 0 0 1-9.47 14.08c-4.07 4-8.85 7.22-14.1 9.48A42.78 42.78 0 0 1 363.8 128Zm0-22.2c2.9.03 5.75-.58 8.37-1.78a22.28 22.28 0 0 0 11.44-11.78 22.6 22.6 0 0 0 0-17.23 22.28 22.28 0 0 0-11.44-11.78 20.68 20.68 0 0 0-16.82 0 22.8 22.8 0 0 0-6.74 4.78 21.46 21.46 0 0 0-4.53 7 23.7 23.7 0 0 0 0 17.23 21.34 21.34 0 0 0 4.53 7c1.93 2 4.22 3.62 6.74 4.78a19.75 19.75 0 0 0 8.46 1.79Zm-133.9-26.78a43.3 43.3 0 0 1 2.82-15.79c1.8-4.7 4.51-9 8-12.63a36.45 36.45 0 0 1 12.52-8.33 42.1 42.1 0 0 1 16.14-2.99 44.5 44.5 0 0 1 16.58 2.99 38.5 38.5 0 0 1 12.9 8.27 37.4 37.4 0 0 1 8.36 12.57 41.54 41.54 0 0 1 3 15.95v48.88h-23.25V79.36c0-5.23-1.68-9.53-5.04-12.89-3.36-3.35-7.55-5.03-12.58-5.03-5.12 0-9.14 1.68-12.04 5.03-2.9 3.36-4.3 7.47-4.18 12.35v49.12h-23.23V79.02ZM176.25 128a42.78 42.78 0 0 1-17.25-3.48 46.14 46.14 0 0 1-14.09-9.47 42.91 42.91 0 0 1-9.47-14.08 45.61 45.61 0 0 1 0-34.65 43 43 0 0 1 9.47-14.08c4.07-4 8.85-7.21 14.1-9.47a44.25 44.25 0 0 1 34.5 0 46.14 46.14 0 0 1 14.09 9.47 42.97 42.97 0 0 1 9.47 14.08 45.6 45.6 0 0 1 0 34.65 42.9 42.9 0 0 1-9.47 14.08c-4.07 4-8.85 7.2-14.1 9.47a42.74 42.74 0 0 1-17.25 3.48Zm0-22.2c2.9.03 5.75-.58 8.38-1.78a22.22 22.22 0 0 0 11.43-11.78 22.58 22.58 0 0 0 0-17.23 22.23 22.23 0 0 0-11.43-11.78 20.68 20.68 0 0 0-16.82 0 22.81 22.81 0 0 0-6.75 4.78 21.46 21.46 0 0 0-4.53 7 23.7 23.7 0 0 0 0 17.23 21.4 21.4 0 0 0 4.53 7c1.94 2 4.22 3.61 6.75 4.78a19.76 19.76 0 0 0 8.44 1.79Zm-111 22.2c-9.57 0-18.34-1.68-26.3-5.04a63.66 63.66 0 0 1-20.58-13.65A62.04 62.04 0 0 1 4.88 89 64.33 64.33 0 0 1 0 64a64.33 64.33 0 0 1 4.87-25 61.38 61.38 0 0 1 13.58-20.3A64.83 64.83 0 0 1 39.1 5.03 66.73 66.73 0 0 1 65.24 0a62.27 62.27 0 0 1 51.84 27.91 63.5 63.5 0 0 1 8.46 18.85h-25.8c-3.07-7.28-7.51-12.99-13.32-17.13-5.8-4.14-13.26-6.22-22.37-6.23a38.5 38.5 0 0 0-15.71 3.24 40.3 40.3 0 0 0-21.27 21.6 41 41 0 0 0 0 31.56 40.3 40.3 0 0 0 21.27 21.6 38.5 38.5 0 0 0 15.7 3.23c8.66 0 15.83-1.99 21.53-5.97 5.7-3.98 10.2-9.45 13.49-16.41h26.3a63.71 63.71 0 0 1-22.47 33.03 62.63 62.63 0 0 1-17.5 9.39A60.84 60.84 0 0 1 65.23 128Z"/></svg>