<svg xmlns="http://www.w3.org/2000/svg" fill="none" viewBox="0 0 180 128"><path fill="#EF2F32" d="M161.27.83c.47-.29 1.1-.37 1.57-.06.7.45 1.28 1.05 1.86 1.65.5.45.4 1.2.34 1.8-.26.57-.54 1.14-.79 1.72-.62.94-1.54 1.62-2.33 2.4-.54.54-1.18.93-1.8 1.36-1 .63-1.85 1.47-2.84 2.1-2.6 2.18-5.43 4.06-7.92 6.37-.03.2-.03.4 0 .61.81-.03 1.63-.13 2.45-.14.45 0 .75-.39 1.15-.54.36-.07.73-.05 1.1-.13.29-.18.54-.42.83-.6.35-.13.73-.13 1.1-.22.34-.12.6-.4.96-.52.32-.07.65-.1.97-.17.38-.18.65-.51 1.04-.67.54-.12 1.15.01 1.62-.35.37-.28.82-.39 1.27-.45.55-.04.87-.62 1.42-.65.45-.04.91-.1 1.25-.42.42-.4 1-.27 1.51-.4.42-.22.77-.62 1.28-.62.48-.02.9-.25 1.27-.54.4-.34.95-.23 1.42-.38.26-.14.46-.36.72-.5.49-.14 1.03-.03 1.5-.27.73-.45 1.64-.3 2.46-.25.8.24 1.6.7 2.06 1.42.1.9.34 2.06-.5 2.68-.72.62-1.3 1.4-2.05 1.96-.62.22-1.13.63-1.68.94-1.1.12-1.99.8-2.9 1.34-.57.17-1.12.37-1.58.75-1.06.41-2.12.88-3.07 1.5-.65.1-1.15.53-1.73.77-.81.06-1.36.72-2.13.9-.48.37-1.03.59-1.63.67-.9.53-1.62 1.37-2.63 1.73-.04.2-.04.42-.02.63.6.16 1.23.24 1.85.25.5 0 .93-.26 1.4-.32 1.3-.15 2.6-.13 3.9-.13.8.08 1.31-.74 2.1-.71.84-.01 1.69 0 2.53-.08.9-.05 1.67-.66 2.6-.61 2.1 0 4.2-.05 6.3.03.64.36 1.15.97 1.6 1.55.11.69.26 1.58-.32 2.1-.46.48-.9 1-1.46 1.37-.43.08-.88.04-1.31.12-.3.12-.51.39-.81.49-.4.06-.8.04-1.19.1-.53.12-.83.75-1.41.74-.48.03-1 0-1.38.35-.47.45-1.14.32-1.73.44-.4.14-.73.45-1.14.6-.67.1-1.36-.03-2.04.08-.38.15-.65.5-1 .7-.48.11-.97.08-1.43.2-.37.12-.67.36-1.03.5-.54.14-1.11 0-1.64.17-.36.21-.66.52-.87.88-.21.47-.09 1.17.47 1.33.79.15 1.6-.03 2.4.1.48.13.92.43 1.44.44 1.18.05 2.37-.04 3.55 0 .56-.04.86.5 1.3.76.54.12 1.12-.01 1.65.14.5.2.94.5 1.46.63.87.16 1.47.87 1.99 1.53.17.73.29 1.7-.36 2.26-.48.47-1.04.91-1.69 1.14-.56.14-1.15.08-1.72.08-1.37-.03-2.75.08-4.11-.1-1.98-.2-3.95.23-5.94.2-.53 0-1.06-.03-1.59.02-.54.07-.83.7-1.4.7-3 .06-6-.14-9 .12-.6.03-1.1.43-1.7.51-.6.09-1.2 0-1.8.11-.4.15-.66.5-1.02.7-.78.24-1.75-.2-2.38.48-.61.6-1.52.4-2.3.5-.83-.01-1.59.46-2.43.4-1.12-.03-2.24 0-3.36 0-.63.03-1.1-.55-1.74-.47-.52-.05-1.14.13-1.56-.27-.6-.5-1.39-.69-1.97-1.2a20.39 20.39 0 0 1-2.9-2.73 25.09 25.09 0 0 1-2.07-3.21c-.25-.47-.16-1.02-.28-1.52-.22-.43-.69-.78-.63-1.31.02-2-.03-4 .02-6 .38-.92.8-1.87 1.42-2.67.4-.51.64-1.11.96-1.67a186.1 186.1 0 0 0 5.33-8.03c.5-1.06 1-2.13 1.6-3.14.09-.36.08-.74.18-1.1.2-.31.47-.56.67-.87.1-.54 0-1.11.1-1.66.15-.43.53-.76.54-1.23a34.6 34.6 0 0 0-.04-3.13c-.03-.87-.59-1.63-.56-2.5-.01-.54-.02-1.07.03-1.6a.87.87 0 0 1 .92-.8c.76 0 1.57-.12 2.3.1.8.66 1.5 1.47 2.04 2.36.42.63.42 1.45.97 2 .5.47.13 1.26.5 1.8.24.4.46.84.46 1.32.06 1.32.22 2.63.17 3.95-.02.48 0 1.1.52 1.32.63.19 1.12-.39 1.6-.7.98-.79 2.12-1.37 3.05-2.22.48-.42 1.1-.64 1.58-1.06.94-.84 2.07-1.43 3-2.3.67-.64 1.57-.97 2.25-1.6.87-.78 1.75-1.55 2.75-2.17.93-.58 1.7-1.37 2.44-2.15.5-.53 1.14-.87 1.74-1.26.62-.44 1.45-.18 2.08-.57Z"/><path fill="#72AF7B" d="M13.12 37.5c.18-.47.6-.82 1.02-1.07.86-.16 1.74-.05 2.61-.09.72-.08 1.28.41 1.92.62.53.19.87.69 1.42.83 1.15.32 1.99 1.23 3.04 1.75.75.5 1.5 1 2.3 1.38.84.7 1.88 1.02 2.75 1.65.47.36 1.1.35 1.57.72.38.33.9.3 1.36.45.38.2.7.56 1.14.6 1.35.2 2.72.05 4.08.1.3-.03.57.12.82.27.78.59 1.8.23 2.7.31.63-.1.98.5 1.48.76.43.09.88.04 1.32.11.46.15.8.52 1.28.61.47.1.92.23 1.33.49.5.31 1.19.23 1.6.7.57.6 1.17 1.18 1.75 1.77.38.36.28.95.59 1.35.2.33.59.61.57 1.05.01 2.46-.02 4.93.01 7.4 0 .34.02.68-.06 1.02-.24.48-.76.85-.75 1.43-.05.47 0 1-.33 1.38a14.7 14.7 0 0 1-3.65 3.41c-.6.42-1.37.56-1.87 1.12a10.16 10.16 0 0 1-3.76 2.43c-.5.23-.88.7-1.45.79-.54.1-.98.43-1.4.75-.55.42-1.27.54-1.75 1.05-1.8 1.89-3.73 3.66-5.44 5.64-.53.8-.72 1.8-1.31 2.56-.4.52-.47 1.24-.98 1.68-.3.34-.76.58-1.22.4-.68-.47-1.2-1.15-1.71-1.8-.35-.5-.8-1-.76-1.63.05-1.21-.2-2.5.37-3.62.3-.6.12-1.36.6-1.87a52.5 52.5 0 0 1 3.08-3.42c.39-.38.33-.97.27-1.47a.56.56 0 0 0-.53-.5 6.57 6.57 0 0 0-1.89 0c-.33.17-.6.46-.94.6-.49.1-1 .03-1.47.14-.5.15-.94.47-1.47.52-.52.09-1.06.04-1.57.16-.37.2-.66.52-1.04.7-.93.24-1.99-.22-2.84.35-.69.5-1.56.19-2.34.31-1.18.22-2.3.78-3.52.7-1.46-.06-2.92.06-4.38-.05-.63-.32-1.15-.83-1.68-1.29-.7-.54-.73-1.73-.06-2.3.88-.91 1.83-1.87 3.1-2.17.57-.17.95-.8 1.6-.73.58-.05 1.28.13 1.73-.35.52-.56 1.32-.32 2-.37.5.04.82-.41 1.26-.55.97-.19 1.97-.1 2.95-.16.35 0 .56-.33.84-.5a4.8 4.8 0 0 1 3.03-.75c.07-.26.07-.54.05-.81-.55-.08-1.14.03-1.67-.13a2.67 2.67 0 0 0-.91-.7c-.52-.23-.88-.83-1.5-.77-2.65-.02-5.3.04-7.95 0-1.29-.13-2.58-.11-3.88-.09-1.62.1-3.07-.97-3.97-2.24-.1-.56-.06-1.13-.06-1.7-.08-.83.66-1.54 1.4-1.77 2.22-.05 4.46.01 6.69-.03 1-.03 1.99.12 2.99.13.78-.01 1.5.33 2.28.41 1 .14 2.02 0 3.02.06.57.03 1.13.14 1.7.11.01-.23.02-.47-.04-.7a3.43 3.43 0 0 1-1.5-1c-.37-.4-.95-.37-1.43-.55-.31-.19-.56-.47-.88-.65-.43-.08-.88-.03-1.3-.16-.33-.22-.55-.64-.98-.67-.44-.07-.9-.12-1.28-.37-.65-.45-1.55-.16-2.17-.67-.52-.42-1.25-.43-1.77-.86-.51-.4-1.27-.1-1.76-.55-.51-.4-1.22-.47-1.68-.94-.39-.37-.8-.74-1.1-1.17-.16-.8-.08-1.6-.07-2.4 0-.6.55-.95.93-1.33.52-.56 1.36-.35 2.04-.4.9.07 1.88-.2 2.7.28.47.27 1 .37 1.52.44.44.05.73.42 1.11.62.44.1.9.05 1.34.12.43.16.72.6 1.19.67.52.1 1.05.16 1.48.5.49.4 1.16.22 1.73.36.47.28.86.75 1.45.74.54 0 .95.34 1.42.54 1.06.08 2.15.08 3.21-.04.06-.27.08-.59-.16-.78-.74-.8-1.48-1.61-2.4-2.2-1.12-.75-2.13-1.63-3.24-2.4-1.18-.78-2.05-1.93-3.1-2.87-.37-.38-.95-.78-.77-1.4Z"/><path fill="#FFC80B" d="M101.47 42.16c.36-.14.76-.07 1.13-.09.88.03 1.77-.03 2.65.02.81.2 1.24 1.08 1.88 1.57.54.5.84 1.17 1.21 1.79.39.6 0 1.43.5 1.98.7.77.34 1.88.56 2.81.16.35.44.61.62.95.22 1-.3 2.18.44 3.03.52.67.19 1.56.36 2.32.2.48.65.85.72 1.39.11.67 0 1.35.09 2.02.1.44.45.78.52 1.23.08.68-.05 1.37.09 2.04.16.44.59.71.73 1.15.1.68-.03 1.38.09 2.06.12.39.38.71.51 1.09.22.67.05 1.4.2 2.07.17.34.44.61.6.95.22.87-.02 1.86.54 2.63.38.56.04 1.32.44 1.87.32.45.57.95.9 1.4.68.3 1.59.04 1.87-.69.13-.85.01-1.74.22-2.59.81-2.32.23-4.81.47-7.2.19-.4.59-.67.74-1.1.18-2.36-.18-4.77.25-7.12.44-1.3.48-2.68.55-4.04.68-.85.84-2.1 1.9-2.63a5.87 5.87 0 0 1 2.32 0c.46.3.8.72 1.18 1.1.42.46.91.9 1.1 1.5.13.53.53.93.8 1.38l.18 3.86c.05.6.47 1.13.44 1.74.02 1.47-.04 2.93.02 4.4.2 1.75.08 3.52.11 5.28.03 2.1-.09 4.22.11 6.32.07.73-.1 1.5.12 2.2.66 1.4.39 2.97.5 4.46.02.54.47.88.71 1.33.13.52.06 1.1.41 1.56.37.48.32 1.14.65 1.65.44.6.53 1.37.94 2 .2.62.55 1.16.92 1.68.28.99.76 1.9 1.37 2.72.48 1.12.84 2.3 1.47 3.36.29.68.08 1.46.28 2.17.18.37.47.67.68 1.03.16.6 0 1.23.13 1.84.12.38.35.71.47 1.1.13.66-.04 1.35.11 2.01.25.44.8.74.77 1.3.02 1.71 0 3.42 0 5.13.08.62-.48 1-.75 1.48-.11.4-.06.84-.23 1.22-1.2 1.76-2.89 3.1-4.42 4.55a62.4 62.4 0 0 1-4.72 3.03c-.55.34-1.02.84-1.7.97-1.1.28-1.8 1.43-2.98 1.54-.7 0-1.05.84-1.77.78-.74-.08-1.2.72-1.93.6h-6.36c-.61.06-1.04-.45-1.6-.57-.46-.1-.91-.23-1.28-.54-.52-.44-1.3-.25-1.84-.64-.53-.36-1.13-.59-1.66-.95-.53-.38-1.28-.09-1.79-.53-.6-.54-1.47-.43-2.13-.85-.48-.32-1.12-.19-1.58-.55a9.34 9.34 0 0 0-1.75-1.03c-.72-.31-1.28-.89-2-1.19-.81-.34-1.41-1-2.2-1.36-.69-.34-1.22-.93-1.94-1.2-.78-.28-1.4-.88-2.17-1.18-.53-.36-1.18-.28-1.78-.37-.38-.17-.65-.51-1-.72-.52-.16-1.08-.1-1.6-.21-.3-.14-.56-.35-.86-.48-.55-.1-1.13 0-1.68-.12-.43-.2-.77-.62-1.28-.63-.94-.1-1.89-.13-2.84-.13-.5.01-.92-.32-1.4-.44-2.4-.05-4.82-.22-7.24-.13-.56.05-.95.65-1.56.57-.99-.02-2 .08-2.97-.07-.49-.3-1.06-.75-1.04-1.38-.03-.65-.1-1.36.34-1.9.54-1.1 1.04-2.21 1.64-3.28.17-.37.17-.82.47-1.12.4-.43.82-.83 1.23-1.24.42-.48 1.1-.51 1.6-.88.54-.43 1.3-.35 1.85-.77.37-.3.85-.24 1.28-.29.62.01.93-.75 1.58-.68 1.82.01 3.65 0 5.48 0 .63-.04.95.72 1.57.7 1.13.05 2.3-.08 3.4.28.88.3 1.84.25 2.75.15.62-.21.9-.92.8-1.54.04-.63-.55-1-.93-1.42-.98-.9-1.82-1.96-2.91-2.73-.74-.54-1.3-1.27-2-1.87-1.32-1.14-2.45-2.48-3.79-3.6-2.2-2.15-4.35-4.34-6.53-6.5-.98-1.13-2.07-2.16-3.07-3.27-1.04-1.02-1.85-2.26-2.77-3.39-.62-.72-.83-1.7-1.5-2.36-.48-.47-.6-1.15-.94-1.7-.28-.49-.48-1.02-.83-1.46-.34-.39-.19-.94-.26-1.4 0-.54-.53-.9-.56-1.42a6.6 6.6 0 0 1 .04-1.7c.36-.97.74-2.07 1.73-2.58.8-.11 1.6-.05 2.4-.05.51-.03.83.44 1.25.64.48.1 1.02 0 1.42.32 1.04.6 2.1 1.16 3.03 1.92.77.65 1.74 1.03 2.44 1.77 2.49 2.44 4.94 4.92 7.42 7.37 2.01 2.26 4.25 4.32 6.37 6.49.86.84 1.67 1.76 2.66 2.46.38.3 1.18.13 1.08-.47-.04-.9.25-1.95-.35-2.74-.23-.36-.21-.81-.39-1.2-.76-1.22-1.01-2.7-1.94-3.82-.35-1-.97-1.88-1.43-2.84-.28-.79-.86-1.43-1.16-2.22-.73-1.3-1.56-2.55-2.25-3.89-.54-.8-.71-1.79-1.33-2.54-.5-.6-.67-1.39-1.13-2-.58-.86-.99-1.81-1.57-2.66-.32-.56-.67-1.12-.83-1.75-.11-.43-.44-.76-.64-1.15-.41-.88-.72-1.82-1.3-2.6-.34-.37-.24-.89-.26-1.34.02-.95-.03-1.89.01-2.83 0-.5.4-.87.68-1.24.53-.62 1.06-1.29 1.74-1.76.4-.17.86-.08 1.28-.1.85.04 1.72-.07 2.57.06a8.02 8.02 0 0 1 2.66 2.42c.5.72 1.31 1.26 1.52 2.16.23.9 1.14 1.42 1.32 2.34.15.62.63 1.08.92 1.63.37.55.47 1.22.84 1.76.66 1.03 1.03 2.2 1.68 3.23.21.37.15.85.4 1.2.44.59.56 1.35 1.07 1.89.33.85.93 1.58 1.08 2.5.35.48.57 1 .72 1.57.98 1.19 1.18 2.8 2.09 4.03.34.55.7 1.33 1.46 1.35.42 0 1 .1 1.27-.3.18-.65.1-1.33.1-1.99 0-.54-.39-.96-.56-1.45-.15-.85.08-1.72-.12-2.57-.16-.34-.45-.6-.6-.94-.12-.85.08-1.72-.07-2.57-.21-.37-.54-.65-.75-1-.14-.9.05-1.81-.07-2.71-.13-.55-.52-1.02-.54-1.6-.04-.65 0-1.31-.14-1.96-.13-.55-.7-.93-.68-1.53-.02-.94 0-1.89-.16-2.82-.11-.52-.45-.96-.53-1.5-.1-.78.03-1.58-.08-2.36-.2-.43-.72-.72-.67-1.24.01-.92-.04-1.84.03-2.75.15-.38.47-.65.64-1.02.6-1.43 2.01-2.26 3.21-3.13Z"/></svg>