<svg xmlns="http://www.w3.org/2000/svg" fill="none" viewBox="0 0 916 128"><g fill="#0FBCF9" clip-path="url(#a)"><path d="M31.17 121.05a53.46 53.46 0 0 1-23.01-19.3A50.94 50.94 0 0 1 .02 73.26 69.52 69.52 0 0 1 39 9.36 90.62 90.62 0 0 1 80.71.02a78.97 78.97 0 0 1 32.7 6.34 45.16 45.16 0 0 1 21.12 18.07l-31.04 23.23a27.9 27.9 0 0 0-25.54-14.31 34.05 34.05 0 0 0-17.9 4.7 32.28 32.28 0 0 0-12.26 13.31 41.5 41.5 0 0 0-4.37 19.3 22.31 22.31 0 0 0 7.2 17.4 27.22 27.22 0 0 0 19.02 6.55c10.82 0 20.31-4.72 28.48-14.15l25.36 23.23a64.3 64.3 0 0 1-25.36 18.71 88.92 88.92 0 0 1-32.77 5.58 80.85 80.85 0 0 1-34.18-6.93Zm218.75-49.37a53.46 53.46 0 0 1-25.48 18.88l21.36 37.23h-44.73L183 95.7h-10.56l-6.34 32.12h-43.17L148.5.11h57.32c16.8 0 29.86 3.68 39.15 11.04 9.3 7.36 13.96 17.67 13.97 30.92a49.74 49.74 0 0 1-9.02 29.6Zm-65.14-38.42-6.03 29.93h17.71c5.02.31 9.98-1.28 13.88-4.46a16.07 16.07 0 0 0 4.93-12.5c.02-8.63-5.31-12.95-16.02-12.97h-14.47Zm663.12-.67-2.92 14.97h35.78l-6.22 31.02h-35.92l-3.27 16.77h64.02l-6.57 32.5H786.56L812.11.13H916l-6.57 32.46H847.9Zm-390.1 95.26-18.63-80.52-48.51 80.59-40.42-.05L423.69.13h43.67l30.91 127.72h-40.46ZM628.77.17l-77.34 127.72h-42.36L478.33.17h44.18l15.89 74.42L584.59.13l44.18.04Zm6.84 0h43.09l-25.55 127.72h-43.04L635.61.17Zm81.37 33.35h-37.44L686.3.12h117.93l-6.75 33.4h-37.35l-18.8 94.33h-43.15l18.8-94.33Zm-400.46-.98L313.6 47.5h45.75L341.1 78.52h-33.8L304 95.3h54.24l-18.72 32.48h-84.4L280.7.06h132.15L394.2 32.54h-77.7Z"/></g><defs><clipPath id="a"><path fill="#fff" d="M0 0h916v128H0z"/></clipPath></defs></svg>