<svg xmlns="http://www.w3.org/2000/svg" fill="none" viewBox="0 0 328 128"><path fill="#FB83BC" d="M60.29 33.17c0-11.06-.02-22.11.02-33.17h16l.01 74.45H60.4c-.02-1.74-.08-3.48-.1-5.21a16.38 16.38 0 0 1-9.67 6.07 22.3 22.3 0 0 1-14.66-2.08A22.97 22.97 0 0 1 25.88 62.6a27.24 27.24 0 0 1-1.57-18.2c1.43-5.58 4.86-10.7 9.76-13.8a22.28 22.28 0 0 1 14.56-3.34c4.45.43 8.66 2.62 11.66 5.91Zm-11.43 8a10.43 10.43 0 0 0-8.74 10.48 10.5 10.5 0 0 0 4.77 8.6 10.6 10.6 0 0 0 8.45 1.16A10.5 10.5 0 0 0 60.8 51a10.87 10.87 0 0 0-3.48-7.34 10.32 10.32 0 0 0-8.47-2.49ZM92.89 2.21a8.92 8.92 0 0 1 6.52.7 9.2 9.2 0 0 1 4.81 6.71 9.4 9.4 0 0 1-.52 4.7 9.27 9.27 0 0 1-5.86 5.42 8.93 8.93 0 0 1-6.46-.53 9.22 9.22 0 0 1-5-6.53 9.15 9.15 0 0 1 6.5-10.47Zm23.41 12.61h16v13.74h14.5V14.82h15.93v13.74h9.83v13.67c-3.27-.02-6.55 0-9.83 0v32.23H146.8V42.21c-4.84.03-9.67.01-14.5.01V74.5c-5.33-.02-10.67 0-16 0V42.01h-4.94V28.56h4.94V14.82ZM87.46 28.56h15.87v45.92H87.46V28.56Z"/><path fill="#FB83BC" d="M0 52.26h14.75v44.9c5.87-5.48 11.7-11 17.56-16.47 7.34.04 14.68.01 22.02.02L31.5 101.78l24.16 24.52h-22.6c-6.08-6.21-12.23-12.35-18.3-18.56v18.57H0V52.26Zm212.07 14.82h16.03v13.57l8.64-.01v13.6h-8.64v32.06h-16.03V94.23h-4.9V80.71h4.9V67.08Zm36.33 15.84c4.36-2.75 9.58-3.9 14.7-3.87 4.79-.08 9.67.85 13.87 3.22 3.6 2 6.5 5.16 8.31 8.86 2.37 4.74 2.96 10.14 2.83 15.37h-33.84c.02 2.49.4 5.15 2 7.14 1.42 1.8 3.71 2.65 5.94 2.87 2.1.17 4.32.15 6.29-.74a7.98 7.98 0 0 0 3.37-3.05h15.55c-1.06 3.54-2.85 6.94-5.57 9.48-3.2 3.06-7.5 4.7-11.82 5.35-5.2.76-10.59.63-15.62-.94a23.36 23.36 0 0 1-11.05-7.18 23 23 0 0 1-5.2-12.6c-.49-5.26.16-10.74 2.57-15.49a20.88 20.88 0 0 1 7.66-8.42Zm8.7 9a8.8 8.8 0 0 0-2.3 4.76h18.4c-.94-3.79-4.4-6.89-8.32-7.18-2.76-.3-5.79.38-7.78 2.43ZM129.74 79.49c3.7-.45 7.56-.15 10.98 1.37a18.74 18.74 0 0 1 6.05 4.36v-4.4c5.33.02 10.66.02 16 0v45.49h-16v-5.03c-2.46 3.14-6 5.43-9.96 6.1-3.57.61-7.3.4-10.78-.67a22.2 22.2 0 0 1-11.6-8.56c-4.5-6.48-5.55-15.07-3.26-22.56a23.95 23.95 0 0 1 6.56-10.51 21.73 21.73 0 0 1 12.01-5.6Zm4.97 13.93a10.3 10.3 0 0 0-7.92 8.7 10.7 10.7 0 0 0 2.8 8.6 10.2 10.2 0 0 0 7.47 3.13 10.2 10.2 0 0 0 7.88-3.6 10.41 10.41 0 0 0 2.51-6.08c.3-4.34-2.46-8.74-6.54-10.3a10.84 10.84 0 0 0-6.2-.45Zm182.87-12.35a18.36 18.36 0 0 1 7.68-1.33c.93-.06 1.83.17 2.74.37v15.3a16 16 0 0 0-7.4-1.69c-2.3-.01-4.69.49-6.6 1.84a9.91 9.91 0 0 0-3.37 4.5 17.86 17.86 0 0 0-1.13 6.54v19.7h-15.98V80.7c5.33-.01 10.66-.07 15.99-.1v7.37c1.97-3 4.78-5.46 8.07-6.9Zm-125.54.53a17.15 17.15 0 0 1 8.04-1.86c1.14.02 2.3-.07 3.4.22-.02 5.15 0 10.3 0 15.45a15.92 15.92 0 0 0-10.76-1.28 9 9 0 0 0-5.56 4.01 15.54 15.54 0 0 0-2.17 8.23v19.93h-16.06l.01-45.59h16.05c0 2.47-.02 4.94 0 7.41 1.73-2.74 4.2-5 7.05-6.52Zm-136.27-.89H73.9c3.64 7.77 7.24 15.57 10.84 23.36 3.67-7.79 7.33-15.59 11.03-23.37 5.98.02 11.96 0 17.95.01-7.92 15.2-15.82 30.4-23.72 45.6H79.23c-7.82-15.2-15.62-30.4-23.46-45.6Z"/></svg>