<svg xmlns="http://www.w3.org/2000/svg" fill="none" viewBox="0 0 194 128"><path fill="#1E2849" d="M154.86 4.9c2.42-2.7 5.94-4.02 9.42-4.72 4-.24 8.1-.42 11.98.74 4.08 1.14 7.96 3.92 9.18 8.14 1.5 3.88.98 8.09 1.06 12.14 2.5.07 5 0 7.49.08-.04 2.7-.01 5.41 0 8.12-2.36.03-4.72.06-7.07-.01-.1.82-.2 1.64-.36 2.46-.18 5.27.1 10.56 0 15.83.26 2.51-.27 5.15.62 7.64 2.15.92 4.53.6 6.82.72-.06 2.73-.03 5.44-.02 8.16-10.38.1-20.77 0-31.15.04-.13-2.74-.14-5.5-.04-8.24 2.33.06 4.69.06 6.98-.45l.67-1.4c.15-8.23.01-16.46.08-24.7-2.7-.04-5.39 0-8.08-.04 0-2.7.02-5.41-.02-8.12 2.7-.09 5.4-.01 8.1-.06.15-2.24-.06-4.52.42-6.73.29-2.8-.13-6.05-2.55-7.85a13.65 13.65 0 0 0-5.01-.65l.12.97c2.1.26 3.34 2.31 3.76 4.21-.16 1.02-.37 2.04-.56 3.06-.81 1-1.73 1.92-2.81 2.62-2.24.74-4.65.77-6.88-.04l-2.13-1.61-1.1-1.65c-.14-.62-.33-1.22-.56-1.8a30.79 30.79 0 0 1-.02-3.35 41.1 41.1 0 0 1 1.66-3.51Zm-22.26.26c1.98-3.58 6.63-5.52 10.49-3.9l1.16.54a9.1 9.1 0 0 1 3.88 4.25c.92 1.57.56 3.46.56 5.18-.7 1.9-1.57 3.81-3.22 5.06-2.13 1.66-4.83 1.97-7.43 1.6a9.47 9.47 0 0 1-6.09-5.67c-.45-2.33-.6-4.94.66-7.06ZM98.03 1.51a6.2 6.2 0 0 1 1.92-.28c7.18.01 14.36.03 21.55-.02.17 2.72.05 5.44.1 8.16-2.28.04-4.72-.24-6.81.85-.68.88-.36 2.12-.5 3.16-.05 11.78 0 23.57-.01 35.36.03 2-.12 4.03.21 6.01 1.72 2.02 4.81.94 7.13 1.28-.07 2.75 0 5.5-.05 8.25-10.25-.08-20.5-.03-30.75-.02-.06-2.75-.1-5.51.03-8.26 1.6 0 3.18 0 4.77-.06a60.3 60.3 0 0 1 1.77-.5c.39-1.3.7-2.63.67-4-.02-16.64.04-33.28-.03-49.93ZM14.26 20.84c1.26-.48 2.59-.74 3.94-.88a18.2 18.2 0 0 1 8.69.6c.29.07.87.2 1.15.28 2.96 1.36 5.66 3.57 6.97 6.6l.84-.14c1.17-2.66 3-5.15 5.8-6.23 3.95-1.61 8.37-1.14 12.5-.76.58.2 1.15.4 1.74.57a13.63 13.63 0 0 1 6.9 6.36l.85.03a97.7 97.7 0 0 1-.03-6.06c7.7.06 15.38.05 23.07 0 .1 2.75.03 5.49.02 8.22-2.27.22-4.98-.6-6.91.9-.87 3.32-.26 6.86-.45 10.27.07 4.76-.17 9.52.18 14.28 2.05 1.6 4.77 1.01 7.18 1.11.01 2.76.07 5.53-.03 8.3-9.14-.1-18.3-.06-27.44-.03-.03-2.73-.03-5.47 0-8.2 1.2-.22 2.57-.14 3.6-.84.94-2.2.75-4.68.76-7.02-.06-4 .1-8-.06-11.99-.23-2.91-1.13-6.5-4.24-7.56-2.15-.58-4.94-.64-6.51 1.21-1.22 1.65-1.54 3.8-1.57 5.8.01 5.64.02 11.26 0 16.9-.06 1.04.3 2.03.64 3 1.37.1 2.73.18 4.1.22.07 2.84.04 5.69.06 8.54-8.3-.18-16.58-.03-24.88-.09-.12-2.7-.11-5.4-.04-8.1 1.4-.13 2.78-.38 4.14-.76.37-5.82.2-11.67.33-17.51-.24-2.4.21-5.15-1.5-7.14-2.1-2.96-7.14-3.42-9.42-.44-1.14 1.55-1.27 3.57-1.27 5.43.03 5.08.01 10.15 0 15.23-.04 1.5.29 2.99.63 4.45 1.27.3 2.55.56 3.84.71.04 2.72.06 5.43-.01 8.15-9.16-.03-18.3 0-27.46-.02a195.8 195.8 0 0 1-.02-8.2c1.92-.03 3.85-.08 5.78.06 1.17-1.25 1.27-3.02 1.26-4.63 0-4-.02-7.99 0-11.97.03-4.32-.3-8.7.8-12.93 1.03-2.72 3.44-4.64 6.07-5.72Z"/><path fill="#1E2849" d="M131.72 21.25c7.89-.04 15.77 0 23.66 0 .06 2.72.08 5.45-.03 8.18-2.06.04-4.16-.15-6.19.2-1.16.66-1.44 2.11-1.4 3.33.01 6.54-.03 13.07.03 19.6-.12 1.1.4 2.06.89 3 2.2.51 4.47.48 6.72.47 0 2.75.09 5.5-.06 8.25-10.24-.07-20.5-.07-30.74 0 0-2.76-.04-5.52.02-8.27 2.33-.2 5.35.58 7.07-1.45.1-11.1.05-22.2.03-33.3Z"/><path fill="#EB4633" d="M6.88 28.85c.47-.74.85-1.54 1.31-2.3-1.1 4.23-.77 8.62-.8 12.94-.02 3.98 0 7.98 0 11.97.01 1.61-.1 3.38-1.26 4.63-1.93-.14-3.86-.09-5.78-.06-.06 2.74-.04 5.47.02 8.2 9.15.03 18.3-.01 27.46.02-.06 2.54-.01 5.09-.04 7.63-1.78.12-4.23.43-4.26 2.75-.38 5.86-.07 11.77-.16 17.65-.05 2.42.24 5.4 2.57 6.74 3.57 2.33 8.96-.35 9.37-4.56.29-4.88.08-9.8.14-14.68-.08-2.46.28-5.04-.74-7.36-1.2-.05-2.41-.1-3.61-.17-.07-2.67-.13-5.34.03-8.02 8.3.06 16.58-.09 24.88.1-.03 2.45.15 4.92-.07 7.38-.76 1.2-2.48.43-3.65.65-.55.94-1.2 1.9-1.1 3.05.01 5.8-.02 11.61.02 17.42.18 2.49.76 5.55 3.33 6.65 1.57.3 3.22.31 4.8 0 2.88-1.08 3.86-4.4 4.2-7.16.16-4.92-.01-9.83.1-14.75.07-1.69-.23-3.35-.7-4.96-1.23-.2-2.47-.4-3.7-.64.01-2.57.02-5.14-.01-7.7 9.15-.04 18.3-.08 27.44.01-.02 2.52-.02 5.04.01 7.55l-1.42.47c-1.96.27-4.58-.74-5.83 1.26-.08 7.15-.06 14.29-.02 21.44.06 1.23-.19 3.07 1.38 3.47 1.94.17 3.9.06 5.84.1.04 2.74.03 5.48.02 8.21-7.68.03-15.36.04-23.04.01 0-2.11 0-4.23-.05-6.34-1.92 1.91-3.2 4.54-5.72 5.79-3.7 2.3-8.25 2.25-12.46 1.97-1.79-.6-3.66-1.04-5.37-1.87a13.01 13.01 0 0 1-3.73-4.58c-.6-.18-1.24-.06-1.86-.06a15.14 15.14 0 0 1-5.48 5.3c-4.97 1.64-10.65 2.06-15.54-.12-2.8-1.38-5.1-3.86-5.77-6.95-.26-2.56-.11-5.13-.52-7.67-.15-6.57.2-13.15-.23-19.72-1.7-.15-3.4-.24-5.1-.26l-1.4-.36C-.2 70.2.6 68.42.07 66.7c.2-.9.32-1.8.1-2.7-.32-2.63 0-5.29-.16-7.93 2.35-.8 5.28.47 7.05-1.73.15-7.5-.02-14.98.08-22.46-.1-1 .75-2.27-.25-3.03Zm155.64 26.88c2.42.06 4.84.06 7.25-.18-2.3.51-4.65.5-6.98.45-.1 2.75-.09 5.5.04 8.24 10.38-.04 20.77.05 31.15-.04 0 2.55-.03 5.1 0 7.66-2.24 1.04-4.95-.23-7.05 1.23.04 2.97-.63 5.9-.45 8.88.13 3.43-.28 6.89.24 10.3-.17 2.02-.83 4.48.35 6.26 2.28.1 4.58 0 6.88.05.05 2.72 0 5.44.03 8.17-1.91.06-3.81.06-5.72.06l-1.8.53c-.06 3.7.41 7.5-.76 11.08-.15 1.3-1.44 2.04-1.52 3.35-1.65 2.09-3.65 4.11-6.3 4.82-1.98.5-3.9 1.36-5.97 1.35-4.68.1-9.74.35-13.88-2.2-2.86-1.52-5-4.57-4.9-7.87-.13-2.79 1.5-5.84 4.32-6.62 3.39-1.58 8.33-.25 9.6 3.5.73 2.5-.36 5.52-3.04 6.27l-.15 1.04c2 .06 4.24-.05 5.62-1.7 1.88-1.8 1.6-4.5 1.56-6.85.1-2.26-.48-4.45-.56-6.69-2.68-.04-5.35 0-8.01-.04.03-2.58-.12-5.17.03-7.74l.52-.44c2.32-.15 4.66.11 6.98-.09l.5-.63c.03-7.83.11-15.68-.05-23.5-.24-.62-.46-1.23-.67-1.85-2.44-.37-4.96.09-7.35-.67.05-5.37.05-10.75.09-16.13Zm-71.7 8.53c10.25-.01 20.5-.06 30.75.02V72c-2.17-.1-4.35 0-6.47.5-.46 1.1-1.2 2.16-1.15 3.4-.02 12.54.02 25.07-.02 37.6-.03 1.4.34 2.77.58 4.14 1.9 1.76 4.71.7 7.04 1 .02 2.59.02 5.17.02 7.77-7.85.04-15.7.1-23.55-.02.02-16.64 0-33.28 0-49.92-.1-1.28.18-2.83-.8-3.84-2.04-.68-4.25-.67-6.37-.62-.03-2.59-.02-5.17-.03-7.76Z"/><path fill="#EB4633" d="M124.6 64.29c10.25-.08 20.5-.08 30.74 0 .03 2.54-.02 5.1.06 7.64-2.1.7-4.34.2-6.5.52-.98.63-.73 2-1.08 2.97-.13 5.8-.02 11.62-.08 17.44-.07 1.73.23 3.45.5 5.16 2.24 1.2 4.93-.1 7.2.97-.13 2.59-.08 5.18-.08 7.78-7.86.08-15.73.03-23.58.03.03-10.1 0-20.2.02-30.31.04-1.45-.17-2.96-1.1-4.13-1.97 0-3.93-.06-5.9-.05-.62-2.6-.46-5.37-.2-8.02Zm7.37 51.46c1.52-4.1 6.37-6.82 10.64-5.45 2.2.92 4.46 2.3 5.33 4.65 1.16 2 .83 4.37.66 6.56-.78 1.13-1.38 2.4-2.3 3.44-2.22 1.94-5.38 2.92-8.28 2.16-2.2-.48-4-2.07-5.28-3.87-1.3-2.23-1.43-5.03-.77-7.48Z"/></svg>