<svg xmlns="http://www.w3.org/2000/svg" fill="none" viewBox="0 0 114 128"><g clip-path="url(#a)"><path fill="#DEDEDE" d="M15.77 24.61C29.97 16.39 44.2 8.19 58.41 0c-.05 6.2.09 12.4-.07 18.59A30.33 30.33 0 0 1 43.8 42.74C29.51 51.04 15.14 59.18.86 67.5.8 63.33.85 59.16.83 54.99c.03-3.43-.16-6.91.58-10.3 1.63-8.32 7-15.8 14.36-20.08Z"/><path fill="#5D5D5D" d="M83.42 15.77c4.78 2.8 9.58 5.56 14.37 8.34 9.78 5.14 16.37 15.82 16.15 26.88 0 5.66 0 11.33-.02 16.98-4.09-2.24-8.1-4.6-12.16-6.88-2.43-1.39-4.92-2.7-7.07-4.5A30.03 30.03 0 0 1 83.4 33.2c0-5.81-.02-11.62.01-17.43Z"/><path fill="#B7B6B7" d="M.2 75.84a9.19 9.19 0 0 1 9.08-7.25c2.43-.04 4.55 1.25 6.56 2.46 8.17 4.73 16.38 9.42 24.54 14.19a30.33 30.33 0 0 1 14.57 24.87c.06 5.95.01 11.9.02 17.84-13.04-7.58-26.15-15.05-39.22-22.59C5.2 99.83-1.27 87.62.21 75.84Z"/><path fill="#8F8F8F" d="M100.08 69.86a9.07 9.07 0 0 1 7.77-.71 9.12 9.12 0 0 1 5.84 6.7c1.37 11.2-4.37 22.87-14.1 28.65-13.53 7.85-27.14 15.57-40.66 23.45 0-5.98-.03-11.96 0-17.93a30.21 30.21 0 0 1 14.58-24.8c8.84-5.15 17.71-10.24 26.57-15.36Z"/></g><defs><clipPath id="a"><path fill="#fff" d="M0 0h114v128H0z"/></clipPath></defs></svg>