<svg xmlns="http://www.w3.org/2000/svg" fill="none" viewBox="0 0 348 128"><g fill="#7F3311" clip-path="url(#a)"><path d="M278.92 0h2.48c2.67.17 5.3.85 7.75 1.91a42.9 42.9 0 0 1 20.41 17.77c2.49 4.45 4.6 9.46 4.12 14.66a33.2 33.2 0 0 1-2.25 9.94 8.92 8.92 0 0 1-3.06 4.11c-1.4.95-3.67.43-4.2-1.26-1.16-2.8-2.07-5.78-4.09-8.11-2.3-2.64-5.32-4.5-8.22-6.43-2.24-1.49-4.1-3.46-5.92-5.4-1.56-3.02-2.23-6.54-4.52-9.16-3.2-3.71-8.1-5.27-11.68-8.53-1.72-1.57-2.24-4.55-.46-6.27C271.82.77 275.56.27 278.92 0ZM18.36 9.1c3.18-2.78 6.54-5.47 9.06-8.9 5.3-.22 10.6.14 15.9.32.87.16 2.24-.17 2.63.9.3 1.11.08 2.44-.87 3.18a3030.24 3030.24 0 0 0-21.34 20.57c-1.2 1.16-2.34 2.4-3.65 3.44l.3 1.44c8.82 7.9 17.53 15.91 25.66 24.51 5.65-12.63 8.98-26.1 13.92-39 .92-1.21 2.82.08 2.99 1.32 1.04 5.78 3.87 11 5.75 16.5a60.2 60.2 0 0 0-1.58 4.4c1.05.13 2.49-.4 3.13.74 1.8 2.51 3.02 5.5 3.4 8.55.22.97-.54 2.05-1.57 1.94-2.97-.06-5.92-.23-8.88-.3-.86 2.31-1.95 4.53-2.63 6.9-.18.9-.95 1.46-1.52 2.1-3.66-.46-7.35-.28-11.03-.31-1.14.03-2.22-.35-3.29-.67-5.17.5-10.38.84-15.58.5-1.95.07-3.09-1.76-4.33-2.96-2.25-2.3-4.09-5.1-6.8-6.89.34-5.75.58-11.52.34-17.29-.1-.6.44-1.01.72-1.49-1.7-.76-1.07-2.63-1.06-4.1.27-5.12.64-10.26.33-15.4Zm44.82-1.73c.57-2.53 1.1-5.42 3.24-7.15 2.8.15 5.63.12 8.44.33 1 .64.4 2.15.55 3.15 6.88 10.38 10.92 22.24 14.94 33.92 1.98 5.95 4.06 11.86 5.82 17.87.18 1.9-2.14 1.7-3.4 1.72-3.56-.22-7.12-.3-10.68-.1-3.56-8.73-7.2-17.43-10.87-26.1a259.54 259.54 0 0 1-8.04-23.64Zm39.37-6.28c4.18-.21 8.38-.65 12.57-.39.64.12 1.06.64 1.4 1.14-.34.62-1.16 1.12-.96 1.93 1.31 17.28 1.97 34.67.89 51.99a17 17 0 0 1-.57 1.3c-4.25-.02-8.5.16-12.76.07-1.15 0-.71-1.42-.5-2.07a6.8 6.8 0 0 0 .4-2.33c.09-16.48-.95-32.94-.99-49.41a3.4 3.4 0 0 1 .52-2.23ZM119 2.4c-.07-1.33 1.25-2.34 2.5-2.28 5.2.01 10.44-.05 15.62.54 1.27.07 1.64 1.55 1.63 2.6-.1 2.52.05 5.05 0 7.57-.1 1.34-.04 2.88-1.01 3.94-1.65-.18-3.28.3-4.93.3-4.1.1-8.22-.15-12.32-.08-.72.04-1.34-.44-1.76-.97-.04-3.87.19-7.76.26-11.63Zm27.68-1.21a87.2 87.2 0 0 1 12.5-.5c.53.16 1.01.47 1.52.71-.2.84-1.03 1.49-.95 2.38 1.32 17.28 1.96 34.66.9 51.98-.19.64-.56 1.59-1.44 1.3-3.63.04-7.26.07-10.88.12-.63-.04-1.7.14-1.78-.75 0-1.1.65-2.09.63-3.2.16-16.81-.94-33.6-.96-50.42-.06-.6.1-1.14.46-1.62ZM164.03.7c.63-.5 1.4-.67 2.2-.6 5.01.05 10.05-.02 15.05.55 1.7.15 1.73 2.26 1.66 3.56-.3 3.43.69 7.12-.76 10.36-5.75.93-11.59.3-17.38.42-.96.07-2.14-.7-1.91-1.77.08-3.47.2-6.94.28-10.41 0-.76.11-1.7.86-2.12Zm28.12-.02c4.59.26 9.23.47 13.78-.4.3 17.33-.9 34.64-1.07 51.96-.14 1.8.5 4.1-1.33 5.28-3.94-.68-7.96-.4-11.94-.56-.62 0-.96-.57-1.41-.89 1.04-1.95 0-4.12.08-6.19a391.2 391.2 0 0 1 .31-26.31c.18-6.92-.04-13.84-.15-20.76-.14-1.02.49-2.45 1.73-2.13Zm15.67.1L209 .31c5.36.38 10.74.33 16.12.33.6 0 1.16.2 1.74.36-.08 4.21.25 8.43.24 12.65a1.3 1.3 0 0 1-1.5 1.31c-5.5.04-11.02-.02-16.53.03-.6.1-1.13-.25-1.64-.48.04-4.07-.25-8.14-.16-12.21 0-.56.35-1.02.55-1.52ZM1.16 5.67c-.1-1.6-.42-3.26.09-4.84 4.44.23 8.9-.46 13.32-.16 1.76.61-.12 1.9.02 3.04a377.05 377.05 0 0 1 1.04 47.16c-.12 2 .08 4.08-.59 6-3.9.17-7.81.24-11.72.26C2.03 57.2.99 56.4 0 55.7v-.52C.94 44.8 1.88 34.42 1.93 24a250.9 250.9 0 0 0-.77-18.33Zm260.9 6.89c3.33-.91 6.54.84 9.39 2.37 2.99 1.7 6.1 3.55 7.97 6.54 2.09 3 1.28 7.36 4.23 9.87 2.4 3.34 6.53 4.5 9.83 6.66 3.68 3.23 6.83 7.42 7.8 12.3.32 1.94.5 4.42-1.31 5.73-3.3 2.4-7.7 2.4-11.53 1.55-6.71-1.56-12.69-5.4-17.73-10-5.55-5.16-10.23-11.51-12.41-18.85-1.19-4.11-1.57-8.71.18-12.73.65-1.57 1.86-3.04 3.57-3.44ZM119.54 25.23c5.52-.08 11.05-.14 16.58-.2.59-.06 1.13.25 1.68.42-.15 4.07.2 8.15.21 12.22.05.63-.4 1.14-.61 1.7-5.46.23-10.91-.05-16.37.06-.61.09-1.17-.2-1.72-.39.06-4.06-.38-8.12-.3-12.2a2.3 2.3 0 0 1 .53-1.61Zm43.69 1.09c.1-.56.36-1.35 1.1-1.12 5.36-.02 10.71-.13 16.06-.16.58-.05 1.08.25 1.6.42-.15 3.12.11 6.23.15 9.35-.03 1.53.4 3.2-.53 4.55-5.43.25-10.86-.04-16.29.07-.64.08-1.24-.16-1.82-.38.07-4.25-.43-8.48-.27-12.73Zm44.61-1.12c.66-.38 1.5-.06 2.22-.1 4.7.31 9.41-.21 14.12-.02a2.8 2.8 0 0 1 2.82 3.15c-.15 3.2.18 6.45-.4 9.62-.22.71-.47 1.9-1.47 1.74-5.67-.35-11.36.23-17.03-.2-.67-.51-1.27-1.34-1.16-2.22.07-3.29.16-6.57.22-9.85.02-.74.03-1.62.68-2.12Zm.5 17.32.65-.3c2.53-.1 5.06 0 7.6-.07 3.47.04 7.01-.2 10.41.65.66.25 1.78.49 1.8 1.36 0 3.64-.16 7.29-.2 10.94a2.85 2.85 0 0 1-1.33 2.58c-5.45-.03-10.91.23-16.34-.32-1.34-.26-3.03-.23-3.95-1.4-.05-3.75.14-7.51.2-11.27a2.2 2.2 0 0 1 1.16-2.17Zm-43.7 36.08c3.22-2.77 6.5-5.56 9.1-8.94 5.35-.17 10.71.14 16.07.35.78.11 1.75-.06 2.32.62.44 1.14.27 2.63-.74 3.43a3350.8 3350.8 0 0 0-19.93 19.2c-1.74 1.6-3.28 3.4-5.15 4.86.27.7.32 1.54 1 2 8.6 7.66 17.12 15.48 25 23.92.6.48.75 1.36.27 1.99-5.45.61-10.96 1-16.45.72-.82-.11-1.76 0-2.46-.52-3.45-2.81-5.73-6.84-9.38-9.41.38-5.67.6-11.36.37-17.04-.12-.7.32-1.24.73-1.74a44 44 0 0 1-1.23-1.01c.26-6.14.85-12.28.48-18.43Zm42.23-6.64c-.1-.98.6-2.25 1.7-2.17 3.3.25 6.62.1 9.92.02.94-.02 2.2.24 2.5 1.29.14.92-.1 1.86-.03 2.8 1.86 10.56 1.28 21.33 1.1 32-.2 6.35-.33 12.7-.66 19.05-.02.8-.47 1.87-1.44 1.7-3.8-.15-7.6.18-11.39-.05-.6-.03-1.09-.4-1.61-.63a8.6 8.6 0 0 1-.47-2.69c-.17-7.84-.38-15.7.07-23.54.56-9.25.41-18.52.31-27.78ZM1.5 70.48c4.23-.38 8.48-.52 12.72-.4.59.15 1 .64 1.47.98L14.6 72.5c1.22 17.38 1.84 34.85.86 52.26-.02.62-.34 1.16-.55 1.72-4.35.1-8.7.23-13.05.1-1.17-.98.26-2.53.14-3.77.16-16.96-.96-33.9-.96-50.87-.04-.54.28-.98.47-1.46Zm39.39 1.98c-.23-1.17.47-2.98 1.94-2.55 3.74.5 7.52.1 11.28.2 1.32.3 1.1 1.8 1.08 2.82-.5 8.3.31 16.6.09 24.9-.12 2.45.06 4.9.2 7.34a7.98 7.98 0 0 0 4.4 6.84c.5.27.99.54 1.45.87.26 3.15.44 6.31.34 9.47-.08 1.84.78 4.36-1.44 5.24-4.58-1.11-9.34-2.63-12.73-6.07-2.16-2.35-4.28-4.91-5.09-8.07-1.63-5.51-.63-11.3-1.27-16.93-.7-8 .23-16.04-.25-24.06Zm30.48-.86c.1-.53.4-.99.61-1.47 3.78.11 7.57.17 11.36.04 1.98-.37 3.1 1.64 4.24 2.89-1.13 5.88-2.13 11.82-2.37 17.81-.3 6.44-.7 12.9-1.88 19.25-.72 3.5-1.73 7-3.44 10.16-3.1 4.3-8.46 5.94-13.43 6.94l-1.33-.72c0-4.32.02-8.64-.02-12.96.67-1.48 2.44-1.56 3.46-2.67 1.64-1.72 2.41-4.1 2.58-6.42.36-10.95-.7-21.92.22-32.86Zm24.86-1.22c2.57-.37 5.17-.33 7.76-.3 9.86 15.56 21.19 30.16 33.22 44.1l.34.54c-.03 3.35-.2 6.7-.28 10.04.02.68-.25 1.33-.69 1.84-1.96.25-3.94.05-5.91.01a6.55 6.55 0 0 0-1.55-2.44 181.2 181.2 0 0 1-18.26-22.72c-4.69-6.96-9.88-13.56-15-20.2-.14-2.6-.07-5.23-.16-7.84.04-1.01-.23-2.2.53-3.03Zm26.48 1.56c-.02-.66.36-1.22.62-1.8 4.12.14 8.25.2 12.37.03.7-.09 1.11.64 1.63.97l-1.04.82c.2 7.54.01 15.08.27 22.61.1 3.16.77 6.28.66 9.44-.08.98-1.61 1.41-2.15.55-4.32-5.3-8.51-10.7-12.87-15.98.18-5.54.33-11.1.51-16.64Zm24.52.03c-.15-.65.2-1.19.54-1.7 4.1.23 8.22-.24 12.34-.24.77-.12 1.26.58 1.76 1.03l-1.07 1.47a373.1 373.1 0 0 1 1.07 48.91c-.16 1.67.23 3.5-.73 4.98-3.95.03-7.9.23-11.86.18-1.18 0-2.09-.82-3-1.43.84-10.18 1.83-20.36 1.93-30.59.07-7.54-.45-15.08-.98-22.6Zm46.97 1.44c.01-1.06-.35-2.49.76-3.15 2.03-.18 4.07-.03 6.1-.14 1.3 0 2.68-.28 3.85.4-.14 4.1.26 8.2.2 12.3.02.72-.38 1.73-1.25 1.66-2.66.06-5.32 0-7.98.02-.92.05-2.37-.48-2.09-1.65.32-3.13.59-6.29.41-9.44Zm29.8-1.88c0-.81.68-1.78 1.6-1.66 2.34.04 4.74-.1 7.05.4.56.13 1.36.44 1.28 1.17.08 3.81.22 7.63.1 11.44.12.94-.72 1.4-1.32 1.92-2.4-.24-4.8-.23-7.2-.32-.53.02-.95-.34-1.4-.55-.05-4.13-.22-8.26-.11-12.4Zm17.8.45c-.07-.9.57-2.06 1.62-1.83 4.63.25 9.3.49 13.89-.38.29 17.7-.94 35.37-1.08 53.06-.1 1.2.23 2.65-.69 3.62-.5.75-1.46.34-2.17.34-3.3-.4-6.63-.24-9.94-.3-.67.05-1.3-.27-1.72-.77 0-.92.47-1.8.26-2.74-.57-3.94-.33-7.93-.42-11.89.02-5.66.04-11.33.35-17 .27-7.37-.01-14.74-.1-22.1Zm17.33-1.71c1.28-.69 2.73-.37 4.1-.32 4.4.21 8.81.16 13.22.17.64-.06 1.24.21 1.83.44-.18 4.24.24 8.48.2 12.72-.13.78-.8 1.3-1.6 1.15-5.49.04-10.99-.03-16.48.05-.6.05-1.12-.13-1.54-.56-.1-3.99-.27-7.98-.22-11.97-.03-.6.3-1.13.49-1.68Zm29.07.03c2.56-.19 5.12-.26 7.69-.26 9.7 15.18 20.72 29.5 32.49 43.14.44.64 1.31 1.17 1.16 2.07-.08 3.13-.2 6.27-.28 9.4-.05.74-.19 1.8-1.02 2.03-1.9.1-3.79-.03-5.67-.04-6.14-7.68-12.66-15.07-18.3-23.14a323.8 323.8 0 0 0-15.46-20.9c-.45-.63-1.16-1.21-1.02-2.07-.03-2.84-.1-5.69-.11-8.53-.1-.63.3-1.15.52-1.7Zm26.5 1.66c.02-.72.26-1.92 1.23-1.82 3.93.17 7.88.17 11.81.03.6-.04 1.06.45 1.38.9-.15 1.42-.88 2.75-.79 4.21.16 9.44-.21 18.91.87 28.3.3 1.14-1.4 1.97-2.09 1.05-4.35-5.33-8.58-10.76-12.94-16.08.2-5.53.33-11.06.52-16.59Zm-296.8.03c-.18-1.03.9-1.89 1.87-1.67a14.8 14.8 0 0 1 10.03 5.36 19.01 19.01 0 0 1 4.28 11.34c-.4 4.36-1.6 8.86-4.43 12.3-2.5 3.08-6.45 4.65-10.33 4.91a2 2 0 0 1-1.8-2.06c-.06-4.07-.02-8.13-.05-12.18 1.14-.05 2.46.29 3.42-.5a2.73 2.73 0 0 0 .16-4.2c-.97-.91-2.41-.63-3.63-.67.47-4.2.75-8.42.48-12.63ZM287.38 93.6c.2-.94.26-2.71 1.58-2.66 1.7 1.43 2.96 3.3 4.34 5.03 2.68 3.5 5.25 7.1 7.72 10.75.31.43.53.93.53 1.47.46 5.02.81 10.06.73 15.1-.05 1.03-.1 2.14-.67 3.03-1.2.7-2.68.15-3.99.3-3.19-.15-6.47.46-9.59-.35.55-1.24.22-2.6.2-3.9-.39-9.58-1.45-19.17-.85-28.76ZM95.24 96.94c.08-2.11-.13-4.48 1.3-6.23 1.73 1.1 2.85 2.85 4.13 4.4 3.05 4.03 6.12 8.08 8.8 12.37.6 5.4.92 10.83.81 16.25-.13 1.05-.1 2.87-1.54 2.91-2.83-.04-5.66-.02-8.5.03-1.4-.02-2.86.1-4.2-.44.28-.62.38-1.27.32-1.94-.38-9.12-1.28-18.22-1.12-27.35Zm163.35-1.01c.04-.68.54-1.58 1.35-1.42 5.01.38 10.03-.04 15.05 0 1.34-.05 2.94.54 3.25 2 .31 2.33-.04 4.7.07 7.04-.1 1.8.07 3.9-1.13 5.4-1 .28-2.08.02-3.1.05-4.7-.19-9.38.21-14.06-.06-.94.08-1.23-.99-1.73-1.57.13-3.8.13-7.62.3-11.44Zm.41 16.53c.46-.25.94-.5 1.4-.77 4.73.03 9.46-.22 14.19.03 1.94.17 4.08.23 5.64 1.56-.13 3.94-.15 7.9-.3 11.84-.01.83-.69 1.43-1.12 2.07-5.88-.16-11.81.33-17.66-.51-1.06-.28-3.04-.4-2.83-1.96.06-3.47.16-6.94.22-10.4-.03-.66.2-1.27.45-1.86Zm75.55 9.39a6.88 6.88 0 0 1 5.03-8.68c3.81-1 7.87 1.85 8.42 5.72v1.8a6.9 6.9 0 0 1-13.45 1.17Zm4.33-6.22c1.73.06 4.19-.63 5.34 1.1.88 1.46-.35 3.04-1.79 3.44 1.14.97 1.86 2.31 2.64 3.57h-1.66c-.91-1.55-1.69-3.83-3.91-3.54v3.55l-1.33-.02c.13-2.75-.3-5.56.26-8.26a13.7 13.7 0 0 0-1.27-.07c-.59 1.18-1.51 2.24-1.67 3.6a5.71 5.71 0 0 0 11.13 2.4 5.7 5.7 0 0 0-4.28-7.1c-1.29-.45-2.58.3-3.86.15l.4 1.18Zm.62 1.03v2.47c.94-.03 1.91.06 2.84-.18.82-.28 1.02-1.51.24-1.96-.95-.48-2.07-.24-3.08-.33Z"/></g><defs><clipPath id="a"><path fill="#fff" d="M0 0h348v128H0z"/></clipPath></defs></svg>