<svg xmlns="http://www.w3.org/2000/svg" fill="none" viewBox="0 0 342 128"><path fill="#8895CB" d="M227.73.44A3.51 3.51 0 0 1 230.6.2c2.44.8 5.1 1.21 7.18 2.81.81.62 1.16 1.73.78 2.7-.87 2.8-2.64 5.22-4.32 7.6-4.05 5.53-8.53 10.74-12.52 16.3-2.52 3.59-5.01 7.28-6.51 11.42-.9 2.47-1.35 5.29-.24 7.77 5.07-2.24 9.44-5.76 13.44-9.54 5.7-5.3 10.49-11.5 16.3-16.68 2.13-1.77 4.64-3.74 7.58-3.4.98.09 1.95-.11 2.93-.14.3.4.79.76.7 1.33-.22.58-.5 1.13-.75 1.7 1.02.12 2.05.02 3.07-.1.17.58.43 1.18.33 1.8-1.06 2.35-2.45 4.64-2.68 7.25-.19 1.06 1.1 1.35 1.83 1.69-.2 3.92-2.63 7.2-3.6 10.9a18.3 18.3 0 0 0-.55 4.2c1.68-1.14 3.05-2.65 4.44-4.11 6.27-6.73 12.12-13.86 18.82-20.17a39.06 39.06 0 0 1 5.5-4.44c1-.58 2.07-1.17 3.25-1.15 1.37.2 2.66.79 3.81 1.52.78.5 1.72.66 2.49 1.17.24.4-.16.78-.26 1.15-.73 1.37-.36 2.98-.77 4.44-1.11 4.1-3.56 7.73-4.56 11.86 3.94-1.18 5.22-5.63 8.54-7.68a29.1 29.1 0 0 0 5.81-4.68c1.22-1.18 2.32-2.52 3.8-3.4a8.05 8.05 0 0 1 4.23-1.01c1.11.01 2.02.74 2.99 1.2.3 1.18.5 2.44 1.12 3.51.23.51 1.2.1 1.2.8.46.94-.25 1.8-.63 2.62-2.6 5.02-3.5 10.75-3.39 16.36.05 1.2.06 2.42.46 3.57 1.6.45 3.29.16 4.89-.14 4.67-1.02 9-3.18 13.05-5.69 2.19-1.47 4.48-2.82 6.41-4.63 2.55-2.29 4.63-5.06 7.23-7.29.1 2.62-1.93 4.56-3.15 6.68-.36 1.7-.36 3.71-1.74 4.99.85 1.9.1 4.04-.94 5.71-2.21 3.59-5.53 6.4-9.14 8.5-3.36 1.89-7.2 3.25-11.1 3-1.66-.24-3.43-.1-4.91-.97-3.58-1.9-7.07-4.2-9.61-7.41a14.76 14.76 0 0 1-3.18-7.19c-.25-1.6-.03-3.21-.18-4.81-1.23.39-1.99 1.48-2.89 2.32-1.37 1.43-2.74 2.85-4 4.37-1.04 1.47-2.84 2.15-3.92 3.6-1.48 1.57-2.18 3.76-3.87 5.15-.8.58-1.82 1.05-2.83.89-.79-.17-1.05-1.2-1.83-1.31-1.15.2-2.44.55-3.48-.17-1.3-1.12-2.59-2.41-3-4.14-.77-1.96-.34-4.1.33-6.02.55-1.69 1.4-3.28 1.81-5.02.13-.42-.03-.85-.16-1.25a144.07 144.07 0 0 1-10.53 12.89c-2.08 2.11-4.14 4.4-6.86 5.7-1.6.86-2.94-.86-4.52-.9-.44.23-.74.69-1.23.8a9.08 9.08 0 0 1-5.03-2.93c-.73-.68-1.34-1.53-2.22-2.02-2.06.73-3.5 2.76-5.69 3.28-1.25-.3-2.48-.9-3.8-.82-.44.16-.84.43-1.28.61a5.57 5.57 0 0 1-2.36-1.28c-1.02-.88-1.54-2.23-2.69-2.97-3.05 2.39-5.92 5.15-9.6 6.56-2.29.87-4.94 1.34-7.27.34a10.43 10.43 0 0 1-6.1-6.39c-.22-.69-.48-1.59-1.35-1.63a4.5 4.5 0 0 0-2.02 1.16c-1.83 1.57-3.33 3.46-5.13 5.06-2.46 2.27-5.28 4.45-8.68 4.98-2.5.27-5.32.08-7.32-1.64-1.9-1.65-2.34-4.34-2.22-6.73.27-3.29 1.5-6.4 2.76-9.4 1.26-3.02 2.83-5.89 4.24-8.82-.28-.72-1.13-.5-1.66-.29-2 .85-3.68 2.29-5.26 3.74-2.33 2.23-4.57 4.7-5.88 7.68-.6 1.31-.8 2.94.17 4.14a81.73 81.73 0 0 1-10.46 13.85c-.54.62-.85-.54-1.1-.93-1.39-.24-2.74.74-4.12.24-2.04-.48-3.32-2.48-3.65-4.45-.58-2.32.49-4.6 1.41-6.69 1.73-3.65 3.49-7.28 5.05-11-2.4.6-4.94.44-7.26 1.35-3.34 1.2-6 3.74-8.06 6.57-2.62 3.55-4.42 7.6-6.65 11.4-1 1.6-2.03 3.36-3.74 4.33-1.47.87-3.3.4-4.73-.32a6.01 6.01 0 0 1-3.13-5.63c-.2-4.73 1.92-9.07 3.55-13.38.5-1.55 1.3-3.46.15-4.92-2.55 2.65-5.14 5.32-7.19 8.39-.53.68-.6 1.52-.42 2.35-2.56 2.78-4.53 6.04-6.85 9.03-2.08 2.77-4.3 5.47-7 7.67-1.5 1.17-3.29 2.25-5.26 2.24-2.64-.12-5.39-.76-7.5-2.44a9.41 9.41 0 0 1-3.3-5.96c-.38-2.65-.05-5.33.61-7.9-5.11 3.31-7.32 9.53-12.23 13.08a8.09 8.09 0 0 1-4.5 1.64c-1.63.02-3.26-.01-4.86-.27-1.13-.2-2.35-.7-2.88-1.8-1.06-2.31-.96-4.98-.29-7.4 1.64-6.26 4.16-12.23 6.21-18.36.32-.98.65-1.97.83-2.99.16-.85-.23-1.9-1.1-2.2-1.2-.46-2.5-.18-3.76-.18-2.6.18-5.4.33-7.61 1.86-.78.45-.95 1.37-1.25 2.13-1.64 4.77-2.97 9.64-4.42 14.46-2.13 7.17-4.4 14.3-7.32 21.2-2.16 5.06-4.63 10.05-7.97 14.46-3.16 1.13-4.73 4.46-7.63 6 1.08-12.92 4.6-25.49 8.43-37.84C44.15 52.5 45.8 47.8 47.12 43c.25-1.1.68-2.23.41-3.36a27.4 27.4 0 0 0-9.59 4.39c-3.24 5.16-4.05 11.34-5.81 17.08-1.56 5.42-4.08 10.76-8.35 14.56-1.6-.51-3.2.3-4.28 1.46-1.21 1.27-2.36 2.6-3.69 3.76-.78-.2-1.9-.49-1.8-1.52-.06-5.8.9-11.57 2.5-17.13.84-3 1.87-5.96 2.48-9.01-1.74.86-3.46 2.2-5.5 2.04-1.5-.33-2.4-1.74-3.55-2.65 2.1-1.8 4.78-2.66 7.28-3.75a7.35 7.35 0 0 0 3.76-3.82c1-2.4 1.55-4.94 2.21-7.44 1.18-4.58 2.26-9.25 4.42-13.5 1.15-2.14 2.7-4.33 5.08-5.17a7.43 7.43 0 0 1 5 .31 6.75 6.75 0 0 1 3.98 6.46c-.33 3.8-1.44 7.46-2.27 11.16 1.16-.25 2.34-.45 3.48-.81 1.06-.46 1.91-1.28 2.93-1.83 1.38-.82 3.02-1.02 4.6-1.16 1.3-2.07 2.07-4.4 2.92-6.67 1.63-4.55 3.8-9 7.09-12.58.95.65 1.8 1.48 2.39 2.48 1.2 1.88 1.5 4.13 2.3 6.17-1.23 1.1-1.45 2.8-1.53 4.36-.06 1.61 0 3.22.07 4.83 2.63-.72 5.35-1.07 8.05-1.44 3.68-.54 7.63.3 10.64 2.53a7.2 7.2 0 0 1 3.05 6.4 24.64 24.64 0 0 1-2.08 8.29c-.93 2.13-2.48 3.9-3.77 5.8a7.79 7.79 0 0 0-1.21 4.87c6.23-6.5 12.07-13.35 18.48-19.68 2.08-2 4.56-4.15 7.65-3.99 1.63.27 3.15 1.04 4.51 1.95.62.47 1.45 1.23 1.05 2.1-2.56 5.35-5.1 10.73-7.03 16.36-.51 1.62-1.1 3.28-1.09 5-.05.78 1.01 1.65 1.67 1.03 1.34-.97 2.46-2.2 3.55-3.43 5.1-5.91 9.61-12.34 15.28-17.73 4.32-4.1 9.47-7.99 15.6-8.59 2.01-.08 4.15-.28 6.06.5 1.2.5 1.86 1.77 1.93 3.02.18 2.3-.13 4.58-.19 6.86 4.35-2.63 8.37-5.88 13.1-7.81 2.22-.93 4.6-1.53 7.02-1.44 2.26-.07 4.76.27 6.44 1.92.78.71 1.59 1.85 2.8 1.49 1.3-.43 2.18-1.55 3.2-2.4 3.26-2.92 7.9-3.84 12.16-3.53 2.83.17 5.68 1.64 6.87 4.31a226.93 226.93 0 0 0-5.34 9.62c-.99 2.02-2.16 4-2.67 6.2 4.58-2.27 8.36-5.89 11.7-9.7 6.79-7.92 11.68-17.2 16.73-26.26 1.9-3.34 3.75-6.72 6.05-9.8 1.09-1.4 2.26-2.83 3.87-3.67Zm16.74 34.5c-1.86 2.03-3.95 3.92-5.32 6.34-.06.95 1.28 1.38 1.9.8 1.5-1.45 2.88-3 4.3-4.5a11.08 11.08 0 0 0 2-4.5 5.82 5.82 0 0 0-2.88 1.86Z"/><path fill="#8895CB" d="M332.3 75.44c2.67-1.96 5.15-4.17 7.76-6.21l1.66 1.17c-.91 2.06-2.32 3.83-3.69 5.6a64.4 64.4 0 0 1-6.09 6.81c-.9.84-2.07 1.33-3 2.13-1.04.88-2.08 1.8-3.4 2.23-1.6.47-2.82 1.7-4.4 2.23-4.51 1.55-9.14 2.93-13.91 3.3-3.31.21-6.62.27-9.94.37-4.78-.15-9.59.07-14.36-.36-6.54-.56-13.09-1.04-19.61-1.73-10.07-1.3-20.18-2.3-30.27-3.32-3.78-.31-7.55-.81-11.34-.73-8.5.03-17-.08-25.5.07h-16.5c-6.89.26-13.78-.15-20.66.14-2.94.03-5.86.46-8.77.75a93.44 93.44 0 0 0-19.44 4.3 384.87 384.87 0 0 0-19.76 6.97c-2.16.8-4.21 1.93-6.47 2.5-13 3.8-26.13 7.19-39.23 10.66A5511.2 5511.2 0 0 1 5.6 127.73c-1.82.58-3.73.04-5.6.02 16.66-6.4 33.42-12.53 50.32-18.28 7.92-2.72 15.92-5.23 23.89-7.83 3.29-1.06 6.39-2.62 9.57-3.95 4-1.75 8.12-3.16 12.08-4.99a219.06 219.06 0 0 1 35.59-12.9c6.42-1.55 13-2.34 19.47-3.61 6.54-.94 13.17-1.15 19.75-1.62 12.4-.88 24.83-1 37.25-.88 5.31-.02 10.62.39 15.92.72 13.44.87 26.88 1.76 40.3 2.79 2.92.19 5.8.68 8.7 1.05 6.57.8 13.18 1.24 19.74 2.16 5.53.86 11.13.99 16.71 1.32 4.44.15 8.98.18 13.3-1a42.61 42.61 0 0 0 9.71-5.3Zm-8.5 6.81c-5.18 1.63-10.72 1.42-16.09 1.2-4.77-.3-9.57-.4-14.31-1.1-5.97-.88-12-1.33-18-1.99-4.08-.4-8.13-1.18-12.23-1.43a3713.52 3713.52 0 0 0-45.07-3.07c-7.88-.55-15.79-.37-23.69-.4-5.61.1-11.23.26-16.84.47-4.3.22-8.6.61-12.92.82-5.4.4-10.84.62-16.16 1.74-6.82 1.22-13.74 2.06-20.38 4.12a222.4 222.4 0 0 0-22.71 7.9c-5.17 2.08-10.12 4.63-15.34 6.58-4 1.53-7.9 3.31-11.83 5-3.4 1.4-6.95 2.39-10.44 3.54a1106.7 1106.7 0 0 0-48.08 16.65c13.82-3.5 27.6-7.1 41.4-10.7 13.92-3.69 27.87-7.3 41.72-11.28 1.82-.5 3.62-1.1 5.33-1.92a315.7 315.7 0 0 1 19.8-7.16c5.14-1.76 10.4-3.2 15.74-4.24 3.87-.69 7.79-1.04 11.69-1.45 7.77-.59 15.57-.08 23.36-.3 7.22-.1 14.44.08 21.66-.1 8.07.02 16.14-.03 24.2.02 10.86.78 21.68 2.08 32.5 3.23a293.6 293.6 0 0 0 16.05 1.7c6.13.47 12.26 1.22 18.43 1.12 4.5.05 9 .07 13.5-.2a44 44 0 0 0 12.17-2.25c1.66-.54 3.4-.94 4.9-1.89a9.87 9.87 0 0 1 2.56-1.32c1.77-.55 2.9-2.14 4.48-3.02.94-.53 1.79-1.22 2.52-2.02a78.9 78.9 0 0 0 5.84-6.93 49.06 49.06 0 0 1-13.75 8.68Z"/></svg>