<svg xmlns="http://www.w3.org/2000/svg" fill="none" viewBox="0 0 561 128"><path fill="#50BF86" d="M49.37.5c8.7-1.07 17.68-.48 26 2.34a57.51 57.51 0 0 1 32.07 26.37 57.44 57.44 0 0 1 3.72 48.1 57.45 57.45 0 0 1-27.68 31 57.24 57.24 0 0 1-28.04 6.21A57.4 57.4 0 0 1 2.52 74.14 57.23 57.23 0 0 1 25.37 9.7a57.48 57.48 0 0 1 24-9.2Zm-6.5 31.23c-7.45 14.84-14.81 29.73-22.33 44.54-.36 1.42-.24 3.2 1.23 3.96 2.16 1.08 4.7.55 7.03.65 4.62.45 9.45-2.19 11.16-6.58 4.24-8.38 8.52-16.74 12.77-25.12 1.9-3.59 1.9-8.12-.03-11.7-1.3-2.55-2.54-5.13-3.86-7.67-.57-1.05-1.59-2.22-2.9-1.96-1.71.59-2.3 2.44-3.07 3.88Zm23-1.82c-7.45 14.84-14.85 29.7-22.3 44.53-.5 1.03-1.15 2.06-1.14 3.24a2.9 2.9 0 0 0 2.05 2.85c1.78.55 3.66.33 5.5.37 4.07-.05 8.14.05 12.2-.03 2.86.02 5.72.04 8.58 0 3.9.05 7.82.05 11.73 0 2.42.05 4.84.03 7.27.02 1.44-.06 3.12-.14 4.07-1.38.98-1.16.62-2.83-.04-4.05-7.34-14.62-14.65-29.26-21.97-43.9-.7-1.36-1.3-3.01-2.82-3.67-1.42-.4-2.57.87-3.13 2.02ZM303.42 6.3c2.26-1.6 5.2-1.74 7.83-1.28 1.85.54 4.13 1.23 4.85 3.22-.49.54-.88 1.23-1.66 1.37-.91-.83-2-1.43-3.12-1.94-2.06-.54-4.45-.6-6.24.74-2.04 1.5-2.7 4.16-2.73 6.57-.02 2.92-.01 5.83 0 8.75h9.47l.4.6-.03 1.64c-3.27.36-6.57.07-9.85.16V46.1c-.05.7.23 1.58-.48 2.03-.7.03-1.41.02-2.1-.02-.24-1.41-.15-2.84-.16-4.26V26.13c-1.47 0-2.92.03-4.38-.1a10.3 10.3 0 0 1-.01-2.22c1.46-.12 2.92-.09 4.38-.08.03-3.07-.01-6.14.02-9.21.08-3.08 1.16-6.43 3.81-8.22ZM144.67 9.61c.03-1.41-.18-2.88.35-4.22.86.13 1.98-.34 2.62.45.09 6.41-.04 12.83.06 19.25 6.46-6.02 12.91-12.04 19.37-18.04.63-.56 1.18-1.23 1.94-1.62 1-.07 2-.03 3-.02l-.2.98c-6.99 6.7-14.26 13.1-21.22 19.83 7.2 6.8 14.36 13.66 21.53 20.5.51.3.42.88.46 1.37-1.1.05-2.2.14-3.29 0-.96-.62-1.72-1.5-2.55-2.27-6.33-6.18-12.7-12.32-19.04-18.49-.1 6.91.04 13.82-.07 20.73-.88.06-1.75.1-2.63.12-.5-1.24-.3-2.58-.33-3.87V9.6Zm65.87.47c.03-1.56-.16-3.16.3-4.68h2.27c.44 1.51.25 3.09.28 4.63 0 12.03-.01 24.05.01 36.07.04.7-.11 1.39-.3 2.05h-2.26c-.43-1.4-.28-2.86-.3-4.3V10.08Zm112.03 6.76c-.58-1.2.36-2.9 1.74-2.9.67-.12 1.27.3 1.89.53.25.8.82 1.73.25 2.54-.64 1.56-3.39 1.45-3.88-.17Zm12.03-2.29.96-.62c1.12-.12 2.5.27 2.73 1.55.53 1.38-.7 2.37-1.83 2.8-.84-.25-1.88-.44-2.18-1.4-.46-.77.05-1.6.31-2.33Zm99.15 1.81c.28-.76.33-1.79 1.19-2.16.85-.6 1.9-.11 2.72.3.83 1.33.43 3.61-1.46 3.58-1.23.26-1.99-.75-2.45-1.71Zm-208.59 7.36c.08-2.49-.16-5 .15-7.48.84.12 2.05-.48 2.51.52.13 2.32 0 4.65.06 6.97 3.05.02 6.1-.07 9.16.06.03.75.03 1.5 0 2.25-3.05.19-6.12.04-9.17.09 0 5.58-.02 11.15 0 16.72-.03 1.23.44 2.7 1.75 3.05 2.55.49 5.13-.47 7.3-1.75.74.46 1.65 1.66.81 2.4a12 12 0 0 1-9.6 1.88c-2.19-.56-2.97-3-2.96-5.03-.02-5.75 0-11.51 0-17.27-1.2 0-2.38 0-3.57-.06-.05-.77-.06-1.53-.03-2.3 1.2-.05 2.39-.05 3.59-.05Zm58.59-.54c2.04-.44 4.1.15 6.02.79.25.95-.26 1.8-.58 2.66-1.3-.22-2.5-.8-3.82-.92a8.65 8.65 0 0 0-7.4 4.23c-.1 4.78 0 9.58-.04 14.37-.05 1.29.2 2.63-.31 3.86l-2.26-.04c-.14-.81-.18-1.64-.17-2.47.04-7.07-.03-14.15.04-21.22-.07-1.2 1.53-.55 2.22-.63.1.97.19 1.95.27 2.93a9.65 9.65 0 0 1 6.03-3.56Zm45.79-.11c4.18-.3 8.47 1.71 10.83 5.19 3.87 5.3 2.94 13.5-2.17 17.67-4.41 3.92-11.79 3.73-15.97-.43-4.01-3.65-5.2-9.9-3.04-14.84a12.39 12.39 0 0 1 10.35-7.59Zm-.07 2.65a9.75 9.75 0 0 0-7.69 5.75c-2.24 4.77-.38 11.22 4.4 13.66a9.1 9.1 0 0 0 10.3-1.23 10.64 10.64 0 0 0 3.46-9.08c-.27-5.18-5.2-9.75-10.47-9.1Zm24.8.98c2.74-3.6 8.28-4.82 12.17-2.41l-.05.74c-.25.5-.48 1.02-.77 1.5-1.33.04-2.53-.87-3.89-.82-2.94.07-6.05 1.7-7.3 4.45-.14 6 .18 12-.15 18-.86-.01-1.71-.03-2.56-.09-.07-8.08-.07-16.17 0-24.25.7-.05 1.42-.08 2.14-.08.17.98.33 1.97.41 2.97Zm19.06 1.31c3.58-5.49 12.05-6.62 17.04-2.44 3.17 2.6 4.4 7.05 3.54 10.98-3.8.2-7.61-.01-11.42.08-2.93.37-5.9-.33-8.8.18.43 3.6 2.41 7.26 5.9 8.69 3.86 1.71 8.3.36 11.6-1.95.55.6 1.2 1.22 1.17 2.1-2.75 2.22-6.37 3.17-9.86 3.1a11.36 11.36 0 0 1-9.29-5.12 14.62 14.62 0 0 1 .12-15.62Zm4.53-.9c-2.4 1.52-3.55 4.28-4.1 6.95l.47.41c5.74-.03 11.49 0 17.23-.01-.05-2.58-.92-5.28-2.92-7-2.94-2.49-7.54-2.46-10.68-.35Zm27.5-.33c3.13-2.94 7.7-4.47 11.92-3.4A7.99 7.99 0 0 1 423 27.8c1.64 3.3 1.16 7.08 1.23 10.64-.04 3.21.08 6.43-.08 9.64-.84.04-1.7.04-2.53 0-.32-5 0-10.03-.16-15.03-.17-2.01-.76-4.11-2.25-5.56a7.6 7.6 0 0 0-6.9-1.53c-2.6.53-4.87 2.05-6.71 3.9-.03 5.42-.02 10.84 0 16.26.03.7-.1 1.38-.32 2.04l-2.25-.05c-.26-6.38-.04-12.78-.11-19.17.02-1.74-.1-3.5.13-5.23.68.02 1.37.05 2.06.1.07 1 .16 1.97.26 2.96Zm45.24-.05c3.18-2.8 7.61-4.44 11.83-3.37a8.06 8.06 0 0 1 6.06 4.95c1.44 3.5.9 7.37 1 11.06-.09 2.91.2 5.85-.17 8.75-.85-.12-2.13.49-2.52-.57-.1-4.54 0-9.08-.05-13.62-.06-2.03-.47-4.17-1.73-5.82-1.36-1.73-3.67-2.43-5.8-2.4-3.23.17-6.1 1.92-8.37 4.12-.07 6.1.08 12.18-.08 18.26-.86.04-1.71.05-2.56.02a547.9 547.9 0 0 1 0-24.32 36.5 36.5 0 0 1 2.1-.03l.3 2.97Zm60.96-.44A12.2 12.2 0 0 1 526 24.71c3.89 2.37 5.8 7.4 4.75 11.79-1.58.31-3.2.25-4.79.13-5.08.14-10.16-.16-15.24-.06a9.56 9.56 0 0 0 6.43 9.2c3.66 1.26 7.72-.02 10.75-2.2a10.1 10.1 0 0 1 1.46 1.66c-1.42 1.84-3.76 2.56-5.92 3.1-3.97.98-8.57.34-11.6-2.57-5.28-4.97-5.34-14.32-.28-19.47Zm2.11 1.63c-1.86 1.65-2.8 4.1-3.03 6.53 5.1.02 10.19 0 15.28.02.83 0 1.7.07 2.5-.32-.4-2.14-.85-4.43-2.43-6.07-3.12-3.43-9.02-3.25-12.32-.16Zm28.48-1.14c3.06-2.8 7.4-4.4 11.53-3.5a8.23 8.23 0 0 1 5.23 3.05c1.6 2.17 2.16 4.95 2.08 7.6-.06 4.73.1 9.46-.09 14.18-.86-.12-2.12.48-2.58-.54-.09-4.79.02-9.58-.05-14.37-.1-2.84-1.44-6.04-4.35-6.98-4.16-1.5-8.64.7-11.55 3.67-.05 6.06.04 12.12-.04 18.18-.86.05-1.7.07-2.54.07-.22-8.1-.14-16.24-.04-24.34.7-.04 1.43-.04 2.15 0 .09.99.18 1.99.25 2.98Zm-55.73-3.15c2.72-.88 5.61-.5 8.43-.58 2.05.07 4.15-.21 6.19.24l-.03 1.9c-1.53.33-3.1.36-4.66.43 5.37 3.87 4.56 13.15-1.04 16.45-3.7 2.24-8.92 2.08-12.31-.7-1.75.93-3.26 2.71-2.92 4.8-.03 1.82 1.88 2.92 3.5 2.96 3.46.11 6.92 0 10.38.05 2.59.13 5.44.75 7.2 2.84 2.24 2.9 2.05 7.25-.12 10.14-3.52 4.78-10.36 5.84-15.77 4.2-3.6-1-6.88-4.15-6.96-8.05-.25-2.75 1.46-5.27 3.7-6.73-2.57-.7-4.93-3.09-4.62-5.9 0-2.61 1.8-4.78 3.86-6.18a11.84 11.84 0 0 1-1-10.19 9.48 9.48 0 0 1 6.17-5.68Zm1.86 2.06a7.34 7.34 0 0 0-5.5 4.27 8.55 8.55 0 0 0 .5 7.84c2.37 3.89 8.5 4.42 11.72 1.32 2.98-2.97 3.12-8.33.21-11.4-1.77-1.82-4.47-2.44-6.93-2.03Zm-3.6 26.62c-2.04 1.02-3.75 3.11-3.62 5.5.01 2.26 1.6 4.21 3.5 5.3 2.5 1.47 5.56 1.6 8.36 1.1 2.9-.62 5.86-2.5 6.7-5.49.82-2.34-.28-5.27-2.61-6.27-2.39-1.07-5.07-.49-7.59-.63-1.58.12-3.3-.37-4.74.49ZM179.2 23.76a13.7 13.7 0 0 1 2.64.1c.04 4.86-.02 9.7.02 14.56.08 2.67 1.07 5.74 3.67 6.94 4.03 1.83 9.39.13 11.56-3.72.1-4.96.02-9.94.03-14.9.04-.98-.12-2 .19-2.94.76-.1 1.54-.08 2.32-.08.36 1.43.2 2.92.23 4.38 0 6-.02 12 0 18 .06.7-.1 1.4-.32 2.06l-1.76-.02c-.28-1-.44-2.01-.5-3.05a11.22 11.22 0 0 1-9.21 3.64c-2.53-.07-5.15-1.01-6.76-3.04-1.9-2.41-2.28-5.64-2.2-8.61.07-4.45-.1-8.89.1-13.32Zm66.3.01c.77-.03 1.54-.05 2.32-.06.62 1.7.22 3.52.33 5.27.1 3.95-.23 7.92.24 11.85.6 1.83 1.57 3.74 3.45 4.54 3.97 1.78 8.93.14 11.42-3.35.17-4.03.02-8.07.07-12.1.07-2.07-.2-4.16.25-6.2.79 0 1.58.02 2.38.05.28 2.63.27 5.28.11 7.93.13 3.9.08 7.8.07 11.7.01 1.58.17 3.18-.25 4.72l-1.81.04a10.7 10.7 0 0 1-.52-3 11.6 11.6 0 0 1-9.68 3.54c-2.96-.13-5.93-1.73-7.23-4.47-1.6-3.03-1.17-6.54-1.23-9.83.05-3.54-.08-7.09.08-10.63Zm189.2.03c.85-.06 1.72-.07 2.58-.02.27 5.32.04 10.66.12 15.98-.07 2.8.16 5.6-.14 8.36-.86.02-1.71.01-2.56-.03-.24-3.96-.04-7.93-.1-11.9.05-4.13-.14-8.27.1-12.39ZM147.8 69.09c.2-1.13.35-2.28.86-3.32.81 0 1.64.01 2.46.05 4.73 9.77 9.16 19.68 13.86 29.46 4.2-9.28 8.63-18.48 12.89-27.75.28-.62.64-1.21 1.02-1.79.93.12 2.67-.38 2.72 1.05 2.26 12.5 4.4 25.03 6.63 37.54.2 1.55.75 3.07.5 4.64a35.8 35.8 0 0 1-7.58-.04c-1.54-7.95-2.5-16-3.89-23.99-3.58 8.2-7.34 16.31-10.87 24.54-.92.27-1.88.26-2.81.14-3.85-8.18-7.44-16.47-11.21-24.68-.95 6.02-1.82 12.04-2.79 18.06-.28 2.02-.5 4.05-1.08 6.02-2.31.17-4.65.08-6.97.07l-.6-.66c2.09-13.14 4.64-26.21 6.87-39.34Zm80.61-2.43c2.34-.52 4.9-.56 7.24.03.25 10.27.03 20.56.1 30.84-.1 3.8.2 7.64-.16 11.42a35.1 35.1 0 0 1-7.1.02c-.34-2.3-.1-4.64-.17-6.95.06-11.79-.13-23.58.1-35.36Zm16.29.02c1.82-.62 3.75-.26 5.62-.35.85-.1 1.94.36 1.7 1.4.03 12.34 0 24.69.02 37.03-.01 1.4.08 2.83-.18 4.22-2.15.22-4.32.17-6.47.08-.76-.1-.85-.97-.81-1.59V71.35c0-1.56-.07-3.12.13-4.67Zm16.28.01c2.08-.63 4.3-.32 6.45-.31.92.04 1.12 1.07 1.06 1.8.03 5.65-.1 11.31.06 16.97 4.24-1.84 9.62-1.42 13.15 1.7 4.44 3.83 5.43 10.68 3.04 15.9-1.7 3.74-5.37 6.7-9.55 6.93-3.37.4-6.65-1.11-9-3.45-.28.92-.6 1.82-.9 2.73-1.4 0-3.35.76-4.35-.52-.18-8.88-.03-17.8-.08-26.68.07-5.03-.14-10.06.12-15.07Zm7.25 25.35-.01 7.32a7.28 7.28 0 0 0 1.96 2.69 5.24 5.24 0 0 0 7-.68c2.63-2.79 2.07-7.94-1.33-9.86-2.37-1.44-5.36-.79-7.63.53Zm134.8-14.98c2.13-.71 4.43-.26 6.64-.41.24.48.63.95.59 1.53.03 2.16-.01 4.32 0 6.49 2.07.01 4.14-.06 6.2.08.47 2.02.3 4.15.1 6.2-2.08.32-4.2.11-6.3.17.01 3.35-.01 6.7.01 10.04-.1.87.65 1.67 1.53 1.6 1.52.24 2.94-1.01 4.42-.5.67 1.55 1.03 3.21 1.61 4.79l-.51 1.02c-3.32 1.16-6.98 2.29-10.46 1.23-2.62-.85-3.9-3.73-3.92-6.31-.08-3.95 0-7.9-.03-11.84a19.7 19.7 0 0 1-3.01-.2 29.38 29.38 0 0 1-.06-5.77c.76-.88 2.05-.4 3.07-.54.04-2.53-.13-5.06.12-7.58Zm-75.98 10.58c1.9-2.18 4.62-3.9 7.62-3.55 1.56.1 4.05.24 4.3 2.21-1.02 1.58-1.87 3.27-2.88 4.85-2.04-.44-4.38-.83-6.05.77-1.52.92-1.02 2.78-1.08 4.25-.02 4.09.05 8.18-.03 12.27-.37 1-1.58.57-2.38.68-1.52-.12-3.12.26-4.58-.25-.41-.72-.28-1.57-.3-2.35.06-7.02-.1-14.05.07-21.07.67-1.45 2.77-.53 4.05-.77.62.89.94 1.93 1.26 2.96Zm23.85-3.14c1.76-.59 3.62-.38 5.43-.41 3.22.04 6.43-.1 9.64.08.46 1.27.73 2.86-.05 4.05-1.06.42-2.17.66-3.24 1.07.07.93.9 1.58 1.21 2.44a9.57 9.57 0 0 1-1.7 10.18c-2.58 2.83-6.7 3.83-10.39 3.15-1.42-.14-3.31-.77-4.28.69-.76.8-.4 1.92.08 2.76 1.72.9 3.72.42 5.58.53 3.78-.02 7.99-.33 11.14 2.17 4.17 3.05 3.95 9.74.37 13.15-2.99 2.99-7.45 3.82-11.54 3.6-3.58.02-7.5-.93-9.94-3.74a7.09 7.09 0 0 1-1.45-6.47 7.82 7.82 0 0 1 3.41-3.98c-2.62-.95-4.7-3.46-4.55-6.34-.22-2.99 1.84-5.63 4.39-6.96a10.77 10.77 0 0 1-.61-10.4 10.47 10.47 0 0 1 6.5-5.57Zm-.98 9.81v1.47c.4 1.13.88 2.37 2.01 2.96 1.97 1.24 4.9.56 5.94-1.58 1.2-2.29.17-5.66-2.47-6.34-2.43-.85-5.09 1.02-5.48 3.5Zm3.54 20.88c-2-.22-4.55.68-4.88 2.93-.15 1.83 1.58 3.2 3.24 3.5 2.08.31 4.42.4 6.24-.84 1.37-.84 2.1-2.9.98-4.24-1.34-1.66-3.68-1.35-5.58-1.36Zm26.59-30.66c3.83-1.07 8.25-.32 11.25 2.39a11.34 11.34 0 0 1 3.5 10.62l-.63.54c-5.37.15-10.76-.04-16.14.09.38 2.33 2.07 4.5 4.43 5.04 2.58.8 5.06-.7 7.28-1.83a34.61 34.61 0 0 1 3.41 3.8c.25 1.02-.77 1.5-1.4 2.05-3.15 2.36-7.33 2.88-11.12 2.18a12.23 12.23 0 0 1-8-6.1 13.51 13.51 0 0 1-.36-12.02 12.28 12.28 0 0 1 7.78-6.77Zm2.09 5.37c-1.87.45-3.06 2.1-3.58 3.85 3.1.06 6.22.06 9.33 0-.45-2.56-3.15-4.73-5.75-3.85Zm-186.08-5.19c2.2-.05 4.4-.1 6.6.05.15.63.37 1.26.36 1.92.01 3.92-.05 7.83.02 11.75-.03 1.9 1.08 3.93 3 4.45 3.04 1.02 6.19-1.88 6.23-4.88.04-4.24-.06-8.5.04-12.73l.44-.52c2-.18 4.01-.04 6.02-.07l.65.62c-.02 7.73.08 15.46-.04 23.18-.87 1.22-2.68.39-3.93.64-.69-.8-.99-1.84-1.29-2.83-1.85 1.7-4.08 3.17-6.66 3.33-3.07.39-6.5-.23-8.72-2.53-2.46-2.5-3.24-6.16-3.2-9.55.03-3.93-.05-7.87.03-11.8l.45-1.03Zm99.13 2.59c4.67-4.54 13.17-4.33 17.33.81 2.13 2.73 3.4 6.71 1.96 10-5.45.05-10.9 0-16.35.03a5.92 5.92 0 0 0 5 5.2c2.42.46 4.61-.98 6.72-1.95 1.15 1.24 2.36 2.44 3.36 3.81l-.07.83c-4.93 5.05-14.3 5.02-18.9-.48-4.5-5.08-4.1-13.67.95-18.24Zm3.45 6.46c3.1.04 6.2.05 9.3 0-.45-2.57-3.15-4.73-5.77-3.86-1.83.47-3.08 2.08-3.53 3.86Z"/></svg>