<svg xmlns="http://www.w3.org/2000/svg" fill="none" viewBox="0 0 308 128"><path fill="#73A8DA" d="M38.96 128c10.78-48.58 60.3-88.51 115.58-88.51S259.18 79.42 269.19 128H38.96Z"/><path fill="#fff" d="M9.78 106.41c-2.31-.85-4.85-1.39-5.4-4l-.14-.08L0 113.89l.15.08c2.08-1.62 4.47-.47 6.7.38l16.1 5.86c2.23.85 4.77 1.39 5.3 4.01l.16.08 5.78-17.27-5.47-3.86c.7 2.4.54 4.47-.3 6.79-.55 1.54-.16 1.54-1.32 2.7L9.78 106.4Z"/><path fill="#fff" fill-rule="evenodd" d="m35.42 86.21 4.62.85c.77.08 1 .15 1.7.54 1.3.7 1.46 1.77 1.53 3l.16.08 6.7-12.1h-.08l-.08-.08c-3.38 1.08-4.39.77-7.54.3l-24.87-3.85-5.4 9.8.16.07c1-.54 2.08-.85 3.16-.23.84.46 2.08 2 2.7 2.7L31.1 101.7c1.61 1.85 2.54 3 3.08 5.32l.15.08 4.54-8.26-.15-.07c-1 .38-1.92.85-3.08.23-.85-.46-1.85-1.62-2.46-2.31l-2.16-2.47 4.39-8.02Zm-4.47-.77-3 5.47-6.39-7.01v-.08l9.4 1.62Z" clip-rule="evenodd"/><path fill="#fff" d="M49.43 79.35a22.83 22.83 0 0 0 7.24-5.4c2.23-2.39 3.93-4.78 4.31-8.17.39-3-.77-5.7-2.92-7.79-2.16-2-4.47-2.54-7.4-2.24-2.38.24-4.46 1.16-6.7 2.09-1.69.77-4.15 2.08-5.77.61-1.54-1.46-.61-3.62.54-4.93 1.54-1.7 3.77-2.7 6-3.24l-3.92-3.62a22.16 22.16 0 0 0-6.24 4.7c-1.92 2.08-3.46 4.47-3.85 7.32a8.3 8.3 0 0 0 2.54 7.02c7.47 7.02 16.17-4 20.26-.15 1.84 1.77.46 4.24-.93 5.78a16.33 16.33 0 0 1-9.16 4.63l6 3.39Zm9.4-42.64c.46-.7 1-1.16 1.62-1.7 1.3-1 2.69-1.54 4.15-.77l-3.15-6.4-16.4 13.34-.77.46 3.07 6.64.08-.4c.62-2 1.31-3.23 2.93-4.54a8.48 8.48 0 0 1 1.92-1.31l11.63 14.34c1.46 1.85 3.39 3.7 2.54 6.17l.08.08 9.62-7.8-.07-.07c-2.7-.15-4-1.77-5.7-3.78L58.83 36.71Z"/><path fill="#fff" fill-rule="evenodd" d="m66.37 24.6.08.16c2.62.15 3.54 2.62 4.7 4.7l8 15.11c1.16 2.16 2.62 4.24 1.31 6.56l.08.15 11.86-6.32c2.85-1.54 5-2.7 6.16-5.78 1-2.7.85-5.32-.46-7.79a7.68 7.68 0 0 0-9.47-3.86c2-2.08 3-4.7 1.54-7.4-1.16-2.08-3-3.16-5.4-3.54-2.38-.47-4.15.54-6.3 1.61l-12.1 6.4Zm11.32-.84c.31-.39.62-.62 1.08-.85 1.77-.93 3.39.15 4.24 1.77.92 1.77.84 4.01-1.08 5.09-.31.15-.54.15-.85.23l-3.39-6.24Zm5.24 9.87 1-.54c3.08-1.62 5.24-1 6.85 2.08 1.23 2.31 1.39 5.09-1.3 6.47a3.1 3.1 0 0 1-2 .47l-4.55-8.48Z" clip-rule="evenodd"/><path fill="#fff" d="M105.64 13.96c-.77-2.23-1.92-4.62-.23-6.7l-.07-.16-11.7 4.01.07.16c2.62.61 3.16 3.16 3.93 5.47l5.54 16.2c.77 2.23 1.92 4.54.23 6.62l.08.16 11.63-4.01-.08-.16c-2.62-.61-3.08-3.16-3.93-5.4l-5.47-16.19Zm16.1-4.01c-.39-2.39-1.16-4.93.77-6.7v-.16l-12.17 2.16v.16c2.47 1 2.62 3.62 3 6.01l3 16.89c.4 2.3 1.16 4.85-.76 6.63v.15l18.4-4.32.62-6.63c-1.7 1.85-3.55 2.7-6.09 3.09-1.61.3-2 .38-3.62.92l-3.15-18.2ZM136.37 30a23.63 23.63 0 0 0 8.93 1.47c3.23-.08 6.16-.54 8.85-2.55a9 9 0 0 0 3.55-7.48c-.08-2.93-1.31-5-3.55-6.86-1.84-1.54-3.92-2.39-6.16-3.31-1.69-.7-4.39-1.55-4.39-3.7 0-2.16 2.16-3.01 3.93-3.01 2.31-.08 4.54.85 6.47 2.08l-.08-5.4a21.79 21.79 0 0 0-7.7-1.23c-2.77.08-5.62.62-7.93 2.31a8.4 8.4 0 0 0-3.3 6.7c.14 10.26 14.16 8.88 14.24 14.5.07 2.55-2.78 3.32-4.78 3.32a15.96 15.96 0 0 1-9.7-3.4l1.62 6.56Zm23.25-.38a22.99 22.99 0 0 0 8.63 2.7c3.23.38 6.16.3 9.08-1.32a8.96 8.96 0 0 0 4.54-6.94c.39-2.93-.53-5.08-2.54-7.32-1.61-1.85-3.54-2.93-5.62-4.16-1.62-.93-4.16-2.16-3.85-4.32.23-2.16 2.54-2.62 4.31-2.4a12.4 12.4 0 0 1 6.16 2.94l.62-5.32c-2.23-1.24-4.93-2-7.47-2.31-2.77-.31-5.7-.16-8.16 1.23a8.16 8.16 0 0 0-4.16 6.17c-1.23 10.17 12.78 10.8 12.09 16.34-.3 2.55-3.16 2.93-5.24 2.62a15.76 15.76 0 0 1-9.08-4.7l.7 6.79Z"/><path fill="#fff" fill-rule="evenodd" d="M200.97 13.42c.85 0 1.54.16 2.31.39 1.54.46 2.77 1.31 3 3l3.54-6.16L189.5 4.4l-.77-.38-3.78 6.24.39-.15c2-.62 3.46-.7 5.47-.08.77.23 1.46.46 2.15.85l-5.39 17.66c-.7 2.31-1.15 4.85-3.7 5.55l-.07.15 11.86 3.63.07-.16c-1.38-2.31-.77-4.32 0-6.78l5.24-17.5Zm16.02 25.06-.85 4.63c-.08.77-.15 1-.54 1.7-.7 1.3-1.77 1.46-3 1.54l-.08.15 12.09 6.71v-.08l.08-.07c-1.08-3.4-.77-4.4-.31-7.56l3.85-24.9-9.86-5.48v.23c.54 1 .85 2.08.23 3.16-.46.85-2 2.08-2.7 2.7l-14.4 12.96c-1.84 1.61-3 2.54-5.3 3.08l-.08.15 8.24 4.55.07-.15c-.38-1-.84-1.93-.23-3.09.47-.84 1.62-1.85 2.31-2.46l2.47-2.16 8 4.4Zm.69-4.47-5.47-3 7-6.4h.09l-1.62 9.4Z" clip-rule="evenodd"/><path fill="#fff" d="M247.94 39.64c.77.3 1.39.7 2 1.16 1.31 1 2.16 2.23 1.77 3.85l5.4-4.62-17.02-12.8-.62-.62-5.7 4.55h.39c2.08.08 3.46.46 5.16 1.77a6.6 6.6 0 0 1 1.69 1.54l-10.93 14.8c-1.47 1.94-2.78 4.17-5.4 3.94l-.07.08 9.93 7.55.08-.07c-.46-2.63.77-4.32 2.3-6.4l11.02-14.73Zm13.94 13.65c1.61-1.78 3.08-3.94 5.7-3.47l.07-.08-9.16-8.25-.08.08c.7 2.54-1.23 4.31-2.85 6.09L244.1 60.38c-1.62 1.77-3.08 3.93-5.7 3.47l-.07.08 9.16 8.25.08-.08c-.7-2.54 1.23-4.24 2.84-6.01l11.48-12.8Z"/><path fill="#fff" fill-rule="evenodd" d="M261.42 63.23c-8.01 5.4-9.01 14.88-3.78 22.67 5.24 7.71 14.48 11.03 22.72 5.48 8.39-5.63 9-14.65 3.7-22.6-5.24-7.78-14.56-11.02-22.64-5.55Zm5.92 6.71c3.93-2.62 9.55-3.55 12.56.93 3.54 5.24-1.54 11.1-5.86 14.03-1.85 1.23-4 2.31-6.23 2.16a7.58 7.58 0 0 1-6.09-3.24c-1.46-2.16-1.3-5.01-.15-7.33a18.92 18.92 0 0 1 5.77-6.55Z" clip-rule="evenodd"/><path fill="#fff" d="M301.07 113.89c2.39-1.16 4.24-1.93 6.78-.92l.15-.08-3.7-8.02-.15.08c-.85 2.62-2.7 3.47-5.08 4.62l-10.78 5.01L299.07 94l.15-.08-4-8.64-.16.08c-1.46 3.4-2.46 4.09-5.7 5.63l-14.32 6.7c-2.38 1.16-4.23 1.94-6.77.93l-.16.08 3.78 8.02.15-.08c.85-2.62 2.7-3.47 5.08-4.62l10.94-5.1.07.16-6.93 12.95c-1.69 3.32-2.77 4.7-2.84 8.56-.08 1.55 0 4.32.69 5.79l22.02-10.49Z"/><path fill="#000" d="M155.23 32c11.86 6.17 30.03 12.8 40.27 21.67 1.16 1.16 1 2.7 1.47 4.01.92.23 1.84-.3 2.84-.23 23.18 19.35 41.12 42.4 41.12 42.4-11.16-13.18-15.4-17.03-14.55-16.26-.15-.16 0 5.16.3 6.4 1.63 2.08 11.71 11.72 12.1 12.41 0 0-11.17-11.02-12.1-11.64.16 2.77.16 7.25.16 7.25 2.16 2.16 13.25 11.4 14.63 13.49l-14.63-13.03-.23 10.1c2.08 2.16 9.4 5.94 11.55 8.25-2.39-2.31-11.63-7.56-11.63-7.56l.08 5.79c4.24 1.77 10.01 5.4 13.7 7.94-3.69-2.47-8.93-5.1-12.85-6.94 0 0-1.7-.54-1.85-.54 1 5.24.08 4.86-.3 7.25 0 0 9.85 1.92 11.08 2l-11.24-1.54a4.47 4.47 0 0 1-1.39 2.24c2.08.69-2.77-.31-2.92-.47-.54-.23-1.08.23-1.39.31-2.08-.15-5.62-.61-7-2.39-1.4 1.31-5.94.85-8.17.85-2.23-.16-1.62-.77-3.85-1.16-.46-.54-2.39-1.85-2.62-2.62-.92.46-1.07 3.16-3.92 3.08-3.85.24-32.65.78-32.73.93 21.18-.3 103.41 3.32 105.8 3.86-.3.07-102.33-1.93-102.33-1.93L237 128H82.78s28.1-1.7 32.1-2c-12.62.23-30.18 1.3-42.8 1.7.45-.93 53.81-3.86 58.05-4.56-6.85-.38-66.53 4.24-67.38 4.24.85-.61-4.54-.7-7.93-.7 23.18-2.3 47.9-1.84 71.15-2.54 13.1-.53 57.44-1.08 62.68-1.38-4.24-.47-7.47-.7-8-.7-3.16-.3-2.01-2.46-4.09-4.93-5.16 2-24.1.7-24.33.15-.54.31-1.16 1.08-1.7 1.55.47.23 1.85.23 2.4.3-1.09.16-7.1.77-9.4.62-3.93-.15-4.62-2.24-6.78-5.47-2.23 0-18.94 1.54-18.94 1.54l-.08 1.7c5.62.46 18.25 1.15 18.25 1.15l-18.94-.15s-1.16 1.08-1.08 1.38c2.62.54 14.4.39 17.1.77-1.24-.07-10.7-.15-11.94.16l.16-.08c-1.85.23-4.63-.3-6.4.62-.15.15-.46.3-.46.46 5.16.31 17.02-.38 22.26.16-7.32 0-21.57.61-29.19.77-3.16-.47-6.08-1.16-6.93-4.09-.15-1.7-2.23-1.62-3.62-1.85-4.54.15-7.93-.39-12.16-.62-1.31.16-2.08-.92-2.08-2.16l.3-5 .85-15.12c-1 .15-3.62.7-3.62.7.08-5.79.93-10.88 2.4-16.12.6.08 2.69-1.7 4-2 .77-3.32 1.61-6.64 2.46-9.87-.3-.47-2 .3-1.7-.78 1.08-.46 2.62-1 2.93-2.15.54-1.24 3.93-9.57 8.09-13.96 2.15-1.85 4.62-3.86 7.54-4.86.54-.77 1.23-1.54 1.7-2.39 14.24-5.47 29.56-8.48 44.96-10.95 1-.23 1.77-.07 2.62.47Z"/><path fill="#DCDDDE" d="M156.08 42.88c2.7 15.65 2.85 32.46 2.46 48.96l-.69-.16c-.54-12.49-.54-37.62-2.7-49.73.08 3.55 1.85 16.97 1.54 20.43.31 9.18.24 19.2.24 29.07-.54-.46-2-.07-1.93-1 .77-5.17 1-12.1.85-17.35.08-1.23-.54-27.22-3.85-38.32-1.08-1.39-3.08-.46-4.54-.46-4.16.54-31.96 7.63-38.89 10.18 1-1.16 2.85-1.47 4.31-2 7.4-3.01 29.96-8.8 40.66-9.57.84.77 2.39 7.4 2.54 9.95Z"/><path fill="#F1F2F2" d="M195.04 54.13c1 1 .54 4.55.54 4.55 1.39 13.73.15 29.84.3 43.41-2.61-.54-28.87-7.63-36.26-9.94-.15-19.05-.46-39.1-4-57.75 5.7 2.31 29.26 11.18 39.42 19.73Z"/><path fill="#fff" d="M138.14 44.11a48.78 48.78 0 0 0-5.62 8.25c-2.16-1.54-9.7.77-15.25 2a699.8 699.8 0 0 0-24.56 6.56c3.62-6.32 4.7-11.72 12.93-14.88 3.24-1.08 28.5-8.87 43.05-11.57 0 0-6.86 5.17-10.55 9.64Z"/><path fill="#F1F2F2" d="M150.92 35.63c2.16 8.48 3.16 17.27 3.47 26.37-6.55-3.93-13.63-6.79-21.03-9.1 2.08-4.47 5.78-8.87 9.55-12.72 2.39-1.7 4.93-4.16 8.01-4.55Z"/><path fill="#fff" d="M131.6 54.21c-2.86-.15-4.32.16-7.7.93-11.25 2.39-21.8 5.4-32.5 8.63 1-3.16 3.39-2.93 8.16-4.31 9.7-2.63 20.1-5.33 30.03-7.25.77-.16 2 0 2.85.54l-.85 1.46Zm.3.62c-2 7.4-4.23 13.5-5.47 23.28l-.07 5.86c-11.94.54-38.73 7.33-40.5 7.87l.69-6.7c6.54-3.02 32.88-8.34 38.34-9.42.77-5.16 4.16-16.5 6.32-20.97.3-.08.46-.08.7.08Z"/><path fill="#DCDDDE" d="M198.9 59.07c1.15 6.7 1.92 37.63 1.92 44.8-.31.07-1.08-.54-1.08-.62-.39-9.33-.77-28.37-.77-28.37.15 1.61.23 18.8.38 28.45l-.92-.23c-.16-14.11.54-28.3-1-42.49l.3-1.54h1.16Z"/><path fill="#F1F2F2" d="M154.38 63.46c.31 5.86.31 11.42 0 17.43-2.92-1.16-5.92-1.93-8.62-3.4l-2.23-.53a61.34 61.34 0 0 0 .38-19.12 32.05 32.05 0 0 1 10.47 5.62Zm69.38 17.04c1.16 1.93 1.39.62 1.31 2.7a58.83 58.83 0 0 0-5.31-5.47c1.38 2.23 4.08 4.16 5.39 6.7l.38 4.1c-2.92-2.17-5.93-5.48-9-7.87 2.38 3 6.23 5.86 9.08 9.1l.23 7.55-6-4.93c1.61 1.46 5.08 4.55 6.08 5.7-.23 3.4.15 6.48-.16 9.72-.69.08-6.08-3.93-6.62-4.47 4.16 3.31 6.4 4.62 6.62 5.16l-.15 5.55c-6.78-3.93-17.02-6.94-24.26-9.79 0-15.26-.23-29.76-1.23-44.33l.31-.08c5.62 3.86 22.33 19.5 23.33 20.66Z"/><path fill="#808285" d="M127.67 60.77c-6.09.69-11.48 3.08-17.64 3.77 5.55-1.46 11.7-3.16 17.79-4.24l-.15.47Zm-8.55 4.01c.23 0 .3-.16.54-.31l-.08-.08a28.52 28.52 0 0 1 7.7-2.16v.39l-8.16 2.16ZM134.37 63c-.78.31-1.93.23-2.93.39.15-.39.38-1.08 1-.93.7 0 1.46 0 1.93.54Zm.92 1.24c-1.46.54-3.39.46-4.7 1.77.39-.62.31-1.77 1.16-2 1.07-.16 3.08-1.32 3.54.23Zm-8.7-.08c-3.47.92-7.32 1.62-10.78 2.16a106.2 106.2 0 0 1 10.86-2.93l-.08.77Z"/><path fill="#fff" d="m143.07 76.03-.62.16c.39-.62.15-6.94.39-7.64 0-1.23-.08-9.56 0-10.71 1.46 6.32.23 15.88.23 18.2Zm-43.51-12.8c-.08.77-1.15 1-2.23 1.85a19.68 19.68 0 0 0-5.78 12.34l.16.15c1.08-4.24 2.3-8.86 6.16-11.87.15 0 1.54-1 1.7-.77-.4.38-2.01 2-2.55 2.31 1.23.39 3.62.39 4.31 2.16.46 3-.77 6.17-1.38 9.1-4 1.46-7.94 2.85-11.7 4.78v.23s24.1-7.32 36.03-9.48l.3-.7c-.07.77-.92 1.62-1.53 1.85a301.82 301.82 0 0 0-36.12 9.18l-.23-1.08c1.16-5.78 2.16-11.41 3.93-16.96l1.23-.08a39.69 39.69 0 0 0-3.16 15.8l.31-.3c1.08-5.25 1.62-10.8 4.47-15.27.92-1.62 4.16-3.31 6.08-3.24Z"/><path fill="#808285" d="M126.82 65.4c-2.93.22-5.47 1.3-8.24 1.92 2.39-1.31 5.16-1.85 8-2.31h.4l-.16.38Zm-5.93 2.3c1.7-1.07 3.93-1.15 5.78-1.54-1.47.85-3.86 1.08-5.78 1.55Z"/><path fill="#fff" d="M133.75 79.66c-.93.23-2.93.92-3.77.61-.85-3.16-.16-8.63 0-11.95.23-1.54 2.46-1.3 3.92-1.85a44.55 44.55 0 0 0-.15 13.19Z"/><path fill="#808285" d="m121.9 68.55.14-.15c-.15-.08-.3-.3-.53-.23 1.54-.54 3.15-.7 4.85-.93l-.16.31-4.3 1Zm1.84.7c-.46.38-1.23.15-1.77.38a5.1 5.1 0 0 0 1.77-.38Zm2 .92c-1.62.77-3.62.62-5.39 1.16l5.4-1.77v.61Zm9.01.39.85-.23 1.7.3-2.55-.07Zm3.47 1.08-3.47.07c-.15-.54.3-.23.54-.46 1.08.23 1.92-.15 2.93.39Zm-12.94.07-2.85.54.7-.3c-1.16 0-2.55.23-3.78.61 1.39-.3 3.85-1.15 5.93-1.39v.54Zm14.09 1.32-4.77-.16c-.08-1.39 1.69-.38 2.38-.77.85.39 2.31-.46 2.39.93Zm.23.46c-.3.77.62.38.93.61-1.85.08-4 .7-5.93.16l-.08-.7c1.85-.53 3.31.24 5.08-.07Z"/><path fill="#F1F2F2" d="M129.6 81.12c.53 1.16 4.23-.15 5.07-.92l-.07-4.94c7.16 1.31 13.24 3.78 19.78 6.48-.3 2.93-.3 5.7-.46 8.56-8.77-2.24-17.7-2.86-26.95-4.32l.54-10.49c.54-.3.46-2.31 1.39-1.62l.7 7.25Z"/><path fill="#fff" d="M84.08 92c-.61.46-1.46.46-2.15.69-.54-5.02.54-8.25 1.46-12.88.46-1.16 1.93-1.7 3-2.24 0 2.47-2.3 14.42-2.3 14.42Zm41.58-4.79c0 1.85.93 4.09-.23 6.86-.54.16-1.54 0-2.23-.07 0 0 .85.38 1-.16 0-2.08 1.93-8.63-2-8.02-11.09 2.32-24.26 4.17-34.8 7.33-.54.08-1.16.3-1.47.92-.46 1.55-1.08 8.64-.7 8.4l.93.24-2.46 1.31c.7-2.85.15-7.79 1.46-10.8 5.16-2.3 30.73-7.32 38.27-8.32 2-.46 2.16.3 2.23 2.31Z"/><path fill="#F1F2F2" d="M145.84 89.37c-1.31 3-3.47 7.94-4.78 11.95-.69.77-10.24-.38-14.32-.92.31-4.94-.23-8.48.31-13.57 6.4.54 19.1 2.31 18.79 2.54Z"/><path fill="#808285" d="M153.92 95.23c.31.7.62 4.01.7 4.7-.47-1.54-1.31-5-3.62-4.78-2.16.62-2.54 1.93-3.85 4.17-1.24 4.7-1.93 11.1 2.85 14.5 1.23.61 2.46-1 4.3-5.02-.76 2.62-1.46 9.72-5.23 8.64-2.62-1.78-3.77-3.55-5.54-8.18-1.85-4.85-.46-9.56 1.7-14.26.92-1.77 1.6-2.62 3.61-3.4 3.47-.46 4.31 1.16 5.08 3.63Z"/><path fill="#fff" d="m181.95 101.25-.38 9.63s-18.48-1.46-24.57-2.31c.39-4.93.39-13.34.39-13.34l24.56 6.02Zm-59.29-6.02c-2.08.46-4.77-.08-6.08 2.16-.16.62-.08 1.85.15 2.62-.08-.23-1.08.31-1.23.31-.15-1.08-.23-3.32.46-4.4 1.93-.53 5.16-1.61 7.24-1.46l-.54.77Z"/><path fill="#000" d="M180.72 101.55c-.54 2.78-.08 5.56-.3 8.1l-21.8-2.55.54-10.1c4.77 1.4 21.56 4.55 21.56 4.55Z"/><path fill="#fff" d="M154.38 101.48c0 3.54.24 6.01-2.23 9.56-.61.92-1.38 1.08-2.7.23-1.53-1.47-1.84-3.16-2.15-5.4-.15-3.24 0-5.01 1.7-7.63.38-.62.84-1.24 1.53-1.54 3.09 0 3.78 2.54 3.85 4.78ZM122.66 99l-5.47.63c-.07-1.4-.07-2.63 1.31-3.17.85-.07 3.24-.84 4.16-.77v3.32Zm-7.39-3.15a18 18 0 0 0-.23 4.55c-5.93 1.38-20.95 4.31-22.33 5-.77-1.15.08-3.38.54-4.77 7.23-2.16 14.32-3.24 22.02-4.78Z"/><path fill="#DCDDDE" d="M178.18 102.48c.54 1.23.15 2.7.38 4-3.77-.69-14.09-1.69-17.86-2.54-.23.08-.08-.3-.16-.46 3.16.46 12.56 1.31 15.4 2.08l.24-.23c-2.85-1.16-12.4-1.93-15.56-2.62l-.08-.38c2.93-.08 12.4 1.38 15.25 1.46-2.77-1.16-12.16-1.54-15.1-2.31-.22-.23 0-.54-.07-.78 2 .4 10.94.93 12.86 1.16-2-1-10.63-1.3-12.86-1.93v-.46c4.08.39 14.02 1.7 17.56 3Z"/><path fill="#808285" d="M189.11 102.63c.39.54.7 2.32 1 2.86-.69-1.16-.92-1.78-1.92-1.93-2.47 1.08-2.7 3.7-2.62 5.7 0 2.09.39 6.63 2.23 7.8 1 .6 2-.09 2.47-.7h-.08v-.62h.08c0 1.54-.47 3-1.54 4.4-.77.77-1.62.69-2.93-1.08-1.85-3.24-2-7.4-2.39-11.03.16-2.85.16-5.86 2.31-7.63 1.78-.31 2.78 1.23 3.4 2.23Z"/><path fill="#fff" d="M126.43 103.1c-.15 2.3.16 4.08-.69 5.62-4.46-.23-10.7.23-16.1 1-.84-2.15.08-3.77-.07-6.16-3.08.38-11.78 2.47-13.94 3.08-.92.31-.92.93-1.07 1.39-.16 1.7-.08 2.62.23 4.16-4.16.85-7.24 1.62-11.4 2.55.3-2.85-1.23-5.55 2.54-6.25 5.93-2.08 30.42-7.48 36.11-8.17.93-.15 4.4-.54 4.4 2.78Z"/><path fill="#F1F2F2" d="M140.91 102.17c-.85 2.08-3.16 4.63-5.24 5.94-3 .07-6.23.61-9.08.23.23-2.47.46-4.47.3-6.7.08-.7.47-.32 1.24-.4.77.4 9.62.55 12.78.93Z"/><path fill="#000" d="M121.66 103.02c-.15.62.08 1.54-.77 2-1.92 0-3.62 1-5.62 1-.16-1.38-.7-3.46.7-4.16 1.6 0 6.61-2.54 5.69 1.16Z"/><path fill="#808285" d="M196.89 108.5c-.7-.16-.39-1.09-.77-1.55-.08-.54-.62-1-1.31-1.23-.92.15-1.54 1.08-1.93 1.77-1.07 4.16-.92 8.71 2.47 11.49.92.15 1.62-2.4 1.62-2.4-.16 1.78-1.08 3.94-2.62 5.02-.93.23-1.16-.38-1.54-.92-2.39-5.17-1.23-10.34-1.31-15.66.3-.61 1.08-1.54 1.92-1.46 3 .08 2.62 3.24 3.47 4.93Z"/><path fill="#fff" d="m120.66 103.94-4.85.7c-.23-.7-.08-2 1-2.4a7.58 7.58 0 0 1 3.77-.3l.08 2Zm68.84 1.86c.61 3.31 1.07 7.32.15 10.56-.23.46-.85.46-1.23.23-2.16-3.32-2-8.02-1-11.8 1-.77 1.62.31 2.08 1Zm-98.02-3.63c-1.54.77-3.62.08-4.47 1.93-.39.7-.92 2.77-.7 3.47-.69-.54 0-3.47.08-4.24.77-2 4.08-1.4 5.86-2.4.23.16-.85 1-.77 1.24Z"/><path fill="#DCDDDE" d="M178.49 107.57c-3.78-.39-14.1-1.54-17.87-2.24l-.15-.61c4.16.84 14.24 1.3 18.02 2.85Z"/><path fill="#fff" d="m91.4 105.8-4.7 1.46c-.38-.85.46-2.78.93-3.47 1-.7 2.3-.93 3.7-.77l.07 2.77Zm16.25-.93c.07 1.46.38 3.47.53 4.7-3.7.47-8.08 1.7-11.85 2.4a5.73 5.73 0 0 1 .07-4.1c3.4-1.61 7.4-2.15 11.25-3Z"/><path fill="#DCDDDE" d="M178.49 108.34v.23c-4-.3-14.4-1.08-18.18-2.16v-.46c3.93.77 14.17 1.7 18.18 2.39Z"/><path fill="#fff" d="M196.27 109.11c.31 2.93.77 5.7-.3 8.4-.93.39-1.31-.61-1.7-1.23-.7-2.7-1.62-6.1-.3-8.87 1.3-1.08 2.23.77 2.3 1.7Z"/><path fill="#808285" d="M207.13 108.95c.15.55.54 2.24.62 2.86-.47-.23-.62-2.62-1.54-2.62-2.24 2.62-.93 10.8.53 10.25.77-.3.7-1.16 1-1.7-.07 1.24.31 3.63-1.23 3.94-2.77-.54-3.08-6.71-3.23-9.49-.15-2.3 1.23-3.93 2.23-4 .62.15 1.47.15 1.62.77Z"/><path fill="#fff" d="m85.4 107.72-1.7.7c.54-1.24-1.16-3.86 2-4.48a6.38 6.38 0 0 0-.3 3.78Zm121.5 10.88-.46-.16c-1.39-2.47-1.31-6.02-.16-8.56 1 2.62 1 5.86.62 8.71Z"/><path fill="#808285" d="M211.98 110.8c.23.55.62 1.47.7 2.32-.55-.46-.4-1.7-1.4-1.62-1.76 2.08-1.3 5.17-.3 7.48.46.38.39.62 1.08.62l.7-1.31c.15.84-.55 2.7-1.47 3.39-1.54-.39-1.85-2-2.16-3.24-.23-2.93-.38-6.4 1.54-8.4.62 0 .93.46 1.31.77Z"/><path fill="#000" d="M92.1 109.5c-.4.61-.24.92-.55 1.54-1.38.3-2.7 1.08-4.08 1.7-.92.15-1.46-.7-1.38-1.47-.47-2.78 3.46-2.4 5.16-3.47 1.15 0 .46 1.23.84 1.7Z"/><path fill="#fff" d="M91.1 110.42c-1.4.46-2.55 1.39-4.24 1.31-.08-.54-.23-.92-.16-1.46 1.39-.54 2.7-1.24 4.16-1.55.54.47.15 1.16.23 1.7Z"/><path fill="#58595B" d="M185.96 120.44c-.47 0-1.7-.23-2.24-.46.16-.3-2.62-5.17-1.08-7.32l.47-1.16c.07 2.39 1.46 6.32 2.84 8.94Z"/><path fill="#fff" d="M211.75 119.21a7.12 7.12 0 0 1-.54-6.24l.3-.47c1.24 1.7 1.16 4.7.24 6.71Z"/><path fill="#58595B" d="M202.28 111.8c.23 4.4 1.85 8.72 2.62 9.5-.08.22-1.08.45-1.31.22a16.26 16.26 0 0 1-2.47-7.32c-.15-.85.85-3.09 1.16-2.4Z"/><path fill="#808285" d="M220.84 115.43c-.31.16-.47-.23-.7 0-1.61 2.4-1 5.78.62 8.02.08.23-.16.54-.39.62-.84.15-1.07-.77-1.46-1.24-.77-2.46-.62-5.4-.08-7.94.16-.38.77-1.46 1.39-.7.3.24.62.78.62 1.24Z"/><path fill="#58595B" d="M148.76 118.44c-1.07 0-3 .62-3.92 0-1.93-1.08-4.55-5.7-4.7-7.63.08-.47 1.23-1.31 1.62-1.78 1 4.94 4.39 9.4 7 9.4Zm54.37 3.31c-.23.47-1.47-.53-1.78-.53-1.15-1.55-3.07-4.86-1-7.18a25.57 25.57 0 0 0 2.78 7.71Z"/><path fill="#58595B" d="M144.38 118.52c-1 0-1.7.07-1.31.07-2.31-.54-3.16-3.23-4-5.09-.55-1.61-1-1.3.6-2.62.78 2.47 2.16 6.17 4.7 7.64Zm38.96 1.62c-2 .61-3.08-.62-3.93-2a7.02 7.02 0 0 1-.85-1.94l.77-.46c.54 1.23 2.39 3.86 2.39 3.62-1-1.15-1.23-2.62-1.54-4.08l1.08-.77c.3 1.92 1.15 3.77 2.08 5.63Z"/><path fill="#fff" d="M221.14 121.22c-.15.53-.07 1-.15 1.38-1.23-.7-1.39-5.86-.39-6.55.62 1.7.85 2.54.54 5.17Z"/><path fill="#808285" d="M224.15 116.51c-1.47 1-1.39 2.7-1.47 4.55.23 1.31.31 2.08 1.08 2.93-.3.23-.3.7-.7.7-1.38-1.32-.91-2.63-1.3-4.4 0-1.93.54-4.16 2-5.17l.39 1.4Z"/><path fill="#fff" d="M224 123.37c-1.09-1.46-.55-3.93-.16-5.7.85 1.54.85 3.93.15 5.7Z"/><path fill="#58595B" d="M192.12 120.9c-.08.16.07.4-.16.47-.77-.16-.62-.85-1.15-1.23.38-.85-.7-1.62.07-2.4.62 1 .23 2.24 1.24 3.17Zm-2.01 0c-.77-.61-.23-1.07.08-1.77-.3.77 1.23 1.7-.08 1.78Z"/><path fill="#fff" d="M122.81 86.67c-9.31 2.32-26.1 4.47-35.03 7.71-.15-.07-.15-.38-.15-.38s25.8-6.1 35.19-7.33Zm-.31 1.08c-9.31 2.31-25.79 4.7-34.72 7.87-.15-.08-.15-.39-.15-.39S113.1 89 122.5 87.75Zm0 1.47c-9.31 2.31-25.79 4.55-34.72 7.78-.15-.07-.15-.38-.15-.38s25.48-6.25 34.88-7.4Zm0 1.23c-9.31 2.31-25.79 4.55-34.72 7.79-.15-.08-.15-.39-.15-.39s25.48-6.17 34.88-7.4Zm-.07 1.55c-9.32 2.3-25.72 4.39-34.65 7.55-.15-.08-.15-.39-.15-.39s25.4-6.01 34.8-7.17Zm.07 1.23c-9.31 2.3-25.79 4.4-34.72 7.55-.15-.08-.15-.38-.15-.38s25.48-5.94 34.88-7.17Zm.85 1.31 2.55-.08.3 6.17-2.85-1.31v-4.78Z"/><path fill="#E6E7E8" d="M96.94 67.7c-1.92 1.93-4.16 6.79-5.77 13.58l8.55-3.47 1.07-5.63c.23-1.85 0-3.09-.77-3.78l-3.08-.7Z"/></svg>