<svg xmlns="http://www.w3.org/2000/svg" fill="none" viewBox="0 0 309 128"><path fill="#73A8DA" d="M39.09 128C49.9 79.42 99.58 39.49 155.04 39.49c55.47 0 104.98 39.93 115.03 88.51H39.09Z"/><path fill="#000" d="M9.81 106.41c-2.32-.85-4.87-1.39-5.4-4l-.16-.08L0 113.89l.15.08c2.09-1.62 4.48-.47 6.73.38l16.14 5.86c2.24.85 4.79 1.39 5.33 4.01l.16.08 5.79-17.27-5.49-3.86c.7 2.4.55 4.47-.3 6.79-.55 1.54-.16 1.54-1.32 2.7L9.81 106.4Z"/><path fill="#000" fill-rule="evenodd" d="m35.53 86.21 4.64.85c.77.08 1 .15 1.7.54 1.31.7 1.47 1.77 1.54 3l.16.08 6.72-12.1h-.08l-.07-.08c-3.4 1.08-4.4.77-7.58.3l-24.95-3.85-5.4 9.8.15.07c1-.54 2.09-.85 3.17-.23.85.46 2.08 2 2.7 2.7l12.98 14.42c1.62 1.85 2.55 3 3.09 5.32l.15.08 4.56-8.26-.15-.07c-1 .38-1.93.85-3.1.23-.84-.46-1.85-1.62-2.47-2.31l-2.16-2.47 4.4-8.02Zm-4.48-.77-3 5.47-6.42-7.01v-.08l9.42 1.62Z" clip-rule="evenodd"/><path fill="#000" d="M49.6 79.35a22.9 22.9 0 0 0 7.26-5.4c2.24-2.39 3.94-4.78 4.32-8.17.39-3-.77-5.7-2.93-7.79-2.17-2-4.48-2.54-7.42-2.24-2.4.24-4.48 1.16-6.72 2.09-1.7.77-4.17 2.08-5.8.61-1.54-1.46-.61-3.62.55-4.93 1.54-1.7 3.78-2.7 6.02-3.24l-3.94-3.62a22.23 22.23 0 0 0-6.25 4.7c-1.94 2.08-3.48 4.47-3.87 7.32a8.29 8.29 0 0 0 2.55 7.02c7.5 7.02 16.22-4 20.32-.15 1.85 1.77.46 4.24-.93 5.78a16.4 16.4 0 0 1-9.2 4.63l6.03 3.39Zm9.42-42.64c.46-.7 1-1.16 1.62-1.7 1.31-1 2.7-1.54 4.17-.77l-3.16-6.4-16.46 13.34-.77.46 3.09 6.64.08-.4c.61-2 1.3-3.23 2.93-4.54a8.51 8.51 0 0 1 1.93-1.31l11.67 14.34c1.47 1.85 3.4 3.7 2.55 6.17l.07.08 9.66-7.8-.08-.07c-2.7-.15-4.01-1.77-5.71-3.78L59 36.71Z"/><path fill="#000" fill-rule="evenodd" d="m66.59 24.6.08.16c2.62.15 3.55 2.62 4.7 4.7l8.04 15.11c1.16 2.16 2.63 4.24 1.32 6.56l.07.15 11.9-6.32c2.86-1.54 5.02-2.7 6.18-5.78 1-2.7.85-5.32-.46-7.79a7.72 7.72 0 0 0-9.5-3.86c2-2.08 3-4.7 1.54-7.4-1.16-2.08-3.01-3.16-5.4-3.54-2.4-.47-4.18.54-6.34 1.61l-12.13 6.4Zm11.36-.84c.3-.39.61-.62 1.08-.85 1.77-.93 3.4.15 4.25 1.77.92 1.77.85 4.01-1.09 5.09-.3.15-.54.15-.85.23l-3.4-6.24Zm5.25 9.87 1-.54c3.1-1.62 5.26-1 6.88 2.08 1.23 2.31 1.39 5.09-1.32 6.47-.7.39-1.23.54-2 .47l-4.56-8.48Z" clip-rule="evenodd"/><path fill="#000" d="M105.99 13.96c-.78-2.23-1.93-4.62-.23-6.7l-.08-.16-11.74 4.01.07.16c2.63.61 3.17 3.16 3.94 5.47l5.56 16.2c.78 2.23 1.94 4.54.24 6.62l.07.16 11.67-4.01-.08-.16c-2.63-.61-3.09-3.16-3.94-5.4L106 13.97Zm16.14-4.01c-.38-2.39-1.16-4.93.78-6.7v-.16L110.7 5.25v.16c2.47 1 2.63 3.62 3.01 6.01l3.02 16.89c.38 2.3 1.15 4.85-.78 6.63v.15l18.46-4.32.62-6.63c-1.7 1.85-3.55 2.7-6.1 3.09-1.62.3-2 .38-3.63.92l-3.17-18.2ZM136.81 30a23.78 23.78 0 0 0 8.96 1.47c3.24-.08 6.18-.54 8.88-2.55a8.98 8.98 0 0 0 3.56-7.48c-.08-2.93-1.31-5-3.56-6.86-1.85-1.54-3.94-2.39-6.18-3.31-1.7-.7-4.4-1.55-4.4-3.7 0-2.16 2.16-3.01 3.94-3.01 2.32-.08 4.56.85 6.49 2.08l-.08-5.4A21.92 21.92 0 0 0 146.7.01c-2.78.08-5.64.62-7.96 2.31a8.4 8.4 0 0 0-3.32 6.7c.15 10.26 14.21 8.88 14.3 14.5.07 2.55-2.79 3.32-4.8 3.32-3.32.08-7.1-1.31-9.73-3.4L136.8 30Zm23.33-.38a23.12 23.12 0 0 0 8.65 2.7c3.25.38 6.18.3 9.12-1.32a8.96 8.96 0 0 0 4.55-6.94c.4-2.93-.54-5.08-2.55-7.32-1.62-1.85-3.55-2.93-5.63-4.16-1.63-.93-4.18-2.16-3.87-4.32.24-2.16 2.55-2.62 4.33-2.4 2.32.32 4.4 1.47 6.18 2.94l.62-5.32a21.2 21.2 0 0 0-7.5-2.31c-2.78-.31-5.71-.16-8.18 1.23a8.16 8.16 0 0 0-4.18 6.17c-1.23 10.17 12.83 10.8 12.13 16.34-.3 2.55-3.16 2.93-5.25 2.62a15.83 15.83 0 0 1-9.12-4.7l.7 6.79Z"/><path fill="#000" fill-rule="evenodd" d="M201.62 13.42c.85 0 1.55.16 2.32.39 1.55.46 2.78 1.31 3.01 3l3.56-6.16-20.4-6.25-.77-.38-3.79 6.24.4-.15c2-.62 3.47-.7 5.48-.08.77.23 1.46.46 2.16.85l-5.4 17.66c-.7 2.31-1.17 4.85-3.72 5.55l-.07.15 11.9 3.63.07-.16c-1.4-2.31-.77-4.32 0-6.78l5.25-17.5Zm16.07 25.06-.85 4.63c-.08.77-.15 1-.54 1.7-.7 1.3-1.78 1.46-3.01 1.54l-.08.15 12.13 6.71v-.08l.07-.07c-1.08-3.4-.77-4.4-.3-7.56l3.86-24.9-9.89-5.48v.23c.54 1 .85 2.08.23 3.16-.46.85-2 2.08-2.7 2.7l-14.45 12.96c-1.85 1.61-3.01 2.54-5.33 3.08l-.07.15 8.26 4.55.08-.15c-.39-1-.85-1.93-.23-3.09.46-.84 1.62-1.85 2.31-2.46l2.48-2.16 8.03 4.4Zm.7-4.47-5.49-3 7.03-6.4h.08l-1.62 9.4Z" clip-rule="evenodd"/><path fill="#000" d="M248.75 39.64c.77.3 1.38.7 2 1.16 1.32 1 2.17 2.23 1.78 3.85l5.4-4.62-17.06-12.8-.62-.62-5.72 4.55h.39c2.08.08 3.47.46 5.17 1.77.7.46 1.24.93 1.7 1.54l-10.97 14.8c-1.47 1.94-2.78 4.17-5.4 3.94l-.08.08 9.96 7.55.08-.07c-.46-2.63.77-4.32 2.32-6.4l11.05-14.73Zm13.98 13.65c1.62-1.78 3.09-3.94 5.71-3.47l.08-.08-9.2-8.25-.07.08c.7 2.54-1.24 4.31-2.86 6.09l-11.5 12.72c-1.63 1.77-3.1 3.93-5.72 3.47l-.08.08 9.2 8.25.07-.08c-.7-2.54 1.23-4.24 2.86-6.01l11.5-12.8Z"/><path fill="#000" fill-rule="evenodd" d="M262.26 63.23c-8.03 5.4-9.03 14.88-3.78 22.67 5.25 7.71 14.52 11.03 22.79 5.48 8.42-5.63 9.04-14.65 3.7-22.6-5.25-7.78-14.6-11.02-22.7-5.55Zm5.95 6.71c3.94-2.62 9.58-3.55 12.6.93 3.55 5.24-1.55 11.1-5.88 14.03-1.85 1.23-4.01 2.31-6.25 2.16a7.61 7.61 0 0 1-6.1-3.24c-1.47-2.16-1.32-5.01-.16-7.33a18.94 18.94 0 0 1 5.8-6.55Z" clip-rule="evenodd"/><path fill="#000" d="M302.05 113.89c2.4-1.16 4.25-1.93 6.8-.92l.15-.08-3.7-8.02-.16.08c-.85 2.62-2.7 3.47-5.1 4.62l-10.82 5.01L300.04 94l.15-.08-4.01-8.64-.16.08c-1.47 3.4-2.47 4.09-5.71 5.63l-14.37 6.7c-2.4 1.16-4.25 1.94-6.8.93l-.16.08 3.79 8.02.15-.08c.85-2.62 2.7-3.47 5.1-4.62l10.97-5.1.08.16-6.95 12.95c-1.7 3.32-2.78 4.7-2.86 8.56-.08 1.55 0 4.32.7 5.79l22.09-10.49ZM155.74 32c11.9 6.17 30.12 12.8 40.4 21.67 1.16 1.16 1 2.7 1.47 4.01.92.23 1.85-.3 2.85-.23 23.26 19.35 41.25 42.4 41.25 42.4-11.2-13.18-15.45-17.03-14.6-16.26-.15-.16 0 5.16.31 6.4 1.63 2.08 11.75 11.72 12.13 12.41 0 0-11.2-11.02-12.13-11.64.16 2.77.16 7.25.16 7.25 2.16 2.16 13.28 11.4 14.68 13.49l-14.68-13.03-.23 10.1c2.08 2.16 9.42 5.94 11.58 8.25-2.4-2.31-11.66-7.56-11.66-7.56l.08 5.79c4.25 1.77 10.04 5.4 13.75 7.94-3.71-2.47-8.96-5.1-12.9-6.94 0 0-1.7-.54-1.86-.54 1 5.24.08 4.86-.3 7.25 0 0 9.88 1.92 11.12 2l-11.28-1.54a4.47 4.47 0 0 1-1.4 2.24c2.1.69-2.77-.31-2.93-.47-.54-.23-1.08.23-1.39.31-2.08-.15-5.64-.61-7.03-2.39-1.39 1.31-5.95.85-8.19.85-2.24-.16-1.62-.77-3.86-1.16-.46-.54-2.4-1.85-2.63-2.62-.92.46-1.08 3.16-3.94 3.08-3.86.24-32.75.78-32.83.93 21.25-.3 103.75 3.32 106.15 3.86-.31.07-102.67-1.93-102.67-1.93l72.62 2.08H83.03s28.2-1.7 32.22-2c-12.67.23-30.29 1.3-42.95 1.7.46-.93 54-3.86 58.24-4.56-6.87-.38-66.74 4.24-67.6 4.24.86-.61-4.55-.7-7.95-.7 23.25-2.3 48.05-1.84 71.38-2.54 13.13-.53 57.63-1.08 62.88-1.38-4.25-.47-7.5-.7-8.03-.7-3.17-.3-2.01-2.46-4.1-4.93-5.17 2-24.17.7-24.4.15-.55.31-1.17 1.08-1.7 1.55.46.23 1.85.23 2.39.3-1.08.16-7.1.77-9.43.62-3.94-.15-4.63-2.24-6.8-5.47-2.23 0-19 1.54-19 1.54l-.08 1.7c5.64.46 18.31 1.15 18.31 1.15l-19-.15s-1.16 1.08-1.08 1.38c2.63.54 14.44.39 17.15.77-1.24-.07-10.74-.15-11.98.16l.16-.08c-1.86.23-4.64-.3-6.41.62-.16.15-.47.3-.47.46 5.18.31 17.08-.38 22.33.16-7.34 0-21.63.61-29.28.77-3.17-.47-6.1-1.16-6.95-4.09-.16-1.7-2.24-1.62-3.63-1.85-4.56.15-7.96-.39-12.2-.62-1.32.16-2.1-.92-2.1-2.16.08-1.46.32-5 .32-5l.85-15.12c-1 .15-3.64.7-3.64.7.08-5.79.93-10.88 2.4-16.12.62.08 2.7-1.7 4.02-2 .77-3.32 1.62-6.64 2.47-9.87-.31-.47-2.01.3-1.7-.78 1.08-.46 2.63-1 2.93-2.15.55-1.24 3.94-9.57 8.12-13.96 2.16-1.85 4.63-3.86 7.57-4.86.54-.77 1.23-1.54 1.7-2.39 14.29-5.47 29.66-8.48 45.1-10.95a3.2 3.2 0 0 1 2.64.47Z"/><path fill="#DCDDDE" d="M156.59 42.88c2.7 15.65 2.85 32.46 2.47 48.96l-.7-.16c-.54-12.49-.54-37.62-2.7-49.73.08 3.55 1.85 16.97 1.54 20.43.31 9.18.24 19.2.24 29.07-.54-.46-2.01-.07-1.94-1a108 108 0 0 0 .85-17.35c.08-1.23-.54-27.22-3.86-38.32-1.08-1.39-3.09-.46-4.56-.46-4.17.54-32.06 7.63-39 10.18 1-1.16 2.85-1.47 4.32-2 7.42-3.01 30.05-8.8 40.79-9.57.85.77 2.4 7.4 2.55 9.95Z"/><path fill="#F1F2F2" d="M195.67 54.13c1 1 .55 4.55.55 4.55 1.39 13.73.15 29.84.3 43.41-2.62-.54-28.97-7.63-36.38-9.94-.15-19.05-.46-39.1-4.02-57.75 5.72 2.31 29.36 11.18 39.55 19.73Z"/><path fill="#fff" d="M138.59 44.11a48.83 48.83 0 0 0-5.64 8.25c-2.17-1.54-9.74.77-15.3 2a703.91 703.91 0 0 0-24.64 6.56c3.63-6.32 4.71-11.72 12.98-14.88 3.24-1.08 28.58-8.87 43.18-11.57 0 0-6.88 5.17-10.58 9.64Z"/><path fill="#F1F2F2" d="M151.41 35.63c2.16 8.48 3.17 17.27 3.48 26.37-6.57-3.93-13.68-6.79-21.1-9.1 2.1-4.47 5.8-8.87 9.59-12.72 2.4-1.7 4.94-4.16 8.03-4.55Z"/><path fill="#fff" d="M132.02 54.21c-2.86-.15-4.33.16-7.73.93-11.27 2.39-21.86 5.4-32.6 8.63 1.01-3.16 3.4-2.93 8.2-4.31 9.73-2.63 20.16-5.33 30.12-7.25.77-.16 2.01 0 2.86.54l-.85 1.46Zm.31.62c-2 7.4-4.25 13.5-5.49 23.28l-.07 5.86c-11.98.54-38.86 7.33-40.64 7.87l.7-6.7c6.57-3.02 32.98-8.34 38.47-9.42.77-5.16 4.17-16.5 6.33-20.97.31-.08.47-.08.7.08Z"/><path fill="#DCDDDE" d="M199.54 59.07c1.16 6.7 1.93 37.63 1.93 44.8-.31.07-1.08-.54-1.08-.62-.39-9.33-.78-28.37-.78-28.37.16 1.61.24 18.8.39 28.45l-.93-.23c-.15-14.11.54-28.3-1-42.49l.3-1.54h1.17Z"/><path fill="#F1F2F2" d="M154.89 63.46c.3 5.86.3 11.42 0 17.43-2.94-1.16-5.95-1.93-8.66-3.4l-2.24-.53a61.13 61.13 0 0 0 .39-19.12 32.2 32.2 0 0 1 10.5 5.62Zm69.6 17.04c1.16 1.93 1.39.62 1.31 2.7a58.83 58.83 0 0 0-5.33-5.47c1.4 2.23 4.1 4.16 5.4 6.7l.4 4.1c-2.94-2.17-5.95-5.48-9.04-7.87 2.4 3 6.25 5.86 9.11 9.1l.23 7.55-6.02-4.93c1.62 1.46 5.1 4.55 6.1 5.7-.23 3.4.16 6.48-.15 9.72-.7.08-6.1-3.93-6.65-4.47 4.18 3.31 6.41 4.62 6.65 5.16l-.16 5.55c-6.8-3.93-17.07-6.94-24.33-9.79 0-15.26-.23-29.76-1.24-44.33l.31-.08c5.64 3.86 22.4 19.5 23.4 20.66Z"/><path fill="#808285" d="M128.08 60.77c-6.1.69-11.51 3.08-17.69 3.77 5.56-1.46 11.74-3.16 17.85-4.24l-.16.47Zm-8.58 4.01c.24 0 .31-.16.55-.31l-.08-.08a28.68 28.68 0 0 1 7.72-2.16v.39l-8.18 2.16ZM134.8 63c-.77.31-1.93.23-2.93.39.15-.39.38-1.08 1-.93.7 0 1.47 0 1.93.54Zm.93 1.24c-1.47.54-3.4.46-4.71 1.77.38-.62.3-1.77 1.16-2 1.08-.16 3.08-1.32 3.55.23Zm-8.73-.08c-3.48.92-7.34 1.62-10.82 2.16 3.63-1.16 7.19-2.16 10.9-2.93l-.08.77Z"/><path fill="#fff" d="m143.53 76.03-.62.16c.39-.62.16-6.94.39-7.64 0-1.23-.08-9.56 0-10.71 1.47 6.32.23 15.88.23 18.2Zm-43.65-12.8c-.07.77-1.15 1-2.24 1.85a19.65 19.65 0 0 0-5.79 12.34l.15.15c1.09-4.24 2.32-8.86 6.18-11.87.16 0 1.55-1 1.7-.77-.38.38-2 2-2.55 2.31 1.24.39 3.64.39 4.33 2.16.46 3-.77 6.17-1.39 9.1-4.02 1.46-7.96 2.85-11.74 4.78v.23s24.18-7.32 36.15-9.48l.31-.7c-.08.77-.93 1.62-1.55 1.85a303.62 303.62 0 0 0-36.22 9.18l-.24-1.08c1.16-5.78 2.17-11.41 3.94-16.96l1.24-.08a39.58 39.58 0 0 0-3.17 15.8l.31-.3c1.08-5.25 1.62-10.8 4.48-15.27.93-1.62 4.17-3.31 6.1-3.24Z"/><path fill="#808285" d="M127.23 65.4c-2.94.22-5.48 1.3-8.27 1.92 2.4-1.31 5.18-1.85 8.04-2.31h.39l-.16.38Zm-5.95 2.3c1.7-1.07 3.94-1.15 5.8-1.54-1.47.85-3.87 1.08-5.8 1.55Z"/><path fill="#fff" d="M134.18 79.66c-.92.23-2.93.92-3.78.61-.85-3.16-.16-8.63 0-11.95.23-1.54 2.47-1.3 3.94-1.85-.7 4.32-.78 8.95-.16 13.19Z"/><path fill="#808285" d="m122.29 68.55.15-.15c-.15-.08-.3-.3-.54-.23 1.55-.54 3.17-.7 4.87-.93l-.16.31-4.32 1Zm1.85.7c-.46.38-1.23.15-1.78.38.08.08 1.24-.15 1.78-.38Zm2.01.92c-1.62.77-3.63.62-5.4 1.16l5.4-1.77v.61Zm9.04.39.85-.23 1.7.3-2.55-.07Zm3.47 1.08-3.47.07c-.16-.54.3-.23.54-.46 1.08.23 1.93-.15 2.93.39Zm-12.97.07-2.86.54.7-.3c-1.17 0-2.56.23-3.8.61 1.4-.3 3.87-1.15 5.96-1.39v.54Zm14.13 1.32-4.79-.16c-.07-1.39 1.7-.38 2.4-.77.85.39 2.31-.46 2.4.93Zm.23.46c-.3.77.62.38.93.61-1.85.08-4.02.7-5.95.16l-.07-.7c1.85-.53 3.32.24 5.1-.07Z"/><path fill="#F1F2F2" d="M130.01 81.12c.54 1.16 4.25-.15 5.1-.92l-.08-4.94c7.19 1.31 13.29 3.78 19.86 6.48-.31 2.93-.31 5.7-.47 8.56-8.8-2.24-17.76-2.86-27.03-4.32l.54-10.49c.54-.3.46-2.31 1.39-1.62l.7 7.25Z"/><path fill="#fff" d="M84.36 92c-.62.46-1.47.46-2.17.69-.54-5.02.54-8.25 1.47-12.88.47-1.16 1.93-1.7 3.01-2.24 0 2.47-2.31 14.42-2.31 14.42Zm41.71-4.79c0 1.85.93 4.09-.23 6.86-.54.16-1.55 0-2.24-.07 0 0 .85.38 1-.16 0-2.08 1.94-8.63-2-8.02-11.13 2.32-24.34 4.17-34.92 7.33-.54.08-1.16.3-1.47.92-.46 1.55-1.08 8.64-.7 8.4l.93.24-2.47 1.31c.7-2.85.16-7.79 1.47-10.8 5.17-2.3 30.82-7.32 38.4-8.32 2-.46 2.16.3 2.23 2.31Z"/><path fill="#F1F2F2" d="M146.31 89.37c-1.31 3-3.47 7.94-4.79 11.95-.7.77-10.27-.38-14.37-.92.31-4.94-.23-8.48.31-13.57 6.41.54 19.16 2.31 18.85 2.54Z"/><path fill="#808285" d="M154.42 95.23c.31.7.62 4.01.7 4.7-.47-1.54-1.31-5-3.63-4.78-2.17.62-2.55 1.93-3.87 4.17-1.23 4.7-1.93 11.1 2.86 14.5 1.24.61 2.48-1 4.33-5.02-.77 2.62-1.47 9.72-5.25 8.64-2.63-1.78-3.79-3.55-5.57-8.18-1.85-4.85-.46-9.56 1.7-14.26.93-1.77 1.63-2.62 3.63-3.4 3.48-.46 4.33 1.16 5.1 3.63Z"/><path fill="#fff" d="m182.54 101.25-.38 9.63s-18.54-1.46-24.65-2.31c.39-4.93.39-13.34.39-13.34l24.64 6.02Zm-59.48-6.02c-2.09.46-4.79-.08-6.1 2.16-.16.62-.08 1.85.15 2.62-.08-.23-1.08.31-1.23.31-.16-1.08-.24-3.32.46-4.4 1.93-.53 5.17-1.61 7.26-1.46l-.54.77Z"/><path fill="#000" d="M181.3 101.55c-.54 2.78-.07 5.56-.3 8.1l-21.87-2.55.55-10.1c4.78 1.4 21.63 4.55 21.63 4.55Z"/><path fill="#fff" d="M154.89 101.48c0 3.54.23 6.01-2.24 9.56-.62.92-1.4 1.08-2.7.23-1.55-1.47-1.86-3.16-2.17-5.4-.16-3.24 0-5.01 1.7-7.63.39-.62.85-1.24 1.54-1.54 3.1 0 3.79 2.54 3.87 4.78ZM123.06 99l-5.48.63c-.08-1.4-.08-2.63 1.3-3.17.86-.07 3.25-.84 4.18-.77v3.32Zm-7.42-3.15a18.47 18.47 0 0 0-.23 4.55c-5.95 1.38-21.01 4.31-22.4 5-.77-1.15.08-3.38.54-4.77 7.26-2.16 14.37-3.24 22.1-4.78Z"/><path fill="#DCDDDE" d="M178.76 102.48c.54 1.23.15 2.7.38 4-3.78-.69-14.13-1.69-17.92-2.54-.23.08-.08-.3-.15-.46 3.16.46 12.59 1.31 15.45 2.08l.23-.23c-2.86-1.16-12.44-1.93-15.6-2.62l-.08-.38c2.93-.08 12.43 1.38 15.3 1.46-2.79-1.16-12.21-1.54-15.15-2.31-.23-.23 0-.54-.08-.78 2.01.4 10.97.93 12.9 1.16-2-1-10.66-1.3-12.9-1.93v-.46c4.1.39 14.06 1.7 17.62 3Z"/><path fill="#808285" d="M189.73 102.63c.38.54.7 2.32 1 2.86-.7-1.16-.93-1.78-1.93-1.93-2.47 1.08-2.7 3.7-2.63 5.7 0 2.09.39 6.63 2.24 7.8 1 .6 2.01-.09 2.47-.7h-.07v-.62h.07c0 1.54-.46 3-1.54 4.4-.77.77-1.62.69-2.94-1.08-1.85-3.24-2-7.4-2.4-11.03.16-2.85.16-5.86 2.33-7.63 1.77-.31 2.78 1.23 3.4 2.23Z"/><path fill="#fff" d="M126.84 103.1c-.15 2.3.16 4.08-.7 5.62-4.47-.23-10.73.23-16.14 1-.85-2.15.08-3.77-.07-6.16-3.1.38-11.82 2.47-13.99 3.08-.92.31-.92.93-1.08 1.39a12.7 12.7 0 0 0 .23 4.16c-4.17.85-7.26 1.62-11.43 2.55.31-2.85-1.23-5.55 2.55-6.25 5.95-2.08 30.52-7.48 36.23-8.17.93-.15 4.4-.54 4.4 2.78Z"/><path fill="#F1F2F2" d="M141.37 102.17c-.85 2.08-3.17 4.63-5.26 5.94-3 .07-6.25.61-9.11.23.23-2.47.46-4.47.3-6.7.09-.7.47-.32 1.24-.4.78.4 9.66.55 12.83.93Z"/><path fill="#000" d="M122.06 103.02c-.16.62.07 1.54-.78 2-1.93 0-3.63 1-5.64 1-.15-1.38-.7-3.46.7-4.16 1.62 0 6.64-2.54 5.72 1.16Z"/><path fill="#808285" d="M197.53 108.5c-.7-.16-.39-1.09-.77-1.55-.08-.54-.62-1-1.32-1.23-.92.15-1.54 1.08-1.93 1.77-1.08 4.16-.93 8.71 2.47 11.49.93.15 1.63-2.4 1.63-2.4-.16 1.78-1.09 3.94-2.63 5.02-.93.23-1.16-.38-1.55-.92-2.4-5.17-1.23-10.34-1.3-15.66.3-.61 1.07-1.54 1.92-1.46 3.01.08 2.63 3.24 3.48 4.93Z"/><path fill="#fff" d="m121.05 103.94-4.87.7c-.23-.7-.07-2 1-2.4a7.62 7.62 0 0 1 3.8-.3l.07 2Zm69.06 1.86c.62 3.31 1.08 7.32.16 10.56-.24.46-.85.46-1.24.23-2.16-3.32-2-8.02-1-11.8 1-.77 1.62.31 2.08 1Zm-98.34-3.63c-1.54.77-3.63.08-4.48 1.93-.38.7-.92 2.77-.7 3.47-.69-.54 0-3.47.08-4.24.78-2 4.1-1.4 5.88-2.4.23.16-.85 1-.78 1.24Z"/><path fill="#DCDDDE" d="M179.06 107.57c-3.78-.39-14.13-1.54-17.92-2.24l-.15-.61c4.17.84 14.29 1.3 18.07 2.85Z"/><path fill="#fff" d="m91.7 105.8-4.72 1.46c-.38-.85.47-2.78.93-3.47 1-.7 2.32-.93 3.7-.77l.09 2.77Zm16.3-.93c.07 1.46.38 3.47.54 4.7-3.71.47-8.12 1.7-11.9 2.4a5.72 5.72 0 0 1 .08-4.1c3.4-1.61 7.41-2.15 11.28-3Z"/><path fill="#DCDDDE" d="M179.06 108.34v.23c-4.01-.3-14.44-1.08-18.23-2.16v-.46c3.94.77 14.22 1.7 18.23 2.39Z"/><path fill="#fff" d="M196.91 109.11c.3 2.93.77 5.7-.3 8.4-.94.39-1.32-.61-1.7-1.23-.7-2.7-1.63-6.1-.32-8.87 1.32-1.08 2.24.77 2.32 1.7Z"/><path fill="#808285" d="M207.8 108.95c.16.55.54 2.24.62 2.86-.46-.23-.62-2.62-1.54-2.62-2.25 2.62-.93 10.8.54 10.25.77-.3.7-1.16 1-1.7-.08 1.24.3 3.63-1.24 3.94-2.78-.54-3.09-6.71-3.24-9.49-.16-2.3 1.24-3.93 2.24-4 .62.15 1.47.15 1.62.77Z"/><path fill="#fff" d="m85.67 107.72-1.7.7c.54-1.24-1.16-3.86 2-4.48a6.36 6.36 0 0 0-.3 3.78Zm121.9 10.88-.46-.16c-1.4-2.47-1.32-6.02-.16-8.56 1 2.62 1 5.86.62 8.71Z"/><path fill="#808285" d="M212.67 110.8c.23.55.62 1.47.7 2.32-.55-.46-.4-1.7-1.4-1.62-1.77 2.08-1.3 5.17-.3 7.48.46.38.38.62 1.08.62l.7-1.31c.15.84-.55 2.7-1.48 3.39-1.54-.39-1.85-2-2.16-3.24-.23-2.93-.38-6.4 1.55-8.4.61 0 .92.46 1.3.77Z"/><path fill="#000" d="M92.4 109.5c-.4.61-.24.92-.55 1.54-1.39.3-2.7 1.08-4.1 1.7-.92.15-1.46-.7-1.38-1.47-.47-2.78 3.47-2.4 5.17-3.47 1.16 0 .46 1.23.85 1.7Z"/><path fill="#fff" d="M91.39 110.42c-1.4.46-2.55 1.39-4.25 1.31-.08-.54-.23-.92-.16-1.46 1.4-.54 2.7-1.24 4.17-1.55.55.47.16 1.16.24 1.7Z"/><path fill="#58595B" d="M186.56 120.44a8.3 8.3 0 0 1-2.24-.46c.15-.3-2.63-5.17-1.08-7.32l.46-1.16c.08 2.39 1.47 6.32 2.86 8.94Z"/><path fill="#fff" d="M212.44 119.21a7.1 7.1 0 0 1-.54-6.24l.3-.47c1.24 1.7 1.16 4.7.24 6.71Z"/><path fill="#58595B" d="M202.94 111.8c.23 4.4 1.85 8.72 2.62 9.5-.07.22-1.08.45-1.31.22a16.23 16.23 0 0 1-2.47-7.32c-.16-.85.85-3.09 1.16-2.4Z"/><path fill="#808285" d="M221.55 115.43c-.3.16-.46-.23-.7 0-1.61 2.4-1 5.78.63 8.02.07.23-.16.54-.39.62-.85.15-1.08-.77-1.47-1.24-.77-2.46-.62-5.4-.08-7.94.16-.38.78-1.46 1.4-.7.3.24.61.78.61 1.24Z"/><path fill="#58595B" d="M149.25 118.44c-1.08 0-3.02.62-3.94 0-1.93-1.08-4.56-5.7-4.72-7.63.08-.47 1.24-1.31 1.63-1.78 1 4.94 4.4 9.4 7.03 9.4Zm54.54 3.31c-.24.47-1.47-.53-1.78-.53-1.16-1.55-3.1-4.86-1-7.18a25.5 25.5 0 0 0 2.78 7.71Z"/><path fill="#58595B" d="M144.84 118.52c-1 0-1.7.07-1.31.07-2.32-.54-3.17-3.23-4.02-5.09-.54-1.61-1-1.3.62-2.62.77 2.47 2.16 6.17 4.71 7.64Zm39.09 1.62c-2 .61-3.09-.62-3.94-2a7 7 0 0 1-.85-1.94l.78-.46c.54 1.23 2.39 3.86 2.39 3.62-1-1.15-1.24-2.62-1.55-4.08l1.09-.77a19.9 19.9 0 0 0 2.08 5.63Z"/><path fill="#fff" d="M221.86 121.22c-.15.53-.08 1-.15 1.38-1.24-.7-1.4-5.86-.39-6.55.62 1.7.85 2.54.54 5.17Z"/><path fill="#808285" d="M224.88 116.51c-1.47 1-1.4 2.7-1.47 4.55.23 1.31.3 2.08 1.08 2.93-.31.23-.31.7-.7.7-1.39-1.32-.92-2.63-1.31-4.4 0-1.93.54-4.16 2-5.17l.4 1.4Z"/><path fill="#fff" d="M224.72 123.37c-1.08-1.46-.54-3.93-.15-5.7.84 1.54.84 3.93.15 5.7Z"/><path fill="#58595B" d="M192.74 120.9c-.08.16.08.4-.16.47-.77-.16-.61-.85-1.15-1.23.38-.85-.7-1.62.07-2.4.62 1 .24 2.24 1.24 3.17Zm-2.01 0c-.77-.61-.23-1.07.08-1.77-.31.77 1.23 1.7-.08 1.78Z"/><path fill="#fff" d="M123.21 86.67c-9.34 2.32-26.18 4.47-35.14 7.71-.16-.07-.16-.38-.16-.38s25.88-6.1 35.3-7.33Zm-.31 1.08c-9.34 2.31-25.87 4.7-34.84 7.87-.15-.08-.15-.39-.15-.39s25.57-6.24 35-7.48Zm0 1.47c-9.34 2.31-25.87 4.55-34.84 7.78-.15-.07-.15-.38-.15-.38s25.57-6.25 35-7.4Zm0 1.23c-9.34 2.31-25.87 4.55-34.84 7.79-.15-.08-.15-.39-.15-.39s25.57-6.17 35-7.4Zm-.07 1.55c-9.35 2.3-25.8 4.39-34.77 7.55-.15-.08-.15-.39-.15-.39s25.5-6.01 34.92-7.17Zm.07 1.23c-9.34 2.3-25.87 4.4-34.84 7.55-.15-.08-.15-.38-.15-.38s25.57-5.94 35-7.17Zm.85 1.31 2.55-.08.31 6.17-2.86-1.31v-4.78Z"/><path fill="#E6E7E8" d="M97.26 67.7c-1.93 1.93-4.17 6.79-5.8 13.58l8.58-3.47 1.08-5.63c.23-1.85 0-3.09-.77-3.78l-3.1-.7Z"/></svg>