<svg xmlns="http://www.w3.org/2000/svg" fill="none" viewBox="0 0 696 128"><path fill="#970E7E" d="M223.27.03C225.88 0 228.5 0 231.12 0l.02 7.4c-2.62.03-5.25.02-7.88-.06 0-2.44.02-4.88 0-7.31ZM0 .65h155.86v125.7c-51.94 0-103.9.03-155.85-.02C.05 84.44.06 42.55 0 .65ZM17.94 18.5c-.14 21.08 0 42.16-.07 63.23 4.85 0 9.7-.04 14.55.07.15-15.4-.58-30.83-.12-46.23 4.23 15.42 8.6 30.8 12.98 46.17 3.48-.02 6.97 0 10.45.01 4.3-15.21 8.33-30.5 13.01-45.6.6 15.18-.35 30.38-.35 45.57 7 .04 14-.04 21 .06-2.43-5.55-7.32-10.55-6.46-17.01.03-15.42.08-30.84-.02-46.25L61.9 18.5a2610.94 2610.94 0 0 0-11.07 40.14c-4.75-13.14-7.51-26.93-11.99-40.17-6.96.08-13.92.03-20.89.02Zm69.2.06c1.9 4.4 5.14 8.3 6.22 13 .12 16.72.02 33.45.04 50.17 5.21.01 10.41-.03 15.62.03.63-10.08.36-20.2.09-30.3a31 31 0 0 1 2.74 4.12c4.6 8.72 9.1 17.49 13.8 26.15 5.45 0 10.88-.03 16.31.06-4.3-7.69-8.48-15.45-12.75-23.16 13.62-5.91 14.57-26.84 3.38-35.57-5.39-3.93-12.37-4.23-18.78-4.54-8.9 0-17.78-.05-26.68.04Zm-68.9 72.55c.06 6.05 0 12.1.04 18.17 3.58-.1 7.44.48 10.72-1.25 5.68-3.32 5.24-12.88-.5-15.93-3.2-1.45-6.85-.85-10.26-.99Zm33.37 8.7c-.44 5.26 4.38 10.33 9.7 9.73 4.82-.22 8.42-4.61 8.47-9.3-3.64.01-7.28-.17-10.9.05l-.51 2.44c2.9 0 5.78 0 8.67.15-1.43 1.5-2.56 3.77-4.87 4.03-4.13 1.16-8.31-2.95-7.92-7.05-.02-3.59 3.35-6.8 6.9-6.72 2.66.77 4.73 3.12 7.73 2.77-1.56-2.08-3.38-4.3-6.08-4.8-5.43-1.62-11.22 3.19-11.2 8.7Zm65.28-8.68c.04 4.6.06 9.2.01 13.78-2.87-4.6-5.69-9.23-8.62-13.8-.72 0-2.15.04-2.87.05.09 6.07-.21 12.15.25 18.21l2.38-.14c.11-4.51 0-9.03.14-13.53 2.84 3.88 5.03 8.18 7.8 12.1.67 1.36 2.3 1.35 3.55 1.8.08-6.14 0-12.28.06-18.42l-2.7-.05Zm-75.66-.01c-2.1 6.17-4.63 12.18-6.59 18.4 3.51.51 3.66-3.3 4.68-5.58 2.06-.02 4.13-.03 6.19-.03.7 1.76 1.36 3.53 2.04 5.3l2.81.07c-2.19-6-4.54-11.97-6.6-18.02l-2.53-.14Zm29.64 18.38c3.57.64 3.73-3.3 4.89-5.6 2.03 0 4.07 0 6.1.03 1 2.44 1.32 5.96 4.82 5.66-1.8-5.47-3.88-10.85-5.88-16.26-.3-1.6-1.56-2.33-3.05-2.57-2.28 6.26-4.65 12.47-6.88 18.74Zm18.85-18.38.01 18.14 2.64.02-.01-8.37c2 2.75 3.91 5.58 5.87 8.37l3.33-.07c-1.61-2.11-3.2-4.26-4.8-6.4 3.74-.9 6.17-5.05 4.24-8.6-2.02-4.29-7.51-2.81-11.28-3.1Zm39.85 0c-2.26 6.15-4.62 12.26-6.72 18.46 3.37.16 3.82-3.2 4.74-5.63 2.13-.02 4.28 0 6.43.1.87 2.33 1.08 6.04 4.56 5.48-1.97-6.2-4.44-12.2-6.62-18.3-.6-.04-1.8-.07-2.4-.1ZM234.39.03a676 676 0 0 1 7.8-.01c0 2.45 0 4.9.03 7.36-2.61.04-5.22.04-7.82 0l-.01-7.35Zm55.48 15.09c4.12-6.91 14.97-8.07 20.5-2.27 1.97 1.96 2.39 4.8 3 7.36-3 .12-6 .11-9 .1-.5-.95-1.04-1.87-1.62-2.78-1.17-.76-2.65-.25-3.95-.3l-1.44 2.8c4.43 4.58 12.4 4.62 15.42 10.76 1.56 4.43.72 10.2-3.25 13.16-3.28 2.41-7.55 2.44-11.43 2.13-3.38-.3-6.8-2.03-8.55-5.03-1.48-2.11-1.34-4.8-1.65-7.25 3-.01 6-.01 9 .03.43 2.07 1.28 4.9 3.95 4.73 2.49.36 4.67-3.2 2.74-5.06-3.91-2.73-9.11-3.29-12.47-6.86-2.98-2.99-3.42-7.95-1.25-11.52Zm98.81 6.48c3.09-9.34 14.2-14.57 23.47-11.7 5.96 1.56 10.75 6.24 12.95 11.94-3.42.09-6.86.06-10.29.04-2.61-3.78-7.62-5.91-11.97-3.79-7.21 2.9-7.91 14-1.86 18.42 4.7 3.75 12.3 1.88 14.64-3.7-3.69-.14-7.38-.1-11.07-.1l.01-7.36c7.15.02 14.29-.03 21.44.02.03 5.37-.98 11.1-4.88 15.08-5.78 6.29-15.85 8.01-23.37 3.91-8.09-3.99-12.1-14.3-9.07-22.75ZM173.89 9.77h12.19c2.33 7.62 4.27 15.36 6.81 22.93 1.98-7.67 4.26-15.26 6.34-22.9 4.16-.06 8.33-.07 12.49.02-.02 11.99-.07 23.97.02 35.94-2.81.04-5.62.05-8.42.05-.13-8.8.15-17.6.06-26.4a1273.9 1273.9 0 0 0-7.54 26.34l-6.04.1c-2.93-8.72-4.89-17.74-7.9-26.42.28 8.79.25 17.58.37 26.37-2.79 0-5.57 0-8.36.02 0-12.03.04-24.04-.02-36.05Zm55.19.03c2.6-.04 5.2-.04 7.8 0 4.49 12 9.39 23.87 13.53 36-3.28 0-6.55 0-9.83.02-.64-1.77-1.28-3.55-1.94-5.3-3.97.04-7.95.03-11.92.02-.62 1.74-1.23 3.49-1.82 5.24-3.3.03-6.59.03-9.89.02 4.54-12.06 9.44-23.98 14.07-36Zm-.14 23.48c2.46 0 4.93-.01 7.39-.04-1.13-4.14-2.47-8.2-3.7-12.3-1.3 4.08-2.56 8.2-3.69 12.34Zm25.08-23.52c2.65 0 5.29 0 7.93.04l13.44 21.76c-.03-7.26-.08-14.53-.2-21.8 2.94 0 5.87 0 8.8.02.03 12-.01 24.01.02 36.02h-7.98c-4.52-7.19-8.92-14.46-13.5-21.6.12 7.2.08 14.4.24 21.6l-8.74-.01c.04-12.01.05-24.02 0-36.03Zm64.46.01 9.16-.01c.05 5.28-.05 10.55.07 15.83 3.47-5.18 6.66-10.55 10.01-15.8 3.26-.03 6.52-.02 9.78-.05-3.74 5.67-7.56 11.3-11.23 17-.84.95.3 2 .73 2.82 3.93 5.4 7.82 10.82 11.72 16.24H337.5c-3.35-5.08-6.47-10.3-9.82-15.38-.06 5.12-.02 10.26-.02 15.38h-9.19c.03-12 .01-24.02.01-36.03Zm32.73.03c3.06-.04 6.13-.04 9.2-.04-.02 9.27 0 18.56-.01 27.85 3.58.04 7.17.03 10.77.04-.03 2.71-.03 5.43 0 8.15l-19.97-.01c.03-12 0-24 .01-36Zm22.91-.04h9.21c-.02 12.02 0 24.03 0 36.05l-9.2-.01c.05-12.01.05-24.03 0-36.04Zm64.61.04c2.67-.04 5.35-.04 8.03-.02 4.61 12 9.16 24.03 13.76 36.04-3.34-.02-6.66-.03-10 0-.66-1.76-1.3-3.54-1.97-5.3-4.05.05-8.11.04-12.16 0-.65 1.75-1.26 3.52-1.86 5.28-3.36 0-6.7 0-10.04-.02C429.4 33.86 434 21.81 438.73 9.8Zm3.64 11.27c-1.38 4.04-2.53 8.15-3.88 12.2 2.6 0 5.2 0 7.8-.03-1.28-4.06-2.53-8.14-3.92-12.17Z"/><path fill="#970E7E" d="M109.02 32.97c4.41-.02 9.6-1 13.23 2.19 4.25 3.66 3.68 11-.62 14.36-3.68 2.23-8.25 1.48-12.33 1.89.06-6.15.32-12.32-.28-18.44Zm101.85 18.32c2.55.01 5.1.02 7.66.01-.02 2.47-.04 4.94-.08 7.42a631.7 631.7 0 0 0-7.54-.01c-.04-2.47-.05-4.94-.04-7.42Zm10.95.01h7.76l-.06 7.43-7.65-.06c0-2.45-.01-4.91-.05-7.36Zm81.05 16.44c5.9-7.74 17.88-9.64 25.95-4.27 3.63 2.2 6.2 5.78 7.7 9.7-3.32-.02-6.66.26-9.97-.16-2.34-2.29-4.97-4.29-8.3-4.82-2.29.69-4.86 1.08-6.61 2.86-4.6 4.25-4.3 12.58.58 16.5 1.67 1.46 3.96 1.8 6.01 2.43 3.77-.5 7.29-2.39 8.68-6.11-3.63-.08-7.27-.06-10.9-.08v-7.27c7.15 0 14.3-.02 21.46 0 .05 5.67-1.14 11.8-5.52 15.79-6.9 6.82-19.06 7.4-26.34.84-7.31-6.07-8.6-17.94-2.74-25.41Zm126.23-4.49c5.11-3.99 13.4-3.9 17.93.95 1.93 1.96 2.43 4.75 2.8 7.37-2.99.04-5.97.04-8.96-.03-.82-1.46-1.56-3.98-3.76-3.43-2 0-3.13 2.07-2.56 3.86 4.71 3.75 11.98 4.36 14.93 10.21.64 2.78.58 5.74-.1 8.52-1.3 3.6-4.79 6.06-8.53 6.56-4.98.76-11.11.08-14.26-4.35-1.8-2.27-2.02-5.23-2.18-8.01 3.01 0 6.03 0 9.06.02.06 2.42 1.6 4.12 3.6 5.28.98-.45 1.98-.9 2.98-1.33.4-1.05.82-2.1 1.25-3.16-4.32-3.79-10.92-4.08-14.46-8.86-3.24-4.15-1.77-10.55 2.26-13.6Zm95.65 1.71a19.95 19.95 0 0 1 20.95-2.75c4.71 2.04 8.25 6.2 10.05 10.96-3.35-.03-6.7.27-10.02-.17-2.33-2.29-4.95-4.29-8.26-4.81-2.3.69-4.86 1.08-6.62 2.84-4.64 4.24-4.3 12.65.6 16.56 1.72 1.43 4 1.77 6.07 2.42 3.72-.57 7.22-2.44 8.6-6.14-3.63-.1-7.26-.06-10.9-.07v-7.28c7.13-.03 14.25.03 21.37-.05.15 5.05-.71 10.44-4.11 14.4-5.4 6.62-15.4 8.76-23.11 5.2a18.63 18.63 0 0 1-10.94-16.48 17.84 17.84 0 0 1 6.32-14.63ZM173.7 60.92c6.67.2 13.5-.71 20.02 1.08 6.87 2.29 8.99 11.42 5.73 17.38-1.16 1.97-3.09 3.28-4.86 4.64 2.47 4.25 4.81 8.58 7.26 12.84-3.22.02-6.44.03-9.66-.05-3.06-5.6-5.7-11.47-9.3-16.77-.23 5.62-.08 11.24-.11 16.85-3.07-.01-6.13-.01-9.2-.06-.03-2.69-.08-5.38.07-8.06.6-9.29-.41-18.57.05-27.85Zm9.24 8.06c-.27 3.65-.25 7.32.13 10.96 2.17-.34 4.4-.4 6.49-1.11 3.21-1.61 3.38-7.1.23-8.9-2.07-1.22-4.56-.81-6.85-.95Zm19.42 27.87c4.9-11.93 9.37-24.04 14.29-35.96 2.55.02 5.1.02 7.66.06 4.55 11.97 9.09 23.96 13.71 35.9a753 753 0 0 1-10.21 0c-.49-1.65-1-3.29-1.48-4.95-4.11-.09-8.22-.05-12.32-.04-.52 1.66-1.05 3.32-1.56 4.99-3.37.03-6.73.03-10.09 0Zm17.61-24.34c-1.35 3.98-2.45 8.04-3.7 12.06h7.66c-1.35-4-2.43-8.1-3.96-12.06Zm15.29-11.57c7.78-.05 15.58-.05 23.37 0V69c-2.34.03-4.68.03-7.02.04.02 9.28-.02 18.55.02 27.83-3.08 0-6.16 0-9.22-.04.06-9.26.03-18.53.02-27.8l-7.11-.01c-.05-2.7-.06-5.4-.06-8.1Zm23.86-.04c7.85.14 15.73-.29 23.58.26-.03 2.61-.04 5.24-.03 7.86l-7.16.03c.03 9.27-.05 18.54.05 27.8-3.09.03-6.17.03-9.25.02.1-9.27-.03-18.55.06-27.82h-7.28c.03-2.71.03-5.43.03-8.14Zm26.45 35.96c.03-11.98-.06-23.96.05-35.95h9.16c.02 12-.03 23.98.02 35.97-3.08-.01-6.15 0-9.23-.02Zm56.03-35.92c3.06-.04 6.12-.03 9.18 0 .07 4.51.03 9.03.05 13.54 3.83-.05 7.66-.04 11.5 0 .12-1.4.27-2.78.4-4.17-.05-3.13-.04-6.25-.04-9.38 2.95-.02 5.9-.02 8.85-.02.06 11.99 0 23.97.01 35.96h-8.84l-.04-4.52c.02-3.22.02-6.44.06-9.65-3.97-.15-7.94-.1-11.91-.1v14.24c-3.08.04-6.15.03-9.23.05.03-11.99.02-23.98 0-35.95Zm36.15 35.93c.02-11.99-.03-23.97.02-35.97 6.76 0 13.51.03 20.27 0 .03 2.7.04 5.43.06 8.14h-11.18v5.62c3.62-.03 7.25-.03 10.88 0v8.16h-10.9l.05 6.13h11.14c-.02 2.64-.02 5.27 0 7.92h-20.34Zm22.12-35.94c7.77-.03 15.54-.02 23.32-.01.02 2.7.02 5.42.03 8.12l-7.04.01c.09 9.27.02 18.55.03 27.82-3.07 0-6.15 0-9.22.02.05-9.28-.04-18.56.05-27.84l-7.17-.01v-8.11Zm53.9 0c6.97.27 14.18-.91 20.95 1.23 7.26 2.71 10.96 10.95 10.14 18.35 0 6.78-4.2 13.65-10.97 15.47-6.56 1.68-13.43.58-20.11.9a820.69 820.69 0 0 1-.01-35.95Zm9.02 8.09c.18 6.35-.19 12.72.17 19.06l.52.87c4 .35 9.18-.1 11.1-4.26 1.83-4.26 1.64-9.9-1.54-13.48-2.66-2.77-6.8-2.1-10.25-2.2Zm35.29-7.6c2.37-1.12 5.37-.28 7.99-.48 4.55 11.98 9.07 23.99 13.75 35.93l-10.24-.01c-.5-1.63-1-3.27-1.44-4.91-4.21-.07-8.44-.35-12.62.1-.7 1.53-1.07 3.18-1.56 4.78-3.36.06-6.71.06-10.06.01 4.89-11.74 9.1-23.78 14.18-35.42Zm-.23 23.13c2.6.02 5.22.02 7.84.02-1.38-4.15-2.7-8.31-4.07-12.47-1.21 4.17-2.56 8.29-3.77 12.45Zm57.41 12.32c4.83-11.96 9.41-24.01 14.23-35.97h7.87c4.68 11.95 9.08 24 13.78 35.93-3.4.06-6.8.07-10.18 0l-1.63-4.98c-4.18 0-8.34-.03-12.51.05-.49 1.66-1 3.31-1.48 4.97h-10.08Zm13.89-12.3h7.84c-1.3-4-2.55-8.04-3.83-12.05-1.7 3.9-2.7 8.02-4.01 12.05Zm24.98 12.3c.02-11.99-.05-23.97.04-35.96 6.67.23 13.53-.71 20.05 1.12 6.88 2.34 9.04 11.67 5.51 17.56-1.05 1.92-2.98 3.06-4.68 4.32 2.4 4.3 4.77 8.65 7.25 12.92-3.18.05-6.35.05-9.52.05-3.07-5.7-6.36-11.3-9.03-17.2 2.02-.23 4.14-.15 6.11-.79 2.78-1.35 3.68-5.57 1.58-7.9-1.94-2.46-5.38-1.86-8.1-2.02.03 9.3-.07 18.6.02 27.89-3.08 0-6.15.02-9.23 0Zm31.47-35.92c2.62-.03 5.25-.04 7.89-.06 4.56 7.2 8.98 14.48 13.44 21.73-.04-7.23-.1-14.45-.08-21.68 2.95-.03 5.9-.03 8.86 0 0 11.96-.07 23.93.05 35.9l-8.07.07a1201.6 1201.6 0 0 1-13.28-21.31c.03 7.08 0 14.17.14 21.24-3 .04-6 .04-9.01 0 .14-11.96.04-23.93.05-35.9Zm33.44 35.88c4.75-11.98 9.28-24.06 14.26-35.95 2.53.03 5.05.03 7.6 0 4.97 11.87 9.14 24.06 13.99 35.98-3.43.02-6.85.03-10.26-.05-.5-1.64-1-3.28-1.48-4.92-4.2-.07-8.42-.04-12.62-.04a184 184 0 0 0-1.34 4.9c-3.38.16-6.77.15-10.15.08Zm13.82-12.26c2.64 0 5.27 0 7.91-.02-1.51-4.15-2.73-8.4-4.1-12.58a467.3 467.3 0 0 1-3.8 12.6ZM20.95 93.54c1.9.1 3.83-.02 5.67.5 4.25 1.83 5.17 8.43 1.6 11.37-2.02 1.69-4.84 1.29-7.28 1.5-.03-4.46-.07-8.9.01-13.37Zm71.49-.11c2 .32 4.44-.08 5.97 1.58.8 1.33.8 3.42-.6 4.38-1.48 1.25-3.61.92-5.4 1.27-.04-2.41-.03-4.82.03-7.23Zm-50.18 1.31c.9 2.18 1.71 4.4 2.49 6.63-1.5.01-2.99.04-4.48.07.69-2.22 1.36-4.45 1.99-6.7Zm34.31 6.66c.72-2.21 1.46-4.4 2.25-6.57l2.23 6.6-4.48-.04Zm54.14-6.44c.83 2.14 1.56 4.31 2.3 6.48l-4.44-.06c.68-2.15 1.38-4.29 2.14-6.42Zm108.89 18.87c1.02.04 2.04.04 3.08 0l-.57.26-1.11.65c-1.54 3.5-1.08 8 .44 11.48.7-2.67.5-5.46.6-8.19.41.6.85 1.18 1.28 1.77l-.3.43c-.98 2.22-.26 4.7-.34 7.04l-3.09.15c.16-4.52.21-9.07 0-13.59Zm8.5.42 2.5-.67c-3.15 2.35-1.47 6.66-1.88 9.98-.86-.75-1.8-1.43-2.25-2.5l-.06-.56 1.69-1.63v-4.62Zm228.64-.19c1.3-.03 2.6-.05 3.91-.06 0 4.33-.02 8.65-.01 12.97-.79.31-1.56.63-2.33.95 2.99-4 1.52-9.2 1.7-13.8l-3.27-.06Zm28.29.07 2.9-.4-.23.12-1.8.88c-.27 2.89-.3 5.79-.43 8.7-.64-.9-1.28-1.78-1.9-2.67l1.52.26c-.04-2.3-.05-4.6-.06-6.89Zm28.23-.31 2.86-.17c-.22 3.75-.12 7.52-.12 11.3 1.41.02 2.86.06 4.28.1-1.63 0-3.26 0-4.88-.02.08-2.6.2-5.22-.03-7.82.81-.9-.8-3.04-1.63-1.8.24 3.6-1.03 7.53.25 10.92 1.92 1.14 4.27.67 6.4.9-2.4.3-4.83.4-7.25.56-.08-4.65-.1-9.32.12-13.97Zm110.73-.02 3.5-.05a76.12 76.12 0 0 0-.28 5.6l4.97.07-5.05.02c-.57-1.11-.02-5.36-1.88-4.04a22.68 22.68 0 0 0 0 10.3c1.84 1.36 1.25-3.24 1.91-4.2 1.8-.45 3.63-.67 5.47-.98.13 2.59-1.42 6.35 2.14 7.15-.84-.19-1.67-.36-2.5-.53.69-2.45-1.36-6.86-4.13-4.23-1.28 1.23-.8 2.94-.67 4.5a395.7 395.7 0 0 1-3.47-.06c.3-4.5.3-9.04-.01-13.55Z"/><path fill="#fff" d="M17.94 18.5c6.97 0 13.93.06 20.9-.02 4.47 13.24 7.23 27.03 11.98 40.17C54.4 45.24 58.1 31.86 61.9 18.51c7 .02 14.02 0 21.03 0 .09 15.42.04 30.84.01 46.26-.86 6.46 4.03 11.46 6.46 17-7-.1-14-.01-21-.05 0-15.2.96-30.4.35-45.58-4.68 15.1-8.71 30.4-13 45.6-3.49 0-6.98-.02-10.46 0A4769.32 4769.32 0 0 1 32.3 35.57c-.46 15.4.27 30.82.12 46.23-4.85-.1-9.7-.07-14.55-.07.06-21.07-.07-42.15.07-63.23Zm69.19.06c8.9-.09 17.79-.04 26.68-.04 6.4.31 13.39.6 18.78 4.54 11.19 8.73 10.24 29.66-3.38 35.57 4.27 7.7 8.44 15.47 12.75 23.16-5.43-.09-10.86-.06-16.3-.06-4.7-8.66-9.22-17.43-13.81-26.15a31 31 0 0 0-2.74-4.11c.27 10.08.54 20.2-.1 30.29-5.2-.06-10.4-.02-15.61-.03-.02-16.72.08-33.45-.04-50.17-1.08-4.7-4.32-8.6-6.23-13Zm21.89 14.4c.6 6.13.34 12.3.28 18.45 4.08-.41 8.65.34 12.33-1.89 4.3-3.36 4.87-10.7.62-14.36-3.63-3.19-8.82-2.21-13.23-2.2ZM18.24 91.11c3.41.14 7.05-.46 10.27.99 5.73 3.05 6.17 12.6.5 15.94-3.3 1.72-7.15 1.15-10.73 1.24-.03-6.06.02-12.12-.04-18.17Zm2.71 2.43c-.08 4.46-.04 8.91-.01 13.37 2.44-.21 5.26.19 7.27-1.5 3.58-2.94 2.66-9.54-1.6-11.36-1.83-.53-3.77-.4-5.66-.5Zm30.65 6.28c-.02-5.52 5.77-10.33 11.2-8.72 2.7.52 4.52 2.73 6.08 4.81-3 .35-5.07-2-7.72-2.77-3.56-.09-6.93 3.13-6.9 6.72-.4 4.1 3.78 8.21 7.91 7.05 2.3-.26 3.44-2.52 4.87-4.03-2.89-.14-5.78-.14-8.67-.15l.5-2.44c3.63-.23 7.27-.04 10.91-.05-.05 4.69-3.65 9.08-8.46 9.3-5.33.6-10.15-4.47-9.71-9.72Zm65.3-8.69 2.7.05c-.07 6.14.01 12.28-.07 18.41-1.25-.44-2.88-.43-3.56-1.78-2.76-3.93-4.95-8.23-7.79-12.11-.15 4.5-.03 9.02-.14 13.53l-2.38.14c-.46-6.06-.16-12.14-.25-18.21l2.87-.05c2.93 4.57 5.75 9.2 8.62 13.8.05-4.59.03-9.18 0-13.78Zm-75.67-.01 2.54.14c2.05 6.05 4.4 12.01 6.6 18.02l-2.82-.07c-.68-1.77-1.35-3.54-2.04-5.3-2.06 0-4.13 0-6.19.03-1.02 2.29-1.17 6.1-4.68 5.58 1.96-6.22 4.5-12.23 6.59-18.4Zm1.03 3.62c-.63 2.25-1.3 4.48-2 6.7l4.49-.08a121.8 121.8 0 0 0-2.5-6.62Zm28.61 14.76c2.23-6.27 4.6-12.48 6.88-18.74 1.49.24 2.75.98 3.05 2.57 2 5.4 4.08 10.79 5.88 16.26-3.5.3-3.81-3.22-4.82-5.66-2.03-.02-4.07-.02-6.1-.03-1.16 2.3-1.32 6.24-4.9 5.6Zm5.7-8.1c1.5 0 2.98.02 4.48.03l-2.23-6.6a229.3 229.3 0 0 0-2.25 6.56Zm13.15-10.28c3.77.28 9.26-1.2 11.28 3.09 1.93 3.55-.5 7.7-4.24 8.6 1.6 2.14 3.19 4.28 4.8 6.4l-3.33.07c-1.96-2.8-3.87-5.62-5.87-8.37l.01 8.37-2.64-.02c-.02-6.04 0-12.1 0-18.14Zm2.72 2.31c-.06 2.4-.07 4.82-.03 7.23 1.79-.35 3.92-.02 5.4-1.27 1.4-.96 1.4-3.05.6-4.38-1.53-1.66-3.97-1.26-5.97-1.58Zm37.13-2.3c.6.03 1.8.06 2.4.1 2.17 6.1 4.64 12.1 6.6 18.3-3.47.56-3.68-3.15-4.55-5.48-2.15-.1-4.3-.12-6.43-.1-.92 2.44-1.38 5.79-4.74 5.63 2.1-6.2 4.46-12.3 6.72-18.45Zm1.14 3.83a172.7 172.7 0 0 0-2.14 6.42l4.44.06c-.73-2.17-1.47-4.34-2.3-6.48Z"/><path fill="#E1006B" d="M291.42 110.42c.84-.14 1.68-.28 2.54-.4l-.02 2.65-2.56-.36.04-1.89Zm4.1-.28h2.23v2.47l-2.2-.04-.03-2.43Zm141.28 2.34c.02-.8.05-1.59.1-2.37l2.45.21v2.23c-.86-.03-1.72-.06-2.56-.07Zm4.14-2.34c.55 0 1.65.04 2.2.06l-.01 2.3-2.18.11-.01-2.47Zm44.24.38 2.98.28-1.06 2.36c.76.25 2.7.92 2.04-.64-.44-1.8 1.33-1.91 2.6-2.2-.05.85-.12 1.69-.18 2.53l-.43.52-.94 1.69c1.66 4.18 3.44 8.3 4.86 12.58l-2.72-.05-1.08-2.67H486l-1.56 2.76-2.21-.08c1.28-4.45 3.16-8.72 5.05-12.95a6.69 6.69 0 0 1-2.12-4.13Zm3.35 6.59c-.66 1.82-1.27 3.66-1.88 5.5 1.25 0 2.51 0 3.79.03l-1.91-5.53Zm106.74-6.55 2.4.14c0 .79.01 1.6.03 2.38l-2.46.09c0-.87.01-1.75.03-2.61Zm4.27.16 2.02-.22-.2 3-1.83-.78c1.34 5.06 3.78 9.74 5.25 14.76l-2.17.25c-.53-.9-1.05-1.81-1.55-2.72-1.7-.07-3.4-.1-5.1-.1-.7 1.75-2.02 2.75-4.02 2.52 1.66-4.3 3.3-8.6 5.18-12.82a3.66 3.66 0 0 0 2.42-3.9Zm-3.04 11.89c1.25 0 2.51 0 3.78.02l-1.93-5.52c-.61 1.83-1.25 3.66-1.85 5.5Zm-420.81-8.66 2.42.08a407 407 0 0 1 6.04 9.26c0-3.12-.03-6.23-.02-9.35l2.74.19c-.1 4.4-.09 8.8 0 13.2-.89-.08-1.76-.2-2.64-.34-2.35-2.8-4.07-6.07-6.13-9.07.02 3.1.04 6.21.04 9.31l-2.46.05c.02-4.44-.01-8.89 0-13.33Zm16.98.43c4.2-2.1 10.02.81 10.16 5.69.78 5.1-5.4 9.46-9.93 6.87-5.26-2.05-5.25-10.2-.23-12.56Zm2.68 1.73c-3.27.3-4.97 4.74-2.9 7.22 1.4 2.49 5.29 2.56 6.77.1 2.48-2.76-.12-7.91-3.87-7.32ZM216.7 114c2.4.01 4.85-.2 7.21.3 5.01 1.86 5.43 10.14.62 12.47-2.53.78-5.24.4-7.85.47.02-4.42 0-8.83.02-13.24Zm2.73 2.1c-.04 3.04-.04 6.09.02 9.14 1.72-.34 3.44-.74 5.15-1.16.34-1.98.99-4.11.02-6.01-.97-1.92-3.44-1.5-5.2-1.97Zm34.14 3.32c-1.7-3.04 1.73-6.47 4.87-5.58 2.26-.08 3.04 2.4 3.66 4.1-1.88.05-5.2-3.64-6.22-.66.64 2.8 5.81 2.24 6 5.53.7 2.46-1.55 3.9-3.17 5.19-2.8-.37-5.64-1.6-6.1-4.7l2.4-.03c.93 1.22 2.1 2.19 3.71 2.29l.74-2.7c-2-1.07-4.3-1.75-5.89-3.44Zm15.74-1.02c-.48-2.98 2.7-5.26 5.45-4.55 2.19.04 2.84 2.49 3.65 4.06-2.3.08-5.07-3.53-6.65-.63 1.25 2.1 4.1 2.33 5.69 4.08 1.53 1.9.6 5.15-1.75 5.88-1.77 1.02-3.72-.06-5.51-.41-.46-1.29-.9-2.59-1.32-3.9 1.58.2 2.84 1.07 4.02 2.06 1.21 1.13 2.43-.8 3.34-1.34-2.12-1.97-5.75-2.4-6.92-5.26Zm24.3-4.56c4.18-.83 8.62 2.84 7.97 7.21.21 5.62-7.4 8.74-11.4 4.95-4.61-3.36-2.36-11.77 3.43-12.16Zm-2.21 3.24c-1.55 2.84-1.29 7.2 2.4 8.07 2.89.87 4.65-1.94 5.63-4.19-.83-1.65-1.18-4.02-3.23-4.6-1.6-.79-3.25.33-4.8.72Zm12.52-3.13c3.05.34 7.36-1.04 9.13 2.32 1.2 2.43-.1 5.02-2.1 6.53.85 1.6 1.73 3.18 2.58 4.78l-2.61.03a284.8 284.8 0 0 0-3.55-6.1c1.1-.4 2.21-.78 3.33-1.17-.03-1.19-.08-2.37-.12-3.55-1.32-.2-2.64-.38-3.95-.55-.01 3.65-.03 7.3.04 10.94l-2.75.08c-.02-4.43 0-8.87 0-13.31Zm11.34 5.23c-1.31-3.1 1.91-6.13 4.98-5.37 2.2.07 3.28 2.3 3.55 4.21-2.02-.6-3.84-2.24-6.06-1.81l.17 2.15c2.27 1.31 6.25 1.95 5.86 5.38.2 4.2-6.33 5.35-8.23 1.97a26.9 26.9 0 0 1-1.18-2.37l2.49-.1c.92.96 1.68 2.44 3.26 2.16.53-.77 1.03-1.56 1.5-2.38-2.16-1.2-4.71-1.88-6.34-3.84Zm9.52-5.18c2.8-.01 5.58-.01 8.38.01l.1 2.19c-.97.05-1.94.12-2.9.18l.01 10.86-2.73.04v-10.9l-3.05-.14.19-2.24Zm13.22-.03 2.45.15c1.63 4.4 3.31 8.8 5.22 13.1-1.03 0-2.05.03-3.08.04-.2-.58-.65-1.74-.86-2.32l-5.34-.04-.83 2.32h-3.04c1.94-4.37 3.63-8.85 5.48-13.25Zm.77 3.27c-.5 1.8-1.04 3.6-1.62 5.39l3.94-.03a342.3 342.3 0 0 0-2.32-5.36Zm26.92-2.94c3.6-1.58 8.36.15 9.52 4.04 2.4 5.3-4.03 11.33-9.17 8.8-5.66-1.78-5.76-10.64-.36-12.84Zm-.38 9.34c1.58 2.24 5.34 2.11 6.78-.23 1.66-1.85.36-4.25-.1-6.3-1.58-.42-3.25-1.57-4.88-.72-2.9.9-3.66 5.02-1.8 7.25Zm12.49-9.67c3.11.3 7.72-1.09 9.27 2.58 1.04 1.45.06 3.12-.24 4.63l-2.19 1.32c.95 1.64 1.93 3.27 2.84 4.94-3.77.62-4.7-3.56-5.79-6.2-1.35 1.74-1.22 3.93-1.22 6.02l-2.68-.03c.02-4.42 0-8.84.02-13.26Zm2.84 2.07c-.1 1.8-.23 3.62-.37 5.44 1.67-.63 5.31-.47 4.62-3.16-.13-2.11-2.85-1.7-4.25-2.28Zm8.74-2.05 2.7-.01c.06 3.26-.2 6.53.17 9.77.27 1.88 2.43 1.15 3.74 1.48.56-3.7.4-7.45.33-11.17.69-.03 2.08-.08 2.77-.12-.06 3.26.13 6.53-.14 9.8-.2 4.9-8.94 4.99-9.43.22-.31-3.32-.09-6.66-.14-9.97Zm48.88-.03c4.32-1.3 9.3 2.5 8.67 7.1.06 5.42-7.2 8.73-11.26 5.07-4.63-3.13-2.91-11.23 2.6-12.17Zm-.81 3c-2.66 1.87-2.27 6.27.6 7.74 3 2.01 6.9-1.42 6.16-4.68-.19-3.16-4.25-5.26-6.76-3.07Zm29.03-3.11c1.2.06 2.4.16 3.6.32 1.32 3.02 2.13 6.26 3.64 9.2.96-3.12 2.02-6.2 3.02-9.31l3.28.06c-.19 4.6 1.28 9.8-1.7 13.8-.48-3.62-.2-7.27-.34-10.9-1.27 3.38-2.34 6.84-3.63 10.22l-1.8.03c-1.2-3.4-2.2-6.88-3.62-10.2-.1 3.5.03 6.99-.06 10.48l-2.32-.57c-.24-4.38-.05-8.76-.07-13.13Zm43.74 5.71c-.66-2.84 1.08-6.14 4.33-5.8 2.58-.34 3.86 2.05 4.6 4.1-1.92.06-3.34-1.08-4.72-2.18-.74.72-1.45 1.48-2.13 2.25 2.37 1.61 6.76 2.16 6.69 5.8-.24 1.14-.89 2.12-1.4 3.16-1.08.32-2.17.65-3.24.99-2.39-.52-4.33-2.08-4.78-4.58l2.8-.1 1.04 2.37a3.71 3.71 0 0 0 3.31-2.49c-2.19-1.13-4.4-2.22-6.5-3.52Zm13.7.57c1.44-2.07 2.88-4.13 4.34-6.19l2.9.17c-1.65 2.1-3.23 4.28-4.89 6.39 1.75 2.35 3.7 4.6 5.01 7.24l-3.26-.67-4.09-5.7c-.01 1.93 0 3.86.02 5.8-.7.03-2.09.08-2.78.12a1288 1288 0 0 1 0-13.33l2.8.1a268 268 0 0 0-.05 6.07Zm17.92-6.06 2.76-.1c.02 4.44 0 8.87.02 13.31l-2.8-.13c.02-4.37 0-8.72.02-13.08Zm5.73 3.15c2.79-5.12 10.66-4.18 13.03.86-3.31.74-5.87-3.38-9.04-1.4-3.69 1.82-2.47 8.44 1.78 8.56 2.08.4 3.45-1.33 4.76-2.6-1.82-.11-3.6-.16-5.41-.2 0-.53-.03-1.58-.04-2.1 2.85-.02 5.71-.02 8.57.14-.65 2.96-2.18 6.16-5.44 6.87-5.67 2.12-11.53-4.94-8.21-10.13Zm18.45-3.07 2.42-.25c1.8 4.67 3.89 9.26 5.42 14.03a4.85 4.85 0 0 1-4.25-3c-1.73-.03-3.45-.02-5.17.02l-.77 2.3h-2.97a307.5 307.5 0 0 0 5.32-13.1Zm-.7 8.52c1.29-.02 2.58-.03 3.87-.02-.7-1.85-1.42-3.67-2-5.55-.62 1.85-1.26 3.71-1.86 5.58Zm16.02-8.69c2.97.32 7.08-1.03 9.02 2 1.3 2.47.16 5.32-2.04 6.81.92 1.54 1.8 3.1 2.66 4.68-3.6.61-4.27-3.26-5.72-5.54-1.04 1.6-1.32 3.46-1.35 5.33l-2.56-.02-.01-13.26Zm2.81 2.08a246.5 246.5 0 0 1-.3 5.5c1.7-.67 5.46-.64 4.57-3.42-.47-1.97-2.78-1.57-4.27-2.08Zm39.2-2.11 2.81.15a467.3 467.3 0 0 0 0 12.97c-.93.1-1.88.18-2.8.27-.04-4.46-.03-8.93-.01-13.39Zm4.77 7.04c-.6-4.33 3.93-8.02 8.06-7.14 2.66.04 4.3 2.32 5.82 4.17-2.58.45-4.55-1.22-6.82-1.95-4.3-.21-6.06 6.2-2.5 8.43 2.35 1.8 5.3.15 6.89-1.88-1.87-.11-3.74-.16-5.6-.21l.06-2.04c2.83-.04 5.66-.05 8.5.04-.5 2.67-1.66 5.53-4.41 6.57-4.18 2.36-10.11-1.23-10-6Zm37.63-6.82c2.9-.22 5.82-.2 8.74-.2.17.5.52 1.5.68 2.02l-3.4.68c.07 3.52.05 7.04.04 10.56l-2.42.02c0-3.46 0-6.92.03-10.39-1.6-.41-3.3-.8-3.67-2.69Zm10.65-.15c2.57-.04 5.14-.03 7.7.03.04.72.05 1.44.05 2.16-1.69.06-3.37.12-5.03.16v3c1.54.02 3.1.02 4.66.03l-.05 2.28c-1.54 0-3.08 0-4.6.02l-.02 3.29h4.68l.01 2.23c-2.45.03-4.91.03-7.36.04 0-4.41.01-8.82-.03-13.24Zm9.9-.08c2.65.02 5.3.12 7.96.38 2.14 2.56 2.21 6.62-.93 8.45.92 1.56 1.8 3.14 2.67 4.74-3.57.53-4.33-3.24-5.75-5.56-1.05 1.6-1.32 3.45-1.35 5.33l-2.58-.06c.02-4.44 0-8.86-.02-13.28Zm2.86 2.12c-.1 1.83-.2 3.67-.33 5.5 1.8-.64 5.22-.6 4.66-3.4-.57-1.94-2.82-1.61-4.33-2.1Zm-483.98-2.09c2.48 0 4.97.07 7.46.23.73 1.3 2.21 2.41 2.05 4.04.4 2.09-1.53 3.26-2.72 4.6a307.6 307.6 0 0 1 2.89 4.63c-3.76.55-4.62-3.4-6.22-5.87l3.3-1.31c0-1.14 0-2.27-.02-3.4-1.4-.02-3.31-1.4-4.27.18.05 3.23.5 6.44.2 9.66-.84.35-1.7.66-2.55.95-.17-4.57-.08-9.14-.12-13.71Zm24.99 13.28c-.01-4.42-.03-8.84 0-13.26h7.4c0 .59 0 1.76-.02 2.35l-4.7-.03.03 3.06 4.65.02-.07 2.29H233l-.2 3.3c1.59 0 3.18 0 4.77.02a189 189 0 0 0-.05 2.25c-2.46-.02-4.9 0-7.35 0ZM241 114.74l1.11-.65c1.56 1.75 2.68 3.82 3.95 5.8l.35.61.06.55c.44 1.08 1.4 1.76 2.25 2.5.41-3.3-1.27-7.62 1.89-9.97.46 4.54.15 9.11.26 13.67l-2.43-.03c-1.68-2.5-3.33-5.02-5.12-7.42-.43-.59-.87-1.18-1.28-1.77-.1 2.73.1 5.52-.6 8.2-1.52-3.48-1.98-7.99-.44-11.49Z"/><path fill="#E1006B" d="M279.04 113.98c2.8 0 5.63 0 8.44.02l-.01 2.32-2.83.03c-.04 3.62-.06 7.25.05 10.88-.93 0-1.85.02-2.76.04.03-3.65.02-7.3.02-10.93l-2.86-.01-.05-2.35Zm73.96 0c2.38 0 4.75 0 7.14.02l-.06 2.33h-4.35l-.05 3.19c1.5.02 3.01.06 4.52.1l-.2 2.46h-4.32l.05 5.23-2.73-.14c.02-4.4.02-8.79 0-13.2Zm48.77.03 3.59-.05c1.18 3.09 2.25 6.22 3.4 9.33 1.25-3.06 2.34-6.17 3.41-9.3l3.57.04c-.08 4.4-.04 8.8-.05 13.19l-2.33.06c0-3.4.06-6.8-.03-10.19-1.3 3.32-2.4 6.72-3.58 10.09l-1.83.13c-1.28-3.47-2.32-7-3.59-10.44-.17 3.55-.04 7.11-.12 10.67l-2.35-.6c-.22-4.3.02-8.61-.09-12.93Zm22.73 13.31c-.05-4.45-.02-8.9-.02-13.34 2.3 0 4.6 0 6.9.02l-.02 2.34-4.13-.03a170.2 170.2 0 0 0-.11 3.22c1.52.03 3.05.08 4.58.13.15 2.96-2.53 2.4-4.54 2.5.02 1.65.04 3.29.08 4.93l-2.74.23ZM448.83 114c2.51.07 5.14-.33 7.57.5a5 5 0 0 1 2.22 4.84c-.49 1.43-1.79 2.33-2.77 3.39.91 1.58 1.77 3.2 2.48 4.9l-2.04-.03-2.42-3.22c-.46-.7-.91-1.41-1.34-2.13l-1.08.14.22 4.9-2.83-.12c.06-4.4.05-8.78-.01-13.17Zm2.86 2.05c-.09 1.81-.2 3.63-.34 5.45 1.85-.7 5.41-.32 4.6-3.28-.21-2.06-2.87-1.6-4.26-2.17Zm45.08-2.38c3.88.2 4.72 4.57 6.8 7.09.62.9 1.26 1.78 1.9 2.66.13-2.9.16-5.8.44-8.69l1.79-.88c.13 4.48.06 8.95.08 13.43l-2.5-.12c-1.98-2.98-3.9-6-5.97-8.93-.01 3.02.03 6.03.02 9.04l-2.64-.07c.05-4.52 0-9.02.08-13.53Zm36.97 1.73c.83-1.23 2.44.92 1.63 1.81.23 2.6.1 5.22.03 7.82l4.88.02.1 2.18c-2.12-.23-4.47.24-6.39-.9-1.28-3.39 0-7.32-.25-10.92Zm70.16-1.3c2.96-.15 5.92-.12 8.9-.08l-.1 2.22-2.87.11.01 10.91-2.79-.03c.1-3.54.08-7.08.07-10.62-2.02.19-3.09-.65-3.22-2.51Zm9.35-.1c2.94-.02 5.9-.04 8.84.1-.02 2-1.6 2.36-3.24 2.51.02 3.53 0 7.05.06 10.58l-2.75.07c-.02-3.57-.03-7.15.05-10.71l-2.86-.28-.1-2.27Zm32 1.4c1.86-1.32 1.3 2.93 1.88 4.04 1.67 0 3.37 0 5.05-.02l-.01-5.4 2.75-.05c-.07 4.56.08 9.13-.15 13.7-3.56-.8-2.01-4.56-2.14-7.15-1.84.31-3.67.53-5.47.98-.66.96-.07 5.56-1.91 4.2a22.78 22.78 0 0 1 0-10.3Zm12.45-1.41c2.52 0 5.05 0 7.57.02l-.15 2.32h-4.72v3.05c1.57 0 3.16.02 4.75.05l.04 2.21-4.79.08v3.27h4.79l.03 2.25c-2.5 0-5.01 0-7.5.03-.02-4.43 0-8.85-.02-13.28Z"/></svg>