<svg xmlns="http://www.w3.org/2000/svg" fill="none" viewBox="0 0 446 128"><path fill="#3083FF" d="M102.14 25.56V0H76.61v25.56H51.07V51.1h25.54v25.56h25.53V51.11h25.54V25.56h-25.54Z"/><path fill="#083B87" d="M51.07 76.67V51.11H25.54v25.56H0v25.56h25.54v25.55h25.53v-25.55h25.54V76.67H51.07Z"/><path fill="#fff" d="m186.51 0 12.17 33.01h.5l-.5-19V0h10.48v45.02h-14.73L181.8 11.26h-.46l.5 19.43v14.33h-10.48V0h15.15Zm47.39 45.9c-6.28 0-10.92-1.4-13.92-4.2-3-2.8-4.5-6.9-4.5-12.28v-3.59c0-5.3 1.4-9.36 4.22-12.17 2.81-2.84 6.9-4.26 12.27-4.26 3.62 0 6.62.62 9 1.86a12.1 12.1 0 0 1 5.42 5.25 17.15 17.15 0 0 1 1.83 8.2v1.16c0 .9-.04 1.8-.14 2.74-.07.92-.18 1.78-.32 2.57h-9.7a134.4 134.4 0 0 0 .21-7.14c0-1.43-.22-2.63-.67-3.6a4.72 4.72 0 0 0-2.07-2.24 7.18 7.18 0 0 0-3.56-.78c-2.15 0-3.73.59-4.74 1.76-.99 1.15-1.48 2.8-1.48 4.93v3.17l.07 1.16v2.46c0 .9.14 1.74.42 2.54.3.8.82 1.5 1.55 2.1a8.64 8.64 0 0 0 3.06 1.42c1.31.32 2.98.49 5 .49a30.93 30.93 0 0 0 11.8-2.29l-.87 8.1c-1.6.82-3.48 1.46-5.66 1.93s-4.59.7-7.21.7Zm-12.72-14.72v-6.65h24.4v6.65h-24.4Zm36.77 13.84-6.92-34.6h10.9l4.29 27h.63l4.22-26.16h13.16l4.29 26.15h.6l4.32-27h10.8l-6.93 34.6H282l-3.48-22.03-.6-3.87h-.5l-.63 3.87-3.48 22.04h-15.37Zm65.59-10.77c-5.56 0-9.74-1.04-12.53-3.1-2.78-2.07-4.18-4.96-4.18-8.7V22c0-2.54.56-4.67 1.69-6.4a11 11 0 0 1 5.27-4.1c2.37-.95 5.4-1.53 9.11-1.72l18.47-.84v7.6l-9.18-.24v.35c1.57.26 2.86.7 3.87 1.34a5.7 5.7 0 0 1 2.28 2.42c.52.99.77 2.2.77 3.66v.25a8.36 8.36 0 0 1-3.83 7.4c-2.53 1.68-6.45 2.53-11.74 2.53ZM323 50.6h1.05c1.7 0 3.05-.1 4.08-.31a5.12 5.12 0 0 0 2.32-.95 2 2 0 0 0 .74-1.59v-.07c0-.82-.35-1.4-1.05-1.76a8.6 8.6 0 0 0-3.1-.7l-10.2-1.02 2.36-.14c-.7.11-1.31.31-1.83.6-.5.28-.89.63-1.2 1.05-.28.42-.42.94-.42 1.55v.07c0 .7.26 1.3.78 1.8.51.49 1.3.85 2.35 1.09 1.08.25 2.45.38 4.12.38Zm-.53 7.89c-3.47 0-6.44-.29-8.9-.85-2.44-.54-4.29-1.4-5.55-2.6a6.23 6.23 0 0 1-1.9-4.75v-.15c0-1.33.29-2.46.88-3.37a5.87 5.87 0 0 1 2.53-2.15c1.1-.52 2.39-.83 3.87-.95v-.35c-1.8-.33-3.2-.9-4.19-1.73a4.3 4.3 0 0 1-1.44-3.45v-.03c0-1.06.23-1.95.7-2.68a4.58 4.58 0 0 1 2.15-1.65c.94-.4 2.08-.64 3.44-.7v-1.17l7.95 2-2.32-.03c-.82 0-1.4.11-1.76.32-.32.21-.49.53-.49.95v.04c0 .51.27.89.81 1.12.56.21 1.47.39 2.7.53l8.2.95c3.99.47 6.95 1.46 8.9 2.96 1.94 1.5 2.92 3.82 2.92 6.97v.2c0 2.4-.68 4.37-2.04 5.92-1.34 1.57-3.28 2.73-5.84 3.48a32.1 32.1 0 0 1-9.28 1.17h-1.34Zm.7-31.5c1.39 0 2.52-.18 3.42-.53a4.21 4.21 0 0 0 2.74-4.23v-.31c0-1.01-.22-1.87-.67-2.57a4.03 4.03 0 0 0-2.04-1.59 8.96 8.96 0 0 0-3.45-.56h-.03a9.5 9.5 0 0 0-3.52.56c-.91.38-1.6.92-2.04 1.62-.42.7-.63 1.56-.63 2.57v.28c0 1.01.22 1.88.67 2.6a4.45 4.45 0 0 0 2.07 1.63 9.8 9.8 0 0 0 3.48.53Zm39.04 18.91c-6.28 0-10.92-1.4-13.92-4.2-3-2.8-4.5-6.9-4.5-12.28v-3.59c0-5.3 1.4-9.36 4.22-12.17 2.81-2.84 6.9-4.26 12.27-4.26 3.61 0 6.61.62 9 1.86a12.09 12.09 0 0 1 5.42 5.25 17.14 17.14 0 0 1 1.83 8.2v1.16c0 .9-.05 1.8-.14 2.74-.07.92-.18 1.78-.32 2.57h-9.7c.09-1.36.15-2.64.17-3.83.02-1.22.04-2.33.04-3.31a8.7 8.7 0 0 0-.67-3.6 4.73 4.73 0 0 0-2.08-2.24 7.18 7.18 0 0 0-3.55-.78c-2.16 0-3.74.59-4.75 1.76-.98 1.15-1.47 2.8-1.47 4.93v3.17l.07 1.16v2.46c0 .9.14 1.74.42 2.54.3.8.82 1.5 1.55 2.1a8.64 8.64 0 0 0 3.05 1.42c1.32.32 2.98.49 5 .49a30.94 30.94 0 0 0 11.81-2.29l-.87 8.1c-1.6.82-3.48 1.46-5.67 1.93-2.18.47-4.58.7-7.2.7Zm-12.73-14.72v-6.65h24.41v6.65h-24.4Zm55.1 13.84V24.67c0-1.26-.17-2.36-.5-3.27a4.04 4.04 0 0 0-1.65-2.15 5.85 5.85 0 0 0-3.16-.74c-1.1 0-2.08.2-2.92.6-.85.38-1.56.9-2.15 1.59-.56.65-.98 1.4-1.26 2.25l-1.66-5.04h1.83c.38-1.57.99-2.97 1.83-4.22a9.02 9.02 0 0 1 3.55-2.96 12.7 12.7 0 0 1 5.7-1.12c2.58 0 4.69.5 6.33 1.51a8.68 8.68 0 0 1 3.62 4.44c.8 1.97 1.2 4.43 1.2 7.39v22.07h-10.76Zm-22.23 0v-34.6h10.7l-.36 8.66.42 1.02v24.92h-10.76Zm53.52.77c-3.07 0-5.52-.46-7.35-1.37a8.28 8.28 0 0 1-3.9-4.2 17.4 17.4 0 0 1-1.2-6.85V14.04h10.7v17.6c0 1.7.37 2.93 1.12 3.73.77.78 2.2 1.16 4.29 1.16 1.15 0 2.29-.13 3.41-.38 1.13-.26 2.15-.59 3.06-.99l-.91 8.9a24.4 24.4 0 0 1-9.21 1.72Zm-17.09-26.78v-8.45h26.9l-.95 8.45h-25.95Zm4.78-7.68-.03-8.94 10.65-1.02-.38 9.96h-10.24ZM176.53 114.8v-4.93h10.9c3.98 0 6.97-1.08 8.97-3.23 2.01-2.19 3.02-5.3 3.02-9.33V87.28c0-4.06-1-7.17-3.02-9.33-2-2.16-4.99-3.24-8.97-3.24h-10.94v-4.89h11.15c5.81 0 10.2 1.5 13.19 4.5 2.97 2.99 4.46 7.3 4.46 12.92v10.1c0 5.61-1.49 9.93-4.46 12.96-2.98 3-7.38 4.5-13.2 4.5h-11.1Zm-3.94 0V69.82h5.76v44.98h-5.76Zm41.06 0V80.45h5.7v34.35h-5.7Zm2.85-39.98c-1.18 0-2.05-.3-2.64-.92a3.73 3.73 0 0 1-.84-2.57v-.17c0-1.1.28-1.96.84-2.57.59-.61 1.46-.92 2.64-.92 1.17 0 2.05.3 2.63.92.6.6.88 1.47.88 2.57v.17c0 1.1-.29 1.96-.88 2.57-.58.61-1.46.92-2.63.92Zm25.66 29.7c-4.67 0-8.26-1.02-10.77-3.06-2.48-2.04-3.72-4.96-3.72-8.76v-.88c0-2.37.48-4.44 1.44-6.2a9.9 9.9 0 0 1 4.67-4.11c2.14-1.01 4.93-1.56 8.38-1.66l17.5-.56v4.5l-10.33-.35-.04.25c1.62.33 2.95.89 3.98 1.69 1.03.8 1.8 1.8 2.28 2.99.52 1.2.78 2.6.78 4.19v.77c0 3.64-1.2 6.42-3.59 8.34-2.4 1.9-5.92 2.85-10.59 2.85Zm-.25 18.94h.8c2.12 0 3.92-.16 5.42-.5 1.53-.3 2.7-.8 3.52-1.47a3.34 3.34 0 0 0 1.23-2.71v-.14c0-1.32-.48-2.33-1.44-3.03-.94-.68-2.56-1.13-4.85-1.34l-9.71-.88 1.62-.07c-1.31.2-2.48.5-3.48.92-.99.42-1.76.97-2.33 1.65-.56.7-.84 1.58-.84 2.6v.08c0 1.2.41 2.16 1.23 2.88a7.38 7.38 0 0 0 3.48 1.55c1.5.3 3.29.46 5.35.46Zm-.32 4.54c-3.1 0-5.77-.27-8.02-.81a10.87 10.87 0 0 1-5.2-2.57 6.29 6.29 0 0 1-1.83-4.75v-.14a6 6 0 0 1 .99-3.52 7.03 7.03 0 0 1 2.7-2.22 13.1 13.1 0 0 1 3.84-1.09l-.04-.21c-1.92-.33-3.34-.9-4.25-1.69a4.06 4.06 0 0 1-1.38-3.17v-.03c0-.9.2-1.66.6-2.29a4.33 4.33 0 0 1 1.87-1.51 9.67 9.67 0 0 1 3.2-.7v-.71l6.54 1.65-2.68-.07c-1.59.03-2.7.22-3.3.6-.61.35-.91.9-.91 1.62v.03c0 .78.43 1.37 1.3 1.77.86.4 2.34.71 4.43.95l8.33.84c3.64.38 6.28 1.25 7.95 2.64 1.66 1.36 2.5 3.38 2.5 6.05v.18a7.4 7.4 0 0 1-1.9 5.24 10.94 10.94 0 0 1-5.38 2.96c-2.32.63-5.1.95-8.34.95h-1.02Zm.5-27.7c1.96 0 3.6-.28 4.88-.84a6.2 6.2 0 0 0 2.96-2.6 8.43 8.43 0 0 0 1.02-4.3v-.85a8.3 8.3 0 0 0-.99-4.19 6.03 6.03 0 0 0-2.88-2.6c-1.3-.61-2.9-.92-4.86-.92h-.2c-2.12 0-3.84.33-5.18.99a6.13 6.13 0 0 0-2.88 2.71 8.8 8.8 0 0 0-.88 4.05v.8c0 1.7.33 3.12.99 4.27a6.37 6.37 0 0 0 3.02 2.6c1.34.59 3 .88 5 .88Zm22.87 14.5V80.45h5.7v34.35h-5.7Zm2.85-39.98c-1.18 0-2.06-.3-2.64-.92a3.73 3.73 0 0 1-.85-2.57v-.17c0-1.1.29-1.96.85-2.57.58-.61 1.46-.92 2.64-.92 1.17 0 2.05.3 2.63.92.59.6.88 1.47.88 2.57v.17c0 1.1-.29 1.96-.88 2.57-.58.61-1.46.92-2.63.92Zm24.77 40.68c-2.64 0-4.78-.4-6.4-1.2a7.2 7.2 0 0 1-3.51-3.62 14.78 14.78 0 0 1-1.1-6.05V82.95h5.63v21.01c0 2.25.52 3.92 1.55 5 1.03 1.06 2.77 1.58 5.2 1.58a16.9 16.9 0 0 0 7.6-1.76l-.53 4.9c-1.1.56-2.39 1-3.86 1.33-1.48.33-3 .5-4.58.5Zm-16.63-29.98v-4.58h25.25l-.53 4.58h-24.72Zm5.66-4.01-.03-9.65 5.73-.74-.25 10.39h-5.45Zm46.6 33.29.25-8.34-.21-.88V94.63l.03-2c0-2.8-.71-4.86-2.14-6.2-1.41-1.33-3.65-2-6.72-2-2.46 0-4.72.35-6.79 1.05-2.04.7-3.85 1.53-5.45 2.47l.53-4.86a24.82 24.82 0 0 1 12.62-3.45c2.47 0 4.55.3 6.26.92a9.99 9.99 0 0 1 4.19 2.56 10.12 10.12 0 0 1 2.36 4.09c.49 1.6.73 3.38.73 5.35v22.24h-5.66Zm-11.81.74c-3.4 0-6.02-.82-7.85-2.46-1.8-1.67-2.7-4.04-2.7-7.11v-1.02c0-3.17.97-5.53 2.91-7.08 1.97-1.57 5.1-2.66 9.36-3.27l10.87-1.55.31 4.15-10.48 1.52c-2.62.37-4.5 1.02-5.63 1.93-1.12.9-1.68 2.22-1.68 3.98v.56c0 1.81.55 3.2 1.65 4.16 1.13.96 2.8 1.44 5.03 1.44 1.97 0 3.66-.34 5.06-1.02a9.2 9.2 0 0 0 3.41-2.75 9.7 9.7 0 0 0 1.76-3.83l.88 3.87h-1.09a11.4 11.4 0 0 1-1.86 4.19 9.62 9.62 0 0 1-3.77 3.13 14.36 14.36 0 0 1-6.18 1.16Zm26.38-.74V68.17h5.66v46.63h-5.66Z"/></svg>