<svg xmlns="http://www.w3.org/2000/svg" fill="none" viewBox="0 0 531 128"><g fill="#EB663C" clip-path="url(#a)"><path d="M190.28 108.5c-24.88 0-45.04-19.92-45.04-44.5s20.17-44.5 45.03-44.5c24.88 0 45.05 19.93 45.05 44.5s-20.17 44.5-45.04 44.5Zm0-108.5c-35.79 0-64.8 28.65-64.8 64s29.01 64 64.8 64c35.78 0 64.79-28.65 64.79-64s-29.01-64-64.8-64Z"/><path d="M207.83 64c0 9.57-7.86 17.34-17.54 17.34-9.7 0-17.55-7.77-17.55-17.34s7.86-17.33 17.55-17.33c9.68 0 17.54 7.76 17.54 17.33ZM19.57 16.36v-.04H0v99.3h19.57V44.87l64.92 70.72v.05h.05v.01-.01h19.52V16.32H84.49V86.8L19.7 16.23l-.13.13Zm274.28 81.18V16.33h-19.58v99.32h83.16V97.54h-63.58Zm102.92-81.22h-19.56v99.3h19.56v-99.3Zm76.99 19.93 15.78 34.97h-31.55l15.77-34.97Zm-12.4-20.02-44.84 99.42h21.42l11.87-26.32h47.89l11.87 26.32H531l-44.84-99.42h-24.78Z"/></g><defs><clipPath id="a"><path fill="#fff" d="M0 0h531v128H0z"/></clipPath></defs></svg>