<svg xmlns="http://www.w3.org/2000/svg" fill="none" viewBox="0 0 190 128"><g fill="#D24440" clip-path="url(#a)"><path d="M1.38 95.2c1.57-1.72 3.94-2.43 6.2-2.55 2.5-.12 5.13-.12 7.41 1.05 1.53.77 2.9 2.13 3.2 3.87.43 2.4.09 4.87.2 7.3.01 7.57.03 15.14 0 22.72-1.55.02-3.1.01-4.64 0v-25.26c-.01-1.05.07-2.12-.08-3.16-.26-1.4-1.68-2.14-2.96-2.37a9.72 9.72 0 0 0-3.8.14c-1.27.36-2.38 1.5-2.33 2.9-.03 9.25 0 18.5-.01 27.76H0V98.4a5.53 5.53 0 0 1 1.38-3.2Zm23.41 3.35c0-3.33 3.28-5.47 6.28-5.83 3.3-.29 7.02-.45 9.82 1.65a5.68 5.68 0 0 1 2.24 4.77c.03 7.3 0 14.6.02 21.9-.01 1.47-.24 3.04-1.25 4.18-1.6 1.88-4.15 2.64-6.55 2.78h-2.92c-2.44-.17-5.07-.97-6.62-2.99-.97-1.2-1.08-2.82-1.06-4.3.04-7.39-.03-14.77.04-22.16Zm7.03-1.72c-1.35.34-2.57 1.52-2.52 3-.02 6.94-.01 13.88 0 20.83-.1 1.57 1.24 2.82 2.7 3.09 1.8.39 3.87.3 5.42-.78.93-.63 1.14-1.81 1.12-2.86.02-6.34 0-12.7 0-19.04-.03-1.1.08-2.39-.8-3.2-1.56-1.5-3.95-1.3-5.92-1.04ZM50.7 95.4c1.6-1.91 4.2-2.68 6.62-2.76 2.83-.13 5.91-.02 8.27 1.74a5.49 5.49 0 0 1 2.27 4.47c.05 2.96 0 5.91.03 8.87a6.45 6.45 0 0 1-1.42 4.4c-.72.86-1.75 1.37-2.73 1.88 2.12 4.52 4.25 9.05 6.33 13.59-1.64 0-3.29.04-4.93-.02a742.77 742.77 0 0 0-5.8-12.1c-1.8.92-4.75.92-5.22 3.35-.1 2.92 0 5.85-.04 8.78h-4.6c0-9.16.02-18.32 0-27.49-.04-1.63.09-3.42 1.21-4.71Zm3.4 4.37c-.06 4.31 0 8.63-.02 12.94 2.5-.86 5.01-1.7 7.48-2.63 1.1-.38 1.74-1.53 1.71-2.66 0-2.64.04-5.29-.02-7.93-.04-1.4-1.4-2.28-2.63-2.6a10.6 10.6 0 0 0-3.67-.08c-1.46.24-2.83 1.4-2.84 2.96Zm45.35-2.79c.94-2.72 3.9-4.09 6.6-4.32 3.33-.24 7.17-.28 9.78 2.16 1.63 1.4 1.78 3.7 1.73 5.7h-4.6c-.09-.92-.07-1.99-.82-2.64-1.45-1.35-3.63-1.44-5.48-1.13-1.4.2-2.83 1.23-2.91 2.74-.07 1.45-.22 2.96.18 4.38.32 1.16 1.52 1.6 2.53 1.97 2.35.78 4.69 1.58 7.01 2.43a6.22 6.22 0 0 1 4.06 5.44c.07 2.12-.02 4.24.03 6.36 0 1.7 0 3.58-1.11 4.97-1.59 2-4.22 2.81-6.68 2.96h-2.9a10.08 10.08 0 0 1-5.56-1.88 5.18 5.18 0 0 1-2.1-3.8c-.13-2.27-.02-4.54-.05-6.8h4.53c.05 1.9-.08 3.8.07 5.69.1 1.14 1.04 2 2.08 2.37 1.6.54 3.38.5 4.96-.06 1.05-.39 2.04-1.3 2.07-2.47.08-2.02.02-4.03.03-6.04.02-1.1-.41-2.34-1.48-2.8-2.74-1.16-5.64-1.87-8.4-2.98a6.16 6.16 0 0 1-3.87-5.93c.07-2.1-.2-4.26.3-6.32Zm73.93-2.14c2.67-2.44 6.59-2.4 9.97-2.1 3.05.27 6.4 2.27 6.65 5.61v29.25h-4.6v-27.16c0-.83-.04-1.73-.62-2.38-.9-1.02-2.32-1.35-3.63-1.37-1.45-.05-3.1.07-4.16 1.2-.7.65-.81 1.64-.8 2.54.02 9.05 0 18.1.02 27.15-1.54.03-3.07.03-4.6 0-.01-9.15 0-18.3-.02-27.46-.02-1.89.25-4 1.78-5.28Zm-99.01-1.8c4.24-.02 8.48-.02 12.72 0a5.87 5.87 0 0 1 5.3 3.93c.43 1.2.46 2.5.45 3.77-.03 6.88.03 13.76-.02 20.64.04 3.02-2.29 6.05-5.41 6.2-4.34.05-8.67 0-13 .02-.1-11.52-.02-23.04-.04-34.56Zm4.65 3.78v26.99c2.17-.03 4.33.04 6.5-.03 1.55-.03 2.72-1.58 2.7-3.07.03-6.86.02-13.73 0-20.6.1-1.57-1.12-3.19-2.74-3.26-2.15-.08-4.3-.01-6.46-.03Zm44.87-3.78c1.53-.02 3.06 0 4.6 0v15.03c2.28-.57 4.44-1.54 6.68-2.25 1.32-.33 2.52-1.39 2.5-2.83.06-3.31 0-6.63.02-9.95h4.6c-.01 3.62.02 7.25-.01 10.87a6.05 6.05 0 0 1-4.1 5.43c2 6.12 4.24 12.15 6.3 18.25-1.63.01-3.27.02-4.9 0a3384 3384 0 0 0-5.81-16.68c-1.2.42-2.42.81-3.59 1.31-.98.4-1.76 1.37-1.69 2.47v12.91h-4.6V93.04Zm24.68 6.11c-.1-3.1 2.5-6.07 5.64-6.1 3.68-.03 7.36-.01 11.03-.01v4.26c-3.15.07-6.3-.02-9.44.04-1.58.03-2.71 1.62-2.67 3.11-.03 1.82 0 3.64 0 5.46 3.26.01 6.53-.03 9.8.02-.02 1.4-.03 2.8 0 4.21-3.26.08-6.53.01-9.8.03 0 3.41-.03 6.82 0 10.23.02 1.56 1.4 3.03 3 2.95 3.03.02 6.07 0 9.11 0v4.25H154.2c-3.08 0-5.66-2.92-5.62-5.94V99.15ZM113.62 0h3.83c3.16.25 6.27.9 9.3 1.78-1.87 0-3.74-.15-5.61 0A31.07 31.07 0 0 0 102.9 9.7c-3.78 3.46-6.6 8.07-7.49 13.15a25.99 25.99 0 0 0 3.52 18.67 25.57 25.57 0 0 0 11.03 9.67 25.36 25.36 0 0 1-19.46-14.5 26.14 26.14 0 0 1-1.47-18.04A24.29 24.29 0 0 1 97.36 6c4.6-3.67 10.42-5.6 16.26-6Z"/><path d="M110.84 9.99a28.7 28.7 0 0 1 17.68-3.38c6.75.92 13 4.6 17.35 9.82a30.05 30.05 0 0 1 7.02 16.85c.46 6.1-1.41 12.23-4.6 17.4a32.04 32.04 0 0 1-17.73 13.6c-8.41 2.64-17.52 2.03-25.93-.26-7.33-2-14.07-5.64-20.44-9.7-5.66-3.54-11.1-7.48-17.15-10.33-5.22-2.48-11.1-3.85-16.88-2.97C41.12 42.2 33.21 47.97 28 55.28a29.62 29.62 0 0 1 11.09-17.29c5.63-4.13 12.88-5.53 19.75-4.93 5.93.45 11.55 2.72 16.78 5.45 10.25 5.35 19.43 12.71 30.32 16.8 6.44 2.44 13.62 3.3 20.33 1.47 5.49-1.4 10.83-4.2 14.33-8.76 3.35-4.28 4.76-10 3.85-15.36a20.96 20.96 0 0 0-7.5-13.03 20.01 20.01 0 0 0-12.66-4.35c-4.6-.1-9.44.75-13.23 3.5a12.88 12.88 0 0 0-5.42 10.07c-.2 3.67 1.28 7.4 3.96 9.92a10.8 10.8 0 0 0 6.75 2.94c5.27.32 10.65-3.11 12.3-8.18.5-1.45.5-3.01.54-4.53.88 3.15 1.13 6.7-.37 9.7-1.37 2.88-4.13 4.82-7.04 5.94a14.1 14.1 0 0 1-10.01.22c-4.66-1.68-8.3-5.56-10.25-10.05a18.7 18.7 0 0 1 .25-15.21 21.7 21.7 0 0 1 9.07-9.61Z"/><path d="M119.46 20c4.11-.54 8.5-.48 12.32 1.34a14.17 14.17 0 0 1 7.61 8.83c1.5 5.15.25 11.12-3.51 15.01a16.56 16.56 0 0 1-13.34 5.06c4.62-.89 8.52-4.2 10.72-8.28 1.84-3.38 2.57-7.48 1.4-11.2-1.13-3.78-4.03-6.86-7.53-8.6-2.38-1.26-5.04-1.8-7.67-2.16Z"/><path d="M115.86 24.57c3.13-.87 6.66 1.6 6.76 4.88.41 3.26-2.7 6.3-5.95 5.87a5.48 5.48 0 0 1-.81-10.75ZM46.41 45.94a22.65 22.65 0 0 1 14.07.5c4.88 1.68 9.25 4.5 13.52 7.35 5.74 3.87 11.38 7.93 17.61 10.98a52.3 52.3 0 0 0 14.92 4.88c3.3.6 6.66.73 10.01.83-8.61 1.62-17.61.58-25.82-2.39-6.46-2.36-12.35-6-18.02-9.85-4.7-3.15-9.3-6.52-14.39-9.06-3.69-1.85-7.73-3.2-11.9-3.24Z"/></g><defs><clipPath id="a"><path fill="#fff" d="M0 0h190v128H0z"/></clipPath></defs></svg>