<svg xmlns="http://www.w3.org/2000/svg" fill="none" viewBox="0 0 647 128"><g fill="#1D1D1D" clip-path="url(#a)"><path d="M82.75 39.96c-2.4.67-4.54 2.67-5.74 5.61-1.2 3.2-2.41 7.35-2.41 16.03v65.06h-5.35l-50.8-71.2h-.4v47.7c0 8.54 1.07 12.82 2.27 16.02 1.2 2.8 3.61 4.94 5.89 5.61 1.49.38 3 .65 4.54.8v.54H2.68v-.53c1.57-.17 3.13-.44 4.67-.8 2.28-.67 4.55-2.81 5.75-5.62 1.2-3.2 2.4-7.48 2.4-16.03V66.28c0-8.96-1.33-15.9-2.93-19.1a14.53 14.53 0 0 0-8.29-6.96A13.2 13.2 0 0 0 0 39.16v-.8h33.42L71.8 94.2h.27V61.6c0-8.68-1.07-12.82-2.27-16.03a9.52 9.52 0 0 0-6.02-5.61c-1.37-.5-2.81-.77-4.27-.8v-.8h27.8v.8c-1.55.02-3.08.29-4.55.8Zm416.4 0c-2.4.67-4.54 2.67-5.75 5.61-1.2 3.2-2.4 7.35-2.4 16.03v65.06h-5.35l-50.8-71.2h-.4v47.7c0 8.54 1.07 12.82 2.28 16.02 1.2 2.8 3.6 4.94 5.88 5.61 1.49.38 3 .65 4.54.8v.54h-28.07v-.53c1.57-.17 3.13-.44 4.67-.8 2.27-.67 4.55-2.81 5.75-5.62 1.2-3.2 2.4-7.48 2.4-16.03V66.28c0-8.96-1.33-15.9-2.94-19.1a14.52 14.52 0 0 0-8.28-6.96 13.2 13.2 0 0 0-4.28-1.06v-.8h33.42l38.37 55.84h.26V61.6c0-8.68-1.07-12.82-2.27-16.03a9.51 9.51 0 0 0-6.02-5.61c-1.37-.5-2.81-.77-4.27-.8v-.8h27.8v.8c-1.54.02-3.07.3-4.54.8ZM128.47 128c-25.53 0-42.24-17.64-42.24-45.69 0-28.05 16.71-45.7 42.24-45.7 25.54 0 42.25 17.64 42.25 45.7 0 28.06-16.71 45.69-42.25 45.69Zm8.96-86.7c-2.8-2.28-6.15-2.68-8.96-2.68-2.8 0-6.28.4-8.95 2.67-6.15 5.08-10.3 16.17-10.3 41.02s4.15 35.94 10.3 41.01c2.67 2.28 6.15 2.68 8.95 2.68 2.81 0 6.29-.4 8.96-2.68 6.15-5.07 10.3-16.16 10.3-41 0-24.86-4.28-35.95-10.3-41.03Zm93.18 84.83c-2.54-3.47-5.08-10.42-5.75-18.04-.67-8.81-1.6-15.76-4.94-20.44-2.81-3.74-6.29-3.87-12.03-3.87H204v19.5c0 5.88.67 11.63 1.6 14.83 1.07 4.14 3.34 5.88 6.15 6.68 1.48.38 3 .6 4.54.67v.67h-44.78v-.67c1.36-.07 2.7-.3 4.01-.67 2.81-.8 5.08-2.54 6.29-6.68.93-3.2 1.2-8.95 1.2-14.83V61.2c0-6.01-.4-11.62-1.47-14.83-1.2-4.14-3.34-5.75-6.15-6.55a18 18 0 0 0-3.88-.66v-.8h45.19c17.51 0 31.82 6.27 31.82 22.17 0 9.09-4.95 15.63-12.03 19.24a34.82 34.82 0 0 1-11.63 3.07v.27c3.74.53 9.35 1.6 12.56 3.88 4.15 2.93 7.9 7.74 9.23 16.03 1.87 11.35 4.14 17.76 7.08 20.3 1.47 1.34 4.55 2.14 6.02 2.27v.54H230.6Zm-18.98-85.64c-2.81 0-5.08.8-6.42 3.07-1.07 1.88-1.2 5.22-1.2 8.82v28.86h5.61c6.82 0 10.03-1.47 12.17-4.81 2.27-3.74 3.2-10.55 3.2-16.3 0-11.89-3.07-19.64-12.29-19.64h-1.07Z"/><path d="M316.44 126.13c-2.55-3.47-5.08-10.42-5.75-18.04-.67-8.81-1.6-15.76-4.95-20.44-2.8-3.74-6.28-3.87-12.03-3.87h-3.88v19.5c0 5.88.67 11.63 1.6 14.83 1.07 4.14 3.35 5.88 6.15 6.68 1.49.38 3.01.6 4.55.67v.67h-44.78v-.67c1.35-.07 2.7-.3 4-.67 2.81-.8 5.09-2.54 6.3-6.68.93-3.2 1.2-8.95 1.2-14.83V61.2c0-6.01-.4-11.62-1.48-14.83-1.2-4.14-3.34-5.75-6.15-6.55a18.03 18.03 0 0 0-3.87-.66v-.8h45.18c17.51 0 31.82 6.27 31.82 22.17 0 9.09-4.95 15.63-12.03 19.24a34.84 34.84 0 0 1-11.64 3.07v.27c3.75.53 9.36 1.6 12.57 3.88 4.14 2.93 7.89 7.74 9.22 16.03 1.87 11.35 4.15 17.76 7.1 20.3 1.46 1.34 4.54 2.14 6 2.27v.54h-29.13Zm-18.99-85.64c-2.8 0-5.08.8-6.41 3.07-1.07 1.88-1.2 5.22-1.2 8.82v28.86h5.6c6.83 0 10.04-1.47 12.18-4.81 2.27-3.74 3.2-10.55 3.2-16.3 0-11.89-3.07-19.64-12.3-19.64h-1.07Z"/><path d="M378.33 126.13v-.8c1.74-.24 3.45-.7 5.08-1.34 2.4-.93 4.4-2.94 4.4-6.68 0-3.74-1.06-7.08-2.4-11.49l-2.27-7.35h-22.86l-2.8 8.55c-1.48 4.01-2.15 7.09-2.15 9.63 0 3.73 1.88 6.27 4.41 7.34 1.7.76 3.5 1.21 5.36 1.34v.8h-26.6v-.8c1.98-.18 3.9-.82 5.6-1.87 1.88-1.07 3.62-2.8 5.35-5.48 1.6-2.67 3.21-6.28 5.08-11.49l25.14-68.8h5.88l19.52 57.58c3.6 10.95 6.68 18.84 9.5 23.52a11.62 11.62 0 0 0 6.27 5.6c1.48.48 3 .8 4.55.94v.8h-47.06Zm-6.02-60.39h-.4l-10.83 30.6h21.26l-10.03-30.6Zm204.3 47.17s-.77-4.52-1.13-5.8c-.47-1.33-.61-3.06-2.09-3.47-1.45-.1-2.66.01-3.35-.78-.7-.8 1.43-2.81.3-3.11l-4.82.9a4.1 4.1 0 0 0-.39-.42l-2.92-13.82 1.41-2.44 12.86-2.06a27.7 27.7 0 0 0-5.47-3.77 27.48 27.48 0 0 1-3.97-2.82c-4.53 1.33-7.11 2.26-7.81 2.47-2.8.83-4.6 3.64-3.27 5.9 2.46 6.1 4.05 13.54 4.97 18.07.01.26.01.5.05.83.18 1.36 1.8 3.04 3.15 3.19h.37c1.6-.02 3.48.76 4.81 1.48a4.77 4.77 0 0 1 1.74 1.83c.72 1.24 3.79 4.3 5.56 3.81m53.49-30.88c-3.9-4.08-10.42-3.34-11.86-3.14.64 3.76 1.16 6.86 1.49 8.42.38 1.8.65 3.39 1.04 5.47.38 2.08-.59 5.1-1.12 6.89a137.9 137.9 0 0 1-5.74 13.76 38.02 38.02 0 0 1-2.8 4.36 7.83 7.83 0 0 1-2.21 1.82c-1.5.63-2.92 1.43-4.24 2.38a4.69 4.69 0 0 0-1.98 3.02c-.08.22 5.38 0 7.92-.14.9-.29.9-.53 1.1-1.14.4-1.31.54-2.6 1.87-3.04.87-.15 1.16 1.36 1.6 1 .67-.56 1.26-3.14 1.73-4.13 1.86-4.18 3.74-8.36 9.9-17.92 1.03-1.78 2.97-3.86 2.68-5.02a19.47 19.47 0 0 1-.96-6.13c-.06-2.1 1.11-5.08 1.57-6.46m-65.22-76.9c-.28-1.23-1.17-.9-1.39-.12-2.35 8.1-4.12 5.56-4.83 4.62a35.87 35.87 0 0 1-3.25-5.14c-.88-1.88-2.15-1.44-1.88.53.28 2.1 1.3 6.17-.45 6.7-2.24.7-5.1-3.92-6.29-6.13-.61-1.15-1.97-.58-1.6.69.41 1.43.7 2.3 1.14 3.78.16.6-.14 1.22-.92 1.69-1.68 1.03-5.87-4.19-6.71-4.88-.84-.7-1.63-.02-1.2.84.2.42 2.9 5.91 7.46 8.48 5.82 3.28 11.72 3.4 14.93 4.41.2-.14.38-.27.57-.43a16.5 16.5 0 0 0 3.61-4.43c2.27-4.27 1.08-9.42.8-10.61Z"/><path d="M644.69 89.53c2.91 4.4 2.63 3.6 1.55 9.4-1.3 7.11-2.2 14.28-2.7 21.48-.03.68.42 2.09-.04 2.4-.47.3-1.6-1.57-2.6.18-.62 1.06-.03 2.96-1.2 3.07-2.56.22-5.13.24-7.7.05-.73-.14 1.65-2.87 2.67-3.6 1.05-.75 1.99-1.2 2.76-1.7a7.6 7.6 0 0 0 2.1-3.14c.5-2.99.83-6 1-9.02.17-3.57-.11-9.24-.11-9.24a66.46 66.46 0 0 0-7.89-16.8 17.12 17.12 0 0 0-3.98-4.2c-2.1-1.6-4.6-2.58-7.23-2.82a32.45 32.45 0 0 0-4.87-.1c-3.97.03-9.3 1.37-12.26 2.42a44.6 44.6 0 0 1-15.44 2.11l.85 42.56c-.52 1.04-2.08-1.44-3-.92-.9.53-1.04 1.74-1.43 3.14-.7 1.36-2.41 1.15-3.8 1.35-1.34.1-5.93-.06-5.93-.06-.13-1.81 3.52-4.15 4.85-4.67l2.01-.8c1.06-1.17 2.64-2.84 2.93-4.7.39-6.28-.12-8.97-.95-15.23-.7-1.3-1.95-2.84-2.31-3.7-.17-.38-1.84-9.27-3.06-13.28-.35-1-.8-1.97-1.31-2.9-1.27-2.1-3.2-3.52-4.69-4.6a20.55 20.55 0 0 1-2.09-1.8h.02a16.67 16.67 0 0 1-5-10.32 31.8 31.8 0 0 0-6.42-14.12c.26-1.64.17-3.3-.27-4.9-1.35 3.78-1.4 3.77-3.42 6.6-.2-.9-.48-2.45-.95-4.2-1.77 1.8-4.18 4.12-5.75 4.96.17-.8.27-1.62.32-2.44.15-1.75.5-4.09.06-6.57-.93 1.28-2.02 2.58-2.92 3 0 0 .53-7.76-.44-9.35-4-3.94-7.73-2.47-7.73-2.47-.26.79-1.65 3.38-3.64 3.44-.46.01-.56-.23-.77-.8a40.8 40.8 0 0 1-.68-2.53l-2.52 1.38c-1.04-.03-2.53-4.64-2.51-5.64.02-1 .94-2.02 2.82-3.57 1.87-1.55 3.61-2.19 4.66-2.24 1.05-.05 13.39-.05 13.39-.05s2.1-2.45 4.95-2.37c.12 0 3.62.19 4.27.15 2.93-.17 7.24-4.13 10-8.1 1.62-2.32 2.57-5.65 3.1-8.02.38-1.68.69-3.37.89-5.07.17-1.5 1.93-1.73 1.89.25-.14 2.59-.05 5.18.26 7.75.71 4.27 3.34 3.81 7.45-.23a28.73 28.73 0 0 0 4.74-5.64c1.04-1.57 2.14-.68 1.88.33-.38 1.44-1.13 3.34-2.84 7.35-1.01 2.38 1.18 6 7.3.68a30.12 30.12 0 0 0 5.34-6.1.68.68 0 0 1 1.16.27.7.7 0 0 1-.04.47c-.33 1.12-.86 2.35-2.48 4.9a73.98 73.98 0 0 1-2.67 4.02c-.9 1.24-.18 3.26 2.03 2.8 2.12-.43 4.77-2.53 6.1-3.9 1.15-1.19 2.3-.84 1.13 1.18-.8 1.33-1.69 2.6-2.65 3.82-.73.96-.1 2.04 1.99 1.78 4.31-.54 6.9-3.17 8.52-5.32 1-1.33 1.98-.84 1.68.25a15.19 15.19 0 0 1-6.28 8.3c-5.64 3.9-14.05 4.72-22.81.28-7.73-3.92-15.43-1.74-17.35 1.5.53-.04 4.12-.67 7.38-.03 2.06.38 4.04 1.08 5.87 2.08a8.59 8.59 0 0 1-2.99 2.24 16.48 16.48 0 0 1-8.85 1.61c-.75-.06 1.75 1.8 4.07 2.2 3.99.68 7.72-1.24 8.67-1.71 2.42.13 5.37 1.28 8.21 2.99 4.47 2.68 6.5 7.36 9.04 8.41 8.89 3.68 15.94-.58 28.2-.58 9.25 0 15.43 7.98 16.67 10.22.99 1.79 2.28 4.88 1.66 5.72-.5.7-1.36.1-1.85-.62a8.38 8.38 0 0 0-2.17-2.03c1.22 6.02.27 10.78-1.59 16.34 1.25 5.9 2.18 11.3 5.73 16.76m-91.91-60.05a1.87 1.87 0 0 1 3.45-.15l.27-.11a1.98 1.98 0 0 0-1.05-2.02 2.01 2.01 0 0 0-2.9 2.22l.23.06Z"/></g><defs><clipPath id="a"><path fill="#fff" d="M0 0h647v128H0z"/></clipPath></defs></svg>