<svg xmlns="http://www.w3.org/2000/svg" fill="none" viewBox="0 0 247 128"><g fill="#CE7F10" clip-path="url(#a)"><path d="M62.8 69.86a71.14 71.14 0 0 0-9.45-1.75c-2.4-.3-4.15-.58-5.26-.88-1.1-.29-1.69-.81-1.69-1.51 0-1.46 2.04-2.16 6.19-2.16 4.78 0 9.16 1.11 13.19 3.32l5.2-12.4a30.67 30.67 0 0 0-8.47-2.8 53.59 53.59 0 0 0-10.16-1c-4.96 0-9.22.7-12.72 2.1-3.56 1.4-6.19 3.27-8 5.6a12.52 12.52 0 0 0-2.68 7.92c0 3.73 1 6.59 2.98 8.57a15.08 15.08 0 0 0 6.88 4.02 64.4 64.4 0 0 0 9.52 1.69c2.45.29 4.2.58 5.3.81 1.12.3 1.64.76 1.64 1.52 0 .7-.4 1.28-1.28 1.63-.88.35-2.4.52-4.55.52a33.8 33.8 0 0 1-8.47-1.1 27.8 27.8 0 0 1-7.53-2.98l-5.2 12.41c2.34 1.34 5.44 2.4 9.17 3.27 3.8.81 7.65 1.22 11.5 1.22 5.08 0 9.4-.7 12.96-2.1 3.56-1.4 6.24-3.26 8-5.6a12.62 12.62 0 0 0 2.68-7.74c0-3.73-1-6.58-2.98-8.56a14.63 14.63 0 0 0-6.77-4.02Z"/><path d="M132.37 51.5h-22.3L96.95 64.8V41.3a23.22 23.22 0 0 0 4.79-5.36 22.3 22.3 0 0 0 3.38-12.24c0-4.54-1.1-8.62-3.38-12.23a23.2 23.2 0 0 0-9.46-8.4C88.25 1.06 83.64.13 78.56.13s-9.63.99-13.66 2.97a22.8 22.8 0 0 0-9.45 8.39A22.35 22.35 0 0 0 52 23.7c0 4.55 1.17 8.63 3.45 12.24a23.34 23.34 0 0 0 9.45 8.45 29.43 29.43 0 0 0 13.13 3.03v49.75H96.9V86.4l3.03-3.26 11.09 13.98h22.82l-20.37-25.87 18.91-19.75ZM71.15 23.71c0-2.85.7-5 2.1-6.58a6.79 6.79 0 0 1 5.37-2.33c2.16 0 3.97.76 5.37 2.33s2.1 3.73 2.1 6.58c0 2.86-.7 5.07-2.1 6.64a6.84 6.84 0 0 1-5.37 2.4 6.92 6.92 0 0 1-5.37-2.4c-1.4-1.57-2.1-3.78-2.1-6.64Z"/><path d="M178.25 62.05a23.2 23.2 0 0 0-9.46-8.4 30.79 30.79 0 0 0-13.72-2.96c-5.07 0-9.63.99-13.65 2.97a22.8 22.8 0 0 0-9.46 8.39 22.35 22.35 0 0 0-3.44 12.23 22.5 22.5 0 0 0 3.44 12.24 23.34 23.34 0 0 0 9.46 8.45A29.8 29.8 0 0 0 155.08 98c5.13 0 9.68-1 13.71-3.03a23.34 23.34 0 0 0 9.46-8.45 22.3 22.3 0 0 0 3.38-12.24c0-4.6-1.1-8.62-3.38-12.23Zm-17.8 18.82a6.84 6.84 0 0 1-5.38 2.39 6.92 6.92 0 0 1-5.36-2.4c-1.4-1.57-2.1-3.78-2.1-6.63 0-2.86.7-5.02 2.1-6.59a6.79 6.79 0 0 1 5.36-2.33 6.9 6.9 0 0 1 5.38 2.33c1.4 1.57 2.1 3.73 2.1 6.59-.06 2.85-.76 5.06-2.1 6.64ZM31.57 46.55h18.85V20.57c0-6.82-1.7-11.95-5.14-15.33C41.91 1.81 37.35.12 31.75.12c-2.74 0-5.25.46-7.59 1.34a17.2 17.2 0 0 0-6.18 4.02V.99H0v45.62h18.85V25.17c0-3.15.64-5.48 1.99-6.93a6.59 6.59 0 0 1 5.13-2.22c3.74 0 5.6 2.62 5.6 7.87v22.66Zm96.94-20.22c0-6.58 3.2-9.84 9.69-9.84 1.28 0 2.68.12 4.2.35V.12c-6.54 0-11.44 1.92-14.77 5.76V1h-17.97v45.62h18.85V26.33Zm38.11 0c0-6.58 3.21-9.84 9.69-9.84 1.28 0 2.69.12 4.2.35V.12c-6.53 0-11.44 1.92-14.76 5.76V1h-17.98v45.62h18.85V26.33Zm38.4 21.21c6.43 0 11.27-3.03 14.13-6.64v5.48h16.4V1.17h-16.4v5.59A18.03 18.03 0 0 0 205.04 0a23.33 23.33 0 0 0-23.53 23.54c0 12.4 10.51 24 23.53 24Zm1.52-32.62a8 8 0 0 1 8 7.98 8 8 0 0 1-16 0 8 8 0 0 1 8-7.98Zm6.77 86.92c-5.66 0-9.22.7-12.54 2.04l3.38-6.76c2.34.53 4.79.82 7.41.82 5.14 0 9.7-1 13.72-3.03a23.34 23.34 0 0 0 9.45-8.45 22.3 22.3 0 0 0 3.39-12.23c0-1.17-.06-2.34-.23-3.44l9.1-9.1-11.38-11.35-6.01 6a28.08 28.08 0 0 0-4.26-2.74 30.8 30.8 0 0 0-13.72-2.97c-5.08 0-9.63.99-13.66 2.97a22.8 22.8 0 0 0-9.45 8.39 22.35 22.35 0 0 0-3.45 12.24 22.5 22.5 0 0 0 3.45 12.23 21.8 21.8 0 0 0 1.63 2.21l-10.97 21.62L189.92 121c6.24-3.03 11.09-4.55 18.5-4.55 9.22 0 13.95 4.32 16.4 11.48l17.1-4.83c-4.67-13.99-15.29-21.27-28.6-21.27Zm-7.06-34.14a6.79 6.79 0 0 1 5.37-2.33c2.16 0 3.97.76 5.37 2.33s2.1 3.73 2.1 6.58c0 2.86-.7 5.07-2.1 6.65a6.84 6.84 0 0 1-5.37 2.38 6.92 6.92 0 0 1-5.37-2.38c-1.4-1.58-2.1-3.8-2.1-6.65 0-2.85.7-5.07 2.1-6.58Z"/></g><defs><clipPath id="a"><path fill="#fff" d="M0 0h247v128H0z"/></clipPath></defs></svg>