<svg xmlns="http://www.w3.org/2000/svg" fill="none" viewBox="0 0 470 128"><path fill="#096BB3" d="M21.55 8.45c12.4-9.3 29.88-10.73 44.22-5.23v30.86C51.03 25.53 36.26 17.04 21.55 8.45Zm47.95-3.6A49.02 49.02 0 0 1 96.14 41L69.5 56.43l.01-51.58ZM.15 51.91C-1.13 36.33 5.85 20.54 18 10.71 26.9 15.84 35.79 21 44.69 26.15 29.83 34.75 15 43.35.15 51.92Zm265.7-9.2c5.29-4.3 13.5-3.99 18.5.65l-3.12 3.1c-2.89-2.33-6.99-3.17-10.4-1.51-5.9 2.92-6.2 12.59-.62 15.99 3.57 1.98 8.06 1.18 11.13-1.38 1.1 1.1 2.23 2.2 3.35 3.3-5.17 4.51-13.61 5.04-18.94.57-5.73-5.26-5.64-15.5.1-20.72Zm-141.33-2.37c5.18.27 10.52-.68 15.58.7 6.01 1.98 7.46 10.78 2.79 14.86-3.67 3.44-9.1 2.11-13.64 2.36v7.56h-4.73V40.34Zm4.73 4.47v8.98c2.78-.03 5.57.14 8.34-.07 3.94-.7 4.58-6.9.94-8.44-3-.92-6.2-.33-9.28-.47Zm20.78-4.47c5.33.37 10.95-.9 16.08.91 6.9 2.78 5.97 14.3-1.48 15.72 2.56 2.94 5.18 5.82 7.65 8.83-1.95.03-3.9.02-5.85.02a410.05 410.05 0 0 0-7.2-8.49h-4.47v8.49h-4.73V40.34Zm4.72 4.47v8.3c2.91-.12 5.9.31 8.75-.27 3.62-1.07 3.4-7.18-.34-7.89-2.78-.32-5.6-.1-8.4-.14Zm29.47-4.34c3.98-1.17 8.62-.65 11.95 1.91 6.5 5.12 6.45 16.24.15 21.48-5.73 4.6-15.69 3.16-19.09-3.64-3.86-6.88-1.02-17.41 7-19.75Zm1.09 4.14c-5.1 2.02-6.23 8.92-3.95 13.44 2.1 4.44 8.66 5.3 12.21 2.15 3.38-3.24 3.56-8.89 1.2-12.77-1.87-3.15-6.18-4.03-9.46-2.82Zm21.41-4.27c4.94.26 10.16-.79 14.9 1.09 9.13 4.06 9.08 19.3-.05 23.35-4.7 1.88-9.92.72-14.85 1.04V40.34Zm4.72 4.46v16.3c2.87-.18 6 .58 8.66-.8 5.1-3.15 4.87-12.08-.53-14.83-2.57-1.05-5.43-.58-8.13-.67Zm22.67-4.46h4.73c.07 5.34-.16 10.69.09 16.02.02 4.3 5.23 7.06 8.93 5.12 2.26-1 3.16-3.6 3.23-5.9.1-5.08-.01-10.17.03-15.24h4.72l.01 14.19c.04 3.25-.78 6.74-3.2 9.05-3.63 3.28-9.4 3.5-13.57 1.15-3.28-1.77-4.88-5.6-4.95-9.2-.07-5.06.01-10.13-.02-15.2Zm55.74 0h18.9v4.71h-14.18v5.92c4.57 0 9.14.01 13.71-.02-.03 1.5-.04 3-.05 4.49h-13.66v5.66h14.18v4.72h-18.9V40.34Zm24.56 0h3.83c4.4 5.24 8.75 10.53 13.18 15.75V40.34h4.72V65.8l-2.86.03c-4.76-5.67-9.38-11.45-14.12-17.14-.04 5.7-.01 11.4-.02 17.12h-4.73V40.34Zm26.97 0h20.7c0 1.4.01 2.82.03 4.22-2.67-.02-5.35 0-8.02-.02v21.28h-4.72V44.54c-2.69.01-5.35 0-8.02.02l.03-4.22Zm24.99 0h18.9a371.1 371.1 0 0 0 0 4.71H371.1v5.92c4.56 0 9.13.01 13.7-.02l-.05 4.49H371.1v5.66h14.17a371.1 371.1 0 0 0 0 4.72h-18.9V40.34Zm24.57 0c5.3.36 10.89-.87 16.02.88 6.95 2.75 6.05 14.31-1.42 15.76 2.55 2.94 5.18 5.82 7.64 8.82-1.95.03-3.9.02-5.84.02a412.9 412.9 0 0 0-7.2-8.49h-4.48v8.49h-4.72V40.34Zm4.72 4.47v8.3c2.9-.12 5.88.3 8.74-.27 3.63-1.05 3.4-7.18-.33-7.89-2.8-.31-5.61-.1-8.41-.14Zm21.73-4.47 3.82-.01c4.4 5.25 8.75 10.54 13.18 15.76V40.34h4.73V65.8l-2.88.03c-4.75-5.68-9.38-11.45-14.1-17.14-.06 5.7-.02 11.4-.03 17.12h-4.72V40.34Zm36.02 0h5.24c3.72 8.53 7.57 16.98 11.35 25.48h-5.2c-.71-1.58-1.44-3.15-2.16-4.72h-13.28c-.7 1.57-1.41 3.13-2.1 4.7-1.75.02-3.5.02-5.21.02 3.77-8.5 7.63-16.97 11.36-25.48Zm-2.09 16.28h9.38c-1.57-3.66-3.15-7.31-4.68-10.98-1.5 3.69-3.15 7.32-4.7 10.98ZM.63 55.95c8.84-5.19 17.73-10.27 26.59-15.42l-.01 54.6c-.09 8.54-2.06 17.58-7.9 24.11C14.63 124.6 7.66 127.5.65 128 .62 104 .67 79.97.63 55.95ZM52.08 70.8c14.83-8.6 29.68-17.2 44.54-25.77 1.25 15.6-5.72 31.4-17.88 41.2L52.08 70.8Zm-21.14-7.97c14.82 8.67 29.78 17.09 44.51 25.9a49.06 49.06 0 0 1-44.4 5.05c-.25-10.3-.04-20.63-.11-30.95Zm169.71 18.09h1.34v14.15h-1.34a439.5 439.5 0 0 1 0-14.15Zm25.64-.49c3.3 3.71 6.17 7.77 9.29 11.64-.02-3.72-.05-7.44.02-11.15h1.35c-.02 4.88.02 9.75-.02 14.62-3.4-3.7-6.27-7.83-9.43-11.7v11.23h-1.34c-.02-4.88-.2-9.77.13-14.64Zm25.18 1.01c4.7-2.2 10.8 1.7 10.07 7.03.03 5.2-6.3 8.27-10.64 5.8-4.99-2.45-4.76-10.9.57-12.83Zm-.22 1.47c-4.5 2.56-2.79 11.03 2.71 10.87 3.97.67 7.03-3.45 6.11-7.14-.47-4.06-5.57-5.53-8.82-3.73Zm20.65-1.99c3.35.4 7.94-1.3 10.2 2.02 1.95 2.71-.2 6.6-3.43 6.9l4.6 5.21-1.74.03a389.45 389.45 0 0 1-4.55-5.25l-3.72-.1c.02 1.78.01 3.56 0 5.34h-1.36V80.92Zm1.35 1.28c.03 2.1.04 4.18.04 6.28 2-.03 4.03.13 6.03-.2 2.48-.71 2.74-4.66.46-5.77-2.13-.5-4.35-.2-6.53-.31Zm19.04-1.26c3.38.35 8.16-1.36 10.27 2.26 1.77 2.87-.56 6.07-3.49 6.77 1.59 1.73 3.2 3.46 4.58 5.37-3.14-.31-4.35-3.73-6.47-5.63-1.19.04-2.37.08-3.55.1v5.26h-1.34c-.08-4.7-.07-9.43 0-14.13Zm1.34 1.3v6.24c2.73-.24 7.68 1.18 8-2.91.22-4.46-5.17-3.25-8-3.33Zm19.44-1.32h1.34v12.77c2.67.5 6.46-1.26 8.24 1.28-3.2.17-6.38.1-9.58.1-.06-4.73-.07-9.44 0-14.15Zm23.36.28 1.25-.61c2.1 4.97 4.53 9.81 6.47 14.84-1.9-.35-2.33-2.25-3.06-3.75h-8.03c-.81 1.36-.93 3.56-2.96 3.74 1.9-4.82 4-9.6 6.33-14.22Zm-2.84 9.14 6.98.01c-1.18-2.64-2.33-5.28-3.5-7.93-1.1 2.66-2.3 5.3-3.48 7.92Zm20.23-9.9c3.44 3.73 6.43 7.85 9.72 11.7V80.93h1.34c.03 4.87.18 9.74-.11 14.6-3.43-3.73-6.46-7.8-9.73-11.68v11.23h-1.35c-.02-4.88-.18-9.77.13-14.63Zm21.6.49c3.3.15 7.33-.8 9.94 1.8 3.48 3.16 2.7 9.5-1.5 11.65-2.66 1.12-5.63.59-8.44.68-.07-4.7-.07-9.42 0-14.13Zm1.35 1.35V93.7c2.36-.15 5 .45 7.1-.95 3.09-2.13 3.14-7.34.06-9.5-2.1-1.44-4.78-.84-7.16-.98Z"/></svg>