<svg xmlns="http://www.w3.org/2000/svg" fill="none" viewBox="0 0 214 128"><path fill="#1D1D1D" d="M32.17 0h7.9c4.49.36 9.36.77 13.05 3.65 4.07 3.33 5.75 8.85 5.53 13.96-.17 3-.93 6.26-3.26 8.35a24.26 24.26 0 0 1-7.63 4.5c.3.8 1.05 1.29 1.85 1.54 3.13 1 6.58.55 9.51-.86.02 6.17-.04 12.33-.1 18.49-6.47.85-13.13 1.16-19.55-.2-1.96-.47-4.05-.99-5.53-2.45-3.4-3.16-4.77-7.94-4.95-12.46l-3.66.42c.02 5.07-.03 10.15.02 15.22A210 210 0 0 0 .11 54.24c-.05-16.7-.03-33.4 0-50.1A194.56 194.56 0 0 1 32.16 0Zm-6.83 16.48v5.63c2.2.02 4.43 0 6.6-.42 1.46-.3 3.17-1.33 3.1-3-.15-1.52-1.7-2.37-3.07-2.53-2.21-.2-4.44.03-6.63.32ZM65.4 0h.22c14.73.66 29.44 1.84 44.15 2.98.02 6.1 0 12.2 0 18.3l-18.31-2.41-.01 5.28c5.18.42 10.36.85 15.54 1.24.02 5.43-.03 10.86.02 16.29-5.18-.4-10.37-.82-15.55-1.25-.01 3.52-.02 7.04 0 10.56-8.68-.53-17.36-1.22-26.06-1.47V0Zm103.2 3.98a300.4 300.4 0 0 0 26.43-2.78c-.24 9.7-.36 19.39-.65 29.08 6.58-1.03 13.1-2.46 19.62-3.72-.04 7.08 0 14.16-.02 21.24.15.62-.62.5-.98.63-14.65 2.48-29.45 4.33-44.33 4.64-.14-16.36 0-32.73-.07-49.09Zm-47.35.89c4.56-2.04 9.65-2.21 14.56-2.36 8.81.15 17.66.83 26.27 2.8 0 5.87-.17 11.74-.1 17.61-3.02-1.96-6.68-2.5-10.18-2.86-2.33-.17-4.78-.51-7 .43a3.9 3.9 0 0 0-2.38 3.22c4.28.16 8.62.6 12.7 1.98 2.92 1.01 5.72 2.82 7.24 5.6 1.83 3.36 1.87 7.38 1.39 11.1-.48 3.46-2.16 6.86-5.08 8.88-4.22 3-9.56 3.62-14.59 3.88-10.15.32-20.27-1.22-30.12-3.55.07-6.7.51-13.4.77-20.09 3.66 2.4 8.03 3.38 12.3 4 2.6.28 5.44.79 7.89-.45 1.06-.47 1.59-1.58 1.77-2.67-4.87-.3-9.82-.83-14.37-2.7-3.04-1.25-5.82-3.52-6.99-6.68-1.27-3.44-1.16-7.28-.31-10.8a10.92 10.92 0 0 1 6.23-7.34Z"/><path fill="#FAA61A" d="M36.58 71.91c10.44-.2 20.9-.37 31.33.1-.03 18.66.07 37.33-.05 55.99H36.58c-.03-18.7-.03-37.39 0-56.09Z"/><path fill="#702C91" d="M182.54 76.6A668.29 668.29 0 0 0 214 73.2c-.04 18.26.04 36.53-.04 54.8h-31.33c-.18-6.22-.03-12.45-.08-18.68V76.59Z"/><path fill="#00AB4E" d="M109.6 77.81c10.4 1.18 20.83 2.2 31.3 2.46.11 15.91.03 31.82.04 47.73h-31.27c-.05-.6-.08-1.2-.08-1.8.02-16.13 0-32.26.01-48.39Z"/><path fill="#ED1C24" d="M0 83.15a182.07 182.07 0 0 1 31.42-4.53c.02 16.46.05 32.92-.01 49.38H.08a19.4 19.4 0 0 1-.08-1.44V83.15Z"/><path fill="#FD0" d="M73.03 79.08c10.51.63 21 1.61 31.45 2.9-.03 15.34.05 30.68-.04 46.02H73.1c-.1-1.33-.06-2.65-.07-3.98V79.08Z"/><path fill="#0071BC" d="M146.07 84.22c10.45.03 20.9-.15 31.34-.73 0 14.84.05 29.68-.02 44.51H146.1c-.07-14.6-.02-29.18-.03-43.78Z"/></svg>