<svg xmlns="http://www.w3.org/2000/svg" fill="none" viewBox="0 0 347 128"><g clip-path="url(#a)"><path fill="#000" d="M179.85 4c3.66-5.12 12.45-4.73 15.7.63 2.69 4.82 2.11 11.32-1.68 15.41 4.87 8.47 6.36 18.24 9.16 27.47-.13-4.8-.02-9.62-.2-14.42.03-2.28-1.85-3.88-2.46-5.97-.92-3.54.6-7.82 4.08-9.35 3.18-1.43 6.65-.04 9.97-.24 3.22-.15 6.64-.84 9.71.54 2.4.94 4.23 2.82 5.82 4.78 1.23-3.02 4.1-5.32 7.5-4.9 5.04.67 10.2-.42 15.18.87 2.83.68 5.13 2.56 7.16 4.57 1.28-1.4 2.64-3.08 4.7-3.15 4.76-.33 9.5.64 14.25.69 1.85-.02 3.54-.94 5.37-1.11 1.86-.04 3.17 1.48 4.52 2.54 3.28-1.1 6.98-1.39 10.27-.12 2.88 1.32 3.95 4.59 5.23 7.24.9-2.41 2.14-5.12 4.83-5.92 4.88-1.45 11.07.08 13.4 4.98 1.97-1.89 4.26-3.8 7.14-3.87 3.5-.6 6.11 2.37 9.45 2.7 2.86.34 4.18 3.28 4.95 5.7a50.91 50.91 0 0 1 2.22 17.11c-.09 3.11-1.23 6.2-3.6 8.3 4.54 9.69 4.85 20.8 3.26 31.21-.82 4.65-2.29 9.62-6.03 12.76-2.94 2.53-7.39 2.62-10.74.9-4.1-2.05-7.28-5.56-9.72-9.37-1.4 1.53-3.2 3.16-5.47 2.66-3.21-.42-4.62-3.7-5.6-6.38-.91-2.4-1.86-4.78-2.75-7.18-.7 2.51-1.6 5.42-4.2 6.55-4.37 1.81-9.33-.2-12.37-3.52l-2.88.91c4.2 8.05 7.1 16.7 10.68 25.04.83 2.38 3.87 2.96 4.6 5.4 1.4 3.43-.74 7.5-4.2 8.58-4.72 1.51-9.8 1.11-14.67.75a9.94 9.94 0 0 1-6.97-3.26c-4.76 4.67-12.43 4.08-18.23 1.92-5.87 1.74-12.46 2.33-18.2-.24-5.2 3.29-12.78 3.33-17.19-1.35-3.76 3.09-8.87 3.2-13.5 2.87-2.4-.15-4.66-1.05-6.8-2.1-1.07.78-2.07 1.72-3.37 2.11-2.26.27-4.46-.55-6.72-.57-4.29-.1-8.57 0-12.86-.03-3.54-.04-7.27.36-10.58-1.2-1.49.96-3.14 2.13-5.03 1.69-5.57-.9-11.23-.34-16.84-.5-3.7-.07-7.49.41-11.05-.78-3.41 2.56-7.51.54-11.32.77-5.42.05-10.84-.08-16.26.18-1.83.1-3.6-.39-5.32-.93-4.99 1.58-10.41 2.18-15.55.97-3.29-.76-6.27-3.6-6.17-7.16-.33-2.67 2.01-4.43 2.78-6.75.25-2.26.1-4.54.2-6.82a17.85 17.85 0 0 1-13.33 7.55c1.67 1.65 3.72 3.43 3.62 6 .22 3.7-3.09 6.5-6.44 7.2-4.28.94-8.81.9-13.1.03-3.3-.63-6.34-3.58-5.84-7.15-.06-2.35 2.28-3.52 3.07-5.45.34-4.88.15-9.78-.06-14.65-1.19-.87-2.57-1.62-3.28-2.98-.8-1.47-.5-3.21-.56-4.82-2.46.4-4.98.31-7.28-.74-2.95 5.33-9.92 8.6-15.72 6.11-2.38 4.15-6.63 6.61-11.06 8.05-2.94.55-6.15-.17-8.6-1.91-2.7-2-3.3-5.56-3.79-8.69-.7-5.58-1.3-11.25-.7-16.87.18-2.45 1.53-4.56 3.25-6.23-2.87-7.47-3.24-15.62-2.5-23.5.6-5.7 1.94-11.44 4.87-16.42 1.8-3.05 4.65-5.76 8.27-6.33 2.04-.4 4.02.41 5.97.91 2.64-.54 5.57.16 6.86 2.74 2.59 4.96 3.34 10.75 3.33 16.28-.01 3.63-1.07 7.35-3.85 9.85.95 1.72 1.8 3.5 2.59 5.3 1.04-5.76 2.15-11.53 2.8-17.36.61-5.45-.43-11.34 2.4-16.33 1.46-3.03 5.07-5.18 8.42-4.06 3.26 1.04 4.97 4.31 6.12 7.3 4.13 10.9 4.91 22.66 7.6 33.93.34-7.82.52-15.66.1-23.47.05-2.66-2.3-4.47-2.78-6.99-.7-3.65.28-7.89 3.27-10.29 2.92-2.12 6.82-2.54 10.3-1.9 2.92.77 4.24 3.78 5.5 6.24.7-2.36 1.57-4.98 3.82-6.32 3.52-2.04 7.89-1.78 11.68-.7a16.56 16.56 0 0 1 10.05-1.21c2.78.77 4.05 3.66 5.43 5.93.76-2.47 1.96-5.12 4.52-6.17 4.49-2.13 9.36.19 14.02-.5 4.29-.42 8.6-.23 12.89-.6 2.45-.17 4.8-2.04 7.27-.97 2.87 1.15 3.82 4.4 4.63 7.08 3.3-4.83 9.16-8.47 15.17-7.12 2.4.7 4.88.59 7.35.72 2.7.71 4.01 3.52 4.88 5.93 1.7 5.16 1.97 11.2-.99 15.95l2.7 1.62c1.12-4.43 2.3-8.9 2.23-13.5-.1-2.7.56-5.33 1.84-7.7-3.28-4.35-3.64-10.86-.54-15.4Zm4.99 1c-3.41 1.44-3.87 6.03-2.94 9.18.83 4.42 8.07 5 9.78.96a9.98 9.98 0 0 0-.05-7.96c-1.25-2.4-4.4-2.93-6.8-2.17Zm-48.87 16.6c-4.92.65-9.94.08-14.85.84-1.56.11-1.71 2.08-1.77 3.3-.16 1.95 1.91 2.98 2.33 4.73.5 2.23.5 4.53.58 6.8-.01 7.69.21 15.41-.82 23.05-.16 2.04-2 3.4-2.4 5.35-.03 1.09-.2 2.83 1.26 3 7.02-.39 14-2.35 21.06-1.47 1.95-5.02 3.72-10.6 2.25-15.98l-2.19-.1c-1.13 2.73-1.44 6.07-3.78 8.13-1.92 1.32-4.7 1.94-6.83.82-.62-1.9-.57-3.92-.64-5.88.03-2.48-.27-5.21 1.33-7.3l2.13 1.61c.44 1.81.12 3.97 1.46 5.44 1.6-.86 1.92-2.81 2.22-4.45.6-4.32.7-8.75.05-13.07-.3-1.23-.43-3.06-2.11-3.02-1.55 1.88-.97 4.52-1.85 6.67-.86 1.07-2.15.67-3.2.2.13-3.47-.37-7.01.36-10.43.78-2.13 3.63-1.64 5.4-1.42 2.66.46 2.9 3.61 4.29 5.42 1.72 1.07 2.32-1.51 2.56-2.76.28-3.52.14-7.39-1.87-10.42-1.71-.16-3.29.74-4.97.93Zm13.09 6.37c-3.63 7-4.35 15.27-3.04 22.97.94 4.97 2.88 10.14 7.03 13.29a9.91 9.91 0 0 0 10.71.93c3.6-1.9 5.78-5.66 6.77-9.49.54-1.85.5-4.05 2.16-5.35 2.46-1.88 1.71-6.42-1.28-7.32a12.13 12.13 0 0 0-9.6.45c-2.18 1.1-2.74 4.14-1.63 6.19.92.74 2.04 1.17 3.01 1.85.66 2.1-.17 4.19-1.43 5.85-1.8-.68-3.57-1.76-4.38-3.6-2.15-4.48-2.7-9.56-2.66-14.47.16-3.47.48-7.34 3-9.99a3.04 3.04 0 0 1 4.11-.34c2.55 2.01 3.01 5.57 5.31 7.78 2.6 1.13 3.68-2.13 3.89-4.11.3-3.93-.14-8.4-2.83-11.47-1.05.13-2.03.53-3.03.82-2.18-.95-4.52-1.95-6.96-1.47-4.17.55-7.28 3.93-9.16 7.48Zm35.5-7.1c-2.37 1.72-2.23 4.91-2.27 7.53-.02 5.18-1.61 10.16-2.84 15.14-1.15 4.3-2.13 8.64-3.5 12.87-.39 1.47-1.52 2.5-2.52 3.56-1.38 1.18-1.34 3.62-.16 4.9 1.79 1.05 3.97 1.07 5.99 1 1.74-.08 3.92-.89 4.13-2.9.56-1.97-1.5-3.22-2.25-4.82-.24-1.28.78-2.23 1.41-3.2 2.42.15 5-.17 7.26.84 1.34 1 1.18 3.11-.12 4.1-1.97 1.54-1.3 5.06 1.05 5.82 2.84.85 5.85.99 8.8.92 1.81 0 4-.91 4.18-2.98.88-2.89-2.69-4.05-3.09-6.63-2.14-7.7-4.06-15.48-6.2-23.2-1.3-4.16-2.58-8.47-5.15-12.06-1.02-1.48-3.27-2.2-4.72-.9Zm-75.39 1.81c-1.8 1.63-1.9 4.75-.43 6.64 1.95 2.45 1.52 5.7 1.53 8.63-.19 1.27.31 3.25-1.38 3.62-3.53-4.58-6.08-9.82-9.1-14.74-1.01-1.5-1.76-3.6-3.71-4.06a10.26 10.26 0 0 0-5.6.8c-1.96 1-2.33 3.54-2.12 5.52.85 2.06 2.88 3.61 2.8 6.03.7 8.85.28 17.75-.18 26.61-.02 2.1-.85 4.02-1.9 5.8-1.19 2-1.2 5.44 1.2 6.53 3.5.92 8.29-.98 8.7-4.97.88-2.9-2.52-4.64-2.3-7.47-.14-4.15-.68-8.63 1.2-12.47 4.03 5.3 7.11 11.24 10.7 16.85 1.26 1.8 2.14 4.55 4.79 4.45 1.99-5.17 1.4-10.84 1.62-16.26.28-7.27-.17-14.58.64-21.82.1-2.56 3.07-3.97 2.76-6.63.15-1.74-.92-3.65-2.78-3.8-2.14-.17-4.5-.36-6.44.74Zm95.59 4.6a8 8 0 0 1 1.84 5.17c.12 7.7.4 15.4.1 23.1.05 1.96-.89 3.69-1.88 5.31-1.36 1.99-.15 4.81 1.93 5.74a15.5 15.5 0 0 0 8.34 1.18c1.42-.08 2.78-1.22 2.74-2.73.42-2.59-2.16-4.32-2.2-6.82a43.9 43.9 0 0 1 .06-10.15c.91.66 2.2 1.05 2.57 2.23 1.94 5.3 1.4 11.3 3.87 16.44 1.44 3.18 5.55 4.56 8.68 3.18 1.57-.73 2.1-2.66 2.05-4.26-.03-1.96-2.17-2.94-2.58-4.74-.7-3.7-.54-7.59-2.02-11.1-.8-1.93-2.62-3.18-3.55-5.02 3.55-4.1 4.2-9.9 3.02-15.05-.63-3.36-2.78-6.63-6.04-7.9-3.05-.88-6.21.13-9.3-.04-2.23 0-4.52-.87-6.7-.11-1.99 1.03-2.44 3.94-.93 5.58Zm30.17-4.82c-1.5.94-1.6 3-1.26 4.55.64 1.71 2.53 2.85 2.47 4.83.3 9.7.5 19.41.04 29.1.28 2.33-3.05 3.08-2.51 5.46-.25 1.98.92 4.42 3.18 4.32 4.38.24 8.57 1.58 12.83 2.48a7.5 7.5 0 0 0 7.5-2.67c2.68-3.26 3.6-7.53 4.2-11.6a65.67 65.67 0 0 0-.93-22.52c-1.13-4.5-2.74-9.34-6.63-12.18-3.62-2.51-8.2-1.47-12.31-1.73-2.19.03-4.45-.66-6.58-.04ZM77.45 25.4c-.83 1.68-1.05 3.85-.12 5.54 2.94 4.34 2.07 10 1.17 14.85-3-3.26-4.6-7.47-6.84-11.24-1.88-3.15-3.13-6.71-5.52-9.53-3.42-1.08-8.7.38-8.65 4.72-.73 2.74 1.64 4.58 2.45 6.9.67 3.53.62 7.16.61 10.74a261.5 261.5 0 0 1-.64 22.44c-.06 2.92-2.57 5.14-2.45 8.07-.05 1.6.3 3.73 2.1 4.23 4.08.8 8.73-2.56 8.45-6.94.34-2.54-2.2-4.22-2.24-6.7-.24-4.51-.46-9.19.65-13.6.27-.04.83-.08 1.11-.1 3.36 5.14 5.99 10.73 9.2 15.97 1.28 1.9 2.03 4.3 3.82 5.76 2.22.72 2.41-2.25 2.72-3.74 1.12-12.3.31-24.7 1.22-37.01-.11-3.27 3.43-5.36 2.87-8.69-.05-1.63-1.02-3.5-2.86-3.54-2.39-.25-5.54-.39-7.05 1.87Zm187.12-.83c-1.4.35-1.74 1.93-1.65 3.17-.25 2.61 2.7 4.08 2.67 6.68a211.68 211.68 0 0 1 .63 32.02c.11 2.13-1.4 3.69-2.36 5.42-.24 1.7.15 4.08 2.1 4.59 6.69 2.1 13.87 2.9 20.05 6.4a46.67 46.67 0 0 0 2.45-13.12c.1-2.68 0-5.76-2.3-7.57-1.32 2.4-1.59 5.18-2.63 7.68-1.53 4.07-8.97 2.32-8.58-2.02-.26-4-.7-8.09-.01-12.06 1.06-1.13 2.38.3 2.72 1.38.68 2.04.74 4.21 1.1 6.31l1.98.02c1.35-5.92 1.26-12.07.66-18.09-.4-2.12-.1-5.3-2.85-5.84-.62 2.44-.77 4.94-.99 7.43l-1.89.85c-2.46-2.14-1.5-5.69-1.75-8.56.16-2.14-.57-4.92 1.53-6.35a7.1 7.1 0 0 1 5.05 1.13c2.52 1.98 1.79 6.32 4.94 7.7 1.71-4.66 1.09-9.8-.08-14.5-.43-1.17-.84-3.44-2.55-2.69-6 1.64-12.18-.49-18.24.02Zm25.66 1.79c-1.35.88-1.63 2.63-1.73 4.12-.07 3.26 3.13 5.4 3.14 8.68.93 8.58.77 17.23.92 25.84-.25 3.44.38 7.24-1.59 10.28-3.07 4.8 1.75 11.74 7.3 10.81 1.9-.35 2.27-2.56 2.34-4.16.2-3.24-2.45-5.72-2.54-8.92-.25-4.89-.78-9.91.38-14.72a11.05 11.05 0 0 1 2.34 3.48 811.16 811.16 0 0 1 10.73 26.53c.58 1.46 1.12 3 2.22 4.15 1.54-.27 1.56-1.94 1.77-3.17.81-7.84.06-15.71.2-23.57.1-7.91-.21-15.84.15-23.75-.12-2.79 2.63-4.62 2.53-7.4 0-2.35-.25-5.52-2.76-6.54a9.9 9.9 0 0 0-6.37-.2c-1.29 1.46-1.6 3.54-1.37 5.41.21 2.65 2.4 4.65 2.51 7.32.3 4.19.71 8.52-.41 12.61-1.79-2.64-2.87-5.66-4.16-8.56a659.42 659.42 0 0 0-6.92-15.3c-.74-1.37-1.42-3.26-3.22-3.42-1.8-.21-3.82-.47-5.46.48ZM38.9 26.7c-2.48 2.32-2.82 5.96-2.86 9.16 0 4.85-.47 9.7-1.35 14.46-1.84 10.13-3.44 20.32-5.56 30.4-.5 3.14-3.53 5.36-3.28 8.67.04 1.5.11 3.59 1.88 4.07 4.41-.02 9.07-3.36 8.8-8.13.51-2.28-2.53-3.24-2.2-5.41.2-1.54.19-3.63 1.81-4.41a16.69 16.69 0 0 1 5.13-1.47c1.09-.16 2.37.59 2.35 1.8.7 2.8-2.26 4.68-2.2 7.4-.1 1.67.4 4.18 2.53 4.12a20.44 20.44 0 0 0 9.2-2.96c2.42-1.47 3.43-4.51 3.08-7.22-.9-1.62-2.7-2.73-2.84-4.74-2.04-9.91-3.82-19.89-5.68-29.84-.97-4.86-2.22-9.73-4.4-14.2-.74-1.6-2.8-3.2-4.4-1.7ZM9.1 33.5c-3.47 6.02-4.4 13.14-4.55 19.99 0 6.66.71 13.73 4.41 19.46 1.55 2.57 4.64 3.47 6.58 5.62 1.55 2.92.99 7-1.61 9.14-1.6 1.3-3.67-.2-4.43-1.73-1.77-3.41-1.7-7.48-3.59-10.85-1.88.3-1.72 2.69-1.97 4.13a72.31 72.31 0 0 0 1.52 17.57c.34 2.28 2.5 3.7 4.67 3.85 4.26.55 8-2.53 10.12-5.95 4.22-6.8 5.7-15 5.65-22.91.03-4.99-.49-10.26-3.23-14.55-1.58-2.57-4.53-3.65-6.76-5.5-2.29-2.2-2.2-5.9-1.22-8.71.35-.98 1.49-2.4 2.6-1.48 2.8 2.13 3.52 5.85 5.1 8.83l2.04.06c2.58-6.57 1-14.02-1.6-20.33-.97.25-1.93.52-2.89.82-1.6-.8-3.18-1.95-5.03-1.99-2.67.17-4.5 2.43-5.81 4.53Zm315.41-1.17c-3.23 4.83-4.02 10.8-4.2 16.5-.04 9.78 2.75 19.95 9.4 27.34a9.89 9.89 0 0 1 1.77 10.94c-2.32.1-4.08-1.62-5.11-3.51-2.56-4.24-2.17-9.58-4.56-13.84-.57-1.41-1.73.63-1.71 1.32-.54 5.5.25 11.04 1.1 16.46.6 4.7 3.9 8.52 7.65 11.15 2.07 1.49 5.07 2.5 7.35.83 3.36-2.63 4.35-7.12 5.02-11.12 1.27-9.37 1.13-19.4-3.07-28.06-2.17-4.93-8.32-7.7-8.26-13.62-.06-1.81.06-5.22 2.7-4.71 3.62 3.3 3.97 8.57 6.25 12.7a3.48 3.48 0 0 0 2.43-3.33c.52-6.28-.22-12.78-2.6-18.63-.31-1.6-2.01-.58-3.08-.57-1.5-1.19-2.94-2.63-4.84-3.17-2.59-.58-4.9 1.28-6.24 3.32ZM159.35 40.1c1.3-.58 2.59-1.15 3.9-1.71-.95-1.77-1.87-3.56-2.86-5.3-.6 2.3-.9 4.64-1.04 7Zm71.23 4.58 2.1 3.21c.02-2.75 0-5.5-.07-8.25-.65 1.68-1.33 3.36-2.03 5.04Zm55.57.82c.34 4.26.36 8.53.3 12.8l2.22.25c.03-4.66-.04-9.32-.37-13.96l-2.15.91ZM103.24 64.43c1.23 3.82-.03 7.63-1.78 11.04 2.14-1.22 3.93-3.1 6.47-3.5a99.37 99.37 0 0 1-4.7-7.54Zm44.2-.06c-.55 1.32-1.01 2.68-1.5 4.03 1.72-.2 3.45-.4 5.17-.64-1.22-1.13-2.39-2.33-3.67-3.4Zm22 2.2c-.78.08-1.28.5-1.5 1.24.5 1.3 3.2-.82 1.5-1.24Zm-99.1.97c.88 2.07 2.25 4 2.38 6.31.21 2.2-.4 4.34-1.05 6.4 3.2-.25 6.27.6 9.25 1.64-5.4-3.16-7.03-9.57-10.57-14.35Zm69.11 4.68c-2.47 4.1-3.93 8.96-3.65 13.78.02 1.65 1 3.04 1.86 4.37l2.37-.4c1.32-2.76 1.8-5.95 3.67-8.42 1.46-1.15 3.89-1.53 5.38-.25.23 1.28-.22 2.54-.6 3.75-3.83 10.55-7.7 21.09-11.45 31.67-.54 1.6-1.28 4.45.95 5.07 8.53.53 17.15-.56 25.63.72 2.61-2.41 3.32-6.17 3.82-9.53.15-2.62.52-5.4-.46-7.9-.56-1.56-3.33-2.84-4-.72-1.4 2.71-1.4 6.82-4.7 8.05-1.73.62-4.39 1.04-5.56-.7.08-2.13.97-4.12 1.61-6.13 3.33-9.27 6.6-18.56 9.94-27.82.77-2.25 2.01-5.75-.6-7.24-8.1.17-16.1 3.19-24.21 1.7Zm49.27-.84c-6-.05-12.03-.59-18.01.09-1.28.3-1.6 1.85-1.77 2.96-.44 2.72 3.07 3.66 3.3 6.2 1.04 5.8.6 11.7.9 17.56-.15 5.1-.1 10.23-.97 15.26-.32 1.84-2.3 2.75-2.88 4.44-.14 1.44.08 3.7 1.91 3.9 8.6.6 17.33-.75 25.85.97a32.6 32.6 0 0 0 3.5-11.6c.23-1.93.28-4.07-.77-5.78-.46-1.13-1.96-1.2-2.61-.24-1.52 2.48-1.7 5.74-3.94 7.77-1.96 1.74-4.8 1.7-7.25 1.48-.93-.14-2.14-.45-2.3-1.55a47.2 47.2 0 0 1-.49-10.56c.15-1.19.35-3.27 2.07-2.7 2.74.49 2.38 4.03 2.95 6.08-.1 1.04.81 1.47 1.73 1.4 1.79-1.5 1.95-4.02 2.3-6.17a44.7 44.7 0 0 0-.4-13.46c-.35-1.28-.81-3.05-2.45-3.04-1.83 1.53-1.4 4.16-2.01 6.23-.18 2.35-4.15 2.34-4.4.08-.33-3.6-.32-7.3.35-10.84 1.32-2.25 4.6-1.26 6.7-.98 3.28.56 3.91 4.25 5.56 6.54 1.59 1.05 2.84-.78 3.08-2.19.8-4.3.05-8.94-2.22-12.7-2.6.08-5.12.89-7.73.85Zm15.7 1.13a3.78 3.78 0 0 0-2.03 4.53c.66 1.5 2 2.58 2.68 4.07.51 1.58.5 3.26.56 4.9.07 6.33-.18 12.67-.22 19-.2 3.32.24 7.1-2.13 9.8-1.7 1.72-1.68 4.91.4 6.32 3 1.9 6.75 1.51 10.12 1.36 2.07-.2 4.87-.94 5.1-3.44.7-2.69-2.49-4.13-2.57-6.65-.24-3.53-.68-7.22.35-10.67 1.7-.46 3.14 1.12 3.55 2.64 1.61 5.22 1.2 11.04 3.9 15.92 1.9 3.33 6.33 3.46 9.62 2.57 2.45-.56 4.35-3.1 3.7-5.64-.81-1.52-2.8-2.33-3.04-4.17-.61-3.63-.45-7.56-2.4-10.83-1.02-1.78-3.21-2.59-4-4.52 1.23-1.55 2.92-2.78 3.67-4.66 1.42-3.5 1.48-7.5.36-11.1-1.3-4.12-4.9-7.53-9.19-8.3-3.72-.61-7.52.01-11.22-.71-2.38-.32-4.86-1.28-7.22-.42Zm-97.84 4.09c-2.35 3.82-3.87 8.35-3.62 12.86.26 1.7 1.55 4.73 3.67 3.76 2.2-2.4 2.04-6.18 4.36-8.5a4.22 4.22 0 0 1 5.52 0c-3.66 11-8.05 21.75-12.2 32.57-.49 1.46-1.1 3.73.57 4.65 8.52.53 17.11-.47 25.6.48 1.21-.13 1.83-1.34 2.35-2.29 1.92-4.05 2.3-8.7 1.78-13.11-.24-1.67-2.06-3.77-3.8-2.58-1.9 2.26-1.66 5.72-3.87 7.78-2.07 1.6-4.99 1.53-7.28.43 3.63-11.75 8.33-23.15 12.19-34.83.4-1.66.74-4.2-1.2-5-8.07.9-15.86 4.45-24.07 3.78Zm125.9-2.9a51.46 51.46 0 0 1 3.28 4.77 74.3 74.3 0 0 1 2.29-3.29c-1.9-.36-3.75-.9-5.57-1.49Zm25.37 2.23c2.51 1.93 4.84 4.68 4.46 8.07.2 2.44-1.67 4.2-3.38 5.62-.56 5.1-.32 10.24-.38 15.36-.01 2.57-.1 5.17.4 7.7 2.75-5.72 4.73-11.78 7-17.7 1.97-4.31.23-9.6 3.44-13.43-2.16-.57-4.52-.82-6.41-2.12-1.74-1.2-2.32-3.35-3-5.22l-2.13 1.72Zm-17.43 2.27c-.43 1.13-1.4 2.33-.8 3.6.89 1.9 2.76 3.33 2.99 5.52.82 6.78.19 13.6.07 20.4-.2 2.93.14 6.32-2.16 8.56-1.62 1.45-1.43 4.32.57 5.34 3.3 1.6 7.15 1.23 10.66.75 2-.42 4.78-.85 5.3-3.22.87-2.91-3.22-3.93-3.08-6.7-.23-7.73-.36-15.5.28-23.2-.02-2.19 2.13-3.2 3.25-4.76.52-1.68-.45-3.57-1.94-4.42-4.5-2.7-10.11-3.13-15.14-1.87ZM93 79.01c-3.45.98-7.48 2.1-9.54 5.27-1.14 2.95 3.06 3.68 3.16 6.34.87 6.31.28 12.71.47 19.06-.12 2.07.37 4.5-1.06 6.22-.9 1.33-2.56 2.9-1.5 4.61 1.14 1.8 3.53 2 5.45 2.2 3.39.12 6.98.08 10.1-1.4 2.04-.9 2.44-4.17.73-5.53-1.01-.95-2.22-1.93-2.21-3.46-.66-6.93-.5-13.9-.54-20.86.02-1.66 0-3.36.54-4.93.61-1.53 2.05-2.52 2.74-4a3.07 3.07 0 0 0-2-3.72c-2.07-.55-4.27-.22-6.34.2Zm68.17 20.95a8.91 8.91 0 0 1 8.1.23c-.12-6.46.37-13-.93-19.38-2.85 6.2-4.64 12.82-7.17 19.15ZM272.81 84.2c-1.95.96-1.73 3.42-1.9 5.26-.12 4.91-2.4 9.36-4.03 13.9-1.57 3.8-2.73 7.78-4.65 11.42-1.09 1.88-4.34 2.47-4.02 5.06.01 2.19 2.53 2.72 4.25 2.84 2.65.1 5.58.46 7.98-.92 1.52-.7 1.91-3.14.44-4.07-.56-.84-2.31-1.37-1.8-2.57.6-2.88 4.2-1.73 6.28-1.75 1.98.35 5.81.18 5.53 3.08-.89 1.23-3.22 2.01-2.6 3.86.3 1.74 2.25 2.06 3.69 2.25 4.04.4 8.2.67 12.2-.17 1.48-.3 3.22-1.46 2.77-3.2-.95-1.33-3.03-1.5-3.62-3.16-3.41-7.7-6.29-15.65-9.74-23.34-1.28-2.68-2.53-5.53-4.85-7.49-1.61-1.28-4.02-2.2-5.93-1Zm-208.8 3c-3.34 1.33-6.89 2.08-10.26 3.32-1.38.6-2.97 1.89-2.48 3.58.65.96 2.07.7 3.04 1.11 1.3 1.87.95 4.23 1 6.37-.1 4.53.14 9.06-.11 13.58.14 2.2-2.47 2.89-3.17 4.67.5 2.44 3.43 2.67 5.44 2.92 3.56.14 7.66.56 10.7-1.67 1.35-.78.98-2.75-.28-3.42-3-1.71-2.55-5.6-2.2-8.52 3.2-.5 6.7-.12 9.55-1.97 6.03-3.32 7.74-11.34 5.65-17.53a7.73 7.73 0 0 0-6.48-5.05C70.73 84.1 67.36 86 64 87.2Zm173.65-1.65c-.15 4.22-.84 8.49-3.17 12.1 2.78 3.23 3.73 7.46 4.32 11.57.3-6.38.42-12.77.3-19.15.06-1.64-.62-3.15-1.45-4.52Zm-40.59 4.56c.15 3.37.16 6.75 0 10.13 1.57.05 3.13.19 4.7.39-.12-4.29.15-8.57.2-12.85a19.52 19.52 0 0 1-4.9 2.33Zm-64.45-.47a239.52 239.52 0 0 1-3.95 10.9 8.17 8.17 0 0 1 9.37 2.1 288.2 288.2 0 0 0 2.91-7.9c-1.58-.15-3.31.02-4.74-.83-1.62-1-2.56-2.73-3.6-4.27Zm-29.82 7.2c-.02 4.27.02 8.54.34 12.8 1.66-3.95 3.1-7.98 4.67-11.94a35.87 35.87 0 0 1-5-.86Z"/><path fill="#000" d="M186.16 8.13c.44-1.4 2.04.21 2.28.96.63 1.99.4 4.4-1.14 5.94-2.74-.85-2.44-4.93-1.14-6.9Zm29.74 20.39c2.2.32 2.82 2.78 2.99 4.64.25 2.97.48 6.58-2.2 8.58l-1.58-1.27c.33-3.95-.84-8.25.8-11.95Zm29.84 2.13c1.5-.76 2.98.7 3.76 1.87 2.11 3.68 2.38 8.05 2.76 12.19.3 5.42.58 10.95-.6 16.3-.49 1.93-1.59 4.57-3.97 4.45-2.42-.33-2.37-3.28-2.48-5.14.08-9.67-.66-19.36-.18-29.02.18-.16.53-.5.71-.65Zm-62.53 16.29c.63-3.14.88-6.49 2.6-9.28 1.29 2.83 2.58 5.76 2.8 8.89-1.47 1.28-3.63.32-5.4.39ZM36.72 63.76c.42-4.43.8-9.01 2.5-13.18 1.44 3.27 2.14 6.82 2.64 10.35.77 2.74-3.35 2.85-5.14 2.83Zm180.13 16.86c1.46.18 3.15.51 3.53 2.2 1.1 3.1 1.08 6.69-.18 9.73-.53 1.51-3.1 2.37-4 .83-.28-4.25-.09-8.56.65-12.76ZM66.55 91.77c1.45-.65 3.43-.27 4.12 1.3 1.34 2.73 1.15 6.36-.8 8.76-1.01 1.07-3.51 2.2-4.18.27a39.38 39.38 0 0 1-.02-9.93l.88-.4Zm207.76 7.11c2.74 1.28 3.38 4.67 4.2 7.3-1.51 1.42-4.11.27-5.99.01-.97-2.44 1.08-4.99 1.8-7.31Z"/><path fill="#FDC800" d="M184.84 5c2.38-.75 5.54-.23 6.79 2.18a10 10 0 0 1 .05 7.96c-1.71 4.05-8.95 3.46-9.78-.97-.93-3.14-.47-7.73 2.94-9.16Zm1.32 3.13c-1.3 1.97-1.6 6.04 1.14 6.9 1.54-1.53 1.77-3.95 1.14-5.94-.24-.75-1.84-2.36-2.28-.96ZM135.97 21.6c1.68-.2 3.26-1.1 4.97-.94 2 3.03 2.15 6.9 1.87 10.42-.24 1.25-.84 3.83-2.56 2.76-1.39-1.8-1.63-4.96-4.28-5.42-1.78-.22-4.63-.71-5.41 1.42-.73 3.42-.23 6.96-.36 10.42 1.05.48 2.34.88 3.2-.2.88-2.14.3-4.78 1.85-6.66 1.68-.04 1.8 1.79 2.11 3.02.65 4.32.55 8.75-.05 13.07-.3 1.64-.61 3.59-2.22 4.45-1.34-1.47-1.03-3.63-1.46-5.44l-2.13-1.61c-1.6 2.09-1.3 4.82-1.33 7.3.07 1.96.02 3.99.64 5.88 2.14 1.12 4.9.5 6.83-.82 2.34-2.06 2.66-5.4 3.79-8.13l2.18.1c1.47 5.38-.3 10.96-2.25 15.98-7.05-.88-14.04 1.08-21.06 1.47-1.47-.17-1.3-1.91-1.26-3 .4-1.94 2.23-3.3 2.4-5.35 1.03-7.64.8-15.36.82-23.05-.07-2.27-.08-4.57-.58-6.8-.42-1.75-2.49-2.78-2.33-4.72.06-1.23.2-3.2 1.77-3.31 4.91-.76 9.93-.19 14.85-.85Zm13.09 6.37c1.88-3.55 4.98-6.93 9.15-7.48 2.44-.48 4.78.52 6.96 1.47 1-.3 1.98-.69 3.03-.82 2.69 3.08 3.12 7.54 2.83 11.47-.22 1.98-1.3 5.24-3.89 4.11-2.3-2.21-2.76-5.77-5.3-7.78a3.06 3.06 0 0 0-4.13.34c-2.5 2.65-2.83 6.52-3 9.99-.03 4.91.52 9.99 2.67 14.47.8 1.84 2.59 2.92 4.38 3.6 1.26-1.66 2.09-3.76 1.43-5.85-.97-.68-2.09-1.1-3-1.85-1.12-2.05-.56-5.09 1.62-6.19a12.13 12.13 0 0 1 9.6-.45c2.99.9 3.74 5.44 1.28 7.32-1.65 1.3-1.62 3.5-2.16 5.35-.99 3.83-3.17 7.6-6.77 9.49a9.91 9.91 0 0 1-10.71-.93c-4.15-3.15-6.1-8.32-7.03-13.29-1.3-7.7-.6-15.97 3.03-22.97Zm35.5-7.1c1.45-1.3 3.7-.6 4.72.89 2.57 3.59 3.84 7.9 5.15 12.07 2.14 7.71 4.06 15.49 6.2 23.2.4 2.57 3.97 3.73 3.1 6.62-.2 2.07-2.38 2.97-4.2 2.98a28.3 28.3 0 0 1-8.79-.92c-2.35-.76-3.02-4.28-1.05-5.82 1.3-.99 1.47-3.1.12-4.1-2.27-1.01-4.84-.69-7.26-.84-.64.97-1.65 1.92-1.41 3.2.75 1.6 2.81 2.85 2.25 4.83-.21 2-2.4 2.81-4.13 2.88-2.02.08-4.2.06-5.99-.99-1.18-1.28-1.22-3.72.16-4.9 1-1.06 2.13-2.1 2.52-3.56 1.37-4.23 2.35-8.58 3.5-12.87 1.23-4.98 2.82-9.96 2.84-15.14.04-2.62-.1-5.8 2.27-7.53Zm-1.35 26.07c1.78-.07 3.93.9 5.4-.4-.22-3.12-1.51-6.05-2.8-8.88-1.72 2.8-1.97 6.14-2.6 9.28Zm-74.04-24.26c1.93-1.1 4.3-.91 6.44-.74 1.86.15 2.93 2.06 2.78 3.8.31 2.66-2.67 4.07-2.76 6.63-.8 7.24-.36 14.55-.64 21.82-.22 5.42.37 11.09-1.62 16.26-2.65.1-3.53-2.65-4.8-4.45-3.58-5.61-6.66-11.55-10.69-16.85-1.88 3.84-1.34 8.32-1.2 12.47-.22 2.83 3.18 4.57 2.3 7.47-.41 3.99-5.2 5.89-8.7 4.97-2.4-1.1-2.39-4.53-1.2-6.53 1.05-1.78 1.88-3.7 1.9-5.8.46-8.86.88-17.76.19-26.6.07-2.43-1.96-3.98-2.81-6.04-.2-1.98.16-4.51 2.12-5.51a10.26 10.26 0 0 1 5.6-.81c1.95.47 2.7 2.57 3.71 4.06 3.02 4.92 5.57 10.16 9.1 14.74 1.69-.37 1.19-2.35 1.38-3.62-.01-2.92.42-6.18-1.53-8.63-1.47-1.9-1.38-5.01.43-6.64Z"/><path fill="#FDC800" d="M204.76 27.29c-1.51-1.64-1.06-4.55.92-5.58 2.19-.76 4.47.11 6.7.11 3.1.17 6.26-.84 9.3.05 3.27 1.27 5.42 4.53 6.05 7.89 1.18 5.15.53 10.95-3.02 15.05.93 1.84 2.75 3.1 3.55 5.02 1.48 3.51 1.33 7.4 2.03 11.1.4 1.8 2.54 2.78 2.57 4.74.06 1.6-.48 3.53-2.05 4.26-3.13 1.38-7.24 0-8.68-3.18-2.47-5.15-1.93-11.13-3.87-16.44-.37-1.18-1.66-1.58-2.57-2.23a43.9 43.9 0 0 0-.06 10.15c.04 2.5 2.62 4.23 2.2 6.82.04 1.51-1.32 2.65-2.74 2.73-2.8.31-5.78.05-8.34-1.18-2.08-.93-3.3-3.75-1.93-5.74 1-1.62 1.93-3.35 1.89-5.31.3-7.7 0-15.4-.11-23.1a8 8 0 0 0-1.84-5.16Zm11.14 1.23c-1.63 3.7-.46 8-.8 11.95l1.59 1.27c2.68-2 2.45-5.6 2.2-8.58-.17-1.86-.8-4.32-2.99-4.64Zm19.03-6.06c2.13-.62 4.4.07 6.58.04 4.1.26 8.69-.78 12.3 1.73 3.9 2.84 5.51 7.69 6.64 12.18a65.67 65.67 0 0 1 .94 22.52c-.62 4.07-1.53 8.34-4.21 11.6a7.5 7.5 0 0 1-7.5 2.67c-4.26-.9-8.45-2.24-12.83-2.48-2.26.1-3.43-2.34-3.18-4.32-.54-2.38 2.8-3.13 2.5-5.46.47-9.69.27-19.4-.03-29.1.06-1.98-1.83-3.12-2.47-4.83-.33-1.56-.25-3.61 1.26-4.55Zm10.81 8.19-.7.65c-.49 9.66.25 19.35.17 29.02.11 1.86.06 4.81 2.48 5.14 2.38.12 3.48-2.52 3.98-4.45 1.17-5.35.89-10.88.6-16.3-.4-4.14-.66-8.51-2.77-12.19-.78-1.17-2.26-2.63-3.76-1.87ZM77.45 25.4c1.51-2.26 4.66-2.12 7.05-1.87 1.84.04 2.8 1.9 2.86 3.54.56 3.33-2.98 5.42-2.87 8.69-.9 12.32-.1 24.7-1.22 37.01-.3 1.49-.5 4.46-2.72 3.74-1.8-1.46-2.54-3.87-3.82-5.76-3.21-5.24-5.84-10.83-9.2-15.97-.28.02-.84.06-1.11.1-1.11 4.41-.89 9.09-.65 13.6.03 2.48 2.58 4.16 2.24 6.7.28 4.38-4.37 7.75-8.44 6.94-1.8-.5-2.16-2.64-2.1-4.23-.13-2.93 2.38-5.15 2.44-8.07.62-7.46.66-14.96.64-22.44.01-3.58.06-7.2-.6-10.74-.82-2.32-3.2-4.16-2.46-6.9-.06-4.34 5.23-5.8 8.65-4.72 2.39 2.82 3.64 6.38 5.52 9.53 2.23 3.77 3.85 7.98 6.84 11.24.9-4.85 1.77-10.51-1.17-14.85-.93-1.69-.7-3.86.12-5.54Zm187.11-.83c6.07-.5 12.25 1.62 18.25-.02 1.7-.75 2.12 1.52 2.55 2.7 1.17 4.7 1.8 9.83.08 14.48-3.15-1.37-2.42-5.7-4.94-7.7a7.1 7.1 0 0 0-5.05-1.12c-2.1 1.43-1.37 4.21-1.53 6.35.25 2.87-.71 6.42 1.75 8.56.47-.2 1.42-.64 1.89-.85.22-2.49.37-5 .99-7.43 2.75.54 2.45 3.72 2.85 5.84.6 6.02.7 12.17-.66 18.1l-1.98-.03c-.36-2.1-.42-4.27-1.1-6.31-.34-1.08-1.66-2.51-2.73-1.38-.68 3.97-.24 8.06.02 12.06-.4 4.34 7.05 6.09 8.58 2.02 1.04-2.5 1.3-5.28 2.63-7.68 2.3 1.8 2.4 4.89 2.3 7.57a46.7 46.7 0 0 1-2.45 13.12c-6.18-3.5-13.36-4.3-20.05-6.4-1.95-.51-2.34-2.9-2.1-4.6.96-1.72 2.47-3.28 2.36-5.4.53-10.66.46-21.4-.63-32.03.02-2.6-2.92-4.07-2.67-6.68-.09-1.24.26-2.82 1.64-3.17Zm25.67 1.79c1.64-.95 3.65-.7 5.46-.48 1.8.16 2.48 2.05 3.22 3.42a659.42 659.42 0 0 1 6.92 15.3c1.29 2.9 2.37 5.92 4.16 8.56 1.12-4.1.7-8.42.41-12.6-.1-2.68-2.3-4.68-2.51-7.33-.24-1.87.08-3.95 1.37-5.4a9.9 9.9 0 0 1 6.37.19c2.51 1.02 2.76 4.19 2.76 6.54.1 2.78-2.65 4.61-2.53 7.4-.36 7.9-.05 15.84-.16 23.75-.13 7.86.63 15.73-.19 23.57-.2 1.23-.23 2.9-1.77 3.17-1.1-1.16-1.64-2.7-2.22-4.15a799.1 799.1 0 0 0-10.73-26.53 11.02 11.02 0 0 0-2.34-3.48c-1.16 4.8-.63 9.83-.38 14.72.09 3.2 2.75 5.68 2.54 8.92-.07 1.6-.44 3.81-2.35 4.16-5.53.93-10.36-6.02-7.29-10.8 1.97-3.05 1.34-6.85 1.6-10.29-.16-8.61 0-17.26-.93-25.84-.01-3.27-3.21-5.42-3.14-8.68.1-1.49.38-3.24 1.73-4.12Zm-251.33.35c1.6-1.5 3.67.1 4.4 1.7 2.19 4.47 3.44 9.34 4.41 14.2 1.86 9.95 3.64 19.93 5.68 29.84.14 2 1.95 3.12 2.84 4.74.35 2.7-.66 5.75-3.08 7.22a20.44 20.44 0 0 1-9.2 2.96c-2.13.06-2.63-2.45-2.53-4.12-.06-2.72 2.9-4.6 2.2-7.4.02-1.21-1.26-1.96-2.35-1.8-1.77.21-3.52.71-5.13 1.47-1.62.78-1.6 2.87-1.8 4.4-.34 2.18 2.7 3.14 2.2 5.42.26 4.77-4.4 8.1-8.8 8.13-1.78-.48-1.85-2.56-1.89-4.07-.25-3.3 2.78-5.53 3.28-8.67 2.12-10.08 3.72-20.27 5.56-30.4a79.19 79.19 0 0 0 1.35-14.46c.04-3.2.38-6.84 2.86-9.16Zm-2.18 37.05c1.79.02 5.9-.1 5.14-2.83-.5-3.53-1.2-7.08-2.65-10.35-1.68 4.17-2.07 8.75-2.5 13.18ZM9.1 33.5c1.3-2.1 3.14-4.36 5.8-4.53 1.86.04 3.43 1.2 5.04 1.99.96-.3 1.92-.57 2.9-.82 2.6 6.31 4.17 13.76 1.6 20.33l-2.06-.06c-1.57-2.98-2.29-6.7-5.09-8.83-1.11-.91-2.25.5-2.6 1.48-.98 2.8-1.07 6.5 1.22 8.7 2.23 1.86 5.18 2.94 6.76 5.5 2.74 4.3 3.26 9.57 3.23 14.56.05 7.91-1.43 16.1-5.65 22.9-2.13 3.43-5.86 6.5-10.12 5.96-2.18-.14-4.33-1.57-4.67-3.85a72.31 72.31 0 0 1-1.52-17.57c.25-1.44.09-3.83 1.97-4.13C7.8 78.5 7.73 82.57 9.5 85.98c.76 1.52 2.82 3.04 4.43 1.73 2.6-2.15 3.16-6.22 1.6-9.14-1.93-2.15-5.02-3.05-6.57-5.62-3.7-5.73-4.41-12.8-4.41-19.46.15-6.85 1.08-13.97 4.55-20Zm315.4-1.17c1.34-2.04 3.66-3.9 6.25-3.32 1.9.54 3.33 1.98 4.84 3.17 1.07-.01 2.77-1.03 3.08.57 2.38 5.85 3.12 12.35 2.6 18.63a3.48 3.48 0 0 1-2.44 3.32c-2.27-4.12-2.63-9.4-6.24-12.69-2.64-.51-2.76 2.9-2.7 4.71-.06 5.93 6.1 8.69 8.26 13.62 4.2 8.66 4.34 18.69 3.07 28.06-.67 4-1.66 8.49-5.02 11.12-2.28 1.66-5.28.66-7.35-.83-3.75-2.63-7.05-6.46-7.64-11.15-.86-5.42-1.65-10.96-1.11-16.46-.02-.7 1.14-2.73 1.71-1.32 2.4 4.26 2 9.6 4.56 13.84 1.03 1.89 2.8 3.62 5.1 3.51a9.89 9.89 0 0 0-1.76-10.94c-6.65-7.39-9.44-17.56-9.4-27.35.18-5.69.97-11.66 4.2-16.5ZM139.45 72.22c8.1 1.49 16.12-1.53 24.2-1.7 2.62 1.49 1.38 4.99.61 7.23-3.34 9.27-6.61 18.56-9.94 27.83-.64 2-1.53 4-1.6 6.13 1.16 1.74 3.81 1.32 5.55.7 3.3-1.23 3.3-5.34 4.7-8.05.67-2.12 3.44-.84 4 .73.98 2.5.61 5.27.46 7.89-.5 3.36-1.2 7.12-3.82 9.53-8.48-1.28-17.1-.19-25.63-.72-2.23-.62-1.49-3.46-.95-5.07 3.75-10.58 7.62-21.12 11.44-31.67.4-1.2.84-2.47.6-3.75-1.48-1.28-3.91-.9-5.37.25-1.88 2.47-2.35 5.66-3.68 8.43l-2.36.39c-.87-1.33-1.84-2.72-1.86-4.37-.28-4.82 1.18-9.67 3.65-13.78Zm49.27-.84c2.61.04 5.13-.77 7.73-.86a18.43 18.43 0 0 1 2.22 12.71c-.24 1.41-1.5 3.24-3.08 2.2-1.65-2.3-2.28-5.99-5.55-6.55-2.11-.28-5.4-1.27-6.71.98a39.25 39.25 0 0 0-.35 10.84c.25 2.26 4.22 2.27 4.4-.08.6-2.07.18-4.7 2-6.23 1.65-.01 2.1 1.76 2.45 3.04.9 4.42.87 8.98.41 13.46-.35 2.15-.51 4.67-2.3 6.18-.92.06-1.82-.37-1.73-1.4-.57-2.06-.22-5.6-2.95-6.09-1.72-.57-1.92 1.51-2.07 2.7-.17 3.52-.12 7.1.5 10.56.15 1.1 1.36 1.41 2.29 1.55 2.46.23 5.29.26 7.25-1.48 2.24-2.03 2.42-5.29 3.94-7.77.65-.96 2.15-.9 2.6.24 1.06 1.71 1 3.85.79 5.78a32.62 32.62 0 0 1-3.51 11.6c-8.52-1.72-17.25-.37-25.85-.96-1.83-.21-2.05-2.47-1.9-3.91.57-1.7 2.55-2.6 2.87-4.44.88-5.03.82-10.17.97-15.26-.31-5.85.14-11.77-.9-17.56-.23-2.54-3.75-3.48-3.3-6.2.16-1.11.5-2.66 1.77-2.96 5.98-.68 12-.14 18-.09Zm15.69 1.13c2.36-.86 4.84.1 7.22.42 3.7.72 7.5.1 11.22.7 4.29.78 7.88 4.2 9.2 8.32a16.66 16.66 0 0 1-.37 11.1c-.75 1.87-2.44 3.1-3.66 4.65.78 1.93 2.97 2.74 3.99 4.52 1.95 3.27 1.79 7.2 2.4 10.83.24 1.84 2.23 2.65 3.05 4.17.64 2.53-1.26 5.08-3.71 5.64-3.29.9-7.73.76-9.62-2.57-2.7-4.88-2.29-10.7-3.9-15.92-.4-1.52-1.84-3.1-3.55-2.64-1.03 3.45-.59 7.14-.35 10.67.08 2.52 3.26 3.96 2.56 6.65-.22 2.5-3.02 3.25-5.09 3.44-3.37.15-7.13.55-10.11-1.36-2.09-1.4-2.12-4.6-.41-6.33 2.37-2.7 1.93-6.47 2.13-9.79.04-6.33.29-12.67.22-19-.07-1.64-.05-3.32-.56-4.9-.69-1.49-2.02-2.56-2.68-4.07a3.78 3.78 0 0 1 2.02-4.53Zm12.44 8.11c-.74 4.2-.93 8.51-.64 12.76.9 1.54 3.46.68 3.99-.83a13.84 13.84 0 0 0 .18-9.72c-.38-1.7-2.07-2.03-3.53-2.21ZM106.58 76.6c8.21.67 16-2.87 24.06-3.78 1.95.8 1.61 3.34 1.2 5-3.85 11.68-8.55 23.08-12.18 34.83 2.3 1.1 5.2 1.17 7.28-.43 2.22-2.06 1.97-5.52 3.87-7.78 1.74-1.2 3.56.91 3.8 2.58.52 4.4.14 9.06-1.78 13.11-.52.95-1.14 2.16-2.34 2.29-8.5-.95-17.09.05-25.61-.48-1.67-.92-1.06-3.2-.57-4.65 4.15-10.82 8.54-21.57 12.2-32.57a4.22 4.22 0 0 0-5.52 0c-2.32 2.32-2.16 6.1-4.36 8.5-2.12.97-3.4-2.06-3.67-3.76-.25-4.51 1.27-9.04 3.62-12.86Zm133.84 1.6c5.03-1.26 10.64-.83 15.14 1.87 1.5.85 2.46 2.74 1.94 4.42-1.13 1.56-3.27 2.57-3.25 4.75-.64 7.7-.5 15.48-.28 23.2-.14 2.78 3.95 3.8 3.09 6.7-.53 2.38-3.32 2.81-5.3 3.23-3.52.48-7.38.84-10.67-.75-2-1.02-2.2-3.89-.57-5.34 2.3-2.24 1.96-5.63 2.16-8.56.12-6.8.75-13.62-.07-20.4-.23-2.19-2.1-3.63-3-5.53-.59-1.26.38-2.46.8-3.59ZM93 79.01c2.08-.42 4.28-.75 6.36-.2 1.53.44 2.42 2.2 2 3.72-.7 1.48-2.14 2.47-2.75 4-.54 1.57-.52 3.27-.54 4.93.04 6.95-.12 13.93.54 20.86 0 1.53 1.2 2.51 2.21 3.46 1.71 1.36 1.31 4.62-.72 5.54-3.13 1.47-6.72 1.51-10.11 1.4-1.92-.22-4.3-.4-5.44-2.21-1.07-1.7.6-3.28 1.49-4.6 1.43-1.74.94-4.16 1.06-6.23-.19-6.35.4-12.75-.47-19.06-.1-2.66-4.3-3.39-3.16-6.34 2.06-3.17 6.09-4.29 9.54-5.27Zm179.81 5.19c1.9-1.2 4.32-.28 5.93 1 2.32 1.96 3.57 4.81 4.85 7.49 3.45 7.7 6.33 15.64 9.74 23.34.59 1.67 2.67 1.83 3.62 3.16.45 1.74-1.29 2.9-2.76 3.2-4 .84-8.17.58-12.21.17-1.44-.19-3.4-.51-3.7-2.25-.61-1.85 1.72-2.63 2.6-3.86.3-2.9-3.54-2.73-5.53-3.08-2.07.02-5.67-1.13-6.27 1.75-.51 1.2 1.24 1.73 1.8 2.57 1.47.93 1.08 3.38-.44 4.07-2.4 1.38-5.33 1.02-7.98.92-1.72-.12-4.24-.65-4.25-2.84-.32-2.59 2.93-3.18 4.02-5.06 1.92-3.64 3.08-7.63 4.65-11.42 1.63-4.54 3.9-8.99 4.02-13.9.18-1.84-.04-4.3 1.91-5.26Zm1.5 14.68c-.7 2.32-2.76 4.88-1.79 7.31 1.88.26 4.48 1.41 6-.01-.82-2.63-1.47-6.02-4.2-7.3ZM64.02 87.21c3.34-1.2 6.7-3.1 10.39-2.61a7.73 7.73 0 0 1 6.48 5.05c2.1 6.19.38 14.2-5.65 17.53-2.86 1.85-6.35 1.47-9.55 1.97-.35 2.92-.8 6.8 2.2 8.52 1.26.67 1.62 2.64.29 3.42-3.06 2.23-7.15 1.81-10.71 1.67-2.01-.25-4.94-.48-5.44-2.92.7-1.78 3.3-2.47 3.16-4.67.26-4.52.02-9.05.12-13.58-.05-2.14.3-4.5-1-6.37-.97-.4-2.39-.15-3.04-1.1-.5-1.7 1.1-3 2.48-3.59 3.37-1.24 6.92-1.99 10.27-3.32Zm2.53 4.56-.88.4c-.37 3.27-.46 6.67.02 9.93.67 1.93 3.17.8 4.18-.27 1.94-2.4 2.14-6.03.8-8.77-.7-1.56-2.67-1.94-4.12-1.3Z"/></g><defs><clipPath id="a"><path fill="#fff" d="M0 0h347v128H0z"/></clipPath></defs></svg>