<svg xmlns="http://www.w3.org/2000/svg" fill="none" viewBox="0 0 518 128"><path fill="#1D1D1B" d="M68.03.43c5.66-.96 13.3 1.95 13.8 8.43.04 5.67-6.08 9-11.15 9-5.06.26-11.25-2.57-11.93-8.12-.48-5.15 4.64-8.77 9.28-9.3ZM424.17 0h26.43l-.01 79.16h-26.41c-.02-26.39-.02-52.77 0-79.15Zm67.45 0H518c0 25.5.01 50.98-.02 76.47-8.99 3.44-18.72 4.16-28.27 4.18-8.18.02-16.8-1.06-23.82-5.58a23.73 23.73 0 0 1-10.25-14.95c-1.67-7.65-1.15-16.05 2.72-22.98a25.93 25.93 0 0 1 14.25-11.89c6.09-2.1 12.7-1.98 19.01-1.05V0Zm-8.7 41.66a35.53 35.53 0 0 0 .25 20.03c1.07 3.57 5 5.04 8.44 4.28.02-9.8.03-19.58 0-29.37-3.75-.83-7.75 1.24-8.7 5.06ZM7.16 17.64c5.64-6.76 14.79-9.53 23.36-9.39 6.69.17 13.67.96 19.6 4.27-1.68 4.1-3.12 8.27-4.73 12.38-5-2.28-10.76-3.93-16.22-2.36-2.56.7-4.97 2.91-4.85 5.75-.03 3.04 2.65 5.09 5.11 6.32 6 3.03 12.9 4.78 17.71 9.74 4.76 4.75 5.93 12.13 4.42 18.5-1.6 6.38-6.51 11.52-12.34 14.34-6.1 3.08-13.09 3.78-19.83 3.38C13 80.25 6.49 79.4.68 76.55c1.74-4.7 3.3-9.47 5.18-14.13a28.33 28.33 0 0 0 14.9 3.17c2.96-.24 6.35-1.66 7.29-4.75.89-2.74-.82-5.52-3.1-6.95C19 50.05 11.6 48.42 6.7 43.03c-6.39-6.93-5.5-18.47.46-25.4Zm207.25-7.79c9.12-.2 18.25-.03 27.37-.08 1.9 12.81 4.01 25.6 5.7 38.44 2.18-12.96 5.8-25.62 8.64-38.44h19.22c2.87 12.95 6.36 25.78 8.62 38.86-.02-3.6.62-7.16 1.15-10.7 1.46-9.38 2.9-18.77 4.37-28.16H315l-17.48 69.38c-8.17.02-16.34.02-24.52 0-2.29-7.87-4.54-15.76-6.83-23.64a46.8 46.8 0 0 1-1.53-7.76c-1.97 10.63-5.42 20.92-8.07 31.4-8.17.02-16.35.02-24.52 0-5.92-23.08-11.64-46.23-17.64-69.3Zm123.15 13.82c8.59-1 17.75-.21 25.37 4.18a25.6 25.6 0 0 1 12.12 16.04c2.47 9.84.43 21.38-7.2 28.5-6.94 6.56-16.94 8.66-26.22 8.21-8.91-.27-18.24-3.47-24-10.59-7-8.72-7.75-21.6-2.99-31.53 4.22-8.7 13.58-13.74 22.92-14.81Zm4.34 14.67c-2.85 2.06-2.87 6.04-3.21 9.21-.11 4.99-.5 10.26 1.46 14.97.97 2.53 4.62 3.38 6.47 1.3 2.17-2.6 2.18-6.23 2.42-9.46.05-4.57.3-9.34-1.36-13.69-.77-2.3-3.63-3.68-5.78-2.33Zm38.08-10.86c13.14-4.65 27.44-4.7 41.2-3.62l-4.4 15.65c-3.25-1.45-6.83-2.2-10.38-1.65l-.01 41.3h-26.4c-.02-17.23-.01-34.45-.01-51.68ZM59.51 24.79h21.53v54.37H59.51V24.79Zm40.59 4.66c7.51-4.3 16.47-4.94 24.94-4.56 6.34.37 12.76 1.15 18.71 3.47-.02 17.08.03 34.16-.03 51.24.03 5.3-1.94 10.73-5.99 14.28-5.67 5.06-13.53 6.68-20.92 7-8.74.19-17.62-.62-25.9-3.56 1.36-3.11 2.69-6.25 4.01-9.39a50.85 50.85 0 0 0 18.94 2.67c3.53-.24 7.46-1.2 9.66-4.22 2.24-3.04 1.58-7 1.67-10.52-5.29 2.32-11.27 2.38-16.92 1.72-6.57-.92-12.98-4.36-16.57-10.06-4.4-6.86-4.63-15.6-2.7-23.3a23.6 23.6 0 0 1 11.1-14.77Zm10.79 7.03c-3.6 4.3-4 10.23-4.11 15.6.05 5.16.44 10.92 4 15 3.58 3.97 9.78 4.09 14.42 2.08 0-11.64-.02-23.28 0-34.93-4.64-2-10.81-1.8-14.31 2.25Zm43.61-8.02c10.18-3.22 21-4.04 31.6-3.52 6.06.46 12.49 1.37 17.45 5.15 3.36 2.5 4.96 6.74 4.94 10.83.03 12.25.01 24.5.01 36.75h-18.6c0-12 .02-24-.01-36 .14-2.9-1.47-5.85-4.2-6.97-4-1.64-8.5-1-12.54.14 0 14.28.01 28.56-.01 42.84-6.21-.02-12.42 0-18.64-.01V28.46Z"/><path fill="#008ACC" d="M0 90.75c30.17.02 60.35-.03 90.52 0-1.16 2.76-2.33 5.5-3.5 8.25 8.46 3.58 17.72 4.77 26.84 4.87 6.34.05 12.81-.73 18.69-3.26 4.7-1.97 8.89-5.34 11.37-9.83 124.45-.07 248.9-.02 373.34-.03V128c-166.97 0-333.94 0-500.9-.04-4.14.07-8.46-1.22-11.4-4.23-3.34-3.36-4.92-8.19-4.96-12.86V90.75Zm241.65 8c-2.68 1.89-3.64 6.02-1.6 8.69 2.33 2.79 6.4 2.83 9.08 5.1 1.59 1.5.89 4.3-.94 5.28-2.66 1.57-5.9.76-8.62-.21l-1.26 2.96c4.29 1.53 9.51 2.18 13.53-.4 3.06-1.88 4.19-6.4 2.05-9.36-2.28-2.84-6.3-2.94-9.12-5-1.87-1.37-1.18-4.44.78-5.36 2.38-1.28 5.2-.5 7.57.38l1.16-2.67c-4-1.57-9-2.1-12.63.6Zm95.94-.57c.01 7.46.02 14.93 0 22.4 5.88 1.93 13.85 2.43 18.02-3.02 3.4-5.12 3.4-12.92-.97-17.49-4.56-4.18-11.54-3.7-17.05-1.9Zm146.92 0v22.4c4.66 1.5 9.87 1.88 14.58.33 3.15-.96 5.25-4.54 4.13-7.73-.8-2.42-3.24-3.62-5.43-4.52 2.04-.77 4.3-2.07 4.64-4.45.74-3.1-1.79-5.85-4.62-6.6-4.34-1.25-9.06-.84-13.3.57Zm-218.24-.83c2.33 8.02 4.69 16.03 7.02 24.04h4.02c1.7-5.8 3.56-11.54 5.16-17.37 1.87 5.78 3.51 11.62 5.39 17.39l3.96-.03c2.33-8 4.65-16 6.95-24.02-1.44 0-2.89-.02-4.32-.04-1.64 6.21-3.5 12.4-4.7 18.72-1.64-6.27-3.58-12.46-5.37-18.68a498.6 498.6 0 0 0-3.32-.03c-1.8 6.28-3.88 12.49-5.36 18.85-1.33-6.33-3.08-12.56-4.62-18.83h-4.81Zm44.63 0v24.04h14.13v-2.78c-3.13 0-6.27-.02-9.4.01-.07-2.74-.05-5.47-.03-8.2h8.41v-2.74h-8.42c-.01-2.52-.01-5.04.03-7.56 3.14.02 6.28.02 9.42.02l-.01-2.79H310.9Zm60.15 0v24.03h14.13v-2.77c-3.11 0-6.23-.04-9.34.03-.17-2.73-.08-5.48-.1-8.22 2.81-.01 5.62.02 8.43-.04l-.01-2.68c-2.8-.04-5.61-.02-8.41-.03 0-2.53-.07-5.06.1-7.58 3.1.08 6.22.04 9.33.05v-2.79h-14.13Zm26.7 23.94a76 76 0 0 0 4 .1c-.03-6.2.08-12.4-.09-18.6 4.1 5.84 8.34 11.6 12.48 17.42.86 1.88 3.12 1 4.73 1.17V97.36h-3.95c0 5.83-.03 11.67.03 17.5-4.32-5.82-8.45-11.77-12.83-17.54a135 135 0 0 1-4.25 0c-.2 8 .03 15.99-.11 23.97Zm50.59.1c1.56 0 3.12 0 4.69-.08a94.4 94.4 0 0 1 2.51-6.42c3.17.05 6.35.05 9.52 0a93.2 93.2 0 0 1 2.53 6.41c1.7.09 3.42.1 5.14.08-3.3-8.01-6.68-15.99-9.97-24l-4.41-.03c-3.34 8.01-6.7 16.02-10.01 24.04Z"/><path fill="#008ACC" d="M342.42 99.93c2.53-.37 5.4-.61 7.57 1 2.63 1.9 3.18 5.43 3.14 8.46-.04 2.85-.46 6.12-2.79 8.08-2.26 1.8-5.4 1.71-8.06.97.12-6.17-.14-12.35.14-18.51Zm146.63-.16c2.32-.47 4.88-.82 7.07.3 2.49 1.27 2.53 5.57 0 6.8-2.17 1.1-4.7.88-7.05.9-.03-2.67-.02-5.33-.02-8ZM456.2 112.5c1.38-3.86 2.94-7.67 4.14-11.6 1.14 3.94 2.7 7.73 4.08 11.6-2.74.01-5.49.01-8.23 0Zm32.91-2.66c2.47.06 5.08-.12 7.39.95 2.99 1.31 3.07 6.37.07 7.71-2.34 1.13-5.02.78-7.48.31-.06-2.99-.08-5.98.02-8.97Z"/><path fill="#FFED00" d="M241.65 98.75c3.64-2.68 8.64-2.16 12.63-.59l-1.16 2.67c-2.38-.87-5.19-1.66-7.57-.38-1.96.92-2.65 4-.78 5.36 2.82 2.06 6.84 2.16 9.12 5 2.14 2.97 1.01 7.48-2.05 9.35-4.02 2.6-9.24 1.94-13.53.41l1.26-2.96c2.72.97 5.96 1.78 8.62.2 1.83-.97 2.53-3.77.94-5.26-2.68-2.28-6.75-2.32-9.08-5.11-2.04-2.67-1.08-6.8 1.6-8.69Zm95.95-.57c5.5-1.8 12.48-2.3 17.04 1.89 4.37 4.57 4.38 12.37.97 17.49-4.17 5.45-12.14 4.95-18.02 3.01.02-7.46.01-14.93 0-22.4Zm4.82 1.75c-.29 6.16-.03 12.34-.14 18.5 2.65.75 5.8.85 8.06-.96 2.33-1.96 2.75-5.23 2.79-8.08.04-3.03-.5-6.55-3.14-8.46-2.18-1.61-5.04-1.37-7.57-1Zm142.08-1.75c4.25-1.4 8.97-1.82 13.3-.57 2.84.75 5.37 3.5 4.63 6.6-.34 2.38-2.6 3.68-4.64 4.46 2.19.9 4.62 2.1 5.43 4.51 1.12 3.2-.98 6.77-4.13 7.73-4.7 1.55-9.92 1.17-14.58-.33v-22.4Zm4.55 1.6c0 2.66-.01 5.32.02 7.98 2.36-.01 4.88.2 7.05-.9 2.53-1.22 2.49-5.53 0-6.79-2.2-1.12-4.75-.77-7.07-.3Zm.06 10.06c-.1 3-.08 5.98-.02 8.97 2.46.47 5.14.82 7.48-.3 3-1.35 2.92-6.4-.07-7.72-2.31-1.07-4.92-.89-7.39-.95ZM266.27 97.35h4.81c1.54 6.27 3.29 12.5 4.63 18.83 1.47-6.36 3.55-12.57 5.35-18.85l3.32.03c1.79 6.22 3.73 12.41 5.38 18.68 1.2-6.33 3.05-12.51 4.69-18.72l4.32.04c-2.3 8.02-4.62 16.02-6.95 24.02l-3.96.03c-1.88-5.77-3.52-11.61-5.39-17.39-1.6 5.83-3.46 11.57-5.16 17.37h-4.02c-2.33-8.02-4.7-16.02-7.02-24.04Zm44.63 0h14.13v2.79c-3.13 0-6.27 0-9.41-.02a365.7 365.7 0 0 0-.03 7.55l8.42.01v2.73h-8.41c-.02 2.74-.04 5.47.03 8.21 3.13-.03 6.27-.01 9.4-.01v2.78H310.9V97.35Zm60.15 0h14.13v2.79c-3.11-.01-6.23.03-9.34-.05-.16 2.52-.1 5.05-.1 7.58 2.8.01 5.61-.01 8.42.03v2.68c-2.8.06-5.6.03-8.41.04 0 2.74-.08 5.48.09 8.22 3.1-.07 6.23-.03 9.35-.03l-.01 2.77h-14.13V97.35Zm26.71 23.95c.14-8-.08-15.98.1-23.98a135 135 0 0 0 4.26 0c4.38 5.77 8.51 11.72 12.83 17.54-.06-5.83-.03-11.67-.03-17.5h3.94v24.02c-1.6-.18-3.87.7-4.72-1.17-4.14-5.82-8.38-11.57-12.48-17.42.17 6.2.06 12.4.09 18.6a76 76 0 0 1-4-.1Zm50.58.09c3.31-8.02 6.67-16.03 10.01-24.04 1.47 0 2.93.01 4.4.03 3.3 8.01 6.68 15.99 9.98 24-1.72.03-3.43.01-5.14-.08a93.2 93.2 0 0 0-2.53-6.4c-3.17.04-6.35.04-9.52 0a94.4 94.4 0 0 0-2.51 6.4c-1.57.08-3.13.1-4.7.09Zm7.85-8.89c2.74.01 5.49.01 8.23 0-1.37-3.86-2.94-7.66-4.08-11.6-1.2 3.93-2.76 7.74-4.15 11.6Z"/></svg>