<svg xmlns="http://www.w3.org/2000/svg" fill="none" viewBox="0 0 441 128"><g opacity=".98"><path fill="#EF9721" d="M162.42.66c39.42-2.25 80.33.65 116.51 17.72 5.57 2.33 10.48 6.66 16.75 7.03 17.2 1.5 34.2 4.53 51.03 8.2 16.73-1.08 34.09 3.27 46.74 14.67l-7.87-.78a50.63 50.63 0 0 1 16.12 10.52c-26.69-.13-53.4.24-80.1-.15-41.22-23.91-91.4-35.65-138.31-23.42-9.97-13.25-23.54-25.9-40.78-27.71-17.02-.24-32.96 7.4-46.96 16.42 24.18 13.54 52.77 13.01 79.64 12.74-27.24 5.96-55.68 4.35-83.14.63 3.71 1.13 7.36 2.52 11.16 3.35 26.38 5.6 52.58 12.13 78.96 17.7-28.9-3-57.6-8.06-86.5-11.2-7.1-.88-14.4 3.69-14.7 11.23-9.65-8.23-23.59-6.2-33.47.45-.77-7.56 2.45-14.34 7.21-19.97 4.06-7.84 14.03-6.8 21.32-8.91 9.55-3.69 17.57-10.3 26.83-14.56C121.02 4.64 141.95 1.33 162.42.66Zm7.4 5.73c7.31 7.97 17.14 13.2 25.53 20 28.26-1.64 56.54-2.33 84.84-1.78a177.9 177.9 0 0 0-63.05-19.48c-15.7-1.8-31.9-3.02-47.32 1.26Z"/><path fill="#EF9721" d="M201.27 37.88c25.03-4.94 51.05-.67 74.53 8.68 7.15 2.9 14.23 6.29 20.06 11.44-11.53.02-23.05.1-34.58-.08-5.82-7.1-13.6-12.62-22.63-14.77 6.65 3.94 13.44 8.11 17.6 14.85-4.24-.35-9.52 1.55-12.58-2.35-5.04-4.84-11.41-8.37-18.43-9.05-7.75-1.26-14.95 2.5-21.73 5.66 3.39-5.27 8.16-9.4 13.37-12.83a242.2 242.2 0 0 0-15.6-1.55Z"/><path fill="#FAFAFA" d="M147.44 80.85c.45-3.31 5.35-2.25 6.18.34-6.4 3.17-4.42 11.2-4.99 17.04-.06-5.82-1.27-11.56-1.2-17.38Z"/><path fill="#EF9721" d="M28.53 114.73c2.36-2.02 5.55-1.86 8.45-1.86 16.18.12 32.36.04 48.56.06l.14 2.14c-19.04-.16-38.12.49-57.15-.34Zm331.22-1c19.03-1.78 38.27-.33 57.39-.78l-.06 2.12c-16.24.11-32.46-.04-48.7.1-2.96.17-5.88-.36-8.63-1.44Z"/><path fill="#FAFAFA" d="M108.69 65.92c1.4-4.31 5.6-3.92 9.04-3.84-.2 3.33 1.92 7.86-3.52 8.9.36-1.69 1.06-5.06 1.4-6.77-1.73.44-5.18 1.28-6.92 1.71Z"/><path fill="#FAFAFA" d="M112.23 67.27c.71.7.71.7 0 0ZM3.25 71.72c11.38-1.33 22.97-.2 34.42-.55a257.5 257.5 0 0 1-.16 5.5c-10.53.07-21.06-.01-31.59.05l-.02 4.97c8.35.1 16.7-.11 25.08.04 9.34-1.33 9.46 17.4.08 15.92-10.27.03-20.55.05-30.8-.1.03-1.3.13-3.86.17-5.14 10.5-.13 20.96.2 31.44-.13l.4-5.06c-8.3-.12-16.64.08-24.98-.04-8.31 1.35-9.31-11.72-4.04-15.46Zm77.29-.74c1.94.15 3.89.35 5.8.56-1.5 4.18-3.39 8.27-4.27 12.64.8 4.73 2.8 9.13 4.06 13.76-1.49-.14-4.47-.37-5.96-.49a912.7 912.7 0 0 0-3.57-10.3c-7.69.07-15.38.03-23.06.01.06 3.47.08 6.92.11 10.39-1.37.04-4.13.1-5.5.12.07-8.73-.2-17.46.11-26.19 1.32-.15 3.96-.45 5.28-.58.04 3.6.06 7.23.04 10.83 7.66-.02 15.31-.07 22.98.08a824.4 824.4 0 0 1 3.98-10.83Zm62.9-.1c2.31.37 4.98-.08 6.92 1.55 8.28 6.01 16.5 12.13 24.63 18.34.16-6.6.1-13.2.16-19.8l5.33.46c.32 8.87.1 17.77.04 26.67-2.9-.43-6.14-.26-8.37-2.5-6.08-4.56-12.34-8.93-18.24-13.75l-.3-.66c-.82-2.6-5.72-3.65-6.17-.34-.08 5.82 1.13 11.56 1.2 17.38l-5.2-.94c-.28-8.8-.1-17.61 0-26.41Zm48.05 3.49a6.12 6.12 0 0 1 6.07-3.16c10.3-.16 20.62-.02 30.91-.02l-.33 5.55a1878 1878 0 0 0-31.52.02l-.21 4.91c9.9.08 19.79.02 29.69.04-.06 1.3-.14 3.92-.2 5.22-9.86.64-19.78.06-29.69.29.2 1.25.55 3.78.75 5.04 10.47.39 20.94-.02 31.43.17 0 1.3.04 3.86.06 5.14-10.98-.08-21.98.49-32.94-.08-2.7.14-4.63-3.08-4.36-5.5-.1-5.87-.39-11.78.34-17.62Zm164.07-3.2c10.14.02 20.27-.1 30.41.02 9.4-1.04 9.48 15.27 1.06 16.72 1.26 3.25 2.42 6.54 3.69 9.81-2.1-.07-4.2-.15-6.28-.25a582.45 582.45 0 0 0-3.56-10.35c-6.63.1-13.26.08-19.9.04.03 3.6-.01 7.2-.03 10.8-1.37-.12-4.1-.35-5.45-.5.08-8.75.02-17.53.06-26.29Zm5.43 5.5-.02 5.06c8.8-.06 17.63.04 26.44-.1-.02-1.2-.04-3.66-.04-4.87-8.79-.12-17.6-.02-26.38-.08Zm-265.59 21c1-8.33-2.38-17.92 2.03-25.42 6.9-2.41 14.53-.35 21.75-1.06 4.27.45 10.69-1.74 13.08 3.12.92 7.72.23 15.54.37 23.3-1.3.06-3.86.2-5.16.25-.06-3.57-.1-7.11-.08-10.66-8.86-.02-17.7 0-26.57-.02.04 3.45.08 6.92.1 10.39l-5.51.1Zm4.99-16.07c8.98.21 17.98.07 26.98.1.02-1.61.04-3.24.08-4.85-8.63-.15-17.26-.37-25.86-.02a14.89 14.89 0 0 0-1.2 4.77Zm159.41 2.56c.38-4.44-1.58-11.58 4.46-12.81 11-.47 22.05-.06 33.07-.16l-.45 5.35c-10.45.3-20.95.1-31.42.06a325.2 325.2 0 0 0-.1 15.77c10.6.53 21.46-.92 31.87.71l-.14 4.76c-11.57-.78-23.3.69-34.77-.8-3.82-3.18-2.1-8.58-2.53-12.88Zm48.16-8.15c-.2-2.78 2.75-5.15 5.43-4.76 8.53-.2 17.08-.16 25.61-.04a5.39 5.39 0 0 1 5.95 4.88c.43 7.21.07 14.42.13 21.63-7.74 2.43-5.21-6.09-5.55-10.56-8.82.06-17.65 0-26.47.04 0 3.49 0 6.96-.02 10.45l-5.18.03c.02-7.23-.25-14.46.1-21.67Zm5 .86.14 4.8c8.84.06 17.7.04 26.57.02l-.16-4.93c-8.84-.06-17.7-.2-26.55.11Zm96.35 10.25c-8.67.61-8.5-16.63.18-15.91 10.4-.18 20.8-.02 31.22-.02l-.47 5.37c-10.47.37-20.97-.08-31.46.25v4.8c9.36.36 18.75-.29 28.1.34 5.38 2.49 5.6 13.23.03 15.48-11.1.41-22.26.35-33.38 0l-.5-4.92c10.6-.43 21.2.33 31.8-.37l.8-4.84c-8.78-.3-17.55.08-26.32-.18Zm-179.51 23.6c7.22.06 14.44-.02 21.66.11.49 3.84.72 7.74 1.74 11.5l-5.88-.66.96-1.6c-5.02.43-10.08.39-15.12.33.04.76.12 2.29.14 3.07 6.7-.23 13.45-.23 20.04 1.18-7.06 4.11-15.75 1.53-23.55 2.1 0-5.35 0-10.7.02-16.03Zm3.5 3.17-.22 3.27c5.26.06 10.51.06 15.77.08l-.08-3.33c-5.16.02-10.31.02-15.47-.02Zm-42.03-2.88c6.94-.4 13.9-.26 20.87-.27 1.92 5.19 1.33 10.77 1.02 16.18-.8-.06-2.38-.2-3.18-.25 0-1.57 0-4.7.02-6.25-5.24 0-10.45 0-15.7-.06-.42 2.78.7 6.6-3.01 7.64a96.4 96.4 0 0 1-.02-16.99Zm3.45 3.08c-.35.72-1.08 2.15-1.45 2.88 5.7.33 11.43.27 17.16.23-.3-.78-.88-2.35-1.16-3.13-4.84-.3-9.7-.36-14.55.02Z"/></g></svg>