<svg xmlns="http://www.w3.org/2000/svg" fill="none" viewBox="0 0 307 128"><path fill="#fff" d="M32.3 14.47C33.99 9.13 36.4 3.75 40.7 0c5.28 8.16 9.3 17.68 8.74 27.58H307v76.38l-261.06-.01c.63 4.52 2.19 9.23.53 13.72-2.55 7.96-12.37 12.45-20.07 9.33-6.37-2.62-8.81-11.38-5.18-17.09 1.95-3.1 6.54-4.48 9.65-2.27 3.61 2.54 4.97 7.77 3.17 11.79-1.4 2.94-4.53 4.58-7.63 5.12a12.4 12.4 0 0 0 10.38.57c5.1-1.94 9.1-7.19 8.62-12.77-.3-2.82-.87-5.6-1.31-8.4l-44.1.01V27.58h30.26c.04-4.43.64-8.9 2.05-13.11Zm5.3-.91c-2.62 4.21-3.64 9.18-4.42 14.02 3.47-.03 6.95.05 10.43-.05 2.8-4.25 3.3-9.78 1.54-14.53-.6-1.52-1.97-3.16-3.78-2.93-1.75.45-2.8 2.1-3.76 3.49ZM1.1 28.67v18.05c8.06.02 16.12 0 24.18.02 2.05-2.25 4.28-4.33 6.4-6.52a49.38 49.38 0 0 1-1.42-11.54H1.1Zm32.23 10.3c3.3-3.28 6.66-6.55 9.44-10.3-3.27.01-6.55 0-9.82 0-.63 3.42-.2 6.91.38 10.3Zm6.96 7.76h151.37c.5-.88 1.2-1.9 2.34-1.85 1.29-.21 2.33.74 2.82 1.84h94.75V28.69H49.38c-.46 6.98-4.43 13.07-9.08 18.05Zm252.48 0h6.48V28.67h-6.47c-.02 6.02 0 12.03 0 18.05Zm-99.8-.06c.84.05 1.67.05 2.51.01-.44-.3-.78-.96-1.38-.9-.44.2-.77.58-1.13.9ZM1.1 47.83v17.74c3.83.01 7.67-.02 11.5.01 2.74-6.58 7.01-12.4 11.69-17.74-7.73-.02-15.46 0-23.19 0Zm38.15 0c-1.28 1.37-2.65 2.64-4.01 3.92.93 4.6 1.83 9.22 2.77 13.82h253.57V47.83h-94.75c-.54 1.25-1.85 2.25-3.26 1.78-.95-.15-1.44-1.04-1.9-1.78H39.25Zm153.73.04c.37.34.74.68 1.16.95.58-.08.93-.6 1.34-.96-.84-.03-1.67-.02-2.5.01Zm99.8-.04v17.74h6.46c.03-5.9 0-11.83.02-17.74h-6.48ZM21.8 65.56c4.78.02 9.56 0 14.35 0-.75-4.24-1.61-8.46-2.4-12.7-4.43 3.77-8.63 7.9-11.95 12.7ZM1.1 66.68c0 6.04.03 12.08 0 18.13 3.3.05 6.6 0 9.9.03-1.85-5.95-.99-12.41 1.15-18.17H1.1Zm19.94-.01c-3.46 5.32-5.79 11.75-4.83 18.16h8.6c-1.3-5.95 1.6-12.28 6.61-15.6 1.58-1.18 3.5-1.67 5.26-2.47-5.2-.2-10.43-.02-15.64-.1Zm22.48-.02a16.3 16.3 0 0 1 8.44 4.76c3.45 3.5 4.87 8.59 4.54 13.42h235.08V66.67c-82.68-.03-165.37.04-248.06-.03Zm249.26.02v18.15h6.46c.03-6.04 0-12.1.01-18.14h-6.47Zm-253 7.6L42 84.83h8.88c-.4-3.37-1.9-6.75-4.62-8.87a8.3 8.3 0 0 0-6.48-1.67Zm-8.56 3.83c-1.72 1.77-2.36 4.31-2.2 6.73 3.7 0 7.4-.02 11.1 0-.7-3.4-1.37-6.82-2.12-10.22-2.53.46-5.04 1.54-6.78 3.49ZM1.1 85.93l-.01 16.91c14.27.05 28.54-.03 42.8.01l-.24-1.74a15.02 15.02 0 0 1-5.64 1.55c-11.28 1.04-22.59-6.21-26.63-16.74-3.43.02-6.86 0-10.28.01Zm15.3.01a19.85 19.85 0 0 0 11.8 13.7c4.72 1.92 10.35 1.91 14.85-.62-.9-4.36-1.82-8.72-2.7-13.1-3.73.02-7.47 0-11.2.03.66 3.05 2.8 5.49 5.3 7.24-4.1-.57-7.96-3.25-9.35-7.25-2.9-.01-5.8-.02-8.7 0Zm25.82 0c.83 4 1.7 7.98 2.5 11.98 3.6-2.9 6.23-7.25 6.16-11.98-2.89-.02-5.77 0-8.66 0Zm14.09 0c-1.03 6.25-5.57 11.41-11 14.4.13.81.23 1.64.43 2.43 1.25.16 2.52.06 3.77.08h242.06V85.93H56.31Zm236.47 0v16.9h6.47v-16.9h-6.47Z"/><path fill="#fff" d="M159.13 53.2c.24-1.14.5-2.29.9-3.4.53.22 1.04.56 1.65.52h8.64c.69.07 1.24-.4 1.84-.65-.2 1.3-.14 2.65-.56 3.9-.57-.73-.64-2.11-1.75-2.23-.97-.22-1.97-.11-2.96-.14.1 3.8-.23 7.62.18 11.4l1.64.27.13.6c-2.19-.02-4.37.04-6.56-.01.3-1.08 2.1-.32 2.13-1.5.1-3.57.02-7.16.05-10.74-1.06.01-2.14-.13-3.16.18-.96.31-1.11 1.64-2.17 1.8ZM69 50.73c1.72-1.04 3.79-.73 5.63-.28.18 1.03.34 2.08.37 3.13-1.18-.5-1.25-2.2-2.56-2.55-1.47-.65-3.4.7-2.93 2.34.62 1.86 2.83 2.18 4.17 3.34 1.98 1.4 2.13 4.79.09 6.18-1.93 1.31-4.5 1.03-6.51.09-.3-1.17-.77-2.44-.23-3.61.88 1.21 1.44 2.9 3 3.4 1.49.68 3.43-.77 3-2.4-.5-2.42-3.5-2.61-4.79-4.44a3.53 3.53 0 0 1 .77-5.2Zm124.49.33 1.55-1.16c1.48 3.92 2.7 7.93 4.14 11.87.28.93 1.46.94 2.01 1.66-1.84.1-3.69-.01-5.53.08v-.65l1.23-.25c-.4-1.3-.8-2.63-1.36-3.89-1.18-.28-2.41-.1-3.6-.12-.45 1.3-.95 2.6-1.29 3.93.58.2 1.3.26 1.55.94-1.62-.1-3.35.32-4.88-.29.71-.41 1.85-.44 2.1-1.4a195.2 195.2 0 0 0 4.08-10.72Zm-1.26 6.6c1 .03 2 .03 3 0-.41-1.47-.94-2.9-1.44-4.33-.54 1.44-1.06 2.88-1.56 4.34ZM77.49 50.42c2.01-.16 4.04-.17 6.06.01-.47.41-1 .7-1.61.87-.33 1.7-.2 3.44-.13 5.17 2-1.35 3.4-3.39 5.06-5.11-.4-.31-.8-.63-1.18-.95 1.77-.14 3.56-.16 5.34.02-.8.75-2.01.75-2.86 1.43-1.43 1.14-2.63 2.53-3.95 3.78a98.4 98.4 0 0 0 5.01 6.34c.48.65 1.33.74 2.05.94v.6c-1.95-.33-4.07.4-5.92-.37l1.33-.54c-1.63-1.9-2.84-4.22-4.85-5.78a25.8 25.8 0 0 0 .08 5.74c.62.16 1.22.34 1.83.53-.8.62-1.83.34-2.75.37-1.15-.08-2.35.23-3.44-.25.69-.42 1.93-.5 1.76-1.6.12-3.43.25-6.9-.12-10.3-.6-.25-1.25-.42-1.71-.9Zm15.81.02c3.15-.27 6.33-.06 9.5-.12.1 1.08.21 2.16.14 3.24-.9-.6-.93-2.25-2.24-2.25-1.02-.07-2.24-.35-3.14.11-.3 1.55-.14 3.14-.1 4.7 1.03 0 2.08.13 3.1-.08.5-.37.53-2.1 1.2-1.4.1 1.45.03 2.9 0 4.35a24.3 24.3 0 0 1-.58-.2c-.12-.48-.26-.94-.43-1.4-1.03-.44-2.18-.18-3.26-.22-.08 1.63-.25 3.34.22 4.92 1.2.8 2.85.57 4.18.28 1.17-.27 1.25-1.86 2.4-2.15-.12 1.12-.42 2.2-.75 3.27-2.57.1-5.13-.22-7.7-.04-1 .02-2.07.25-2.98-.26.63-.35 1.34-.47 2.03-.65.39-3.45.13-6.95.16-10.41.09-1.03-1.15-1.17-1.76-1.69Zm15.3.89c-.66-.23-1.34-.44-1.88-.9 2.1-.18 4.22-.19 6.31 0-.48.5-1.16.67-1.77.91-.3 2.72-.07 5.46-.15 8.19.06.95-.2 2.16.62 2.87 1.3.27 2.73.4 3.98-.14.7-.66 1.04-1.63 1.9-2.12a16.9 16.9 0 0 1-.78 3.35c-2.51.1-5.02-.23-7.53-.03-.9.03-1.88.2-2.68-.3.64-.26 1.3-.44 1.93-.72.38-1.48.2-3.02.23-4.53-.05-2.2.16-4.4-.19-6.58Zm11.67-1.01c2.03.04 4.06-.1 6.08.1-.48.5-1.16.66-1.77.9-.3 3.39-.18 6.82-.08 10.22.02 1.03 1.2 1.02 1.97 1.07.89 0 1.9.09 2.66-.45.57-.68.97-1.47 1.59-2.1.2 1.19-.3 2.31-.62 3.44-3.28 0-6.56-.2-9.84.02l.01-.67 1.56-.28c.31-3.48.12-7 .14-10.48.13-1.03-1-1.05-1.7-1.23v-.54Zm13.51 0H143c.11 1.08.25 2.17.15 3.26-.64-.57-.87-1.45-1.47-2.03-1.23-.53-2.62-.3-3.92-.34-.2 1.63-.14 3.28-.1 4.93 1 0 2.01.09 3-.08.57-.47.6-1.37 1.29-1.75 0 1.65.36 3.39-.26 4.97-.3-.64-.49-1.3-.8-1.92-1.02-.4-2.17-.14-3.23-.17 0 1.6-.2 3.26.23 4.82 1.07.94 2.8.6 4.11.4 1.26-.24 1.34-1.89 2.52-2.25a14.5 14.5 0 0 1-.81 3.34c-2.47.08-4.93-.22-7.4-.06-1.03.04-2.08.16-3.1-.07.24-.77 1.21-.52 1.8-.82.42-.8.25-1.74.3-2.6-.06-2.68.08-5.37-.07-8.05.02-.8-.9-.88-1.45-1.08l-.01-.5Zm13.43.14c3.14-.3 6.3-.06 9.44-.15 0 1.1.02 2.2-.04 3.3-.85-.45-.76-1.68-1.58-2.13-1.18-.42-2.44-.24-3.66-.25-.06 1.7-.04 3.42-.03 5.13 1.1-.05 2.27.17 3.34-.2.38-.58.6-1.27 1.17-1.7.02 1.61 0 3.23.03 4.85-.67-.42-.8-1.23-1.2-1.85-1.1-.2-2.23-.1-3.34-.1.02 1.54-.1 3.1.06 4.64.16 1.13 1.8.43 2.22 1.42-2.1.14-4.18-.04-6.27.1v-.57c.48-.12.95-.27 1.42-.45.36-1.65.21-3.36.24-5.03-.04-2.05.14-4.12-.23-6.15a10.4 10.4 0 0 1-1.57-.86Zm27.89-.02c3.15-.26 6.33-.06 9.49-.12.12 1.08.23 2.16.2 3.26-.9-.6-.97-2.18-2.23-2.25-1.07-.21-2.17-.11-3.24-.1a79 79 0 0 0-.02 4.92c1.08.01 2.16.02 3.24-.14.19-.65.32-1.4 1.04-1.67.01 1.54-.03 3.08.03 4.62l-.67-.1-.33-1.56c-1.1-.16-2.22-.16-3.34-.13.07 1.63-.2 3.32.22 4.92 1.12.75 2.59.56 3.85.37 1.31-.17 1.72-1.63 2.6-2.42.2 1.2-.29 2.33-.63 3.44-2.68.11-5.37-.23-8.05 0-.87 0-1.83.2-2.57-.36.67-.24 1.4-.36 2.04-.69.18-3.7.23-7.46-.04-11.17a5.49 5.49 0 0 1-1.6-.82Zm63.98 18.86.67.73c3.18.1 6.37.04 9.56.04.72.09 1.28-.42 1.88-.73-.14 1.23-.2 2.48-.41 3.71-.88-.17-.62-1.54-1.43-1.85-1.1-.37-2.29-.18-3.42-.23-.08 2.74-.02 5.48-.04 8.22 0 1.02-.07 2.08.28 3.06.59.2 1.2.34 1.8.5l-.28.5c-2.13-.16-4.27-.06-6.4-.06.36-1.06 2.2-.36 2.2-1.6.17-3.53.08-7.08.03-10.62-.97.01-1.93-.04-2.88.08-1.1.14-1.47 1.36-2.11 2.09-.5-1.29.34-2.57.55-3.84ZM69 70.46c1.7-1.05 3.77-.7 5.6-.31.19.94.39 1.9.4 2.87-.84.38-.88-.78-1.29-1.2-.74-1.56-3.46-1.63-4.1.04-.49.98.14 2.1.95 2.68 1.2.86 2.71 1.29 3.7 2.43 1.34 1.5 1.3 4.1-.22 5.44-1.55 1.25-3.77 1.31-5.6.75-1.78-.33-1.91-2.73-1.37-4.1.77 1.16 1.3 2.65 2.62 3.3 1.03.49 2.53.3 3.12-.78.64-1.08.12-2.46-.8-3.2-1.3-1.03-3.05-1.55-4-3-1.06-1.55-.64-3.93 1-4.92Zm43.15-.39c3.14-.03 6.28.1 9.42-.06-.01 1.08 0 2.16-.06 3.24-.86-.34-.87-1.39-1.46-1.98-1.2-.5-2.55-.23-3.81-.3a38.64 38.64 0 0 0-.07 5.06c1.13 0 2.26 0 3.4-.04.3-.65.59-1.31 1.02-1.9a26 26 0 0 1 .09 4.91c-.7-.35-.77-1.17-1.02-1.82a19 19 0 0 0-3.45-.16c-.08 1.73-.26 3.54.25 5.2.65.23 1.32.36 1.98.55l-.6.41c-1.97-.02-3.95 0-5.93-.02.4-.62 1.13-.71 1.76-.93.26-2.5.08-5.02.14-7.53-.04-1.18.11-2.4-.18-3.56-.5-.35-1.08-.59-1.48-1.07Zm16.97-.07c2.3-.56 4.96-.22 6.78 1.39 2.64 2.4 2.91 6.9.68 9.67-2.89 3.52-9.32 3.23-11.63-.8-2.25-3.7-.21-9.35 4.17-10.26Zm.43.87c-1.4.52-2.26 1.93-2.53 3.35a9 9 0 0 0 1.06 6.64 3.88 3.88 0 0 0 5.04 1.3c1.46-.84 2.04-2.6 2.17-4.2.14-2.17-.24-4.58-1.78-6.23a3.77 3.77 0 0 0-3.96-.86Zm41.74-.87c2.21-.52 4.76-.27 6.58 1.2 2.96 2.39 3.26 7.33.69 10.1-2.98 3.3-9.15 2.86-11.41-1.05-2.21-3.71-.21-9.3 4.14-10.25Zm.42.89a4.45 4.45 0 0 0-2.5 3.41c-.41 2.29-.17 4.85 1.24 6.77 1.2 1.76 4.02 2.1 5.55.57 1.29-1.27 1.55-3.2 1.54-4.92-.12-1.88-.61-3.91-2.07-5.22a3.76 3.76 0 0 0-3.76-.61Zm57.69-.19c1.68-1.33 3.98-.97 5.93-.53.2 1 .31 2 .35 3.01-1.08-.25-1.1-1.62-1.99-2.15-1.33-.94-3.59-.19-3.58 1.61.34 2.3 3.09 2.6 4.5 4 1.67 1.39 1.83 4.25.19 5.7-1.58 1.36-3.9 1.39-5.79.79-1.66-.37-1.85-2.74-1.13-3.98.79 1.5 1.77 3.59 3.8 3.44 1.45.07 2.52-1.58 1.95-2.9-.8-2.07-3.4-2.3-4.66-3.97-1.25-1.42-1.13-3.87.42-5.02Zm-152.71-.63 5.84.01c-.4.4-.86.72-1.37.96.79 1.9 1.67 3.76 2.62 5.58.97-1.83 2-3.65 2.85-5.54a3.55 3.55 0 0 1-1.4-1.01c1.48-.02 2.98.05 4.47-.06l.04.54c-.68.26-1.5.42-1.9 1.1-1.03 1.47-1.85 3.08-2.74 4.63-1.1 1.8-.9 4.06-.51 6.06.7.18 1.65.03 2 .83-2.2.01-4.41-.04-6.62.03.31-.97 1.84-.47 1.93-1.56.16-1.72.28-3.59-.65-5.13-.94-1.68-1.7-3.47-2.67-5.13-.6-.5-1.4-.68-1.89-1.3Zm14.95.03c1.47-.07 2.93.01 4.4-.06.83 3.38 2.72 6.38 4.18 9.5 1.52-3.14 3.24-6.22 4.48-9.5 1.28.05 2.56.05 3.83-.03l.11.53c-.62.26-1.88.2-1.8 1.2-.05 3.3-.08 6.61.18 9.9.01.96 1.4.73 1.74 1.55-1.95-.04-3.9-.01-5.86-.03.37-.57 1.06-.73 1.61-1.07.2-3.02.05-6.05.06-9.06-1.75 3.53-3.38 7.13-5.12 10.67-1.54-3.63-3.29-7.16-4.8-10.8.08 3.1-.44 6.22-.03 9.3.63.21 1.3.4 1.78.9-1.58.12-3.16.02-4.74.12l-.16-.45c.56-.32 1.57-.33 1.6-1.16.38-2.42.35-4.88.53-7.32 0-1 .24-2.03-.1-3-.63-.4-1.32-.7-1.9-1.18Zm48.75-.07c1.27.06 2.55.06 3.82.02 2.33 3.4 5.34 6.25 8.07 9.31-.04-2.67.17-5.38-.33-8.02-.56-.52-1.32-.75-1.9-1.24 1.76-.05 3.52-.05 5.28 0-.57.6-1.82.72-1.85 1.72-.35 4 .19 8.05-.28 12.04-1.22-.92-2.1-2.18-3.12-3.3-2.19-2.45-4.3-4.98-6.52-7.4.04 2.68-.13 5.4.1 8.08-.08 1.07 1.05 1.25 1.83 1.5l-.15.47c-1.6-.08-3.2-.03-4.79-.04.28-.67 1.04-.74 1.63-1 .4-3.48.32-6.98.17-10.46a5.4 5.4 0 0 0-2.1-1.2l.14-.48Zm17.57-.03c1.84.12 3.68.12 5.52 0l.03.53c-.49.15-.96.33-1.41.54-.41 1.72-.16 3.5-.22 5.24.06 1.93-.17 3.87.17 5.78.56.38 1.23.56 1.83.87-1.93.47-3.95.03-5.92.28a18.3 18.3 0 0 0-.1-.5c.77-.24 1.84-.45 1.66-1.5-.04-3.44.22-6.89-.16-10.3l-1.48-.34.08-.6Zm24.8.38c2.62-.46 5.38-.62 8-.02a3.3 3.3 0 0 1 2.49 3.88c-.2 1.3-1.39 2.04-2.41 2.67 1.47 2.24 2.53 5.04 5.17 6.17-1.44.48-3.18.35-4.33-.7-1.53-1.31-2.1-3.33-3.36-4.85l-1.31-.25c-.07 1.57-.17 3.17.15 4.72.45.53 1.26.6 1.77 1.1-2.07.12-4.15.06-6.21.07.53-.8 2.06-.63 1.88-1.88.03-3.17.07-6.34-.02-9.5.02-.97-1.24-.9-1.82-1.41Zm4.28.51a49.35 49.35 0 0 0-.04 5.67c1-.05 2.13.06 2.93-.65 1.22-1.3.95-3.77-.62-4.69-.68-.45-1.52-.3-2.27-.33Zm10.82-.82h5.38l.58.3c-.47.43-1.52.31-1.66 1.06-.15 1.57-.06 3.17 0 4.75 1.96-1.37 3.41-3.34 5.01-5.11a23.9 23.9 0 0 1-1.11-1c1.75.19 3.68-.43 5.3.35-3.02.45-4.75 3.1-6.8 5.04 1.64 2.1 3.24 4.23 5 6.23.56.81 1.77.63 2.31 1.47-2.05 0-4.1.03-6.16-.02.4-.33.83-.64 1.26-.95-1.67-1.8-2.81-4.11-4.79-5.63-.11 1.89-.2 3.8.07 5.7.65.18 1.35.3 1.8.86-2.06.07-4.1.1-6.15-.03.64-.57 1.93-.7 1.75-1.81-.05-3.44.18-6.9-.14-10.31-.6-.21-1.3-.29-1.65-.9Zm16.04.46.03-.53c3.05.14 6.12.1 9.18.03.1 1.1.31 2.21.1 3.32-.58-.65-.83-1.58-1.5-2.13-1.26-.42-2.6-.2-3.9-.18a48.1 48.1 0 0 0 0 4.86 24.4 24.4 0 0 0 3.2-.14c.28-.63.34-1.47 1.13-1.68-.08 1.6 0 3.19-.08 4.78-.6-.47-.7-1.3-1.19-1.83-.99-.3-2.04-.2-3.06-.2-.03 1.66-.24 3.37.22 4.99 1.08.77 2.57.43 3.82.37 1.4-.07 1.55-1.88 2.77-2.26a20.5 20.5 0 0 1-.75 3.28c-3.59-.25-7.24.28-10.78-.27.66-.28 1.37-.45 2.04-.71.55-1.35.22-2.85.3-4.27-.08-2.18.18-4.39-.14-6.55-.02-.7-.97-.58-1.4-.88Zm39.31-.43c3.15-.08 6.3.04 9.45-.06.1 1.09.23 2.17.2 3.26-.71-.57-.94-1.55-1.64-2.1-1.25-.37-2.57-.18-3.85-.2-.02 1.64-.02 3.29 0 4.94a36.1 36.1 0 0 0 3.12-.15c.28-.65.47-1.4 1.13-1.78.07 1.5.03 3.02.04 4.53l-.59.04c-.22-.52-.18-1.2-.65-1.58-1-.24-2.03-.17-3.04-.18.11 1.69-.37 3.51.3 5.1.99.6 2.33.32 3.47.31 1.39-.02 1.96-1.39 2.58-2.39.78 1.05-.15 2.3-.36 3.39-3.53-.17-7.08.02-10.61-.1.44-.7 1.31-.65 2.02-.85.3-2.25.08-4.54.15-6.8-.06-1.43.14-2.88-.13-4.28-.5-.4-1.08-.72-1.59-1.1Zm13.03.27c2.62-.44 5.38-.62 8 0a3.31 3.31 0 0 1 2.48 3.95c-.22 1.26-1.39 1.95-2.37 2.6 1.47 2.12 2.37 5.04 5.03 5.97l-.22.42c-1.38.08-2.95.1-4-.94-1.55-1.3-2.07-3.37-3.37-4.86l-1.32-.2c.02 1.56-.17 3.17.2 4.7.44.53 1.28.57 1.77 1.08-2.07.13-4.15.07-6.22.07.55-.77 2.07-.66 1.88-1.89.03-3.3.12-6.6-.06-9.9-.54-.44-1.22-.64-1.8-1Zm4.31.49c-.16 1.89-.1 3.78-.06 5.67 1.07.01 2.38.1 3.14-.83.89-1.32.72-3.36-.6-4.34-.7-.56-1.64-.45-2.48-.5Z"/></svg>