<svg xmlns="http://www.w3.org/2000/svg" fill="none" viewBox="0 0 126 128"><g fill="#000" clip-path="url(#a)"><path d="M122.03 34.32c-2.53-2.24-6.23-3.36-11.1-3.36-1.2 0-2.25.01-3.17.04-.91.03-1.72.04-2.4.04h-1.04c-.45 0-.98-.03-1.59-.08.11 2.39.28 4.4.32 6.74.04 2.34.04 5.2.04 7.62 0 2.25 0 4.18-.04 6.49-.04 2.3-.22 4.89-.32 7.3h2.3c1 0 2.03.04 3.13.1 1.1.07 2.28.1 3.56.1a9.9 9.9 0 0 0 3.46-.55c1-.38 2.12-.97 3.34-1.79a16.69 16.69 0 0 0 5.42-5.84 15.17 15.17 0 0 0 1.9-7.4c-.01-4.04-1.28-7.17-3.8-9.41ZM119 54.58c-1.98.94-4.12 1.15-8.47 1.15-.42 0-.82-.01-1.2-.04a7.25 7.25 0 0 1-1.06-.16c-.11-1.8-.17-3.57-.19-5.3a818.42 818.42 0 0 1 .03-10.62c.03-1.73.06-3.7.11-5.36.32-.02 1.57.01 1.87.02 1.6.06 2.8.47 4.16 1.1a11.2 11.2 0 0 1 3.6 2.6 12.57 12.57 0 0 1 2.47 4c.6 1.54.91 3.25.91 5.1 0 2.43-.61 5.11-2.23 7.5Zm-47.6-2.87a13.31 13.31 0 0 0 2.69 4.34 12.25 12.25 0 0 0 3.94 2.82c1.5.68 3.08 1.02 4.76 1.02.92 0 1.75-.11 2.48-.32a6.79 6.79 0 0 0 2.13-1.07 37.17 37.17 0 0 0 4-3.34 19.61 19.61 0 0 0 2.85-3.46 14.6 14.6 0 0 0 2.32-8c0-2.15-.41-4.13-1.24-5.95a12.32 12.32 0 0 0-11.04-7.34c-.76 0-1.57.07-2.16.25-.6.16-1.2.54-1.77.83-3.26 1.83-5.69 3.64-7.39 6.13a14.91 14.91 0 0 0-2.53 8.59c-.01 1.98.31 3.82.97 5.5Zm3.93-10.81c.14-.81.32-1.56.55-2.25a10.73 10.73 0 0 1 1.71-3.27c.5-.55.68-.85 3.23-.83a10.94 10.94 0 0 1 10.21 7.02c.6 1.45.9 3.03.9 4.75a17.65 17.65 0 0 1-.62 4.64c-.17.67-.23 1.1-.47 1.82-.21.58-.38 1.1-.62 1.45-.24.35-.94.52-1.73.74-.79.23-1.8.34-3.03.34a9.67 9.67 0 0 1-7.44-3.38 11.55 11.55 0 0 1-2.15-3.8 14.43 14.43 0 0 1-.54-7.23ZM26.85 58.89l9.32-27.7-3.16.38-7.18 22.12-4.16-11.28L26.8 31.3l-3.34.2-3.15 7.12-2.5-7.27-5.2.13c.27.77.8 1.95 1.58 4.19.77 2.23 2 5.11 3.24 8.9l-3.77 9.13-7.72-22.27s-1.08-.08-2.5.03c-1.8.12-3.1 0-3.1 0C2.54 36.9 5.11 42.44 6.6 47.1c1.49 4.67 3.45 8.82 4.2 12.28 0 0 1.6-.23 2.1-.25.5-.02 1.65-.16 1.65-.16l4.25-10.82c1.25 2.87 3.95 10.4 4.16 11.24l3.88-.5Zm37.39-10.96c.4-1.3.58-2.72.58-4.23 0-2.15-.4-4.13-1.23-5.95a12.32 12.32 0 0 0-11.04-7.34c-.76 0-1.68.1-2.27.26-.59.18-1.13.52-1.71.82-3.34 1.67-5.65 3.63-7.34 6.12a14.9 14.9 0 0 0-2.54 8.6c0 1.98.33 3.82.98 5.5a13.3 13.3 0 0 0 2.68 4.34 12.25 12.25 0 0 0 3.94 2.82c1.5.68 3.09 1.02 4.77 1.02.91 0 1.74-.11 2.48-.32a6.79 6.79 0 0 0 2.12-1.07 37.24 37.24 0 0 0 4-3.34 19.63 19.63 0 0 0 2.85-3.46c.75-1.2 1.33-2.46 1.73-3.77Zm-4.24.84a21.93 21.93 0 0 1-.98 4 7.7 7.7 0 0 1-.68 1.5c-.24.34-.8.48-1.59.7-.78.22-1.8.34-3.03.34a9.65 9.65 0 0 1-7.43-3.38 11.53 11.53 0 0 1-2.15-3.8 14.42 14.42 0 0 1-.56-7.24c.15-.8.33-1.56.56-2.25.22-.69.48-1.31.78-1.87a12 12 0 0 1 1.2-1.7c.24-.31.44-.51 2.96-.53a10.96 10.96 0 0 1 10.21 7.02c.59 1.45.89 3.03.89 4.76 0 .85-.06 1.67-.18 2.45Zm-4.1 23.72a8.6 8.6 0 0 0-5.29-1.9 5.26 5.26 0 0 0-2.67.67 13.62 13.62 0 0 0-5.34 4.38 10.38 10.38 0 0 0-1.8 6.01c0 1.39.24 2.68.7 3.85a9.3 9.3 0 0 0 1.9 3.04 8.59 8.59 0 0 0 6.15 2.69c.65 0 1.23-.07 1.75-.22s1.02-.4 1.5-.75a25.85 25.85 0 0 0 2.83-2.34 14 14 0 0 0 2.02-2.43 10.25 10.25 0 0 0 1.65-5.6c0-1.5-.3-2.89-.88-4.16a8.93 8.93 0 0 0-2.52-3.24Zm-.01 10.96a12.84 12.84 0 0 1-.72 2.81c-.16.38-.3.63-.47 1-.17.23-.55.38-1.1.53-.56.16-1.28.24-2.15.24a6.83 6.83 0 0 1-5.26-2.37A7.98 7.98 0 0 1 44.67 83a10.05 10.05 0 0 1-.39-5.07c.1-.56.23-1.09.39-1.57a8.25 8.25 0 0 1 1.34-2.49c.22-.2.98-.38 2.15-.38a7.61 7.61 0 0 1 5.53 2.31 8.2 8.2 0 0 1 2.33 5.93c0 .6-.05 1.17-.13 1.72Zm25.83 7.25s9.11-.02 9.8.08l1.03-2.57-2.43.1c-.8.02-1.7.06-2.48.06h-2.19c-.03-1 .01-2.07-.02-3.18-.03-1.11.01-2.2.01-3.43h5.76l.8-2.25h-6.56c.02-1.38.04-2.58.04-3.6l.04-2.66h5.56l.8-2.15H81.72a199.75 199.75 0 0 1 .19 9.86 277.87 277.87 0 0 1-.18 9.74Zm19.91-6.57-.03-2.09c0-1.23 0-2.75.03-4.58.01-1.82.17-3.95.27-6.44l-4.16.3a191.7 191.7 0 0 1 .19 9.74 181.6 181.6 0 0 1-.2 9.74l9.92.15 1.18-2.61-7.05.27c-.04-1.84-.13-3.4-.16-4.48ZM64.4 71l-1.73 2.29c1.04-.07 1.86-.07 2.7-.07l2.33-.02.04 7.56c0 1.56-.06 3.36-.09 5a234.3 234.3 0 0 1-.15 5.08l4.12-.14a138.9 138.9 0 0 1-.15-4.62c-.03-1.64-.09-3.51-.09-5.37l.05-7.5h1.77a14 14 0 0 1 1.83.08l1.51-2.19c-1.9 0-4.11.08-6.13.06A147.3 147.3 0 0 1 64.4 71ZM24.46 81.86h7.62c0 1.49 0 3.06-.03 4.54l-.14 4.58 3.95-.34c-.17-1.7-.22-3.13-.24-4.76-.03-1.64-.09-3.41-.09-5.04 0-1.64.06-3.55.09-5.18.02-1.63.12-3.08.24-4.79l-3.95.23.14 4.27c.04 1.4.03 2.68.03 4.04h-7.62c0-1.19.04-2.39.07-3.79.02-1.4.1-3.1.18-4.8 0 0-.2-.03-1.62.09-1.42.1-2.34.1-2.34.1.12 1.8.18 3.1.2 4.73.04 1.64.1 3.51.1 5.19 0 1.67-.02 3.47-.05 5.12-.02 1.64-.17 3.16-.24 4.8l3.95-.2c-.05-1.5-.13-2.92-.17-4.38-.04-1.47-.08-3-.08-4.41Zm32.98-61.7 3.92-.3c-.06-1.5-.09-2.83-.13-4.28-.04-1.46-.06-3-.06-4.4h7.5a172.8 172.8 0 0 1-.22 9.07l3.94-.23a186.37 186.37 0 0 1-.19-9.86c0-1.64.02-3.27.04-4.9.03-1.64.08-3.29.15-4.96l-3.93.11c.2 1.26.16 2.63.2 4.03.04 1.4 0 2.93 0 4.28h-7.49a184.57 184.57 0 0 1 .2-8.43l-3.93.12a179.72 179.72 0 0 1 .19 9.85c0 1.68-.02 3.33-.04 4.97-.02 1.66-.07 3.3-.15 4.93Zm21.09-.14h9.8l.97-2.4-2.43.1c-.8.03-1.72.04-2.5.04h-1.98a224.13 224.13 0 0 1-.13-6.69h5.9l.81-2.25h-6.7c0-1.38.03-2.58.03-3.6.01-1.04.02-1.92.05-2.67h5.61L88.77.4H78.53a199.75 199.75 0 0 1 .19 9.85c0 1.62-.02 3.24-.04 4.85-.02 1.63-.08 3.26-.15 4.9ZM44.18 2.42l.03 7.76c0 1.56-.04 3.25-.07 4.9a234.3 234.3 0 0 1-.15 5.08l4.14-.3c-.17-1.41-.15-2.83-.18-4.46-.02-1.64-.12-3.28-.12-5.14l.08-7.84h1.77c.59 0 1.37.04 1.95.08L52.98.42A750.91 750.91 0 0 1 40.64.31l-1.68 2.22c1-.02 1.9-.08 2.75-.09l2.47-.02ZM92.7 122.48h4.88v-1.53H92.7v-3.62h5.04v-1.52H91v11.88h6.9v-1.52h-5.2v-3.7Zm-18.77-6.67h-1.7v11.9h1.7v-11.9Zm-21.43 6.67h4.87v-1.53H52.5v-3.62h5.04v-1.52H50.8v11.88h6.9v-1.52h-5.2v-3.7Zm24.97-5.17h4.08v10.4h1.71v-10.4h4.14v-1.51h-9.93v1.51Zm-14.27-1.5h-1.7v11.9h7.06v-1.56H63.2v-10.34Zm-23.33 8.8h-11.6v.96h11.6v-.96Zm-6.79-6.95a1.6 1.6 0 0 0-.95-1.51 3.07 3.07 0 0 0-1.3-.22H29.1v6.68h2.26c.5 0 .94-.09 1.28-.26a2 2 0 0 0 .77-.65c.17-.27.27-.57.27-.92 0-.43-.15-.8-.44-1.1a2.07 2.07 0 0 0-1.16-.61c.67-.28 1-.75 1-1.4Zm-.6 2.48c.13.17.19.35.19.56a1.02 1.02 0 0 1-.62.93c-.19.08-.54.13-1.06.13h-.95v-2.13h.9c.47 0 .82.05 1.04.13.22.08.4.2.5.38Zm-.71-1.65c-.22.2-.58.3-1.09.3h-.64v-2.01h.83c.81 0 1.22.32 1.22.96a1 1 0 0 1-.32.75Zm5.57-.26-1.8-2.3H34.4l2.47 3.15v3.53h.98v-3.53l2.47-3.15h-1.16l-1.81 2.3Z"/></g><defs><clipPath id="a"><path fill="#fff" d="M0 0h126v128H0z"/></clipPath></defs></svg>