<svg xmlns="http://www.w3.org/2000/svg" fill="none" viewBox="0 0 362 128"><g clip-path="url(#a)"><path fill="#B9A115" d="M110.3 32.23V1.01h-9.76V0h20.53v1.01h-9.76v31.22h-1ZM186.15 0h.9v32.23h-.9V0Zm-19.57 15.66h20.02v1h-20.02v-1ZM166.13 0h.9v32.23h-.9V0Zm68.23 15.06h14.67v1.01h-14.67v-1.01Zm-.6 17.17V0h17.93v1.01h-16.91v30.2h16.63v1.02h-17.64Z"/><path fill="#B9A152" d="M16.23 111.98h18.45c2.4 0 4.45-.36 6.13-1.08a8.02 8.02 0 0 0 3.88-3.33 10.2 10.2 0 0 0 1.36-5.32c0-1.95-.5-3.61-1.47-4.97a9.19 9.19 0 0 0-4.1-3.11 16.93 16.93 0 0 0-6.36-1.07h-17.9v18.88Zm0-32.34H32.2c2.02 0 3.78-.37 5.28-1.13a8.24 8.24 0 0 0 3.44-3.05 8.45 8.45 0 0 0 1.18-4.52c0-2.8-.9-4.94-2.7-6.45-1.8-1.5-4.5-2.26-8.1-2.26H16.22v17.41ZM.02 126.67V47.54h34.2c5.26 0 9.7.77 13.34 2.31a17.68 17.68 0 0 1 8.28 6.73c1.87 2.94 2.8 6.45 2.8 10.52 0 4.52-1.12 8.29-3.37 11.3-2.25 3.02-5.47 5.09-9.67 6.22l-.12-2.26a25.9 25.9 0 0 1 9.12 4.07 19.49 19.49 0 0 1 6.08 7 20.58 20.58 0 0 1 2.14 9.5c0 3.92-.64 7.37-1.92 10.35a18.61 18.61 0 0 1-5.63 7.4 26.17 26.17 0 0 1-8.72 4.47 38.3 38.3 0 0 1-11.2 1.52H.02Zm83.05-16.61 5.51-13.68h36.13l5.62 13.68H83.07Zm-14.3 16.61 30.84-79.13h15.08l30.72 79.13h-17.33l-15.87-42.62a344.25 344.25 0 0 1-3.6-10.63l-1.9-6.04a67.54 67.54 0 0 1-1.36-4.8l3.04-.12c-.45 1.73-.96 3.52-1.52 5.37l-1.74 5.65a109.7 109.7 0 0 1-1.92 5.6c-.67 1.8-1.31 3.58-1.91 5.31l-15.87 42.28H68.78Zm103.88-14.69h18.45c2.4 0 4.45-.36 6.14-1.08a8.02 8.02 0 0 0 3.88-3.33c.9-1.51 1.35-3.28 1.35-5.32a8.3 8.3 0 0 0-1.46-4.97 9.18 9.18 0 0 0-4.1-3.11 16.94 16.94 0 0 0-6.37-1.07h-17.9v18.88Zm0-32.34h15.98c2.02 0 3.78-.37 5.29-1.13a8.24 8.24 0 0 0 3.43-3.05 8.45 8.45 0 0 0 1.18-4.52c0-2.8-.9-4.94-2.7-6.45-1.8-1.5-4.5-2.26-8.1-2.26h-15.08v17.41Zm-16.2 47.03V47.54h34.2c5.25 0 9.7.77 13.34 2.31a17.67 17.67 0 0 1 8.27 6.73c1.87 2.94 2.81 6.45 2.81 10.52 0 4.52-1.12 8.29-3.37 11.3-2.25 3.02-5.48 5.09-9.68 6.22l-.11-2.26a25.9 25.9 0 0 1 9.11 4.07 19.5 19.5 0 0 1 6.08 7 20.58 20.58 0 0 1 2.14 9.5c0 3.92-.64 7.37-1.92 10.35a18.6 18.6 0 0 1-5.62 7.4 26.17 26.17 0 0 1-8.72 4.47 38.3 38.3 0 0 1-11.2 1.52h-35.34Zm85.97-47.59h39.95v14.47h-39.95V79.08Zm-7.88 47.6V47.53h53.23v14.92h-36.8v49.29h37.59v14.92h-54.02Zm97 1.12c-4.87 0-9.32-.6-13.33-1.8a33.9 33.9 0 0 1-10.7-5.32 41.73 41.73 0 0 1-8.38-8.48l10.58-12.1c3.68 5.13 7.33 8.62 10.98 10.46a25.83 25.83 0 0 0 11.87 2.77c2.32 0 4.4-.32 6.24-.96a9.9 9.9 0 0 0 4.33-2.77 6.32 6.32 0 0 0 1.58-4.3c0-1.2-.26-2.31-.79-3.33a8.56 8.56 0 0 0-2.25-2.71c-.97-.8-2.14-1.5-3.49-2.15a31.64 31.64 0 0 0-4.5-1.7 41.6 41.6 0 0 0-5.4-1.18 61.86 61.86 0 0 1-11.03-3.57 26.03 26.03 0 0 1-7.87-5.2 19.76 19.76 0 0 1-4.67-7.06 24.73 24.73 0 0 1-1.52-8.93c0-3.4.74-6.54 2.25-9.44 1.5-2.9 3.58-5.4 6.24-7.52a29.21 29.21 0 0 1 9.23-4.86 35.75 35.75 0 0 1 11.09-1.7c4.8 0 9 .55 12.6 1.64a29.5 29.5 0 0 1 9.4 4.7 27.17 27.17 0 0 1 6.7 7.46L350 70.15a27.63 27.63 0 0 0-5.12-5.32 20.04 20.04 0 0 0-12.55-4.3c-2.47 0-4.61.33-6.41.97a9.52 9.52 0 0 0-4.22 2.77 6.63 6.63 0 0 0-1.52 4.4 6.6 6.6 0 0 0 1.01 3.62 9.04 9.04 0 0 0 2.93 2.77 22.1 22.1 0 0 0 4.61 2.1c1.8.6 3.79 1.13 5.96 1.58a61 61 0 0 1 11.15 3.28c3.3 1.36 6.13 3 8.5 4.92a20.08 20.08 0 0 1 5.45 6.78 19.64 19.64 0 0 1 1.91 8.76c0 5.35-1.27 9.91-3.82 13.68a24.36 24.36 0 0 1-10.58 8.65c-4.5 2-9.75 3-15.76 3ZM68.92 14.35H0v1.24h68.92v-1.24Zm292.78 0h-68.92v1.24h68.93v-1.24Z"/></g><defs><clipPath id="a"><path fill="#fff" d="M0 0h362v128H0z"/></clipPath></defs></svg>