<svg xmlns="http://www.w3.org/2000/svg" fill="none" viewBox="0 0 291 128"><path fill="#F5DD5C" d="M87.36.64c3.45-2.32 7.91 2.12 6.5 5.7-.31.6-.67 1.17-1 1.76-.91.55-1.8 1.41-2.95 1.23-2.5-.14-4.4-2.53-4.55-4.95.03-1.48.96-2.76 2-3.74Zm10.6 2.69a4.83 4.83 0 0 1 3.69-2.64c1.64.02 3.22.96 4.1 2.36.67 1.76.72 3.8-.44 5.37-1.22 1.72-3.67 1.5-5.42.85-.77-.73-1.39-1.59-2.01-2.43-.05-1.17-.18-2.36.08-3.51ZM0 8.93c-.02-1.31.05-2.72.89-3.8 1.85-.17 3.62.4 5.41.7 1.94.08 3.84.5 5.77.55 3.1.72 6.3.85 9.46 1.15 1.36.22 2.7.65 4.09.64 1.66-.04 3.28.47 4.95.4 1.02-.03 1.93.5 2.76 1.03.4.85.3 1.84.38 2.75 0 4.8.04 9.6.04 14.39 0 2.54.2 5.17-.65 7.6a5.4 5.4 0 0 1-3.15 2.32c-.44-.32-.87-.65-1.3-.99-.44-4.33.24-8.75-.66-13.05a17.25 17.25 0 0 0-2.88-8.29c-.7-.88-1.83-2.1-3.05-1.41-.4.74-.24 1.64-.32 2.45-.04 6.45.07 12.89.1 19.33.05 1.65.43 3.26.37 4.92-.1 2.55.83 5.01.76 7.57-.02 1.28.37 2.52.36 3.8-.06 2.18.88 4.25.8 6.44.32 1.87.33 3.77.67 5.64a3.6 3.6 0 0 1-.4 2.2c-.55.87-1.73.34-2.58.49-4.02-.18-8.1.37-12.07-.42a6.03 6.03 0 0 1-.7-2.22c.28-2.78.58-5.55.82-8.32.71-2.48.53-5.06.96-7.57-.13-2.96.87-5.81.79-8.76-.06-1.79.37-3.54.38-5.32V14.23c-.01-.9.13-1.89-.44-2.67-1.37-.41-2.71.42-3.25 1.68-.2.43-.49.8-.78 1.17-.55 1.95-1.35 3.82-1.52 5.87-.21 4.04-.14 8.1-.17 12.15.04.73-.51 1.27-.8 1.9-.69.02-1.38.01-2.07-.01l-.56-.65a1.9 1.9 0 0 1-1.12-1.13l-.6-.6a17 17 0 0 1-.65-4.44C0 21.3 0 15.12 0 8.93ZM280.08 5.8c2.24-.52 4.57-.96 6.88-.7.78 1.58.24 3.34-.13 4.96-.7 1.7-1.26 3.44-2.02 5.12-.29.65-.67 1.25-.96 1.9-.97 2-2.2 3.86-3.4 5.72-.49.77-1.08 1.48-1.55 2.27a60.6 60.6 0 0 1-3.86 4.43 35.74 35.74 0 0 1 4.5 5.79c.93 1.44 2 2.77 3 4.16.25.53.54 1.03.91 1.5.83 1.67 1.86 3.24 2.67 4.94.44.98 1.04 1.9 1.33 2.96.8 1.16.9 2.64 1.71 3.78.38 1.88 1.33 3.57 1.51 5.48.1 1.66.63 3.36.1 5-.27 1.29-1.63 1.83-2.75 2.2-2.88.16-5.76-.06-8.64.15-1.07.02-2.24.26-3.2-.3-.51-2.03-.32-4.15-.5-6.22-.17-1.89.18-3.83-.38-5.68-.47-1.62-.52-3.32-.88-4.96-1.22-3.76-2.01-7.77-4.2-11.1a9.84 9.84 0 0 0-.92-1.55l-.51-1c-1.46 1.23-2.72 2.81-4.52 3.58.03 2.23.44 4.45.39 6.68-.1 2.2.82 4.28.78 6.49.3 1.73.3 3.52.9 5.2.4 2.03.51 4.12 1.04 6.14.17 1.04-.1 2.39-1.07 2.96-3.96.11-7.92.32-11.88.45-.9-.03-2.06-.13-2.59-.95-.27-2.62.23-5.25.95-7.76.2-1.63.49-3.25.61-4.89 1.14-4.6.92-9.37 1.37-14.06.16-6.07.1-12.14-.04-18.2-.05-3.3-.42-6.57-.26-9.85 0-.8.75-1.29 1.18-1.88 2.58-.13 5.14-.48 7.72-.66.67.1 1.42.62 1.29 1.39-.02 2.64.06 5.3-.13 7.93-.24 5.09-.27 10.17-.25 15.26 3.13-3.28 6.25-6.72 8.23-10.83a10.4 10.4 0 0 0 1.3-3.07c1.1-2.02 1.08-4.38 1.3-6.6-.03-1.81-.36-3.6-.26-5.42a24.9 24.9 0 0 1 5.23-.75ZM36.94 9.68c1.38-.34 2.78.05 4.17 0 2.3-.02 4.52.82 6.82.77 1.65-.04 3.25.45 4.9.37 1.83-.15 3.54.67 5.35.82 1.5.18 2.87.88 4.29 1.38 2.29 1.04 4.63 2.41 5.83 4.72 1.89 2.93 1.96 6.7.72 9.9-.45.62-.82 1.3-1.14 2-1.4 1.63-3.04 3.2-5.07 4l-.64.6c-1.6.35-2.9 1.5-4.55 1.74.72 1.01 1.67 1.82 2.54 2.7 3.24 3.79 6.42 7.76 8.32 12.42.77 1.2.85 2.72 1.68 3.89.27 1.22.62 2.41 1.08 3.57.4 1.76.72 3.55 1.04 5.33.17.91-.32 1.74-.62 2.56-1.53.67-3.22.38-4.83.43-2.88-.03-5.78.02-8.64-.4-1.69-1.6-1.08-4-1.2-6.05-.14-1.64-.46-3.27-.36-4.92.08-2.3-.64-4.52-.85-6.8-.18-.9-.26-1.85-.61-2.71-.59-1.3-.64-2.82-1.5-4l-.12-.64c-.59-1.13-1.22-2.23-1.84-3.33-1.81.02-3.27 1.23-4.96 1.7-.08 2.28.08 4.57.07 6.86.8 2.05.9 4.28 1.68 6.34.8 4.13 2.46 8 3.5 12.05-.15.6-.67 1.02-1 1.53-3.41-.02-6.83.01-10.26-.02-1.1-.04-2.27.02-3.24-.6-1.1-.42-1.31-1.76-1.4-2.8.1-4.17.45-8.33.48-12.5-.06-6.19.15-12.37.07-18.55 0-6.96-.1-13.91-.07-20.87-.02-.53.2-1 .36-1.5ZM49.2 15.4a7.27 7.27 0 0 0-2.35 3.34c-.14 1.55.01 3.1-.2 4.64-.16 4.13.1 8.27-.07 12.4a15 15 0 0 0 1.5-1l1.53-.57c.37-.3.74-.58 1.18-.76 2.53-1.34 5-3.19 6.35-5.77 1.23-1.95 1.15-4.39 1-6.6-.18-2.55-2.2-4.5-4.38-5.57a9.67 9.67 0 0 0-4.56-.1Zm186.02-4.73c1.83-.36 3.72-.09 5.55-.44 2.2-.42 4.43.04 6.53.68a9.07 9.07 0 0 1 3.29 3.38 8.5 8.5 0 0 1 0 5.3c-.67.93-1.1 2.08-2.13 2.68-1.45 1.25-3.48 1.24-5.28 1.07-.53-.82-1.27-1.61-1.2-2.65.03-1.55-.77-2.89-1.62-4.1-.66-.4-1.3-.81-1.95-1.22-1.07-.02-2.14-.01-3.21 0a11.07 11.07 0 0 0-3.46 3.83c-1 1.43-1.18 3.2-1.77 4.81-.27 2.92-.66 5.87-.32 8.81.39 2.78-.03 5.61.55 8.37.6 2.74.32 5.66 1.42 8.3.25 1.27.68 2.5 1.36 3.61.29.5.6.97.93 1.44.23 1.12 1.52 1.25 2.35 1.76 2.93 1.22 6.52-.4 7.88-3.2 1.65-3.12 1.45-6.76 1.98-10.16.12-.96 1.3-1 2.06-1.11 1.29.49 1.77 1.79 2.36 2.92.64 2.13.54 4.38.64 6.59-.16 2.27.02 4.58-.5 6.82-.66 2.86-2.05 5.87-4.82 7.23-1.65.48-3.28 1.22-5.03 1.12h-8.7c-1.72.12-3.28-.7-4.88-1.16-1.92-1.13-3.85-2.62-4.7-4.75l-.56-.56c-.61-1.86-1.53-3.6-1.73-5.58-.75-1.95-.6-4.05-.97-6.08-.05-4.2-.03-8.4 0-12.6.19-1.47.34-2.94.46-4.42.52-1.57.77-3.2 1.09-4.82 1.2-3.43 2.43-6.9 4.6-9.88.87-1.02 1.68-2.11 2.74-2.95 2-1.62 4.4-2.95 7.04-3.04Zm-43.34 3.35c4.27-.95 8.68-.98 13.04-.9 3.55.84 6.32 3.7 7.83 6.95 1.26 2.5 2.07 5.2 2.56 7.96.64 1.64.58 3.42.89 5.12-.01 3.05.52 6.06.42 9.11.06 2.8-.4 5.57-.42 8.36-.3 1.53-.3 3.12-.9 4.58-.7 3.37-2.08 6.73-4.6 9.14a3.94 3.94 0 0 1-2.24 1.5l-.72.59c-3.02.8-6.18.4-9.27.59-3.8-.03-8.07.74-11.38-1.66-2.73-2.18-4.25-5.53-5.1-8.86-.2-1.76-1.1-3.39-.97-5.2-.6-3.74-.23-7.53-.34-11.3-.13-2.05.41-4.06.4-6.11 0-1.07.42-2.07.64-3.1.24-1.44.37-2.94.96-4.29.5-1.2.5-2.6 1.33-3.67.17-.55.36-1.1.52-1.66l.6-.65a11.98 11.98 0 0 1 6.75-6.5Zm4.07 3.64c-.63.46-1.34.78-2 1.2-.62.66-.88 1.58-1.46 2.29a78.75 78.75 0 0 0-1.19 5.53c0 3.49-.26 7.02.42 10.47.5 2.08.14 4.22.6 6.3-.03 2.53.97 4.9 1.3 7.38.5.83.81 1.74 1.14 2.64 1.1 1.96 3.07 3.93 5.5 3.47 3.03-.39 4.54-3.6 4.72-6.35 1.12-4.58.6-9.35-.06-13.97.07-2.44-.4-4.84-.52-7.26-.55-1.66-.67-3.41-1.1-5.1-.37-1.03-.82-2.04-1.14-3.1a7.4 7.4 0 0 1-.77-1.1c-.61-1.07-1.7-1.66-2.62-2.4-.95-.02-1.88-.03-2.82 0ZM85.37 14.32a16.8 16.8 0 0 1 6.64-.78c4.92.56 9.88.09 14.8.72l.87 1.09c.11 4.94-.43 9.87-.36 14.81-.12 7.48.07 14.97.91 22.4.65 2.16.68 4.44 1.13 6.64.76 2.37 1.13 4.87.99 7.37-.82.45-1.7.83-2.64.76-3.17-.02-6.33-.09-9.49-.12-1 .01-1.97-.2-2.95-.4-.36-.8-.84-1.64-.57-2.54.8-3.1.66-6.36 1.45-9.47.32-1.38.07-2.82.35-4.21.37-1.82.12-3.67.3-5.5.25-2.45.34-4.91.46-7.37-2.27-.11-4.55.07-6.74.64-1.12.27-1.86 1.17-2.76 1.8-.36.66-.76 1.28-1.2 1.88-.74 2.58-1.4 5.26-.91 7.96.4 1.8.42 3.66.88 5.46.71 2.24 1.72 4.39 2.33 6.67.96 1.36 1.14 3.08 1.06 4.7-2.63.44-5.3.02-7.94.07-1.86-.13-3.8.3-5.57-.45-1.48-1.02-1.99-2.83-2.37-4.48-.02-6.51-.21-13.05.65-19.52.13-2.86.3-5.75 1.12-8.5.28-1.84.46-3.7 1.15-5.44.51-2.92 1.72-5.65 2.87-8.37.28-.36.53-.74.74-1.15a12.38 12.38 0 0 1 4.8-4.67Zm1.78 8.43-.58.7c-.39 1.92-1.3 3.68-1.47 5.65-.14 2.75-1 5.43-.8 8.2a53.44 53.44 0 0 1 5.43-3.66c.9-.29 1.78-.6 2.62-1 1.66-.5 3.4-.63 5.12-.71-.28-3.6.89-7.22 0-10.78-.15-.88-.82-1.53-1.23-2.3-.96-.44-1.86-1.2-2.97-1.2-2.77.38-5.37 2.35-6.12 5.1Zm64.03-7.93c8.6 0 17.17-.65 25.77-.59a1.72 1.72 0 0 1 1.85 1.87v18.6c.04.96-.21 1.92-.53 2.82-.6.91-1.6 1.42-2.44 2.08l-1.53.02c-.35-.57-.95-1.1-.9-1.83-.06-3.17.1-6.34-.25-9.5.06-2.22-.89-4.23-1.63-6.28-.48-.59-.84-1.27-1.28-1.89-.62-.51-1.33-.9-1.97-1.38-1.26.2-1.69 1.57-1.62 2.68.01 5.19-.19 10.39.16 15.56.4 2.62.11 5.29.6 7.9-.1 2.2.4 4.36.75 6.52-.02 1.91.46 3.78.48 5.7a44.4 44.4 0 0 1 1.1 9.34 4.16 4.16 0 0 1-2.63 1c-3.42.07-6.86.06-10.28.08a3.44 3.44 0 0 1-2.84-1.17c-.55-1.73.3-3.46.53-5.16.09-1.8.48-3.56.53-5.37 1.04-4.32.79-8.8 1.6-13.16.32-1.76.13-3.55.29-5.32.37-4.03.18-8.08.22-12.11-.04-1.88.2-3.8-.3-5.63-1-.68-2.03-.22-2.89.44a14.97 14.97 0 0 0-2.89 7.52c-.8 3.59-.32 7.28-.55 10.91-.07 1.68-2.13 1.55-3.25 1.06-.6-.73-1.4-1.25-2.1-1.86-.11-1.12-.47-2.22-.43-3.36V17.65c-.04-.79.24-1.53.43-2.27 1.89-.82 4-.44 6-.56Zm-29.69.6c3.35-.62 6.8-.93 10.2-.52 2.04.16 4.28.06 6.1 1.17l.69.1c1.37.47 2.23 1.69 3.15 2.73.22.42.5.8.79 1.18a8.9 8.9 0 0 1 0 4.83c-.64.97-1.46 1.77-2.34 2.52-1.45.57-3.33.79-4.72 0-.68-1.17-.73-2.63-1.27-3.89a11 11 0 0 0-1.68-2.23c-.69-.52-1.5-.83-2.18-1.35a16.26 16.26 0 0 0-4.7.06c-1.29.58-2.64 1.48-2.95 2.96-.38 1.01.12 2.05.33 3.04 2.26 3.59 5.96 5.84 9.28 8.33 1.2.96 2.44 1.87 3.7 2.74 1.52 1.23 3.55 2 4.4 3.89.51.64 1.16 1.16 1.57 1.87a23.5 23.5 0 0 1 2.04 3.04c2.63 4.83 3.26 10.83 1.13 15.96a9.53 9.53 0 0 1-3.85 4.57c-1.66.57-3.35 1.2-5.14 1.13l-15.89-.08a17.8 17.8 0 0 1-4.97-.84c-1.72-.67-2.16-2.63-2.54-4.25-.09-4.05 0-8.1-.04-12.15-.08-2.02.56-3.98 1.26-5.85.44-.3.84-.63 1.24-.97.96.07 2.26-.35 2.87.64.38.44.27 1.07.32 1.6-.02 2.59.59 5.12 1.2 7.61.82 1.4 1.6 2.91 3.1 3.72 2.26 1.52 5.15 1.3 7.7.75.66-.5 1.44-.83 2.1-1.32.52-.59.88-1.3 1.34-1.95.54-2.12.46-4.5-.8-6.37-2.17-3.36-5.68-5.47-8.63-8.08-1.46-1.38-3.38-2.1-4.74-3.58a8.7 8.7 0 0 0-1.13-1.14c-1.36-1.38-2.43-3-3.45-4.63-.42-1.3-.73-2.62-.99-3.95-.35-2.01.44-3.97.95-5.88a12.25 12.25 0 0 1 4.72-4.66l.65-.1 1.18-.65ZM95.65 73.75a9.89 9.89 0 0 1 2.96-.43h24.6c.62-.03 1.22.2 1.73.52.29.94.22 1.94.25 2.9-.04 5.06.06 10.12-.11 15.17-.02 1.2-.84 2.12-1.6 2.95a5.5 5.5 0 0 1-2 .46l-.93-.53c-.08-3.86.17-7.77-.57-11.58-.75-1.95-1.23-4.23-3.06-5.48a2.3 2.3 0 0 0-1.76-.64l-.65 1c-.03 4.09 0 8.17-.01 12.26-.13 3.11.48 6.19.45 9.3.92 4.24.66 8.62 1.75 12.82.1 1.87.7 3.7.39 5.58-.7.92-1.97.71-2.98.73-3.05-.09-6.07.34-9.11.34-.81-.06-1.96-.47-1.86-1.47a39.4 39.4 0 0 1 1.06-6.89c.02-1.77.47-3.5.48-5.27.1-1.9.8-3.74.74-5.66-.06-1.39.24-2.75.35-4.12.09-5.57.24-11.13.15-16.7a3.5 3.5 0 0 0-.57-1.8l-.79-.1c-1.6 1.02-2.5 2.66-3.24 4.34-.37 1.6-.67 3.2-.95 4.81-.36 2.97-.03 5.97-.27 8.95-1.58 1.2-3.54 0-4.44-1.46-.23-.86-.51-1.72-.46-2.62.02-5.18 0-10.36.01-15.55-.03-.64.27-1.22.44-1.83Zm32.85-.45c2.5.08 5-.05 7.5.06 1.06.57 1.03 1.94.95 2.97a227.3 227.3 0 0 0-.46 19.73c.02 3.02.69 5.99.8 9 .25 3.02 1.19 5.9 1.49 8.91.7 1.02.75 2.25.68 3.44l-.98.98c-4.18-.08-8.35.19-12.52 0-.32-.7-.97-1.4-.64-2.21.75-2.15.78-4.45 1.53-6.6.4-2.48.45-5.03.99-7.5.44-2.11.22-4.28.27-6.42-.04-5.18.07-10.37-.05-15.55-.03-2.24-1.22-4.9.43-6.8Zm12.08 0c2.03.03 4.05.05 6.08 0 1.32.99.85 2.78.97 4.2.2 2.64.01 5.3.48 7.93 0 1.73.15 3.45.63 5.12.34 2.36.47 4.76 1.23 7.04.23 2.28 1.15 4.38 1.66 6.6.71 1.48 1.4 2.95 2.3 4.32.5.24 1.03.54 1.62.41 1.02-1.22 1.42-2.8 1.92-4.28.84-1.61.77-3.5 1.3-5.2.6-1.84.26-3.8.4-5.68.04-2.53 0-5.07-.11-7.59-.52-1.85-.77-3.76-1.15-5.64-.43-1.17-.88-2.34-1.13-3.56-.5-1.08-1.67-2.7-.4-3.67 2.41.08 4.84-.05 7.25.06 1.59.18 2.34 1.84 2.46 3.26.47 3.93 1.03 7.89.6 11.86-.5 4.01-.3 8.12-1.42 12.04-.17 2.7-1.25 5.19-1.68 7.84-.82 1.25-.85 2.84-1.68 4.09-.4.63-.3 1.71-1.17 1.9-.28 1.11-1.12 1.89-1.73 2.8-.8.46-1.5 1.32-2.5 1.25-2.4-.02-4.8.03-7.2-.02-.81-.19-1.45-.82-2.16-1.23-.44-.67-.98-1.27-1.4-1.96-.31-.4-.63-.8-.95-1.18l-.1-.66c-.82-1.1-.9-2.51-1.42-3.74-.72-1.63-.63-3.47-1.28-5.11-.57-2.03-.48-4.19-1.06-6.22-.49-1.57-.3-3.23-.68-4.82-.12-2.8.09-5.6-.36-8.38-.08-3.49-.23-6.97-.04-10.45l.72-1.32Zm38.59.52c3.6-.87 7.32-.36 10.98-.5 2.38.13 4.84-.3 7.15.4.74 1.56.33 3.34.34 5-.36 6.27-.34 12.56-.2 18.85.37 4.09.2 8.26 1.29 12.25.32 1.8.31 3.7 1.1 5.37.28 1.42.56 2.92.04 4.33-2.87.1-5.74 0-8.61-.02-1.62-.2-3.57.1-4.86-1.12-.12-1.44-.2-2.95.28-4.34-.07-1.87.77-3.6.8-5.46-.02-1.93.54-3.8.4-5.74.18-3.02.52-6.02.56-9.05-2.98.07-6.24.5-8.4 2.75-1.68 1.95-1.9 4.6-1.84 7.06.17 1.98.24 3.97.68 5.92.84 1.43.98 3.16 1.93 4.55.46 1.35 1.24 2.62 1.3 4.08l-.38.6c-3.24.05-6.48.06-9.72-.02-1.35-.03-2.4-.78-3.37-1.62-1-2.75-.71-5.72-.66-8.58.04-2.26.28-4.51.23-6.78-.11-2.43.4-4.83.5-7.25.77-2.39.67-4.98 1.6-7.32.39-1.3.43-2.72 1.2-3.86.17-.63.37-1.25.55-1.86.46-.73.82-1.5 1.15-2.3.7-1.06 1.38-2.15 2.31-3.06a10.66 10.66 0 0 1 3.65-2.28Zm4.26 3.32c-.67.5-1.46.83-2.12 1.36a9.93 9.93 0 0 0-1.9 2.93c-.81 1.28-.92 2.83-1.5 4.2-.65 2.68-.67 5.45-.73 8.19.82-.9 1.87-1.56 2.9-2.2.42-.2.78-.5 1.14-.79.78-.26 1.56-.56 2.3-.95 1.62-.68 3.41-.58 5.11-.95-.18-3.24.76-6.49-.05-9.7a7.98 7.98 0 0 0-2-2.11c-1.05-.08-2.1-.08-3.15.02Zm19.58-3.41c1.85-.52 3.78-.2 5.66-.25 1.8.09 3.63-.15 5.4.27a14.1 14.1 0 0 1-.57 2c-.8 1.03-1.1 2.33-1.7 3.49-.68 3.92-.37 7.93-.43 11.9-.08 3.7.31 7.37.45 11.06.56 2.83.37 5.92 1.87 8.48a3.93 3.93 0 0 0 2.95 2.26 3.5 3.5 0 0 0 2.93-2.27c1.4-3.04 1.35-6.57 1.07-9.86-.05-1.68-.88-3.11-1.49-4.63l-.6-.46c-.02-.59-.04-1.18-.04-1.76l.96-.9c1.93-.55 4.17-.2 5.47 1.44a7.1 7.1 0 0 1 1.42 2.87c.32 1.7.89 3.36.85 5.11v15.18c.06 1.07-.56 2-.9 2.97-1.47.8-3.2.33-4.78.42-2.16.1-4.28-.47-6.43-.38-2.97.08-5.9-.48-8.85-.69a7.9 7.9 0 0 1-2.4-.5 8.9 8.9 0 0 1-1.1-4.13c-.07-7.7.82-15.39.63-23.1.18-5.7-.87-11.37-.75-17.07-.03-.52.22-.98.38-1.45Zm-166.39.9c.39-.83 1.42-.84 2.2-.87 5.94-.12 11.89-.02 17.83-.07 1.4-.11 2.62.7 3.94 1.01.39.23.75.49 1.12.75.71.44 1.12 1.2 1.66 1.81.6 1.6.55 3.35 0 4.96-.68.8-1.35 1.7-2.4 2.03-1.33.61-2.78-.09-3.84-.9-.41-1.36-1.21-2.52-1.74-3.82-.67-.38-1.3-.8-1.95-1.23a12.1 12.1 0 0 0-6.39.04c-.46.6-1.1 1.01-1.54 1.62-1.07 1.22-1.08 2.93-1.48 4.43-.34 3.32-.1 6.67-.18 10a2.5 2.5 0 0 0 1.2-1.2c.63-.37 1.08-.96 1.6-1.46.6-1.15 1.97-1.51 2.96-2.26l1.12-.34c1.74-1.17 3.94-.47 5.9-.65 1 .56 2.5 1.27 2.15 2.68-.27 1.08-.29 2.75-1.6 3.08-1.44.53-2.92-.22-4.38-.02-2.14.4-4.35 1-5.93 2.61a2.66 2.66 0 0 1-.73 1.72l-.4 1.12a20.7 20.7 0 0 0 .37 12.1c.68 1.05 1.45 2.22 2.78 2.44 1.44.04 2.87.05 4.3 0 1.94-.57 3.88-1.67 4.85-3.53.21-.44.5-.84.78-1.23.88-2.39.02-5.1 1.13-7.4.8-1.36 2.4-.39 3.39.16a24 24 0 0 0 1.19 2.24c.66 4.11.36 8.28.4 12.43.01 1-.25 1.95-.4 2.93a5.05 5.05 0 0 1-4.51 2.02c-2.76.45-5.58.2-8.33.75a20.3 20.3 0 0 1-3.8.37c-1.39-.01-2.73.42-4.1.37-1.95-.1-3.83.56-5.75.67-.94.1-1.58-.68-2.23-1.22.05-2.85-.08-5.72.15-8.57.4-5.92.66-11.84.62-17.77-.04-6.44.09-12.88-.1-19.32a10.3 10.3 0 0 1 .14-2.48Zm39.79-.86c3.24-.34 6.5-.28 9.74-.02 2.54.73 5.5 1.47 6.77 4.08.7 1.9.74 4.47-.94 5.87-.36.32-.73.62-1.1.93-1.3.5-2.7.46-4.06.46-.96-.82-.68-2.21-1.26-3.25-.52-1.58-1.8-2.7-3.18-3.53a13.52 13.52 0 0 0-4.6 0c-.68.55-1.66.8-1.98 1.7l-.64.64c.01.84-.08 1.7.09 2.52 1.21 2.57 3.58 4.24 5.75 5.94 3.94 2.77 8.18 5.32 11.32 9.05.71.97 1.48 1.9 2.03 2.98.97 1.58 1.38 3.38 1.94 5.12.1 1.91.07 3.83.02 5.74a14.64 14.64 0 0 1-2.35 5.14 8.68 8.68 0 0 1-5.88 2.76c-4.09-.04-8.11.93-12.2.77-2.48.13-5 .64-7.45-.06a3.8 3.8 0 0 0-1.17-.83 10.7 10.7 0 0 1-1.02-4.78c.1-4.64-.35-9.4 1.03-13.9.92-.58 1.8-1.38 2.97-1.28.36.34.73.67 1.11.98.03 1.97.28 3.93.45 5.89.52 2.07 1.52 4.14 3.42 5.27 2.33.98 4.96.65 7.31-.07.92-.72 1.71-1.57 2.39-2.52.5-1.62.5-3.3 0-4.92-1.4-2.67-3.86-4.48-6.2-6.26-2.96-2.34-6.17-4.45-8.54-7.44-2.74-3.04-3.1-7.57-1.75-11.32.7-.83 1.08-1.88 1.9-2.61.71-.81 1.75-1.2 2.57-1.89 1.18-.35 2.34-.78 3.51-1.16Zm153.55-.07h16.92c2.87-.09 5.97.48 8.2 2.4 1.63 1.58 2 4 1.44 6.14-.22.95-1.04 1.56-1.56 2.33-1.23.7-2.65.54-3.92.05l-1.06-1.2a17.9 17.9 0 0 0-1.81-3.8c-2.28-1.9-5.49-2.03-8.25-1.3a7.78 7.78 0 0 0-2.41 2.23c-1.48 4.33-.77 8.96-.9 13.45 1.6-1.71 3.5-3.1 5.47-4.31 1.8-.47 3.61-1.33 5.51-.96 1.12.21 2.23.51 3.29.94.2.43.55.76.9 1.08a6.53 6.53 0 0 1-.87 4.12c-1.59.46-3.2-.04-4.8-.09-1.48-.04-2.97.08-4.37.57a7.88 7.88 0 0 0-3.11 3.2c-1.15 3.96-.91 8.24 0 12.23.5.64.84 1.38 1.36 2 .6.53 1.31.91 1.92 1.43 2.28.03 4.55.13 6.83-.02.65-.33 1.17-.86 1.8-1.25 2.45-2.77 1.67-6.68 2.5-10.01.67-.05 1.35-.07 2.02-.09 1.18.58 1.62 1.84 2.33 2.85.17 1.08.5 2.14.47 3.24-.02 4.36 0 8.72-.01 13.08-.48 1.4-1.99 2.15-3.4 2.07-2.17-.08-4.27-.86-6.46-.76-1.51.05-2.98-.44-4.5-.38-2.56.1-5.04-.8-7.6-.75-1.64.06-3.23-.36-4.86-.41-1.28-.1-2.05-1.45-2.1-2.62.08-4.8.63-9.6.55-14.4V74.42l.48-.73Zm-221.71.77c5.9-.26 11.82-.28 17.72-.46 2.06-.12 4.12.3 6.09.91.89.73 1.95 1.29 2.55 2.3 1 1.4 1 3.15.72 4.76a7.64 7.64 0 0 1-2.34 3.09c-1.01.03-2.02.03-3.02-.03l-.85-.48c-.55-1.3-1.36-2.48-1.7-3.86-.43-.38-.83-.8-1.19-1.24-1.65-.61-3.37-1.32-5.17-1.04-1.7.37-3.57.88-4.52 2.48-.38.98-.84 1.95-1.1 2.97-.26 4.1-.02 8.21-.22 12.32l.3-.68c1.73-1.61 3.3-3.44 5.37-4.66.96-.35 1.86-.83 2.82-1.2 1.61-.17 3.24-.08 4.86-.02.52.42 1.06.82 1.6 1.21.05 1.45.18 2.99-.4 4.35-.84.4-1.68 1.02-2.66.78-2-.38-4.08-.08-6 .54-1.3.85-2.5 1.8-3.36 3.13-.34 1.18-.96 2.27-1.2 3.48-.05 2.15-.08 4.3.04 6.44.6 1.86.73 3.86 1.6 5.63.96 3.2 2.32 6.26 3.55 9.37.2.57-.39 1.06-.9 1.12-3.51.97-7.2.7-10.73 1.47-1.03.33-1.9-.37-2.66-.96.05-5.38-.09-10.76.1-16.14.22-10.21.12-20.43.14-30.64.04-1.66-.24-3.41.56-4.94Zm251.92.75c.78-1.41 2.7-1.28 4.1-1.24 1.84.17 4.03-.38 5.53 1 .67.96 1.4 1.92 1.79 3.04.74 1.06.97 2.37 1.68 3.44.84 2.48 2.07 4.82 2.87 7.33.48.9.86 1.87 1.07 2.9l.62 1.17c.81 2.98 2.05 5.83 2.81 8.84.47 1.19.92 2.4 1.07 3.67.28.55.65 1.03 1.09 1.46 0-3.73.07-7.45-.03-11.18-.44-2.1-.11-4.28-.8-6.32-.43-1.8-.43-3.68-.98-5.45-.57-1.53-.65-3.21-1.36-4.7-.5-1.52-.95-3.16-.63-4.77 2.4-.17 4.8.09 7.2.05 1.02.04 2.13-.2 3.07.34.25 7.47-.91 14.9-.78 22.37-.02 6.31.35 12.63.75 18.92-.05 3.77.09 7.53 0 11.29l-.99.6c-1.6.12-3.12-.6-4.73-.5-1.11.1-2.02-.6-2.79-1.3-.33-2.5-1.4-4.79-1.8-7.26-.83-1.55-.63-3.52-1.7-4.9-.22-.97-.38-1.97-.8-2.87-.67-1.23-.64-2.74-1.48-3.9-.17-.64-.37-1.27-.52-1.9l-.63-1.17c-.16-.62-.35-1.24-.52-1.86-1.24-2.17-1.83-4.67-3.08-6.85a23.7 23.7 0 0 1-.33-1.12c-.16-.17-.46-.52-.6-.7l-.54-1.65c-.33-.39-.66-.8-.83-1.28h-1.33c-.05 5.08-.21 10.23 1.07 15.17.17 2.8 1.19 5.42 1.63 8.17.9 1.4.76 3.18 1.53 4.64.46 1 .49 2.16.97 3.17.6 1.16.86 2.46.88 3.75-2.28.27-4.56-.17-6.82-.4-1.65.08-3.25-.33-4.8-.83a59.2 59.2 0 0 1-.86-.48 15.55 15.55 0 0 1-.27-5.94c.37-2.36.09-4.76.4-7.13.74-7.44.6-14.93.16-22.4-.24-4.4-.49-8.81-.29-13.22Z"/></svg>