<svg xmlns="http://www.w3.org/2000/svg" fill="none" viewBox="0 0 460 128"><path fill="#2A8DE1" d="M3.43 22.2C23.24 14.68 43.24 7.61 63.03 0c20 7.41 40.05 14.69 60 22.2-20 7.34-39.97 14.75-59.95 22.12A13609.1 13609.1 0 0 0 3.43 22.2Zm4.74 9.24c3.15 1.14 6.25 2.42 9.42 3.53.04 4.67 0 9.34.03 14.01-3.14-.01-6.3.05-9.45.04V31.44Zm34.96 13.61c6.16 2.34 12.37 4.58 18.53 6.94.75.22 1.56.76 2.37.4 6.3-2.3 12.55-4.74 18.88-6.94 2.27 7.4 4.78 14.72 7.15 22.1-6.52 20.15-13.08 40.3-19.65 60.44-4.98.05-9.95-.13-14.93-.06a47159 47159 0 0 0-19.7-60.39c2.5-7.48 4.88-15 7.35-22.5Zm-34.7 9.49c3.05-.03 6.11.02 9.17.04 2.84 5.83 5.59 11.7 8.43 17.53-4.43 8.96-8.38 18.2-13.14 26.98C8.64 90.06 4.25 81.1 0 72.06c2.85-5.82 5.63-11.68 8.43-17.52Z"/><path fill="#fff" d="M386.11 28.3c3.53-1.06 7.89-.6 10.47 2.28 3 2.81 3.26 7.97.57 11.08-4.07 5.19-13.72 4.33-16.36-1.9-2.09-4.44.66-10.1 5.32-11.45Zm-263.32 8.64c16.93.48 33.86-.08 50.8-.03 0 4.32-.04 8.64.01 12.96-5.8-.05-11.61-.01-17.42-.02v52.69h-16.04v-52.7c-5.8.03-11.58 0-17.37.01-.01-4.3-.01-8.61.02-12.91Zm124.03.71c5.35.02 10.7 0 16.05.01v12.71c3.49.02 6.98.02 10.47 0-.02 4.49-.03 8.97 0 13.46-3.49.02-6.98 0-10.47.01 0 7.07-.1 14.14.04 21.2-.11 1.68.96 3.4 2.66 3.75 2.6.4 5.25.14 7.87.13-.04 4.54-.01 9.09-.02 13.63-6.88-.1-14.54.8-20.5-3.4-4.31-2.92-5.8-8.36-5.92-13.31-.2-7.33-.12-14.67-.16-22h-6.36c.02-4.5.02-8.98 0-13.46 2.12.02 4.24 0 6.36-.02-.02-4.23 0-8.47-.02-12.71Zm51.96 12.95c7.45-1.74 15.62-.84 22.27 3.04a25.33 25.33 0 0 1 11.39 16.02c1.37 6.7.78 13.93-2.39 20.05a24.39 24.39 0 0 1-14.82 12.16c-10.38 3.21-23.15.97-30.24-7.74-5.5-6.49-6.8-15.58-5.33-23.75 1.77-9.59 9.5-17.8 19.12-19.78Zm4.2 13.36c-3.92 1.09-6.65 4.7-7.3 8.61-.86 4.96-.39 10.93 3.64 14.44 3.95 3.6 10.6 3.13 14.19-.75 3.01-2.92 3.64-7.4 3.34-11.4-.18-3.59-1.66-7.3-4.67-9.4-2.59-1.99-6.12-2.29-9.2-1.5ZM357.61 59c3.8-5.27 9.7-9.2 16.37-9.2.03 5.66 0 11.33 0 17-4.17.05-8.75-.47-12.45 1.91-3.24 2.04-3.82 6.26-3.91 9.77-.02 8.02.01 16.05 0 24.07h-16.04c-.02-17.4.03-34.8-.03-52.2 5.35.09 10.71 0 16.06.04.07 2.87.07 5.74 0 8.6Zm67.99-8.39c7.28-1.71 15.23-.9 21.81 2.74 5.89 3.3 10.1 9.22 11.76 15.73 1.47 6.53 1.05 13.6-1.79 19.7a24.5 24.5 0 0 1-15.42 13.13c-10.34 3.16-23.04.9-30.1-7.77-5.34-6.3-6.73-15.08-5.46-23.06 1.52-9.86 9.36-18.44 19.2-20.47Zm4.17 13.36c-3.99 1.13-6.67 4.88-7.28 8.87-.7 4.57-.37 9.88 2.94 13.44 2.93 3.27 8.04 4.1 11.94 2.15 3.55-1.66 5.88-5.35 6.25-9.2.5-4.45-.01-9.55-3.42-12.8-2.65-2.75-6.84-3.45-10.43-2.46ZM181.04 50.41c5.3-.04 10.61.06 15.92-.06 0 9.36-.12 18.73-.07 28.1.01 2.5.44 5.09 1.8 7.23 3.5 5.32 12.5 5.5 16.19.3 1.74-2.36 2.1-5.4 2.06-8.25-.04-9.12-.08-18.23-.1-27.34 5.34.04 10.68 0 16.02.02.05 17.39.01 34.77.02 52.16h-16.04c-.03-2.27-.06-4.56-.06-6.84-3.17 3.65-7.47 6.54-12.35 7.11-6.4.98-13.5-.81-17.92-5.74-4.06-4.4-5.5-10.56-5.48-16.4-.02-10.1-.02-20.2.01-30.29Zm200.49.03h16.02v52.1h-16.03v-52.1Z"/></svg>