<svg xmlns="http://www.w3.org/2000/svg" fill="none" viewBox="0 0 435 128"><g fill="#BDD645" clip-path="url(#a)"><path d="M107.8 0h6.12c7.39 1.77 13.97 7.71 14.9 15.5 1.53 9.23-5.42 18.6-14.5 20.3-10.35 2.5-22.1-5.98-21.95-16.87C91.33 9.66 98.91 1.45 107.8 0Zm59.92 0h7.44c5.87 1.86 11.46 5.68 13.55 11.74 4.24 9.87-2.94 21.95-13.23 23.96-11.19 3-23.4-7.01-22.55-18.62.36-8.32 7.01-14.98 14.8-17.08ZM18 29.83c1.62-2.13 3.51.92 4.8 1.86 8.81 8.91 17.94 17.5 26.64 26.52 10.68-9.26 19.97-20.07 30.7-29.26 7.17 5.68 13.09 12.83 19.94 18.9A6566.23 6566.23 0 0 1 49.5 97.23C33.13 81.19 17.26 64.5 0 49.5v-.92c5-7.12 11.96-12.56 18-18.76Zm112.7 8.66c3.59-3.25 6.56-7.24 10.74-9.77 16.2 16.37 32.87 32.31 49.23 48.54l.01 1c-6.51 6.13-12.47 13.52-19.61 18.58A1259.76 1259.76 0 0 1 141.4 67.6c-10.87 8.91-19.98 19.83-30.45 29.22-7.37-5.05-13.02-13.02-20.16-18.72 13.03-13.47 26.64-26.37 39.92-39.61Zm70.61-9.36c2.24-.15 3.33 2.4 4.95 3.54 8.5 8.36 16.89 16.87 25.57 25.05l1.14-.14c10-9.37 19.28-19.7 29.67-28.53 7.18 5.54 13.1 12.81 19.97 18.86-16.5 16.43-33.69 32.24-49.74 49.15a12.85 12.85 0 0 1-4.27-3.2c-15.04-15.22-30.5-30.05-45.73-45.08-.82-2.07 1.86-3.2 2.88-4.61 5.34-4.85 10.14-10.3 15.56-15.04Zm72.02 48.93c16.67-16.64 33.18-33.5 50.48-49.47 6.13 6.64 13.12 12.46 19.07 19.25-9.2 10.72-20.57 19.5-29.8 30.26 10.34 9.8 20.39 19.9 30.47 29.95-6.4 6.86-14.8 11.8-19.7 19.95h-.67c-1.49-2.66-3.67-4.83-5.85-6.91-14.77-14.24-29.04-29-44-43.03Z"/><path d="M370.04 42.56c5.05-4.54 9.18-10.13 14.94-13.84 14.4 14.94 29.62 29.05 44.17 43.85a33.34 33.34 0 0 0 5.85 4.72v.72c-7.6 5.4-12.91 13.67-20.54 18.8-10.39-9.45-19.82-19.94-30.28-29.33-10.1 9.97-19.96 20.23-30.48 29.75a862.86 862.86 0 0 0-19.52-19.17c11.55-12.2 24.07-23.5 35.86-35.5Z"/></g><defs><clipPath id="a"><path fill="#fff" d="M0 0h435v128H0z"/></clipPath></defs></svg>