<svg xmlns="http://www.w3.org/2000/svg" fill="none" viewBox="0 0 552 128"><g fill="#fff" clip-path="url(#a)"><path d="M32.5 0h486.98C536.3.53 551.43 14.85 552 31.82v65.2c-.9 15.93-14.6 29.88-30.54 30.98H32.21C15.08 127.73.73 112.46 0 95.65V32.84C.62 15.67 15.28.68 32.5 0Zm-5.65 6.9C15.2 9.9 6.18 21.04 6 33.09c-.1 20.61-.05 41.23-.03 61.84-.04 14.37 12.79 27.39 27.2 27.34 158.2.09 316.41-.02 474.64.05 7.1-.2 14.64.9 21.3-2.14 9.94-4.18 17.23-14.37 17.16-25.25 0-20.6.05-41.18-.02-61.77.04-14.44-13-27.2-27.38-27.15-161.18-.09-322.37 0-483.55-.04a30.5 30.5 0 0 0-8.48.95Z"/><path d="M32.13 23.44c3.02-1.42 6.6-.49 9.84-.73 17.69.57 35.4.04 53.1-.02 3.52.33 8.29-.75 10.05 3.29.33 4.06-2.34 7.5-4.2 10.88C89.37 55 76.83 72.52 65.7 90.92c9.34.38 20.44.9 27.53-6.37 3.64-3.3 6.82-9.7 12.76-7.55 3.67 4.3.18 10.33-.33 15.25-1.88 5.45-2.47 15.51-10.57 14.17-21.44-.27-42.88-.36-64.3.02-3.22.48-7.62-.8-7.07-4.9-.02-4.22 3-7.6 5.04-11.04 12-17.23 24.4-34.2 36.34-51.5-5.36-3.36-11.94-1.57-17.6-.03-6.44 1.8-9.18 8.54-14.46 11.94-3.93 1.92-7.48-3.17-6.25-6.7 1.15-7 2.03-14.44 5.35-20.77Zm80.59.46c7.17-2.03 14.66-1 21.99-1.04 16.76.44 33.52-.4 50.25 0 2.76 9.18 1.4 19.03.93 28.45l-7.13-.46c-2.5-3.9-3.14-9.34-7.49-11.81-6.5-3.49-14.26-3.44-21.35-2.03-.6 5.36-2.36 11.34.2 16.44 7.82 5.5 8.68-12.69 17.18-6.24 3.27 10.5.42 22.04 1.54 32.94-2.9.89-7.41 2.63-9.29-.9-2.08-4.66-3.29-11-9.6-11.23.46 6.55.28 13.15.9 19.68 2.78 6.47 11.72 3.8 17.07 2.78 7.33-1.56 10.5-8.71 14.64-14.1 3.2-3.31 8.56 1.06 7.28 5.03-.77 7.46-.77 15-1.96 22.4-1.44 3.67-6.07 2.27-9.03 2.63-19.96-.53-39.92-.07-59.88-.07-7.36 1.88-8.57-9.95-2.19-11.56 5.41-1.99 3.36-8.65 3.97-13.04-.4-15.47 1.13-31.1-1.08-46.46-5.85-1.01-7.8-5.94-6.95-11.4Zm83.58-.09c10.21-2.36 20.79-.1 31.15-1.01 4.39.33 9.62-1.33 13.4 1.52 2.83 4.35-.95 8.43-4.8 10.22-4.37 1.28-3.35 6.11-3.55 9.6.35 14.19-.55 28.42.49 42.57 1.12 6.75 9.96 4.57 14.77 4.26 7.64-.93 10.77-8.45 14.88-13.84 2.12-3.18 7.33-3.49 9.16.13.93 8-1.12 15.96-1.6 23.93.1 3.04-1.82 5.89-5.26 5.18-21.35-.22-42.7-.22-64.06-.02-5.34.7-4.92-5.7-4.68-9.2 2.98-2.2 7.44-4.24 6.58-8.76.16-16.2.05-32.42-.02-48.64.53-4.4-4.44-5.79-6.56-8.74l.1-7.2Zm81.58 8.61c-.7-4.02-.89-10.28 4.88-9.64 13.38.77 26.98-1.2 40.23 1.03l-.69 7.09c-2.36 3.37-8.74 3.77-8.32 8.87-.07 15.25-.47 30.54.24 45.77.31 7.79 9.98 6.02 15.24 5.38 8.32-1.03 10.73-9.8 15.83-14.94 2.58-2.95 8.8-.92 8.1 3.25-.5 8.71-.53 17.67-2.85 26.13-3.2 1.72-6.97.86-10.44 1.06-18.42-.42-36.83-.27-55.25.02-3.24.37-8.14-.58-7.37-5.01-1.46-6.1 7.86-7.06 6.89-13.09.26-16.24.09-32.48-.07-48.7.38-3.95-3.49-5.83-6.42-7.22ZM360.7 23c12.96-.8 25.97.3 38.93-.03 10.09.18 20.22-.95 30.27.2 3.46 8.63 1.17 18.76 1.19 27.94-1.88.02-5.65.05-7.53.05-1.48-4.46-2.91-9.58-7.22-12.14-6.5-3.49-14.24-3.44-21.3-1.97-.52 5.57-2.88 12.36.92 17.22 7.55 2.82 7.2-10.88 14.73-7.77 4.21.57 2.7 5.87 3.16 8.76.02 8.32-.2 16.64.13 24.98-2.92.78-7.42 2.52-9.23-.99-1.9-4.72-3.54-10.04-8.9-11.83-.77 6.73-.5 13.55.13 20.28 2.92 6.4 11.7 3.84 17.05 2.78 6.89-1.5 10.4-7.81 13.93-13.22 2.98-4.8 9.6-.44 8.15 4.4-1.06 7.76-.2 16.13-2.92 23.52-3.77 2.32-8.59.84-12.78 1.21-17.62-.44-35.24-.1-52.86.05-3.31.35-6.36-.73-9.12-2.43-.62-5.67 2.87-8.9 7.49-11.3 1.72-7.94.66-16.2.97-24.25-.33-11.04.86-22.23-1.1-33.15-6.06-.37-10.23-9.38-4.1-12.31Zm81.2 5.8c-.32-2.67.98-6.27 4.23-6 14.68-.07 29.38.37 44.09-.11 10.55-.53 22.48 3.48 27.16 13.7 5.67 10.82.5 25.2-10.9 29.7 6.7 6.98 12.44 14.81 18.87 22.05 2.43 3.12 7.3 3.27 9.27 6.76.13 5.27-3.24 10.43-8.67 11.3-7.51.3-15.04-.07-22.57.13-3.38.68-4.97-2.87-6.25-5.23-5.06-10.02-8.9-20.66-14.73-30.28-4-1.2-3.6 3.73-4.06 6.29-.29 6.42-.7 15.71 7.09 17.79 5.25 1.39 3.22 7.54 3.11 11.4-14.26-.15-28.55.1-42.79-.1-4.28-.73-3.69-5.48-3.93-8.7 3.6-2.87 6.67-6.58 6.6-11.45 1.28-15.4.66-30.94.58-46.37.73-5.54-7.97-5.47-7.1-10.88Zm37.46 8.74c-1.62 6.77-2.56 14.87 1.76 20.85 4.33-1.74 9.03-4.43 9.14-9.75 1.29-5.67-4.59-15.1-10.9-11.1Z"/></g><defs><clipPath id="a"><path fill="#fff" d="M0 0h552v128H0z"/></clipPath></defs></svg>