<svg xmlns="http://www.w3.org/2000/svg" fill="none" viewBox="0 0 64 65"><path fill="#FFA96B" d="M0 .6h64v64H0z"/><path fill="#891B26" d="M48 19.73v25.74a3.13 3.13 0 0 1-3.13 3.13H19.13A3.13 3.13 0 0 1 16 45.47V19.73a3.13 3.13 0 0 1 3.13-3.13h25.74A3.13 3.13 0 0 1 48 19.73Zm-2.34 22.14L32.42 18.94h-2.19L29 21.07l14.55 25.19h.86c.69 0 1.25-.56 1.25-1.25v-3.14Zm-9.22 4.39-11-19.04-1.68 2.92a2.21 2.21 0 0 0 0 2.2l8.04 13.92h4.64Zm7.97-27.32H33.65l12 20.8V20.19a1.25 1.25 0 0 0-1.24-1.25ZM30.57 46.26 22.5 32.3l-4.17 7.21V45c0 .69.56 1.25 1.25 1.25h10.98Zm11.75 0L28.39 22.14l-2.26 3.9 11.54 20.22h4.65Z"/></svg>