<svg xmlns="http://www.w3.org/2000/svg" fill="none" viewBox="0 0 64 64"><path fill="#F69BFF" d="M0 0h64v64H0z"/><path fill="#4E3188" d="M48 19.13v25.74A3.13 3.13 0 0 1 44.87 48H19.13A3.13 3.13 0 0 1 16 44.87V19.13A3.13 3.13 0 0 1 19.13 16h25.74A3.13 3.13 0 0 1 48 19.13Zm-17.77-.79-.55.95 6.7 11.59 7.24-12.54h-13.4Zm2.95 10.27h-2.35a1.2 1.2 0 0 0-1 .6l-1.24 2.14v.01a1.2 1.2 0 0 0 0 1.17l1.23 2.13v.02a1.2 1.2 0 0 0 1.02.57h2.35a1.19 1.19 0 0 0 1-.58l1.24-2.16a1.17 1.17 0 0 0 0-1.15l-.02-.02-1.22-2.12-.01-.01a1.2 1.2 0 0 0-1-.6ZM19.15 45.57l9.78-16.94H24.3l-5.95 10.3v5.57a1.25 1.25 0 0 0 .8 1.07Zm15.79.09L27.64 33l-7.32 12.65h14.62Zm-1.7-18.1-4.17-7.2-4.17 7.2h8.33Zm12.42 8.75H30.77l5.4 9.35h8.26a1.25 1.25 0 0 0 1.23-1.25v-8.1Zm-.85-17.9-9.73 16.84h10.58V19.6a1.25 1.25 0 0 0-.85-1.18Z"/></svg>