<svg xmlns="http://www.w3.org/2000/svg" fill="none" viewBox="0 0 64 65"><path fill="#62DAFB" d="M0 .6h64v64H0z"/><path fill="#134881" d="M48 19.73v25.74a3.13 3.13 0 0 1-3.13 3.13H19.13A3.13 3.13 0 0 1 16 45.47V19.73a3.13 3.13 0 0 1 3.13-3.13h25.74A3.13 3.13 0 0 1 48 19.73ZM18.34 45c0 .69.56 1.25 1.25 1.25h10.97l-5.73-9.93 10.04-17.39h-4.64L18.34 39.52v5.49Zm15.23-9.16-3.62-6.26-2.35 4.07a1.46 1.46 0 0 0 1.27 2.2h4.7Zm12.09 9.17v-8.1H26.4l5.4 9.34h12.6a1.25 1.25 0 0 0 1.26-1.24ZM44.4 18.94h-8.3l-5.53 9.58 4.23 7.33h10.86V20.18a1.25 1.25 0 0 0-1.25-1.24Z"/></svg>