<svg xmlns="http://www.w3.org/2000/svg" fill="none" viewBox="0 0 64 65"><path fill="#4FFD7A" d="M0 .2h64v64H0z"/><path fill="#0F3017" fill-rule="evenodd" d="M31.84 16.24c.1-.05.22-.05.32 0l13.68 7.85a.31.31 0 0 1 0 .54l-6.83 3.91H39a.32.32 0 0 1-.31 0L32 24.73l-6.53 3.74v7.48L32 39.7l6.69-3.84c.1-.05.21-.05.31 0l6.84 3.92a.31.31 0 0 1 0 .54l-13.68 7.85a.32.32 0 0 1-.32 0L25 44.24l-6.84-3.93a.31.31 0 0 1-.16-.27V24.36a.3.3 0 0 1 .16-.27L25 20.16l6.84-3.92Zm-7 4.73-5.9 3.39 5.9 3.38v-6.77Zm-6.21 3.92v6.77l5.9-3.38-5.9-3.39Zm0 7.85v6.77l5.9-3.39-5.9-3.38Zm6.21 3.92-5.9 3.38 5.9 3.39v-6.77Zm.94 7.3 5.9 3.39v-6.77l-5.9 3.39Zm6.53-3.38 5.9 3.39-5.9 3.38v-6.77Zm6.85 2.85 5.9-3.39-5.9-3.38v6.77Zm-.63-6.77v6.77l-5.9-3.39 5.9-3.38Zm-7.16 3.38-5.9-3.38v6.77l5.9-3.39Zm-6.53-4.46v-6.76l-5.9 3.38 5.9 3.38Zm.63-7.84 5.9-3.38-5.9-3.39v6.77Zm.31-7.3 5.9-3.39v6.77l-5.9-3.39Zm6.85 3.92 5.9-3.39v6.77l-5.9-3.38Zm6.53 3.38 5.9-3.38-5.9-3.39v6.77Zm-.94-7.3-5.9 3.38v-6.77l5.9 3.38Z" clip-rule="evenodd"/></svg>