<svg xmlns="http://www.w3.org/2000/svg" fill="none" viewBox="0 0 64 65"><path fill="#383838" d="M0 .2h64v64H0z"/><path fill="#0015FF" d="m36.95 27.5 6.12-7.05-1.21-1.05-6.12 7.04 1.21 1.05Z"/><path fill="#01F" d="m37.03 27.58 6.24-6.93-1.2-1.08-6.24 6.93 1.2 1.08Z"/><path fill="#000CFF" d="m37.1 27.67 6.37-6.82-1.18-1.1-6.36 6.82 1.18 1.1Z"/><path fill="#0008FF" d="m37.18 27.76 6.48-6.71-1.16-1.12-6.48 6.71 1.16 1.12Z"/><path fill="#0004FF" d="m37.26 27.85 6.6-6.6-1.15-1.14-6.6 6.6 1.15 1.14Z"/><path fill="#00F" d="m37.33 27.94 6.7-6.48-1.11-1.16-6.71 6.48 1.12 1.16Z"/><path fill="#0500FF" d="m37.4 28.04 6.82-6.36-1.1-1.18-6.82 6.36 1.1 1.18Z"/><path fill="#0900FF" d="m37.47 28.13 6.93-6.24-1.08-1.2-6.93 6.24 1.08 1.2Z"/><path fill="#0D00FF" d="m37.53 28.23 7.04-6.12-1.05-1.22-7.04 6.12 1.05 1.22Z"/><path fill="#10F" d="m37.6 28.32 7.14-6-1.03-1.23-7.15 6 1.04 1.23Z"/><path fill="#1600FF" d="m37.66 28.42 7.25-5.87-1.01-1.25-7.25 5.87 1.01 1.25Z"/><path fill="#1A00FF" d="m37.72 28.52 7.35-5.74-.99-1.27-7.35 5.74 1 1.27Z"/><path fill="#1E00FF" d="m37.78 28.62 7.45-5.61-.97-1.29-7.45 5.62.97 1.28Z"/><path fill="#20F" d="m37.84 28.72 7.55-5.48-.95-1.3-7.55 5.48.95 1.3Z"/><path fill="#2700FF" d="m37.9 28.83 7.64-5.35-.93-1.32-7.64 5.35.93 1.32Z"/><path fill="#2B00FF" d="m37.95 28.93 7.73-5.22-.9-1.33-7.73 5.21.9 1.34Z"/><path fill="#2F00FF" d="m38 29.03 7.83-5.08-.88-1.35-7.82 5.08.87 1.35Z"/><path fill="#30F" d="m38.05 29.14 7.92-4.94-.86-1.37-7.9 4.94.84 1.37Z"/><path fill="#3800FF" d="m38.1 29.25 8-4.8-.83-1.39-8 4.8.83 1.39Z"/><path fill="#3C00FF" d="m38.15 29.35 8.08-4.66-.8-1.4-8.08 4.67.8 1.4Z"/><path fill="#4000FF" d="m38.2 29.46 8.15-4.52-.78-1.41-8.16 4.52.79 1.41Z"/><path fill="#40F" d="m38.24 29.57 8.24-4.38-.76-1.42-8.24 4.38.76 1.42Z"/><path fill="#4800FF" d="m38.28 29.68 8.31-4.24-.73-1.43-8.31 4.23.73 1.44Z"/><path fill="#4D00FF" d="m38.32 29.79 8.38-4.1-.7-1.44-8.39 4.09.71 1.45Z"/><path fill="#5100FF" d="m38.36 29.9 8.45-3.94-.68-1.46-8.45 3.94.68 1.46Z"/><path fill="#50F" d="m38.4 30.01 8.52-3.8-.66-1.47-8.52 3.8.65 1.47Z"/><path fill="#5900FF" d="M38.43 30.12 47 26.48l-.63-1.49-8.58 3.65.63 1.48Z"/><path fill="#5E00FF" d="m38.46 30.23 8.65-3.49-.6-1.5-8.65 3.5.6 1.5Z"/><path fill="#6200FF" d="m38.49 30.35 8.7-3.35-.57-1.5-8.7 3.34.57 1.5Z"/><path fill="#60F" d="m38.52 30.46 8.76-3.19-.55-1.51-8.76 3.19.55 1.51Z"/><path fill="#6A00FF" d="m38.54 30.57 8.82-3.03-.52-1.53-8.82 3.04.52 1.52Z"/><path fill="#6F00FF" d="m38.57 30.69 8.87-2.88-.5-1.54-8.87 2.89.5 1.53Z"/><path fill="#7300FF" d="m38.59 30.8 8.92-2.72-.47-1.54-8.92 2.72.47 1.54Z"/><path fill="#70F" d="m38.6 30.92 8.98-2.57-.45-1.55-8.97 2.57.45 1.55Z"/><path fill="#7B00FF" d="m38.63 31.03 9-2.41-.41-1.56-9.01 2.42.42 1.55Z"/><path fill="#8000FF" d="m38.64 31.15 9.05-2.26-.39-1.56-9.05 2.26.4 1.56Z"/><path fill="#8400FF" d="m38.66 31.27 9.09-2.1-.37-1.57-9.09 2.1.37 1.57Z"/><path fill="#80F" d="m38.67 31.38 9.12-1.94-.33-1.57-9.13 1.94.34 1.57Z"/><path fill="#8C00FF" d="m38.68 31.5 9.15-1.78-.3-1.58-9.16 1.78.3 1.58Z"/><path fill="#9100FF" d="M38.69 31.62 47.87 30l-.28-1.6-9.18 1.63.28 1.59Z"/><path fill="#9500FF" d="m38.7 31.73 9.2-1.46-.25-1.59-9.21 1.46.25 1.6Z"/><path fill="#90F" d="m38.7 31.85 9.23-1.3-.22-1.6-9.24 1.3.23 1.6Z"/><path fill="#9D00FF" d="m38.7 31.97 9.25-1.14-.2-1.6-9.25 1.14.2 1.6Z"/><path fill="#A100FF" d="m38.7 32.08 9.27-.97-.17-1.6-9.27.97.17 1.6Z"/><path fill="#A600FF" d="m38.7 32.2 9.29-.81-.14-1.6-9.3.8.14 1.61Z"/><path fill="#A0F" d="m38.69 32.32 9.3-.65-.1-1.61-9.31.65.1 1.6Z"/><path fill="#AE00FF" d="m38.68 32.43 9.32-.48-.09-1.61-9.31.48.08 1.61Z"/><path fill="#B200FF" d="m38.67 32.55 9.33-.33-.06-1.6-9.32.32.05 1.61Z"/><path fill="#B700FF" d="M38.66 32.67 48 32.5l-.03-1.6-9.32.15.02 1.62Z"/><path fill="#B0F" d="M38.65 32.78h9.33v-1.6h-9.33v1.6Z"/><path fill="#BF00FF" d="m38.64 32.9 9.32.16.03-1.61-9.33-.16-.02 1.6Z"/><path fill="#C300FF" d="m38.62 33.01 9.32.33.06-1.61-9.32-.33-.06 1.61Z"/><path fill="#C800FF" d="m38.6 33.13 9.32.49L48 32l-9.31-.49-.09 1.61Z"/><path fill="#C0F" d="m38.58 33.24 9.3.66.12-1.61-9.3-.65-.12 1.6Z"/><path fill="#D000FF" d="m38.56 33.36 9.29.81.14-1.6-9.3-.82-.13 1.6Z"/><path fill="#D400FF" d="m38.53 33.47 9.28.98.17-1.6-9.28-.98-.17 1.6Z"/><path fill="#D900FF" d="m38.5 33.59 9.26 1.13.2-1.6L38.7 32l-.2 1.6Z"/><path fill="#D0F" d="M38.48 33.7 47.7 35l.23-1.6-9.24-1.3-.22 1.6Z"/><path fill="#E100FF" d="m38.45 33.81 9.2 1.46.26-1.59-9.21-1.46-.25 1.6Z"/><path fill="#E500FF" d="m38.41 33.93 9.19 1.62.28-1.6-9.19-1.61-.28 1.59Z"/><path fill="#EA00FF" d="m38.38 34.04 9.16 1.78.3-1.59-9.15-1.78-.31 1.59Z"/><path fill="#E0F" d="m38.34 34.15 9.13 1.94.33-1.58-9.12-1.94-.34 1.58Z"/><path fill="#F200FF" d="m38.3 34.26 9.1 2.1.36-1.57-9.1-2.1-.36 1.57Z"/><path fill="#F600FF" d="m38.26 34.37 9.05 2.25.4-1.56-9.06-2.26-.39 1.57Z"/><path fill="#FA00FF" d="m38.22 34.48 9.01 2.41.42-1.56-9.01-2.41-.42 1.56Z"/><path fill="#F0F" d="m38.18 34.59 8.96 2.57.45-1.55-8.97-2.57-.44 1.55Z"/><path fill="#FF00FB" d="m38.13 34.7 8.92 2.72.47-1.54-8.92-2.73-.47 1.54Z"/><path fill="#FF00F7" d="m38.08 34.8 8.87 2.88.5-1.53-8.87-2.88-.5 1.53Z"/><path fill="#FF00F3" d="m38.03 34.9 8.82 3.04.53-1.52-8.82-3.04-.53 1.53Z"/><path fill="#F0E" d="m37.98 35.01 8.77 3.19.55-1.51-8.77-3.2-.55 1.52Z"/><path fill="#FF00EA" d="m37.93 35.11 8.7 3.35.58-1.5-8.7-3.35-.58 1.5Z"/><path fill="#FF00E6" d="m37.87 35.22 8.65 3.5.6-1.5-8.64-3.5-.6 1.5Z"/><path fill="#FF00E2" d="m37.82 35.32 8.58 3.64.63-1.48-8.58-3.64-.63 1.48Z"/><path fill="#F0D" d="m37.76 35.42 8.52 3.8.65-1.48-8.52-3.8-.65 1.48Z"/><path fill="#FF00D9" d="m37.7 35.52 8.45 3.94.68-1.46-8.45-3.94-.68 1.46Z"/><path fill="#FF00D5" d="m37.63 35.62 8.39 4.09.7-1.45-8.38-4.09-.7 1.45Z"/><path fill="#FF00D1" d="m37.57 35.72 8.31 4.23.73-1.43-8.3-4.24-.74 1.44Z"/><path fill="#F0C" d="m37.5 35.81 8.24 4.38.76-1.42-8.24-4.38-.75 1.42Z"/><path fill="#FF00C8" d="m37.44 35.9 8.16 4.53.78-1.4-8.16-4.53-.78 1.4Z"/><path fill="#FF00C4" d="m37.37 36 8.08 4.67.8-1.4-8.08-4.66-.8 1.4Z"/><path fill="#FF00C0" d="m37.3 36.1 8 4.8.82-1.38-8-4.8-.82 1.38Z"/><path fill="#F0B" d="m37.23 36.19 7.9 4.94.86-1.37-7.91-4.94-.85 1.37Z"/><path fill="#FF00B7" d="m37.15 36.28 7.82 5.08.88-1.35-7.82-5.08-.88 1.35Z"/><path fill="#FF00B3" d="m37.08 36.37 7.73 5.21.9-1.33-7.73-5.22-.9 1.34Z"/><path fill="#FF00AF" d="m37 36.46 7.64 5.35.92-1.32-7.64-5.35-.92 1.32Z"/><path fill="#FF00AB" d="m36.92 36.54 7.55 5.48.94-1.3-7.54-5.48-.95 1.3Z"/><path fill="#FF00A6" d="m36.84 36.63 7.45 5.61.97-1.29-7.45-5.61-.97 1.29Z"/><path fill="#FF00A2" d="m36.76 36.71 7.35 5.74 1-1.27-7.36-5.74-1 1.27Z"/><path fill="#FF009E" d="m36.68 36.8 7.25 5.86 1.01-1.25-7.25-5.87-1.01 1.25Z"/><path fill="#FF009A" d="m36.6 36.87 7.14 6 1.03-1.23-7.14-6-1.04 1.23Z"/><path fill="#FF0095" d="m36.5 36.95 7.05 6.12 1.05-1.21-7.04-6.12-1.05 1.21Z"/><path fill="#FF0091" d="m36.42 37.03 6.93 6.24 1.08-1.2-6.93-6.24-1.08 1.2Z"/><path fill="#FF008D" d="m36.33 37.1 6.82 6.37 1.1-1.18-6.82-6.36-1.1 1.18Z"/><path fill="#FF0089" d="m36.24 37.18 6.71 6.48 1.12-1.16-6.71-6.48-1.12 1.16Z"/><path fill="#FF0084" d="m36.15 37.26 6.6 6.6 1.13-1.15-6.6-6.6-1.13 1.15Z"/><path fill="#FF0080" d="m36.06 37.33 6.48 6.7 1.16-1.11-6.48-6.71-1.16 1.12Z"/><path fill="#FF007C" d="m35.96 37.4 6.37 6.82 1.17-1.1-6.36-6.82-1.18 1.1Z"/><path fill="#FF0078" d="m35.87 37.47 6.24 6.93 1.2-1.08-6.24-6.93-1.2 1.08Z"/><path fill="#FF0073" d="m35.77 37.53 6.12 7.04 1.22-1.05-6.12-7.04-1.22 1.05Z"/><path fill="#FF006F" d="m35.68 37.6 6 7.14 1.23-1.03-6-7.15-1.23 1.04Z"/><path fill="#FF006B" d="m35.58 37.66 5.87 7.25 1.25-1.01-5.87-7.25-1.25 1.01Z"/><path fill="#FF0067" d="m35.48 37.72 5.74 7.35 1.27-.99-5.74-7.35-1.27 1Z"/><path fill="#FF0062" d="m35.38 37.78 5.61 7.45 1.29-.97-5.62-7.45-1.28.97Z"/><path fill="#FF005E" d="m35.28 37.84 5.48 7.55 1.3-.95-5.48-7.55-1.3.95Z"/><path fill="#FF005A" d="m35.17 37.9 5.35 7.64 1.32-.93-5.35-7.64-1.32.93Z"/><path fill="#FF0056" d="m35.07 37.95 5.22 7.73 1.33-.9-5.21-7.73-1.34.9Z"/><path fill="#FF0052" d="m34.97 38 5.08 7.83 1.35-.88-5.08-7.82-1.35.87Z"/><path fill="#FF004D" d="m34.86 38.05 4.94 7.92 1.37-.86-4.94-7.9-1.37.84Z"/><path fill="#FF0049" d="m34.75 38.1 4.8 8 1.39-.83-4.8-8-1.39.83Z"/><path fill="#FF0045" d="m34.65 38.15 4.66 8.08 1.4-.8-4.67-8.08-1.4.8Z"/><path fill="#FF0041" d="m34.54 38.2 4.52 8.15 1.41-.78-4.52-8.16-1.41.79Z"/><path fill="#FF003C" d="m34.43 38.24 4.38 8.24 1.42-.76-4.38-8.24-1.42.76Z"/><path fill="#FF0038" d="m34.32 38.28 4.24 8.31 1.43-.73-4.23-8.31-1.44.73Z"/><path fill="#FF0034" d="m34.21 38.32 4.1 8.38 1.44-.7-4.09-8.39-1.45.71Z"/><path fill="#FF0030" d="m34.1 38.36 3.94 8.45 1.46-.68-3.94-8.45-1.46.68Z"/><path fill="#FF002B" d="m33.99 38.4 3.8 8.52 1.47-.66-3.8-8.52-1.47.65Z"/><path fill="#FF0027" d="M33.88 38.43 37.52 47l1.49-.63-3.65-8.58-1.48.63Z"/><path fill="#FF0023" d="m33.77 38.46 3.49 8.65 1.5-.6-3.5-8.65-1.5.6Z"/><path fill="#FF001F" d="m33.65 38.49 3.35 8.7 1.5-.57-3.34-8.7-1.5.57Z"/><path fill="#FF001A" d="m33.54 38.52 3.19 8.76 1.51-.55-3.19-8.76-1.51.55Z"/><path fill="#FF0016" d="m33.43 38.54 3.03 8.82 1.53-.52-3.04-8.82-1.52.52Z"/><path fill="#FF0012" d="m33.31 38.57 2.88 8.87 1.54-.5-2.89-8.87-1.53.5Z"/><path fill="#FF000E" d="m33.2 38.59 2.72 8.92 1.54-.47-2.72-8.92-1.54.47Z"/><path fill="#FF0009" d="m33.08 38.6 2.57 8.98 1.55-.45-2.57-8.97-1.55.45Z"/><path fill="#FF0005" d="m32.97 38.63 2.41 9 1.56-.41-2.42-9.01-1.55.42Z"/><path fill="#FF0001" d="m32.85 38.64 2.26 9.05 1.56-.39-2.26-9.05-1.56.4Z"/><path fill="#FF0300" d="m32.73 38.66 2.1 9.09 1.57-.37-2.1-9.09-1.57.37Z"/><path fill="#FF0700" d="m32.62 38.67 1.94 9.12 1.57-.33-1.94-9.13-1.57.34Z"/><path fill="#FF0C00" d="m32.5 38.68 1.78 9.15 1.58-.3-1.78-9.16-1.58.3Z"/><path fill="#FF1000" d="M32.38 38.69 34 47.87l1.6-.28-1.63-9.18-1.59.28Z"/><path fill="#FF1400" d="m32.27 38.7 1.46 9.2 1.59-.25-1.46-9.21-1.6.25Z"/><path fill="#FF1800" d="m32.15 38.7 1.3 9.23 1.6-.22-1.3-9.24-1.6.23Z"/><path fill="#FF1D00" d="m32.03 38.7 1.14 9.25 1.6-.2-1.14-9.25-1.6.2Z"/><path fill="#FF2100" d="m31.92 38.7.97 9.27 1.6-.17-.97-9.27-1.6.17Z"/><path fill="#FF2500" d="m31.8 38.7.81 9.29 1.6-.14-.8-9.3-1.61.14Z"/><path fill="#FF2900" d="m31.68 38.69.65 9.3 1.61-.1-.65-9.31-1.6.1Z"/><path fill="#FF2E00" d="m31.57 38.68.48 9.32 1.61-.09-.48-9.31-1.61.08Z"/><path fill="#FF3200" d="m31.45 38.67.33 9.33 1.6-.06-.32-9.32-1.61.05Z"/><path fill="#FF3600" d="M31.33 38.66 31.5 48l1.6-.03-.15-9.32-1.62.02Z"/><path fill="#FF3A00" d="M31.22 38.65v9.33h1.6v-9.33h-1.6Z"/><path fill="#FF3F00" d="m31.1 38.64-.16 9.32 1.61.03.16-9.33-1.6-.02Z"/><path fill="#FF4300" d="m30.99 38.62-.33 9.32 1.61.06.33-9.32-1.61-.06Z"/><path fill="#FF4700" d="m30.87 38.6-.49 9.32L32 48l.49-9.31-1.6-.09Z"/><path fill="#FF4B00" d="m30.76 38.58-.66 9.3 1.61.12.65-9.3-1.6-.12Z"/><path fill="#FF5000" d="m30.64 38.56-.81 9.29 1.6.14.82-9.3-1.6-.13Z"/><path fill="#FF5400" d="m30.53 38.53-.98 9.28 1.6.17.98-9.28-1.6-.17Z"/><path fill="#FF5800" d="m30.41 38.5-1.13 9.26 1.6.2L32 38.7l-1.6-.2Z"/><path fill="#FF5C00" d="M30.3 38.48 29 47.7l1.6.23 1.3-9.24-1.6-.22Z"/><path fill="#FF6000" d="m30.19 38.45-1.46 9.2 1.59.26 1.46-9.21-1.6-.25Z"/><path fill="#FF6500" d="m30.07 38.41-1.62 9.19 1.6.28 1.61-9.19-1.59-.28Z"/><path fill="#FF6900" d="m29.96 38.38-1.78 9.16 1.59.3 1.78-9.15-1.59-.31Z"/><path fill="#FF6D00" d="m29.85 38.34-1.94 9.13 1.58.33 1.94-9.12-1.58-.34Z"/><path fill="#FF7100" d="m29.74 38.3-2.1 9.1 1.57.36 2.1-9.1-1.57-.36Z"/><path fill="#FF7600" d="m29.63 38.26-2.25 9.05 1.56.4 2.26-9.06-1.57-.39Z"/><path fill="#FF7A00" d="m29.52 38.22-2.41 9.01 1.56.42 2.41-9.01-1.56-.42Z"/><path fill="#FF7E00" d="m29.41 38.18-2.57 8.96 1.55.45 2.57-8.97-1.55-.44Z"/><path fill="#FF8200" d="m29.3 38.13-2.72 8.92 1.54.47 2.73-8.92-1.54-.47Z"/><path fill="#FF8700" d="m29.2 38.08-2.88 8.87 1.53.5 2.88-8.87-1.53-.5Z"/><path fill="#FF8B00" d="m29.1 38.03-3.04 8.82 1.52.53 3.04-8.82-1.53-.53Z"/><path fill="#FF8F00" d="m28.99 37.98-3.19 8.77 1.51.55 3.2-8.77-1.52-.55Z"/><path fill="#FF9300" d="m28.89 37.93-3.35 8.7 1.5.58 3.35-8.7-1.5-.58Z"/><path fill="#FF9800" d="m28.78 37.87-3.5 8.65 1.5.6 3.5-8.64-1.5-.6Z"/><path fill="#FF9C00" d="m28.68 37.82-3.64 8.58 1.48.63 3.64-8.58-1.48-.63Z"/><path fill="#FFA000" d="m28.58 37.76-3.8 8.52 1.48.65 3.8-8.52-1.48-.65Z"/><path fill="#FFA400" d="m28.48 37.7-3.94 8.45 1.46.68 3.94-8.45-1.46-.68Z"/><path fill="#FFA900" d="m28.38 37.63-4.09 8.39 1.45.7 4.09-8.38-1.45-.7Z"/><path fill="#FFAD00" d="m28.28 37.57-4.23 8.31 1.43.73 4.24-8.3-1.44-.74Z"/><path fill="#FFB100" d="m28.19 37.5-4.38 8.24 1.42.76 4.38-8.24-1.42-.75Z"/><path fill="#FFB500" d="m28.1 37.44-4.53 8.16 1.4.78 4.53-8.16-1.4-.78Z"/><path fill="#FFB900" d="m28 37.37-4.67 8.08 1.4.8 4.66-8.08-1.4-.8Z"/><path fill="#FFBE00" d="m27.9 37.3-4.8 8 1.38.82 4.8-8-1.38-.82Z"/><path fill="#FFC200" d="m27.81 37.23-4.94 7.9 1.37.86 4.94-7.91-1.37-.85Z"/><path fill="#FFC600" d="m27.72 37.15-5.08 7.82 1.35.88 5.08-7.82-1.35-.88Z"/><path fill="#FFCA00" d="m27.63 37.08-5.21 7.73 1.33.9 5.22-7.73-1.34-.9Z"/><path fill="#FFCF00" d="m27.54 37-5.35 7.64 1.32.92 5.35-7.64-1.32-.92Z"/><path fill="#FFD300" d="m27.46 36.92-5.48 7.55 1.3.94 5.48-7.54-1.3-.95Z"/><path fill="gold" d="m27.37 36.84-5.61 7.45 1.29.97 5.61-7.45-1.29-.97Z"/><path fill="#FFDB00" d="m27.29 36.76-5.74 7.35 1.27 1 5.74-7.36-1.27-1Z"/><path fill="#FFE000" d="m27.2 36.68-5.86 7.25 1.25 1.01 5.87-7.25-1.25-1.01Z"/><path fill="#FFE400" d="m27.13 36.6-6 7.14 1.23 1.03 6-7.14-1.23-1.04Z"/><path fill="#FFE800" d="m27.05 36.5-6.12 7.05 1.21 1.05 6.12-7.04-1.21-1.05Z"/><path fill="#FFEC00" d="m26.97 36.42-6.24 6.93 1.2 1.08 6.24-6.93-1.2-1.08Z"/><path fill="#FFF100" d="m26.9 36.33-6.37 6.82 1.18 1.1 6.36-6.82-1.18-1.1Z"/><path fill="#FFF500" d="m26.82 36.24-6.48 6.71 1.16 1.12 6.48-6.71-1.16-1.12Z"/><path fill="#FFF900" d="m26.74 36.15-6.6 6.6 1.15 1.13 6.6-6.6-1.15-1.13Z"/><path fill="#FFFD00" d="m26.67 36.06-6.7 6.48 1.11 1.16 6.71-6.48-1.12-1.16Z"/><path fill="#FCFF00" d="m26.6 35.96-6.82 6.37 1.1 1.17 6.82-6.36-1.1-1.18Z"/><path fill="#F8FF00" d="M26.53 35.87 19.6 42.1l1.08 1.2 6.93-6.24-1.08-1.2Z"/><path fill="#F4FF00" d="m26.47 35.77-7.04 6.12 1.05 1.22 7.04-6.12-1.05-1.22Z"/><path fill="#F0FF00" d="m26.4 35.68-7.14 6 1.03 1.23 7.15-6-1.04-1.23Z"/><path fill="#ECFF00" d="m26.34 35.58-7.25 5.87 1.01 1.25 7.25-5.87-1.01-1.25Z"/><path fill="#E7FF00" d="m26.28 35.48-7.35 5.74.99 1.27 7.35-5.74-1-1.27Z"/><path fill="#E3FF00" d="m26.22 35.38-7.45 5.61.97 1.29 7.45-5.62-.97-1.28Z"/><path fill="#DFFF00" d="m26.16 35.28-7.55 5.48.95 1.3 7.55-5.48-.95-1.3Z"/><path fill="#DBFF00" d="m26.1 35.17-7.64 5.35.93 1.32 7.64-5.35-.93-1.32Z"/><path fill="#D6FF00" d="m26.05 35.07-7.73 5.22.9 1.33 7.73-5.21-.9-1.34Z"/><path fill="#D2FF00" d="m26 34.97-7.83 5.08.88 1.35 7.82-5.08-.87-1.35Z"/><path fill="#CEFF00" d="m25.95 34.86-7.92 4.94.86 1.37 7.9-4.94-.84-1.37Z"/><path fill="#CAFF00" d="m25.9 34.75-8 4.8.83 1.39 8-4.8-.83-1.39Z"/><path fill="#C5FF00" d="m25.85 34.65-8.08 4.66.8 1.4 8.08-4.67-.8-1.4Z"/><path fill="#C1FF00" d="m25.8 34.54-8.15 4.52.78 1.41 8.16-4.52-.79-1.41Z"/><path fill="#BDFF00" d="m25.76 34.43-8.24 4.38.76 1.42 8.24-4.38-.76-1.42Z"/><path fill="#B9FF00" d="m25.72 34.32-8.31 4.24.73 1.43 8.31-4.23-.73-1.44Z"/><path fill="#B4FF00" d="m25.68 34.21-8.38 4.1.7 1.44 8.39-4.09-.71-1.45Z"/><path fill="#B0FF00" d="m25.64 34.1-8.45 3.94.68 1.46 8.45-3.94-.68-1.46Z"/><path fill="#ACFF00" d="m25.6 33.99-8.52 3.8.66 1.47 8.52-3.8-.65-1.47Z"/><path fill="#A8FF00" d="M25.57 33.88 17 37.52l.63 1.49 8.58-3.65-.63-1.48Z"/><path fill="#A3FF00" d="m25.54 33.77-8.65 3.49.6 1.5 8.65-3.5-.6-1.5Z"/><path fill="#9FFF00" d="M25.51 33.65 16.81 37l.57 1.5 8.7-3.34-.57-1.5Z"/><path fill="#9BFF00" d="m25.48 33.54-8.76 3.19.55 1.51 8.76-3.19-.55-1.51Z"/><path fill="#97FF00" d="m25.46 33.43-8.82 3.03.52 1.53 8.82-3.04-.52-1.52Z"/><path fill="#93FF00" d="m25.43 33.31-8.87 2.88.5 1.54 8.87-2.89-.5-1.53Z"/><path fill="#8EFF00" d="m25.41 33.2-8.92 2.72.47 1.54 8.92-2.72-.47-1.54Z"/><path fill="#8AFF00" d="m25.4 33.08-8.98 2.57.45 1.55 8.97-2.57-.45-1.55Z"/><path fill="#86FF00" d="m25.37 32.97-9 2.41.41 1.56 9.01-2.42-.42-1.55Z"/><path fill="#82FF00" d="m25.36 32.85-9.05 2.26.39 1.56 9.05-2.26-.4-1.56Z"/><path fill="#7DFF00" d="m25.34 32.73-9.09 2.1.37 1.57 9.09-2.1-.37-1.57Z"/><path fill="#79FF00" d="m25.33 32.62-9.12 1.94.33 1.57 9.13-1.94-.34-1.57Z"/><path fill="#75FF00" d="m25.32 32.5-9.15 1.78.3 1.58 9.16-1.78-.3-1.58Z"/><path fill="#71FF00" d="M25.31 32.38 16.13 34l.28 1.6 9.18-1.63-.28-1.59Z"/><path fill="#6CFF00" d="m25.3 32.27-9.2 1.46.25 1.59 9.21-1.46-.25-1.6Z"/><path fill="#68FF00" d="m25.3 32.15-9.23 1.3.22 1.6 9.24-1.3-.23-1.6Z"/><path fill="#64FF00" d="m25.3 32.03-9.25 1.14.2 1.6 9.25-1.14-.2-1.6Z"/><path fill="#60FF00" d="m25.3 31.92-9.27.97.17 1.6 9.27-.97-.17-1.6Z"/><path fill="#5BFF00" d="m25.3 31.8-9.29.81.14 1.6 9.3-.8-.14-1.61Z"/><path fill="#57FF00" d="m25.31 31.68-9.3.65.1 1.61 9.31-.65-.1-1.6Z"/><path fill="#53FF00" d="m25.32 31.57-9.32.48.09 1.61 9.31-.48-.08-1.61Z"/><path fill="#4FFF00" d="m25.33 31.45-9.33.33.06 1.6 9.32-.32-.05-1.61Z"/><path fill="#4AFF00" d="M25.34 31.33 16 31.5l.03 1.6 9.32-.15-.02-1.62Z"/><path fill="#46FF00" d="M25.35 31.22h-9.33v1.6h9.33v-1.6Z"/><path fill="#42FF00" d="m25.36 31.1-9.32-.16-.03 1.61 9.33.16.02-1.6Z"/><path fill="#3EFF00" d="m25.38 30.99-9.32-.33-.06 1.61 9.32.33.06-1.61Z"/><path fill="#3AFF00" d="m25.4 30.87-9.32-.49L16 32l9.31.49.09-1.6Z"/><path fill="#35FF00" d="m25.42 30.76-9.3-.66-.12 1.61 9.3.65.12-1.6Z"/><path fill="#31FF00" d="m25.44 30.64-9.29-.81-.14 1.6 9.3.82.13-1.6Z"/><path fill="#2DFF00" d="m25.47 30.53-9.28-.98-.17 1.6 9.28.98.17-1.6Z"/><path fill="#29FF00" d="m25.5 30.41-9.26-1.13-.2 1.6L25.3 32l.2-1.6Z"/><path fill="#24FF00" d="M25.52 30.3 16.3 29l-.23 1.6 9.24 1.3.22-1.6Z"/><path fill="#20FF00" d="m25.55 30.19-9.2-1.46-.26 1.59 9.21 1.46.25-1.6Z"/><path fill="#1CFF00" d="m25.59 30.07-9.19-1.62-.28 1.6 9.19 1.61.28-1.59Z"/><path fill="#18FF00" d="m25.62 29.96-9.16-1.78-.3 1.59 9.15 1.78.31-1.59Z"/><path fill="#13FF00" d="m25.66 29.85-9.13-1.94-.33 1.58 9.12 1.94.34-1.58Z"/><path fill="#0FFF00" d="m25.7 29.74-9.1-2.1-.36 1.57 9.1 2.1.36-1.57Z"/><path fill="#0BFF00" d="m25.74 29.63-9.05-2.25-.4 1.56 9.06 2.26.39-1.57Z"/><path fill="#07FF00" d="m25.78 29.52-9.01-2.41-.42 1.56 9.01 2.41.42-1.56Z"/><path fill="#02FF00" d="m25.82 29.41-8.96-2.57-.45 1.55 8.97 2.57.44-1.55Z"/><path fill="#00FF02" d="m25.87 29.3-8.92-2.72-.47 1.54 8.92 2.73.47-1.54Z"/><path fill="#00FF06" d="m25.92 29.2-8.87-2.88-.5 1.53 8.87 2.88.5-1.53Z"/><path fill="#00FF0A" d="m25.97 29.1-8.82-3.04-.53 1.52 8.82 3.04.53-1.53Z"/><path fill="#00FF0F" d="m26.02 28.99-8.77-3.19-.55 1.51 8.77 3.2.55-1.52Z"/><path fill="#00FF13" d="m26.07 28.89-8.7-3.35-.58 1.5 8.7 3.35.58-1.5Z"/><path fill="#00FF17" d="m26.13 28.78-8.65-3.5-.6 1.5 8.64 3.5.6-1.5Z"/><path fill="#00FF1B" d="m26.18 28.68-8.58-3.64-.63 1.48 8.58 3.64.63-1.48Z"/><path fill="#00FF1F" d="m26.24 28.58-8.52-3.8-.65 1.48 8.52 3.8.65-1.48Z"/><path fill="#00FF24" d="m26.3 28.48-8.45-3.94-.68 1.46 8.45 3.94.68-1.46Z"/><path fill="#00FF28" d="m26.37 28.38-8.39-4.09-.7 1.45 8.38 4.09.7-1.45Z"/><path fill="#00FF2C" d="m26.43 28.28-8.31-4.23-.73 1.43 8.3 4.24.74-1.44Z"/><path fill="#00FF30" d="m26.5 28.19-8.24-4.38-.76 1.42 8.24 4.38.76-1.42Z"/><path fill="#00FF35" d="m26.56 28.1-8.16-4.53-.78 1.4 8.16 4.53.78-1.4Z"/><path fill="#00FF39" d="m26.63 28-8.08-4.67-.8 1.4 8.08 4.66.8-1.4Z"/><path fill="#00FF3D" d="m26.7 27.9-8-4.8-.82 1.38 8 4.8.82-1.38Z"/><path fill="#00FF41" d="m26.77 27.81-7.9-4.94-.86 1.37 7.91 4.94.85-1.37Z"/><path fill="#00FF46" d="m26.85 27.72-7.82-5.08-.88 1.35 7.82 5.08.88-1.35Z"/><path fill="#00FF4A" d="m26.92 27.63-7.73-5.21-.9 1.33 7.73 5.22.9-1.34Z"/><path fill="#00FF4E" d="m27 27.54-7.64-5.35-.92 1.32 7.64 5.35.92-1.32Z"/><path fill="#00FF52" d="m27.08 27.46-7.55-5.48-.94 1.3 7.54 5.48.95-1.3Z"/><path fill="#00FF57" d="m27.16 27.37-7.45-5.61-.97 1.29 7.45 5.61.97-1.29Z"/><path fill="#00FF5B" d="m27.24 27.29-7.35-5.74-1 1.27 7.36 5.74 1-1.27Z"/><path fill="#00FF5F" d="m27.32 27.2-7.25-5.86-1.01 1.25 7.25 5.87 1.01-1.25Z"/><path fill="#00FF63" d="m27.4 27.13-7.14-6-1.03 1.23 7.14 6 1.04-1.23Z"/><path fill="#00FF68" d="m27.5 27.05-7.05-6.12-1.05 1.21 7.04 6.12 1.05-1.21Z"/><path fill="#00FF6C" d="m27.58 26.97-6.93-6.24-1.08 1.2 6.93 6.24 1.08-1.2Z"/><path fill="#00FF70" d="m27.67 26.9-6.82-6.37-1.1 1.18 6.82 6.36 1.1-1.18Z"/><path fill="#00FF74" d="m27.76 26.82-6.71-6.48-1.12 1.16 6.71 6.48 1.12-1.16Z"/><path fill="#00FF78" d="m27.85 26.74-6.6-6.6-1.14 1.15 6.6 6.6 1.14-1.15Z"/><path fill="#00FF7D" d="m27.94 26.67-6.48-6.7-1.16 1.11 6.48 6.71 1.16-1.12Z"/><path fill="#00FF81" d="m28.04 26.6-6.36-6.82-1.18 1.1 6.36 6.82 1.18-1.1Z"/><path fill="#00FF85" d="M28.13 26.53 21.9 19.6l-1.2 1.08 6.24 6.93 1.2-1.08Z"/><path fill="#00FF89" d="m28.23 26.47-6.12-7.04-1.22 1.05 6.12 7.04 1.22-1.05Z"/><path fill="#00FF8E" d="m28.32 26.4-6-7.14-1.23 1.03 6 7.15 1.23-1.04Z"/><path fill="#00FF92" d="m28.42 26.34-5.87-7.25-1.25 1.01 5.87 7.25 1.25-1.01Z"/><path fill="#00FF96" d="m28.52 26.28-5.74-7.35-1.27.99 5.74 7.35 1.27-1Z"/><path fill="#00FF9A" d="m28.62 26.22-5.61-7.45-1.29.97 5.62 7.45 1.28-.97Z"/><path fill="#00FF9F" d="m28.72 26.16-5.48-7.55-1.3.95 5.48 7.55 1.3-.95Z"/><path fill="#00FFA3" d="m28.83 26.1-5.35-7.64-1.32.93 5.35 7.64 1.32-.93Z"/><path fill="#00FFA7" d="m28.93 26.05-5.22-7.73-1.33.9 5.21 7.73 1.34-.9Z"/><path fill="#00FFAB" d="m29.03 26-5.08-7.83-1.35.88 5.08 7.82 1.35-.87Z"/><path fill="#00FFB0" d="m29.14 25.95-4.94-7.92-1.37.86 4.94 7.9 1.37-.84Z"/><path fill="#00FFB4" d="m29.25 25.9-4.8-8-1.39.83 4.8 8 1.39-.83Z"/><path fill="#00FFB8" d="m29.35 25.85-4.66-8.08-1.4.8 4.67 8.08 1.4-.8Z"/><path fill="#00FFBC" d="m29.46 25.8-4.52-8.15-1.41.78 4.52 8.16 1.41-.79Z"/><path fill="#00FFC1" d="m29.57 25.76-4.38-8.24-1.42.76 4.38 8.24 1.42-.76Z"/><path fill="#00FFC5" d="m29.68 25.72-4.24-8.31-1.43.73 4.23 8.31 1.44-.73Z"/><path fill="#00FFC9" d="m29.79 25.68-4.1-8.38-1.44.7 4.09 8.39 1.45-.71Z"/><path fill="#00FFCD" d="m29.9 25.64-3.94-8.45-1.46.68 3.94 8.45 1.46-.68Z"/><path fill="#00FFD1" d="m30.01 25.6-3.8-8.52-1.47.66 3.8 8.52 1.47-.65Z"/><path fill="#00FFD6" d="M30.12 25.57 26.48 17l-1.49.63 3.65 8.58 1.48-.63Z"/><path fill="#00FFDA" d="m30.23 25.54-3.49-8.65-1.5.6 3.5 8.65 1.5-.6Z"/><path fill="#00FFDE" d="M30.35 25.51 27 16.81l-1.5.57 3.34 8.7 1.5-.57Z"/><path fill="#00FFE2" d="m30.46 25.48-3.19-8.76-1.51.55 3.19 8.76 1.51-.55Z"/><path fill="#00FFE7" d="m30.57 25.46-3.03-8.82-1.53.52 3.04 8.82 1.52-.52Z"/><path fill="#00FFEB" d="m30.69 25.43-2.88-8.87-1.54.5 2.89 8.87 1.53-.5Z"/><path fill="#00FFEF" d="m30.8 25.41-2.72-8.92-1.54.47 2.72 8.92 1.54-.47Z"/><path fill="#00FFF3" d="m30.92 25.4-2.57-8.98-1.55.45 2.57 8.97 1.55-.45Z"/><path fill="#00FFF8" d="m31.03 25.37-2.41-9-1.56.41 2.42 9.01 1.55-.42Z"/><path fill="#00FFFC" d="m31.15 25.36-2.26-9.05-1.56.39 2.26 9.05 1.56-.4Z"/><path fill="#00FEFF" d="m31.27 25.34-2.1-9.09-1.57.37 2.1 9.09 1.57-.37Z"/><path fill="#00FAFF" d="m31.38 25.33-1.94-9.12-1.57.33 1.94 9.13 1.57-.34Z"/><path fill="#00F5FF" d="m31.5 25.32-1.78-9.15-1.58.3 1.78 9.16 1.58-.3Z"/><path fill="#00F1FF" d="M31.62 25.31 30 16.13l-1.6.28 1.63 9.18 1.59-.28Z"/><path fill="#00EDFF" d="m31.73 25.3-1.46-9.2-1.59.25 1.46 9.21 1.6-.25Z"/><path fill="#00E9FF" d="m31.85 25.3-1.3-9.23-1.6.22 1.3 9.24 1.6-.23Z"/><path fill="#00E4FF" d="m31.97 25.3-1.14-9.25-1.6.2 1.14 9.25 1.6-.2Z"/><path fill="#00E0FF" d="m32.08 25.3-.97-9.27-1.6.17.97 9.27 1.6-.17Z"/><path fill="#00DCFF" d="m32.2 25.3-.81-9.29-1.6.14.8 9.3 1.61-.14Z"/><path fill="#00D8FF" d="m32.32 25.31-.65-9.3-1.61.1.65 9.31 1.6-.1Z"/><path fill="#00D4FF" d="M32.43 25.32 31.95 16l-1.61.09.48 9.31 1.61-.08Z"/><path fill="#00CFFF" d="M32.55 25.33 32.22 16l-1.6.06.32 9.32 1.61-.05Z"/><path fill="#00CBFF" d="M32.67 25.34 32.5 16l-1.6.03.15 9.32 1.62-.02Z"/><path fill="#00C7FF" d="M32.78 25.35v-9.33h-1.6v9.33h1.6Z"/><path fill="#00C3FF" d="m32.9 25.36.16-9.32-1.61-.03-.16 9.33 1.6.02Z"/><path fill="#00BEFF" d="m33.01 25.38.33-9.32-1.61-.06-.33 9.32 1.61.06Z"/><path fill="#00BAFF" d="m33.13 25.4.49-9.32L32 16l-.49 9.31 1.61.09Z"/><path fill="#00B6FF" d="m33.24 25.42.66-9.3-1.61-.12-.65 9.3 1.6.12Z"/><path fill="#00B2FF" d="m33.36 25.44.81-9.29-1.6-.14-.82 9.3 1.6.13Z"/><path fill="#00ADFF" d="m33.47 25.47.98-9.28-1.6-.17-.98 9.28 1.6.17Z"/><path fill="#00A9FF" d="m33.59 25.5 1.13-9.26-1.6-.2L32 25.3l1.6.2Z"/><path fill="#00A5FF" d="M33.7 25.52 35 16.3l-1.6-.23-1.3 9.24 1.6.22Z"/><path fill="#00A1FF" d="m33.81 25.55 1.46-9.2-1.59-.26-1.46 9.21 1.6.25Z"/><path fill="#009CFF" d="m33.93 25.59 1.62-9.19-1.6-.28-1.61 9.19 1.59.28Z"/><path fill="#0098FF" d="m34.04 25.62 1.78-9.16-1.59-.3-1.78 9.15 1.59.31Z"/><path fill="#0094FF" d="m34.15 25.66 1.94-9.13-1.58-.33-1.94 9.12 1.58.34Z"/><path fill="#0090FF" d="m34.26 25.7 2.1-9.1-1.57-.36-2.1 9.1 1.57.36Z"/><path fill="#008BFF" d="m34.37 25.74 2.25-9.05-1.56-.4-2.26 9.06 1.57.39Z"/><path fill="#0087FF" d="m34.48 25.78 2.41-9.01-1.56-.42-2.41 9.01 1.56.42Z"/><path fill="#0083FF" d="m34.59 25.82 2.57-8.96-1.55-.45-2.57 8.97 1.55.44Z"/><path fill="#007FFF" d="m34.7 25.87 2.72-8.92-1.54-.47-2.73 8.92 1.54.47Z"/><path fill="#007BFF" d="m34.8 25.92 2.88-8.87-1.53-.5-2.88 8.87 1.53.5Z"/><path fill="#0076FF" d="m34.9 25.97 3.04-8.82-1.52-.53-3.04 8.82 1.53.53Z"/><path fill="#0072FF" d="m35.01 26.02 3.19-8.77-1.51-.55-3.2 8.77 1.52.55Z"/><path fill="#006EFF" d="m35.11 26.07 3.35-8.7-1.5-.58-3.35 8.7 1.5.58Z"/><path fill="#006AFF" d="m35.22 26.13 3.5-8.65-1.5-.6-3.5 8.64 1.5.6Z"/><path fill="#0065FF" d="m35.32 26.18 3.64-8.58-1.48-.63-3.64 8.58 1.48.63Z"/><path fill="#0061FF" d="m35.42 26.24 3.8-8.52-1.48-.65-3.8 8.52 1.48.65Z"/><path fill="#005DFF" d="m35.52 26.3 3.94-8.45-1.46-.68-3.94 8.45 1.46.68Z"/><path fill="#0059FF" d="m35.62 26.37 4.09-8.39-1.45-.7-4.09 8.38 1.45.7Z"/><path fill="#0054FF" d="m35.72 26.43 4.23-8.31-1.43-.73-4.24 8.3 1.44.74Z"/><path fill="#0050FF" d="m35.81 26.5 4.38-8.24-1.42-.76-4.38 8.24 1.42.76Z"/><path fill="#004CFF" d="m35.9 26.56 4.53-8.16-1.4-.78-4.53 8.16 1.4.78Z"/><path fill="#0048FF" d="m36 26.63 4.67-8.08-1.4-.8-4.66 8.08 1.4.8Z"/><path fill="#0043FF" d="m36.1 26.7 4.8-8-1.38-.82-4.8 8 1.38.82Z"/><path fill="#003FFF" d="m36.19 26.77 4.94-7.9-1.37-.86-4.94 7.91 1.37.85Z"/><path fill="#003BFF" d="m36.28 26.85 5.08-7.82-1.35-.88-5.08 7.82 1.35.88Z"/><path fill="#0037FF" d="m36.37 26.92 5.21-7.73-1.33-.9-5.22 7.73 1.34.9Z"/><path fill="#0032FF" d="m36.46 27 5.35-7.64-1.32-.92-5.35 7.64 1.32.92Z"/><path fill="#002EFF" d="m36.54 27.08 5.48-7.55-1.3-.94-5.48 7.54 1.3.95Z"/><path fill="#002AFF" d="m36.63 27.16 5.61-7.45-1.29-.97-5.61 7.45 1.29.97Z"/><path fill="#0026FF" d="m36.71 27.24 5.74-7.35-1.27-1-5.74 7.36 1.27 1Z"/><path fill="#02F" d="m36.8 27.32 5.86-7.25-1.25-1.01-5.87 7.25 1.25 1.01Z"/><path fill="#383838" d="M32.47 47.44h-.91a15.52 15.52 0 0 1-14.01-10.03 15.13 15.13 0 0 1-.95-4.38.78.78 0 0 0-.04-.24v-1.6a.7.7 0 0 0 .04-.22 15.23 15.23 0 0 1 3.62-8.96A15.48 15.48 0 0 1 30.7 16.6c.17-.02.34 0 .5-.04h1.58c.12.03.24.01.36.02a15.26 15.26 0 0 1 10.63 5.4 15.17 15.17 0 0 1 3.65 9.4l.01.15v.91l-.02.19v.44a15.3 15.3 0 0 1-5.21 10.52 15.45 15.45 0 0 1-9.26 3.8c-.16.02-.32.02-.48.05Z"/><path fill="url(#a)" d="M27.98 25.6c0 .28.04.59.13.9.16.59.42 1.13.73 1.64.71 1.16 1.6 2.16 2.57 3.08.08.07.18.14.28.19.1.05.2.05.3 0a.8.8 0 0 0 .27-.19l1-1.05c.44-.51.87-1.04 1.25-1.6a8.3 8.3 0 0 0 .9-1.64c.23-.57.35-1.17.27-1.8a4.07 4.07 0 0 0-1.3-2.6 3.61 3.61 0 0 0-3.12-.96 4.01 4.01 0 0 0-3.28 4.02Z" style="mix-blend-mode:lighten"/><path fill="url(#b)" d="M37.85 39.72c-.24 0-.5-.02-.78-.08a3.4 3.4 0 0 1-2-1.18c-.3-.39-.57-.81-.8-1.26a17.73 17.73 0 0 1-1.3-3.68c-.08-.39.02-.63.45-.77a18.2 18.2 0 0 1 1.65-.44c.93-.2 1.86-.34 2.82-.3.27 0 .54.03.8.08.77.14 1.43.5 1.96 1.05a3.87 3.87 0 0 1-2.8 6.58Z"/><path fill="url(#c)" d="M25.83 39.72c.24 0 .51-.02.78-.08a3.4 3.4 0 0 0 2-1.18c.31-.39.58-.81.8-1.26a17.73 17.73 0 0 0 1.3-3.68c.09-.39-.01-.63-.44-.77-.55-.17-1.1-.32-1.66-.44-.92-.2-1.86-.34-2.81-.3-.27 0-.54.03-.8.08-.78.14-1.43.5-1.97 1.05a3.87 3.87 0 0 0 2.8 6.58Z"/><defs><radialGradient id="a" cx="0" cy="0" r="1" gradientTransform="matrix(4 0 -1 8 31.92 30.93)" gradientUnits="userSpaceOnUse"><stop stop-color="#fff"/><stop offset="1" stop-color="#009BD8"/></radialGradient><radialGradient id="b" cx="0" cy="0" r="1" gradientTransform="matrix(8 3 -2 4 32.99 33.28)" gradientUnits="userSpaceOnUse"><stop stop-color="#fff"/><stop offset="1" stop-color="#FF3044"/></radialGradient><radialGradient id="c" cx="0" cy="0" r="1" gradientTransform="matrix(-8 5 -2 -3 30.65 32.95)" gradientUnits="userSpaceOnUse"><stop stop-color="#fff"/><stop offset="1" stop-color="#FCFF7C"/></radialGradient></defs></svg>