<svg xmlns="http://www.w3.org/2000/svg" fill="none" viewBox="0 0 64 64"><path fill="#010B17" d="M0 0h64v64H0z"/><path fill="#008CFF" d="M17.01 27.7h5.28c1.09 0 2.17-.02 3.26.03.43.08.88.06 1.3.2 1.22.23 2.4.75 3.33 1.6.13.14.28.26.43.4.2.32.47.6.63.94.13.27.32.52.38.82.37.86.5 1.82.48 2.75 0 .79-.03 1.6-.3 2.35a5.7 5.7 0 0 1-1.71 2.79c-.17.13-.32.27-.47.41-.4.2-.78.46-1.2.63-.56.23-1.14.43-1.75.5-.73.2-1.49.2-2.24.2h-3.76c-.04.33 0 .67 0 1l-.01 2.74c.03.97 0 1.94-.03 2.9-.5.07-1 .02-1.49.04-.7-.02-1.42.03-2.13-.03V27.7Zm3.7 3.3.01 6.8h2.64c.8 0 1.59.01 2.37-.07a3.62 3.62 0 0 0 2.08-.9c.56-.55.76-1.37.76-2.14.02-.72.02-1.48-.33-2.13-.2-.46-.62-.79-1.04-1.04-.54-.3-1.17-.37-1.77-.47-.52-.06-1.04-.04-1.56-.04h-3.15Zm12.99-3.3h2.7c.3 0 .6-.02.9.03-.02 3.1 0 6.2 0 9.32 0 2.48-.02 4.97 0 7.45h9.66c.07.5.02 1 .04 1.51-.01.66.02 1.31-.02 1.97-.86.04-1.72 0-2.58.02h-8.76c-.66-.02-1.33.03-1.99-.03.02-.57-.05-1.14-.04-1.7V28.13c0-.15.04-.3.08-.44ZM17 16h6.24c.83 0 1.71.23 2.3.86.7.73.88 1.79.9 2.77a4.51 4.51 0 0 1-.78 2.95 3 3 0 0 1-2.36.99H17V16Zm1.07 1.08v5.34h5.17c.59 0 1.23-.18 1.6-.67.42-.59.47-1.36.48-2.06-.02-.68-.08-1.42-.52-1.97-.36-.47-1-.63-1.56-.64h-5.17Zm9.6-1.05c.2-.08.4.01.56.14.82.62 1.65 1.22 2.46 1.84.28.22.18.68-.12.8-.24.13-.5-.01-.69-.17l-2.24-1.67c-.11-.08-.23-.17-.28-.3-.1-.25.06-.56.3-.64Zm8.25 0c.27-.1.6.08.66.36.06.22-.08.43-.26.55-.82.6-1.64 1.23-2.47 1.83-.27.2-.72.04-.78-.3-.05-.2.06-.4.23-.52l2.35-1.75c.09-.06.17-.13.27-.17Zm4.41-.01c.77-.04 1.54-.01 2.3-.02.81.01 1.65-.07 2.43.23a2.6 2.6 0 0 1 1.46 1.38c.4.89.44 1.89.37 2.84a3.54 3.54 0 0 1-1.04 2.42c-.59.51-1.38.7-2.14.7h-3.1a3.04 3.04 0 0 1-2.23-.86c-.68-.71-.87-1.74-.9-2.7a4.7 4.7 0 0 1 .73-2.95 2.83 2.83 0 0 1 2.12-1.04Zm.31 1.08c-.56.04-1.14.26-1.51.7a3 3 0 0 0-.59 1.95 3 3 0 0 0 .59 1.96c.42.5 1.1.7 1.74.71h2.77c.5 0 1.03-.09 1.42-.42.39-.32.58-.82.66-1.3.1-.67.1-1.35-.03-2.02-.1-.5-.33-1.01-.78-1.29a2.9 2.9 0 0 0-1.64-.3c-.88 0-1.76-.02-2.63 0ZM30.2 20.5c.32-.16.7.17.66.51-.04.25-.27.38-.45.51l-2.21 1.65c-.14.1-.31.18-.48.13a.5.5 0 0 1-.36-.65c.05-.14.17-.22.28-.3l1.99-1.48c.18-.13.35-.3.56-.38Zm3.2-.02c.18-.07.38 0 .53.12l2.43 1.8c.16.11.27.32.22.52a.5.5 0 0 1-.6.38c-.16-.04-.28-.15-.4-.24l-2.25-1.67c-.11-.08-.22-.18-.25-.32a.5.5 0 0 1 .32-.59Z"/></svg>