<svg xmlns="http://www.w3.org/2000/svg" fill="none" viewBox="0 0 64 65"><path fill="#FFC5B4" d="M0 .6h64v64H0z"/><path fill="#F24E1E" d="M37.14 28.57h-6.12V16.6h6.12a6 6 0 0 1 0 11.97Zm-4.16-1.96h4.16a4.03 4.03 0 0 0 0-8.05h-4.16v8.05Zm0 1.96h-6.12a6 6 0 0 1 0-11.97h6.12v11.97Zm-6.12-10a4.03 4.03 0 0 0 0 8.04h4.16v-8.05h-4.16Zm6.12 20.02h-6.12a6 6 0 0 1 0-11.98h6.12V38.6Zm-6.12-10.02a4.03 4.03 0 0 0 0 8.06h4.16v-8.06h-4.16Zm.04 20.03a6 6 0 1 1-.03-11.97h6.11v5.92a6.07 6.07 0 0 1-6.08 6.05Zm-.04-10.01a4.03 4.03 0 1 0 .04 8.05 4.11 4.11 0 0 0 4.12-4.1V38.6h-4.16Zm10.28 0H37a6 6 0 0 1 0-11.98h.13a6 6 0 0 1 0 11.98ZM37 28.57a4.03 4.03 0 0 0 0 8.06h.13a4.03 4.03 0 0 0 0-8.06H37Z"/></svg>