<svg xmlns="http://www.w3.org/2000/svg" fill="none" viewBox="0 0 64 65"><path fill="#FFDDC9" d="M0 .4h64v64H0z"/><path stroke="#FF7629" stroke-linecap="round" stroke-linejoin="round" stroke-width="2.19" d="M38.7 31.04a23.3 23.3 0 0 1-1.5 5.46 29.88 29.88 0 0 1-4.36 7.17c-1.88 2.25-4.1 4.02-5.68 4.55-1.58.53-2.53-.18-3.25-1.11-.72-.93-1.2-2.08-1.55-4.4-.33-2.3-.52-5.79-.18-8.86.33-3.07 1.19-5.73 2.04-8.39-.91.16-1.83.31-2.05-.2-.22-.51.26-1.7 1.03-2.72a6.82 6.82 0 0 1 2.98-2.32 5.65 5.65 0 0 1 3.48-.07c1.1.31 2.06.9 2.8 1.5.73.6 1.25 1.22 1.77 1.84"/><path stroke="#FF7629" stroke-linecap="round" stroke-linejoin="round" stroke-width="2.19" d="M34.23 23.49c1.04-.1 2.08-.2 3.1-.02a5.42 5.42 0 0 1 4.4 4.11c.3 1.07.35 2.2.16 3.23-.2 1.02-.63 1.93-1.2 1.95-.57.02-1.27-.85-1.98-1.72-.51-.68-1.02-1.36-1.39-1.89-.36-.53-.58-.91-1.1-.57-.52.35-1.35 1.43-2.12 2.1a3.5 3.5 0 0 1-2.09 1 2.17 2.17 0 0 1-1.64-.54c-.51-.42-1-1.09-1.33-2.07-.33-1-.49-2.3-.51-3.12-.03-.83.07-1.17-.62-1.17-.7 0-2.2.34-3.69.68m10.4-3.55c.16-.66.33-1.31.58-1.92a7.1 7.1 0 0 1 2.24-2.86c.42-.32.82-.52 1.22-.73"/></svg>