<svg xmlns="http://www.w3.org/2000/svg" fill="none" viewBox="0 0 64 65"><path fill="#D9FFF3" d="M0 .8h64v64H0z"/><path fill="#16C58D" d="M32 49c8.837 0 16-7.163 16-16s-7.163-16-16-16-16 7.163-16 16 7.163 16 16 16Z"/><path fill="#D9FFF3" d="M32 47.801c8.173 0 14.8-6.626 14.8-14.8S40.173 18.2 32 18.2c-8.175 0-14.801 6.626-14.801 14.8s6.626 14.8 14.8 14.8Z"/><path fill="#16C58D" d="M26.55 45.248c-4.702-2.09-7.982-6.8-7.982-12.278 0-5.478 3.28-10.19 7.983-12.28v24.558Zm5.449-25.708c1.568 0 3.074.269 4.473.763v20.151h-8.3V20.093a13.434 13.434 0 0 1 3.827-.554Zm6.094 1.458c4.354 2.221 7.337 6.748 7.337 11.972 0 .786-.068 1.556-.198 2.305h-7.14V20.998Z"/></svg>