<svg xmlns="http://www.w3.org/2000/svg" fill="none" viewBox="0 0 64 65"><path fill="#CEF8FF" d="M0 .8h64v64H0z"/><path fill="#06B6D4" d="M32 23.2c-4.27 0-6.93 2.13-8 6.4 1.6-2.13 3.47-2.93 5.6-2.4 1.22.3 2.09 1.19 3.05 2.17 1.57 1.59 3.39 3.43 7.35 3.43 4.27 0 6.93-2.13 8-6.4-1.6 2.13-3.47 2.93-5.6 2.4-1.22-.3-2.09-1.19-3.05-2.17-1.57-1.59-3.38-3.43-7.35-3.43Zm-8 9.6c-4.27 0-6.93 2.13-8 6.4 1.6-2.13 3.47-2.93 5.6-2.4 1.22.3 2.09 1.19 3.05 2.17 1.57 1.59 3.39 3.43 7.35 3.43 4.27 0 6.93-2.13 8-6.4-1.6 2.13-3.47 2.93-5.6 2.4-1.22-.3-2.09-1.19-3.05-2.17-1.57-1.59-3.38-3.43-7.35-3.43Z"/></svg>