<svg xmlns="http://www.w3.org/2000/svg" fill="none" viewBox="0 0 64 65"><path fill="#ADDEFF" d="M0 .8h64v64H0z"/><path fill="#087ECE" fill-rule="evenodd" d="M38.67 48.78a2 2 0 0 0 1.59-.06l6.59-3.17a2 2 0 0 0 1.13-1.8v-21.5a2 2 0 0 0-1.13-1.8l-6.59-3.17a2 2 0 0 0-2.27.39l-12.62 11.5L19.88 25a1.33 1.33 0 0 0-1.7.08l-1.76 1.6a1.33 1.33 0 0 0 0 1.97L21.18 33l-4.76 4.35a1.33 1.33 0 0 0 0 1.97l1.76 1.6c.47.43 1.19.47 1.7.08l5.5-4.17 12.6 11.5c.2.2.44.35.7.45ZM40 25.74 30.42 33l9.57 7.26V25.74Z" clip-rule="evenodd"/></svg>