<svg xmlns="http://www.w3.org/2000/svg" viewBox="0 0 128 128"><svg xmlns="http://www.w3.org/2000/svg" fill="none" viewBox="0 0 128 128"><path fill="#FF3030" d="M19.5 34v26.5h-2.6V48H2.6v12.4H0V34h2.6v11.9H17V34h2.6ZM40 54.2l-6-16.5-6 16.5-2.3 6.3H23l9.6-26.2h3L45 60.5h-2.8L40 54.2ZM51.1 58.3h9.4v2.2h-12V34H51v24.3ZM66.2 58.3h9.4v2.2h-12V34h2.6v24.3ZM81.2 34v26.5h-2.6V34h2.6ZM106.2 60.5h-2.6L89 38.2v22.3h-2.6V34H89l14.6 22.2V34h2.6v26.5ZM124.2 60.8a4 4 0 0 1-2.8-1c-.7-.7-1-1.5-1-2.5s.3-1.9 1-2.5c.8-.7 1.7-1 2.8-1 1.1 0 2 .3 2.7 1 .7.6 1.1 1.5 1.1 2.5s-.4 1.8-1 2.5c-.8.7-1.7 1-2.8 1ZM31 66.3V93h-7.4V78.3l-5 14.7h-6.2l-5-14.9V93H0V66.3h9l6.6 17.3L22 66.3h8.8ZM41.7 72.2v4.4h8.5v5.6h-8.5v4.9h9.6V93h-17V66.3h17v6h-9.6ZM64.7 66.3c2.7 0 5.2.6 7.2 1.7 2.1 1.1 3.8 2.7 4.9 4.7a14 14 0 0 1 1.7 7c0 2.5-.6 4.8-1.8 6.8-1 2-2.7 3.6-4.8 4.8-2 1.1-4.5 1.7-7.2 1.7H54.2V66.3h10.5ZM64 86.4a7 7 0 0 0 5-1.7 6.7 6.7 0 0 0 1.9-5c0-2.3-.6-4-1.8-5.2a6.9 6.9 0 0 0-5.1-1.8h-2.6v13.7h2.6ZM88.4 66.3V93H81V66.3h7.4ZM107.4 87l-8.2 3.5-1.4 2.5H90l9.7-26.7h8.5l9.6 26.7H110l-2.6-6Zm-.9-6-2.6-6.7-3.4 9.9 6-3.3Z"/></svg></svg>