<svg xmlns="http://www.w3.org/2000/svg" viewBox="0 0 128 128"><svg xmlns="http://www.w3.org/2000/svg" fill="none" viewBox="0 0 128 128"><rect width="128" height="128" fill="#FF3030" rx="8"/><path fill="#fff" d="M30.77 42v20.2h-2v-9.45H18v9.45h-2V42h2v9.08h10.78V42h1.99Zm15.5 15.4-4.53-12.6-4.52 12.6-1.74 4.8h-2.1l7.25-19.94h2.25l7.23 19.94h-2.1l-1.74-4.8Zm8.46 3.16h7.14v1.64h-9.13V42h1.99v18.56Zm11.41 0h7.14v1.64h-9.13V42h1.99v18.56ZM77.54 42v20.2h-1.99V42h2Zm18.94 20.2H94.5l-11.01-17v17h-2V42h2L94.5 58.97V42h2v20.2Zm13.65.24a3 3 0 0 1-2.11-.76 2.57 2.57 0 0 1-.8-1.9c0-.77.27-1.42.8-1.94a2.94 2.94 0 0 1 2.1-.78c.84 0 1.52.26 2.05.78.55.52.83 1.17.83 1.94 0 .75-.28 1.38-.83 1.9-.53.5-1.2.76-2.04.76Zm-70.7 4.18V87h-5.57V75.76L30.07 87H25.4l-3.8-11.33V87H16V66.62h6.75l5.04 13.24 4.92-13.24h6.71Zm8.19 4.54v3.32h6.4v4.31h-6.4v3.67h7.25V87H42.04V66.62h12.83v4.54h-7.25ZM65 66.62c2.1 0 3.94.44 5.52 1.3a8.85 8.85 0 0 1 3.67 3.59c.85 1.54 1.28 3.3 1.28 5.29 0 1.96-.44 3.72-1.3 5.26a9.22 9.22 0 0 1-3.68 3.64 11.2 11.2 0 0 1-5.5 1.3h-7.93V66.62H65ZM64.57 82c1.63 0 2.91-.45 3.84-1.36.93-.9 1.4-2.19 1.4-3.84 0-1.68-.47-2.97-1.4-3.88a5.2 5.2 0 0 0-3.84-1.38h-1.93V82h1.93ZM83 66.62V87h-5.6V66.62H83ZM97.42 82.4l-6.24 2.7L90.1 87h-5.87l7.32-20.38h6.43L105.26 87h-5.89l-1.95-4.6Zm-.7-4.61-1.99-5.04-2.54 7.52 4.53-2.48Z"/></svg></svg>