<svg xmlns="http://www.w3.org/2000/svg" fill="none" viewBox="0 0 64 29"><path fill="#fff" d="M9.74 0v13.02H8.43v-6.1H1.31v6.1H0V0h1.31v5.85h7.12V0h1.31ZM19.97 9.93 17 1.8 14 9.93l-1.14 3.1h-1.4L16.27.16h1.48l4.77 12.85h-1.4l-1.14-3.1ZM25.55 11.96h4.72v1.06h-6.03V0h1.31v11.96ZM33.08 11.96h4.71v1.06h-6.02V0h1.31v11.96ZM40.6 0v13.02h-1.3V0h1.3ZM53.1 13.02H51.8L44.52 2.07v10.95h-1.31V0h1.31l7.27 10.93V0h1.31v13.02ZM62.1 13.17c-.56 0-1.02-.16-1.39-.48a1.64 1.64 0 0 1-.52-1.23c0-.5.17-.92.52-1.25.37-.34.83-.5 1.4-.5.54 0 1 .16 1.35.5.36.33.54.75.54 1.25 0 .48-.18.89-.54 1.23-.35.32-.8.48-1.36.48ZM15.46 15.87V29h-3.68v-7.25L9.28 29H6.21l-2.52-7.3V29H0V15.87h4.45l3.32 8.53 3.25-8.53h4.43ZM20.86 18.8v2.13h4.22v2.78h-4.22v2.37h4.79V29h-8.47V15.87h8.47v2.92h-4.79ZM32.33 15.87c1.39 0 2.6.28 3.64.84A5.78 5.78 0 0 1 38.4 19c.57 1 .85 2.14.85 3.41s-.29 2.4-.87 3.4a6.02 6.02 0 0 1-2.42 2.34 7.53 7.53 0 0 1-3.62.84h-5.24V15.87h5.24Zm-.28 9.9c1.07 0 1.92-.28 2.53-.87.62-.58.92-1.4.92-2.48s-.3-1.9-.92-2.5c-.61-.59-1.46-.89-2.53-.89h-1.28v6.75h1.28ZM44.2 15.87V29h-3.68V15.87h3.68ZM53.72 26.03l-4.12 1.74L48.9 29h-3.87l4.82-13.13h4.25L58.89 29h-3.88l-1.3-2.97Zm-.46-2.97-1.31-3.24-1.68 4.84 2.99-1.6Z"/></svg>